<svg width="51" height="51" viewBox="0 0 51 51" fill="none" xmlns="http://www.w3.org/2000/svg">
<g clip-path="url(#clip0_2354_1134)">
<g filter="url(#filter0_d_2354_1134)">
<path d="M25.5 9.27094C19.125 5.80507 6.375 2.61332 6.375 17.5882C6.375 29.2587 8.8995 38.3197 12.7606 43.3878C14.1313 45.1877 17.4696 44.6288 18.8976 42.8247C19.0563 42.6129 19.181 42.3778 19.2674 42.1277L21.5263 36.1777C22.916 32.5227 28.084 32.5227 29.4737 36.1777L31.7326 42.1277C31.8282 42.3742 31.9388 42.6164 32.1024 42.8247C33.5304 44.6309 36.8688 45.1877 38.2394 43.3878C42.1005 38.3197 44.625 29.2608 44.625 17.5882C44.625 2.61544 31.875 5.80507 25.5 9.27094ZM25.5 9.27094L31.875 12.7496" stroke="white" stroke-width="4.25" stroke-linecap="round" stroke-linejoin="round" shape-rendering="crispEdges"/>
</g>
</g>
<defs>
<filter id="filter0_d_2354_1134" x="0.25" y="4.24902" width="50.5" height="50.3652" filterUnits="userSpaceOnUse" color-interpolation-filters="sRGB">
<feFlood flood-opacity="0" result="BackgroundImageFix"/>
<feColorMatrix in="SourceAlpha" type="matrix" values="0 0 0 0 0 0 0 0 0 0 0 0 0 0 0 0 0 0 127 0" result="hardAlpha"/>
<feOffset dy="4"/>
<feGaussianBlur stdDeviation="2"/>
<feComposite in2="hardAlpha" operator="out"/>
<feColorMatrix type="matrix" values="0 0 0 0 0 0 0 0 0 0 0 0 0 0 0 0 0 0 0.25 0"/>
<feBlend mode="normal" in2="BackgroundImageFix" result="effect1_dropShadow_2354_1134"/>
<feBlend mode="normal" in="SourceGraphic" in2="effect1_dropShadow_2354_1134" result="shape"/>
</filter>
<clipPath id="clip0_2354_1134">
<rect width="51" height="51" fill="white"/>
</clipPath>
</defs>
</svg>
