<svg width="62" height="62" viewBox="0 0 62 62" fill="none" xmlns="http://www.w3.org/2000/svg">
<g filter="url(#filter0_d_2354_1170)">
<path d="M12.8145 29.5439L34.3945 10.3668C36.8966 8.19446 40.2639 6.98472 43.7656 7.00015C47.2673 7.01557 50.6209 8.25492 53.0986 10.4492C55.5762 12.6435 56.978 15.6157 56.9997 18.7208C57.0215 21.8259 55.6614 24.8133 53.2146 27.0347L48.3034 31.543L31.6579 46.3032L26.5938 50.6434C24.0886 52.813 20.7196 54.019 17.2179 53.9998C13.7162 53.9805 10.3644 52.7375 7.8898 50.5405C5.41521 48.3434 4.01756 45.3697 4.00016 42.2646C3.98277 39.1595 5.34703 36.1736 7.79687 33.9548L7.80019 33.949L12.8045 29.5498L12.8078 29.5439H12.8145ZM31.8009 21.1171C31.6465 20.98 31.4632 20.8712 31.2615 20.797C31.0597 20.7227 30.8434 20.6844 30.625 20.6843C30.4065 20.6842 30.1902 20.7222 29.9883 20.7962C29.7864 20.8702 29.6029 20.9787 29.4484 21.1156C29.2938 21.2525 29.1711 21.415 29.0874 21.5939C29.0036 21.7728 28.9605 21.9646 28.9603 22.1583C28.9602 22.352 29.003 22.5439 29.0865 22.7229C29.1699 22.9019 29.2923 23.0646 29.4467 23.2017C29.7603 23.4702 30.1802 23.6188 30.6162 23.6154C31.0521 23.6121 31.4691 23.457 31.7773 23.1837C32.0856 22.9104 32.2604 22.5406 32.2642 22.1541C32.268 21.7675 32.1004 21.3951 31.7976 21.1171H31.8009ZM27.0925 27.3708C27.2513 27.2348 27.378 27.0722 27.4651 26.8923C27.5522 26.7124 27.5981 26.519 27.6 26.3232C27.6019 26.1275 27.5599 25.9334 27.4763 25.7522C27.3927 25.571 27.2692 25.4064 27.1131 25.268C26.957 25.1296 26.7714 25.0201 26.5671 24.946C26.3628 24.8718 26.1438 24.8345 25.9231 24.8362C25.7023 24.8379 25.4842 24.8786 25.2813 24.9559C25.0785 25.0331 24.895 25.1454 24.7417 25.2862C24.4388 25.5643 24.2712 25.9367 24.275 26.3232C24.2788 26.7098 24.4537 27.0795 24.7619 27.3529C25.0702 27.6262 25.4872 27.7813 25.9231 27.7846C26.359 27.788 26.779 27.6394 27.0925 27.3708ZM22.3908 31.543C22.703 31.2665 22.8785 30.8915 22.8789 30.5002C22.8792 30.109 22.7042 29.7337 22.3925 29.4569C22.0807 29.1801 21.6577 29.0244 21.2166 29.0241C20.7754 29.0239 20.3521 29.179 20.0399 29.4554C19.8854 29.5923 19.7627 29.7548 19.679 29.9338C19.5952 30.1127 19.552 30.3045 19.5519 30.4982C19.5516 30.8894 19.7265 31.2647 20.0383 31.5415C20.35 31.8183 20.773 31.974 21.2142 31.9743C21.6554 31.9746 22.0786 31.8194 22.3908 31.543ZM31.7942 39.8813C31.953 39.7453 32.0797 39.5827 32.1668 39.4028C32.254 39.2229 32.2998 39.0295 32.3017 38.8337C32.3037 38.638 32.2616 38.4439 32.178 38.2627C32.0944 38.0815 31.9709 37.9169 31.8148 37.7785C31.6587 37.6401 31.4731 37.5306 31.2688 37.4565C31.0645 37.3823 30.8455 37.345 30.6248 37.3467C30.404 37.3484 30.1859 37.3891 29.983 37.4664C29.7802 37.5436 29.5967 37.6559 29.4434 37.7967C29.1405 38.0748 28.973 38.4472 28.9767 38.8337C28.9805 39.2203 29.1554 39.59 29.4636 39.8634C29.7719 40.1367 30.1889 40.2918 30.6248 40.2951C31.0607 40.2985 31.4807 40.1499 31.7942 39.8813ZM36.496 33.6276C36.3426 33.4868 36.1591 33.3744 35.9563 33.2972C35.7535 33.2199 35.5353 33.1793 35.3145 33.1775C35.0938 33.1758 34.8749 33.2132 34.6705 33.2873C34.4662 33.3614 34.2806 33.4709 34.1245 33.6093C33.9684 33.7477 33.8449 33.9123 33.7613 34.0935C33.6777 34.2747 33.6357 34.4688 33.6376 34.6646C33.6395 34.8603 33.6854 35.0538 33.7725 35.2336C33.8596 35.4135 33.9863 35.5762 34.1451 35.7122C34.4587 35.9807 34.8786 36.1293 35.3145 36.1259C35.7505 36.1226 36.1674 35.9675 36.4757 35.6942C36.784 35.4209 36.9588 35.0511 36.9626 34.6646C36.9664 34.278 36.7988 33.9056 36.496 33.6276ZM41.1977 31.543C41.3567 31.4072 41.4836 31.2447 41.571 31.0649C41.6584 30.8852 41.7045 30.6918 41.7068 30.496C41.709 30.3003 41.6672 30.1061 41.5839 29.9248C41.5006 29.7436 41.3774 29.5788 41.2216 29.4402C41.0657 29.3016 40.8802 29.1919 40.676 29.1175C40.4718 29.0431 40.253 29.0055 40.0322 29.007C39.8115 29.0084 39.5933 29.0488 39.3903 29.1258C39.1874 29.2028 39.0037 29.3148 38.8501 29.4554C38.538 29.7319 38.3624 30.1069 38.3621 30.4982C38.3618 30.8894 38.5367 31.2647 38.8485 31.5415C39.1602 31.8183 39.5832 31.974 40.0244 31.9743C40.4656 31.9746 40.8888 31.8194 41.201 31.543H41.1977ZM27.0925 33.6276C26.9392 33.4868 26.7557 33.3744 26.5529 33.2972C26.35 33.2199 26.1319 33.1793 25.9111 33.1775C25.6904 33.1758 25.4714 33.2132 25.2671 33.2873C25.0628 33.3614 24.8772 33.4709 24.7211 33.6093C24.565 33.7477 24.4415 33.9123 24.3579 34.0935C24.2743 34.2747 24.2322 34.4688 24.2342 34.6646C24.2361 34.8603 24.2819 35.0538 24.3691 35.2336C24.4562 35.4135 24.5829 35.5762 24.7417 35.7122C25.0552 35.9807 25.4752 36.1293 25.9111 36.1259C26.347 36.1226 26.764 35.9675 27.0723 35.6942C27.3805 35.4209 27.5554 35.0511 27.5592 34.6646C27.5629 34.278 27.3954 33.9056 27.0925 33.6276ZM31.7942 31.543C31.9488 31.4061 32.0715 31.2436 32.1552 31.0647C32.239 30.8857 32.2821 30.694 32.2823 30.5002C32.2824 30.3065 32.2396 30.1147 32.1561 29.9357C32.0727 29.7567 31.9503 29.594 31.7959 29.4569C31.6415 29.3198 31.4582 29.2111 31.2565 29.1368C31.0547 29.0626 30.8384 29.0243 30.62 29.0241C30.4015 29.024 30.1852 29.062 29.9833 29.136C29.7814 29.21 29.598 29.3186 29.4434 29.4554C29.1312 29.7319 28.9556 30.1069 28.9553 30.4982C28.955 30.8894 29.13 31.2647 29.4417 31.5415C29.7535 31.8183 30.1764 31.974 30.6176 31.9743C31.0588 31.9746 31.4821 31.8194 31.7942 31.543ZM36.496 25.2862C36.3426 25.1454 36.1591 25.0331 35.9563 24.9559C35.7535 24.8786 35.5353 24.8379 35.3145 24.8362C35.0938 24.8345 34.8749 24.8718 34.6705 24.946C34.4662 25.0201 34.2806 25.1296 34.1245 25.268C33.9684 25.4064 33.8449 25.571 33.7613 25.7522C33.6777 25.9334 33.6357 26.1275 33.6376 26.3232C33.6395 26.519 33.6854 26.7124 33.7725 26.8923C33.8596 27.0722 33.9863 27.2348 34.1451 27.3708C34.4587 27.6394 34.8786 27.788 35.3145 27.7846C35.7505 27.7813 36.1674 27.6262 36.4757 27.3529C36.784 27.0795 36.9588 26.7098 36.9626 26.3232C36.9664 25.9367 36.7988 25.5643 36.496 25.2862ZM32.6521 16.8005L45.9526 28.5945L48.3068 26.5069L35.0063 14.7129L32.6521 16.8005ZM28.3561 44.1979L15.0556 32.4039L12.7014 34.4915L26.0019 46.2855L28.3561 44.1979Z" fill="white"/>
</g>
<defs>
<filter id="filter0_d_2354_1170" x="0" y="7" width="61" height="55" filterUnits="userSpaceOnUse" color-interpolation-filters="sRGB">
<feFlood flood-opacity="0" result="BackgroundImageFix"/>
<feColorMatrix in="SourceAlpha" type="matrix" values="0 0 0 0 0 0 0 0 0 0 0 0 0 0 0 0 0 0 127 0" result="hardAlpha"/>
<feOffset dy="4"/>
<feGaussianBlur stdDeviation="2"/>
<feComposite in2="hardAlpha" operator="out"/>
<feColorMatrix type="matrix" values="0 0 0 0 0 0 0 0 0 0 0 0 0 0 0 0 0 0 0.25 0"/>
<feBlend mode="normal" in2="BackgroundImageFix" result="effect1_dropShadow_2354_1170"/>
<feBlend mode="normal" in="SourceGraphic" in2="effect1_dropShadow_2354_1170" result="shape"/>
</filter>
</defs>
</svg>
