<svg width="58" height="58" viewBox="0 0 58 58" fill="none" xmlns="http://www.w3.org/2000/svg">
<g clip-path="url(#clip0_2354_1174)">
<g filter="url(#filter0_d_2354_1174)">
<path d="M24.6272 3.10742C21.4667 3.16066 18.612 5.04566 17.3206 7.96039L32.7835 12.631C33.4631 8.57664 31.0276 4.64578 27.1081 3.45293C26.4057 3.23996 25.6694 3.12328 24.9331 3.10742H24.6272ZM16.7315 9.91336C16.0405 13.979 18.476 17.9212 22.4069 19.1107C26.3491 20.3001 30.5518 18.3517 32.2057 14.5794L16.7315 9.91336ZM46.8077 14.9306C43.9417 14.9419 40.8944 16.3239 38.5948 19.5751L24.4573 39.6146C20.6624 44.9841 22.3163 50.6029 26.0545 53.2536C29.8042 55.9157 35.6381 55.6099 39.4331 50.2404L53.5592 30.2122C57.3542 24.8314 55.7003 19.2239 51.962 16.5618C50.5573 15.565 48.8694 14.9872 47.0909 14.9306H46.8077ZM46.6038 16.8904C46.751 16.8904 46.8983 16.8904 47.0342 16.9017C48.4049 16.9583 49.6963 17.4454 50.7838 18.2271C53.6952 20.2888 55.1565 24.4009 51.8827 29.0341L44.576 39.3993C40.5206 38.3118 35.3096 34.6075 32.942 31.1298L40.2713 20.7532C42.1858 18.0458 44.4627 16.9357 46.6038 16.8904ZM10.3368 25.5224C9.24701 25.5337 8.17197 25.7603 7.17283 26.2021C3.42209 27.8446 1.47025 32.0361 2.61439 35.9782L17.4225 29.5099C15.9385 27.0064 13.2424 25.4884 10.3368 25.5224ZM18.2268 31.3677L3.42095 37.8474C5.51099 41.4044 9.91197 42.8318 13.6842 41.1892C17.4452 39.5353 19.3936 35.3212 18.2268 31.3677Z" fill="white"/>
</g>
</g>
<defs>
<filter id="filter0_d_2354_1174" x="-1.71143" y="3.10742" width="61.4248" height="59.7822" filterUnits="userSpaceOnUse" color-interpolation-filters="sRGB">
<feFlood flood-opacity="0" result="BackgroundImageFix"/>
<feColorMatrix in="SourceAlpha" type="matrix" values="0 0 0 0 0 0 0 0 0 0 0 0 0 0 0 0 0 0 127 0" result="hardAlpha"/>
<feOffset dy="4"/>
<feGaussianBlur stdDeviation="2"/>
<feComposite in2="hardAlpha" operator="out"/>
<feColorMatrix type="matrix" values="0 0 0 0 0 0 0 0 0 0 0 0 0 0 0 0 0 0 0.25 0"/>
<feBlend mode="normal" in2="BackgroundImageFix" result="effect1_dropShadow_2354_1174"/>
<feBlend mode="normal" in="SourceGraphic" in2="effect1_dropShadow_2354_1174" result="shape"/>
</filter>
<clipPath id="clip0_2354_1174">
<rect width="58" height="58" fill="white"/>
</clipPath>
</defs>
</svg>
