<svg width="58" height="58" viewBox="0 0 58 58" fill="none" xmlns="http://www.w3.org/2000/svg">
<g clip-path="url(#clip0_2354_1129)">
<g filter="url(#filter0_d_2354_1129)">
<path d="M21.7083 31.2208V34.8458C21.7083 35.5306 21.9403 36.1049 22.4043 36.5689C22.8683 37.0329 23.4419 37.2641 24.125 37.2625H26.5417C27.2264 37.2625 27.8008 37.0305 28.2648 36.5665C28.7288 36.1025 28.9599 35.5289 28.9583 34.8458V31.2208H32.5833C33.2681 31.2208 33.8424 30.9888 34.3064 30.5248C34.7704 30.0608 35.0016 29.4873 35 28.8042V26.3875C35 25.7028 34.768 25.1292 34.304 24.6668C33.84 24.2044 33.2664 23.9724 32.5833 23.9708H28.9583V20.3458C28.9583 19.6611 28.7263 19.0876 28.2623 18.6252C27.7983 18.1628 27.2248 17.9308 26.5417 17.9292H24.125C23.4403 17.9292 22.8667 18.1612 22.4043 18.6252C21.9419 19.0892 21.7099 19.6627 21.7083 20.3458V23.9708H18.0833C17.3986 23.9708 16.8251 24.2028 16.3627 24.6668C15.9003 25.1308 15.6683 25.7044 15.6667 26.3875V28.8042C15.6667 29.4889 15.8987 30.0632 16.3627 30.5272C16.8267 30.9912 17.4002 31.2224 18.0833 31.2208H21.7083ZM25.3333 52.7292C25.0514 52.7292 24.7896 52.709 24.5479 52.6687C24.3063 52.6285 24.0646 52.5681 23.8229 52.4875C18.3854 50.675 14.0556 47.3215 10.8333 42.4269C7.61111 37.5324 6 32.2664 6 26.6292V15.2104C6 14.2035 6.29242 13.2972 6.87725 12.4917C7.46208 11.6861 8.21689 11.1021 9.14167 10.7396L23.6417 5.30208C24.2056 5.10069 24.7694 5 25.3333 5C25.8972 5 26.4611 5.10069 27.025 5.30208L41.525 10.7396C42.4514 11.1021 43.207 11.6861 43.7918 12.4917C44.3767 13.2972 44.6683 14.2035 44.6667 15.2104V26.6292C44.6667 32.2681 43.0556 37.5348 39.8333 42.4293C36.6111 47.3239 32.2812 50.6766 26.8438 52.4875C26.6021 52.5681 26.3604 52.6285 26.1187 52.6687C25.8771 52.709 25.6153 52.7292 25.3333 52.7292ZM25.3333 47.8958C29.5222 46.5667 32.9861 43.9083 35.725 39.9208C38.4639 35.9333 39.8333 31.5028 39.8333 26.6292V15.2104L25.3333 9.77292L10.8333 15.2104V26.6292C10.8333 31.5028 12.2028 35.9333 14.9417 39.9208C17.6806 43.9083 21.1444 46.5667 25.3333 47.8958Z" fill="white"/>
</g>
</g>
<defs>
<filter id="filter0_d_2354_1129" x="2" y="5" width="46.6665" height="55.7295" filterUnits="userSpaceOnUse" color-interpolation-filters="sRGB">
<feFlood flood-opacity="0" result="BackgroundImageFix"/>
<feColorMatrix in="SourceAlpha" type="matrix" values="0 0 0 0 0 0 0 0 0 0 0 0 0 0 0 0 0 0 127 0" result="hardAlpha"/>
<feOffset dy="4"/>
<feGaussianBlur stdDeviation="2"/>
<feComposite in2="hardAlpha" operator="out"/>
<feColorMatrix type="matrix" values="0 0 0 0 0 0 0 0 0 0 0 0 0 0 0 0 0 0 0.25 0"/>
<feBlend mode="normal" in2="BackgroundImageFix" result="effect1_dropShadow_2354_1129"/>
<feBlend mode="normal" in="SourceGraphic" in2="effect1_dropShadow_2354_1129" result="shape"/>
</filter>
<clipPath id="clip0_2354_1129">
<rect width="58" height="58" fill="white"/>
</clipPath>
</defs>
</svg>
