<svg width="57" height="57" viewBox="0 0 57 57" fill="none" xmlns="http://www.w3.org/2000/svg">
<g clip-path="url(#clip0_2354_1166)">
<g filter="url(#filter0_d_2354_1166)">
<path d="M28.1649 15.4933C29.1767 15.5087 30.1815 15.3228 31.1208 14.9463C32.06 14.5698 32.915 14.0102 33.636 13.3002C34.357 12.5902 34.9295 11.7438 35.3203 10.8104C35.7111 9.87702 35.9124 8.87521 35.9124 7.8633C35.9124 6.85139 35.7111 5.84958 35.3203 4.91618C34.9295 3.98278 34.357 3.13643 33.636 2.42639C32.915 1.71635 32.06 1.15679 31.1208 0.780289C30.1815 0.403785 29.1767 0.217853 28.1649 0.233313C23.9505 0.233313 20.5323 3.64975 20.5323 7.86241C20.5328 9.8864 21.3371 11.8273 22.7685 13.2584C24.1998 14.6894 26.1409 15.4933 28.1649 15.4933ZM38.2335 17.8151H29.2497V24.9401L30.9018 25.3445V23.6924C30.9018 22.6192 31.8797 21.6448 33.6645 22.8445C36.1788 24.5394 38.8854 34.1661 35.9499 33.7867C34.5329 33.6059 33.7322 32.9184 32.1719 32.8311C30.9045 32.7661 30.9045 32.221 30.9027 31.504C30.9009 30.7871 30.9027 28.4857 30.9027 28.4857V27.2032C30.3516 27.0706 29.8008 26.9361 29.2506 26.7998V35.6107C29.2506 35.6107 31.7274 33.9265 33.4989 35.299C34.6157 36.1674 35.3149 38.6665 31.8601 40.7033C31.063 41.1887 26.723 42.3367 25.3612 39.7806H23.8249C23.4914 39.7806 23.1715 39.9131 22.9357 40.149C22.6998 40.3848 22.5674 40.7047 22.5674 41.0382C22.5674 41.3717 22.6998 41.6916 22.9357 41.9274C23.1715 42.1633 23.4914 42.2957 23.8249 42.2957H32.9227C33.6144 42.2962 34.2777 42.5714 34.7667 43.0607C35.2557 43.55 35.5304 44.2135 35.5304 44.9053C35.5299 45.5968 35.255 46.2598 34.7661 46.7487C34.2771 47.2377 33.6141 47.5126 32.9227 47.513H23.5087C23.3612 47.5245 23.2234 47.5913 23.123 47.6999C23.0225 47.8085 22.9667 47.9511 22.9667 48.0991C22.9667 48.247 23.0225 48.3896 23.123 48.4982C23.2234 48.6068 23.3612 48.6736 23.5087 48.6851H32.9227C34.3601 48.6851 35.5304 49.8554 35.5304 51.2946C35.5304 52.7339 34.3601 53.9024 32.9227 53.9024H21.9127C21.6444 53.9024 21.3871 53.7958 21.1973 53.606C21.0076 53.4163 20.901 53.159 20.901 52.8906C20.901 52.6223 21.0076 52.3649 21.1973 52.1752C21.3871 51.9855 21.6444 51.8789 21.9127 51.8789H32.9227C33.074 51.873 33.2172 51.8087 33.3222 51.6995C33.4272 51.5903 33.4858 51.4448 33.4858 51.2933C33.4858 51.1418 33.4272 50.9962 33.3222 50.8871C33.2172 50.7779 33.074 50.7136 32.9227 50.7077H23.5087C22.8175 50.7065 22.1549 50.4314 21.6661 49.9426C21.1773 49.4538 20.9022 48.7912 20.901 48.1C20.9015 47.4081 21.1762 46.7448 21.6651 46.2553C22.1539 45.7657 22.8169 45.4901 23.5087 45.4886H32.9227C33.0723 45.4804 33.213 45.4151 33.316 45.3063C33.419 45.1975 33.4764 45.0533 33.4764 44.9035C33.4764 44.7537 33.419 44.6095 33.316 44.5007C33.213 44.3919 33.0723 44.3266 32.9227 44.3184H23.8249C22.9556 44.3169 22.1224 43.9708 21.508 43.3559C20.8936 42.741 20.5481 41.9075 20.5474 41.0382C20.5481 40.1688 20.8935 39.3352 21.5079 38.7202C22.1223 38.1051 22.9556 37.7588 23.8249 37.7571H25.8555C25.8689 37.7571 25.8796 37.7642 25.893 37.7642H26.5841C27.2556 37.7642 27.2298 37.0535 27.228 37.0535V26.9058L25.5777 27.3635V28.4848C25.5777 28.4848 25.5795 30.7862 25.5777 31.5032C25.5777 32.2201 25.5723 32.7652 24.3085 32.8311C22.7499 32.9184 21.9493 33.6059 20.5287 33.7867C17.5941 34.1652 20.3025 24.5394 22.8114 22.8436C24.5953 21.643 25.5777 22.6174 25.5777 23.6915V25.487L27.228 25.031V17.8125H18.6397C13.2398 17.8125 8.42334 22.1881 8.42334 27.5871V51.2483C8.42334 53.0946 9.87595 54.5917 11.7178 54.5917C12.1567 54.5917 12.5912 54.5052 12.9967 54.3371C13.4021 54.1691 13.7705 53.9227 14.0806 53.6122C14.3908 53.3017 14.6368 52.9331 14.8044 52.5275C14.972 52.1219 15.0581 51.6872 15.0576 51.2483V29.9143H17.8239V55.7433H38.6235V29.9143H41.4192V51.2483C41.4192 53.0946 42.9146 54.5917 44.76 54.5917C46.6053 54.5917 48.057 53.0946 48.057 51.2483V27.5871C48.0562 22.1908 43.6315 17.8151 38.2335 17.8151Z" fill="white"/>
</g>
</g>
<defs>
<filter id="filter0_d_2354_1166" x="4.42334" y="0.232422" width="47.6338" height="63.5107" filterUnits="userSpaceOnUse" color-interpolation-filters="sRGB">
<feFlood flood-opacity="0" result="BackgroundImageFix"/>
<feColorMatrix in="SourceAlpha" type="matrix" values="0 0 0 0 0 0 0 0 0 0 0 0 0 0 0 0 0 0 127 0" result="hardAlpha"/>
<feOffset dy="4"/>
<feGaussianBlur stdDeviation="2"/>
<feComposite in2="hardAlpha" operator="out"/>
<feColorMatrix type="matrix" values="0 0 0 0 0 0 0 0 0 0 0 0 0 0 0 0 0 0 0.25 0"/>
<feBlend mode="normal" in2="BackgroundImageFix" result="effect1_dropShadow_2354_1166"/>
<feBlend mode="normal" in="SourceGraphic" in2="effect1_dropShadow_2354_1166" result="shape"/>
</filter>
<clipPath id="clip0_2354_1166">
<rect width="57" height="57" fill="white"/>
</clipPath>
</defs>
</svg>
