<svg width="58" height="58" viewBox="0 0 58 58" fill="none" xmlns="http://www.w3.org/2000/svg">
<g filter="url(#filter0_d_2354_1121)">
<path fill-rule="evenodd" clip-rule="evenodd" d="M21.6583 44.6337C14.5461 39.1841 4.8335 30.182 4.8335 21.6705C4.8335 7.45082 18.1252 2.1414 29.0002 13.1227C39.8752 2.1414 53.1668 7.45082 53.1668 21.6705C53.1668 30.182 43.4518 39.1841 36.342 44.6337C33.123 47.0987 31.5135 48.3336 29.0002 48.3336C26.4868 48.3336 24.8773 47.1011 21.6583 44.6337ZM39.8752 15.1044C40.3559 15.1044 40.8169 15.2954 41.1568 15.6353C41.4967 15.9752 41.6877 16.4362 41.6877 16.9169V19.9377H44.7085C45.1892 19.9377 45.6502 20.1287 45.9901 20.4686C46.33 20.8085 46.521 21.2695 46.521 21.7502C46.521 22.2309 46.33 22.692 45.9901 23.0319C45.6502 23.3718 45.1892 23.5627 44.7085 23.5627H41.6877V26.5836C41.6877 27.0643 41.4967 27.5253 41.1568 27.8652C40.8169 28.2051 40.3559 28.3961 39.8752 28.3961C39.3945 28.3961 38.9334 28.2051 38.5935 27.8652C38.2536 27.5253 38.0627 27.0643 38.0627 26.5836V23.5627H35.0418C34.5611 23.5627 34.1001 23.3718 33.7602 23.0319C33.4203 22.692 33.2293 22.2309 33.2293 21.7502C33.2293 21.2695 33.4203 20.8085 33.7602 20.4686C34.1001 20.1287 34.5611 19.9377 35.0418 19.9377H38.0627V16.9169C38.0627 16.4362 38.2536 15.9752 38.5935 15.6353C38.9334 15.2954 39.3945 15.1044 39.8752 15.1044Z" fill="white"/>
</g>
<defs>
<filter id="filter0_d_2354_1121" x="0.833496" y="7.25" width="56.3335" height="49.084" filterUnits="userSpaceOnUse" color-interpolation-filters="sRGB">
<feFlood flood-opacity="0" result="BackgroundImageFix"/>
<feColorMatrix in="SourceAlpha" type="matrix" values="0 0 0 0 0 0 0 0 0 0 0 0 0 0 0 0 0 0 127 0" result="hardAlpha"/>
<feOffset dy="4"/>
<feGaussianBlur stdDeviation="2"/>
<feComposite in2="hardAlpha" operator="out"/>
<feColorMatrix type="matrix" values="0 0 0 0 0 0 0 0 0 0 0 0 0 0 0 0 0 0 0.25 0"/>
<feBlend mode="normal" in2="BackgroundImageFix" result="effect1_dropShadow_2354_1121"/>
<feBlend mode="normal" in="SourceGraphic" in2="effect1_dropShadow_2354_1121" result="shape"/>
</filter>
</defs>
</svg>
