<svg width="63" height="63" viewBox="0 0 63 63" fill="none" xmlns="http://www.w3.org/2000/svg">
<g clip-path="url(#clip0_2354_1182)">
<g filter="url(#filter0_d_2354_1182)">
<path d="M43.4482 7.09668H49.3137C50.3508 7.09668 51.3454 7.50099 52.0787 8.22066C52.8121 8.94034 53.2241 9.91643 53.2241 10.9342V49.3094C53.2241 50.3272 52.8121 51.3033 52.0787 52.023C51.3454 52.7426 50.3508 53.1469 49.3137 53.1469H18.031C16.9939 53.1469 15.9993 52.7426 15.2659 52.023C14.5326 51.3033 14.1206 50.3272 14.1206 49.3094V10.9342C14.1206 9.91643 14.5326 8.94034 15.2659 8.22066C15.9993 7.50099 16.9939 7.09668 18.031 7.09668H23.8965" stroke="white" stroke-width="4.14286" stroke-linecap="round" stroke-linejoin="round"/>
<path d="M39.5375 3.25879H27.8064C26.7694 3.25879 25.7747 3.6631 25.0414 4.38277C24.3081 5.10245 23.8961 6.07854 23.8961 7.09631V9.01507C23.8961 10.0328 24.3081 11.0089 25.0414 11.7286C25.7747 12.4483 26.7694 12.8526 27.8064 12.8526H39.5375C40.5746 12.8526 41.5692 12.4483 42.3025 11.7286C43.0358 11.0089 43.4478 10.0328 43.4478 9.01507V7.09631C43.4478 6.07854 43.0358 5.10245 42.3025 4.38277C41.5692 3.6631 40.5746 3.25879 39.5375 3.25879ZM30.9465 21.3335C30.5005 21.3335 30.0728 21.5074 29.7575 21.8168C29.4422 22.1263 29.265 22.546 29.265 22.9836V27.6155H24.5452C24.0993 27.6155 23.6716 27.7894 23.3563 28.0989C23.0409 28.4083 22.8638 28.828 22.8638 29.2657V34.619C22.8638 35.5285 23.6185 36.2691 24.5452 36.2691H29.265V40.901C29.265 41.8105 30.0197 42.5512 30.9465 42.5512H36.4014C36.8473 42.5512 37.275 42.3773 37.5903 42.0679C37.9057 41.7584 38.0828 41.3387 38.0828 40.901V36.2615H42.8026C43.2486 36.2615 43.6763 36.0876 43.9916 35.7782C44.3069 35.4687 44.4841 35.049 44.4841 34.6113V29.2657C44.483 28.8287 44.3054 28.41 43.9902 28.1013C43.675 27.7927 43.2479 27.6194 42.8026 27.6194H38.0828V22.9798C38.0818 22.5428 37.9042 22.1241 37.589 21.8155C37.2737 21.5068 36.8467 21.3335 36.4014 21.3335H30.9465Z" stroke="white" stroke-width="4.14286" stroke-linecap="round" stroke-linejoin="round"/>
</g>
</g>
<defs>
<filter id="filter0_d_2354_1182" x="8.04932" y="1.1875" width="51.2461" height="62.0312" filterUnits="userSpaceOnUse" color-interpolation-filters="sRGB">
<feFlood flood-opacity="0" result="BackgroundImageFix"/>
<feColorMatrix in="SourceAlpha" type="matrix" values="0 0 0 0 0 0 0 0 0 0 0 0 0 0 0 0 0 0 127 0" result="hardAlpha"/>
<feOffset dy="4"/>
<feGaussianBlur stdDeviation="2"/>
<feComposite in2="hardAlpha" operator="out"/>
<feColorMatrix type="matrix" values="0 0 0 0 0 0 0 0 0 0 0 0 0 0 0 0 0 0 0.25 0"/>
<feBlend mode="normal" in2="BackgroundImageFix" result="effect1_dropShadow_2354_1182"/>
<feBlend mode="normal" in="SourceGraphic" in2="effect1_dropShadow_2354_1182" result="shape"/>
</filter>
<clipPath id="clip0_2354_1182">
<rect width="63" height="63" fill="white"/>
</clipPath>
</defs>
</svg>
