<svg width="61" height="61" viewBox="0 0 61 61" fill="none" xmlns="http://www.w3.org/2000/svg">
<g clip-path="url(#clip0_2354_1178)">
<g filter="url(#filter0_d_2354_1178)">
<path fill-rule="evenodd" clip-rule="evenodd" d="M23.1797 6C20.2373 6 17.4154 7.11086 15.3347 9.08821C13.2541 11.0656 12.0852 13.7474 12.0852 16.5438C12.0852 19.3402 13.2541 22.0221 15.3347 23.9994C17.4154 25.9768 20.2373 27.0876 23.1797 27.0876C26.1222 27.0876 28.9441 25.9768 31.0248 23.9994C33.1054 22.0221 34.2743 19.3402 34.2743 16.5438C34.2743 13.7474 33.1054 11.0656 31.0248 9.08821C28.9441 7.11086 26.1222 6 23.1797 6ZM30.3089 39.2146H32.4965L34.8116 36.0653C35.031 35.7669 35.3273 35.527 35.6721 35.3685C36.0169 35.21 36.3987 35.1382 36.781 35.1599C37.1633 35.1817 37.5334 35.2963 37.8558 35.4928C38.1782 35.6894 38.4422 35.9612 38.6225 36.2823L40.8839 40.319L41.7706 39.1103C41.9769 38.8292 42.2515 38.5996 42.5712 38.4411C42.8908 38.2825 43.2461 38.1997 43.6066 38.1996H45.9442C46.2383 38.1996 46.5294 38.2546 46.8011 38.3616C47.0727 38.4685 47.3196 38.6252 47.5275 38.8228C47.7354 39.0204 47.9003 39.255 48.0128 39.5132C48.1254 39.7713 48.1833 40.048 48.1833 40.3275C48.1833 40.6069 48.1254 40.8836 48.0128 41.1418C47.9003 41.4 47.7354 41.6346 47.5275 41.8322C47.3196 42.0297 47.0727 42.1865 46.8011 42.2934C46.5294 42.4004 46.2383 42.4554 45.9442 42.4554H44.7732L42.4602 45.6047C42.2408 45.9035 41.9443 46.1437 41.5991 46.3024C41.254 46.461 40.8718 46.5328 40.4891 46.5108C40.1063 46.4888 39.736 46.3738 39.4135 46.1768C39.091 45.9797 38.8271 45.7073 38.6471 45.3855L36.3879 41.351L35.499 42.5597C35.2928 42.8408 35.0181 43.0704 34.6985 43.2289C34.3788 43.3875 34.0236 43.4703 33.663 43.4704H30.8642C31.4413 44.9758 32.4054 46.32 33.6688 47.3808C34.9322 48.4415 36.4548 49.1851 38.0978 49.5438C39.7408 49.9025 41.4522 49.8649 43.076 49.4345C44.6999 49.0041 46.1846 48.1944 47.3951 47.0794C47.4625 47.0059 47.535 46.937 47.6123 46.873C48.734 45.7735 49.5627 44.4351 50.0292 42.9693C50.4957 41.5035 50.5866 39.953 50.2941 38.447C50.0017 36.9411 49.3345 35.5235 48.3482 34.3125C47.3619 33.1016 46.0851 32.1324 44.6243 31.4859C43.1636 30.8394 41.5614 30.5343 39.9514 30.5962C38.3413 30.658 36.7702 31.085 35.3692 31.8414C33.9681 32.5978 32.7778 33.6617 31.8975 34.9443C31.0172 36.227 30.4725 37.6911 30.3089 39.2146ZM52.133 48.3646C54.3004 45.5468 55.2691 42.0555 54.8455 38.5884C54.4218 35.1213 52.637 31.9339 49.8477 29.6632C47.0585 27.3924 43.4703 26.2057 39.8003 26.3402C36.1303 26.4747 32.6489 27.9204 30.0519 30.3885C27.455 32.8566 25.9337 36.1652 25.7922 39.653C25.6507 43.1408 26.8994 46.5509 29.2887 49.2017C31.678 51.8525 35.0319 53.5487 38.6801 53.9513C42.3283 54.354 46.002 53.4334 48.9669 51.3735L53.1764 55.3761C53.5962 55.7754 54.1657 55.9998 54.7597 56C55.3537 56.0002 55.9234 55.7762 56.3435 55.3772C56.7636 54.9782 56.9998 54.4369 57 53.8724C57.0002 53.3079 56.7645 52.7665 56.3446 52.3672L52.133 48.3646ZM25.018 31.3711C24.4072 31.3121 23.7937 31.283 23.1797 31.2839C18.059 31.2839 13.1712 33.3373 9.58196 36.9611C5.99948 40.5786 4 45.4685 4 50.5457C4 51.4288 4.75232 52.1417 5.67929 52.1417H27.5907C24.2821 48.9587 22.429 44.6634 22.4341 40.1892C22.4341 36.9611 23.379 33.9416 25.018 31.3711Z" fill="white"/>
</g>
</g>
<defs>
<filter id="filter0_d_2354_1178" x="0" y="6" width="61" height="58" filterUnits="userSpaceOnUse" color-interpolation-filters="sRGB">
<feFlood flood-opacity="0" result="BackgroundImageFix"/>
<feColorMatrix in="SourceAlpha" type="matrix" values="0 0 0 0 0 0 0 0 0 0 0 0 0 0 0 0 0 0 127 0" result="hardAlpha"/>
<feOffset dy="4"/>
<feGaussianBlur stdDeviation="2"/>
<feComposite in2="hardAlpha" operator="out"/>
<feColorMatrix type="matrix" values="0 0 0 0 0 0 0 0 0 0 0 0 0 0 0 0 0 0 0.25 0"/>
<feBlend mode="normal" in2="BackgroundImageFix" result="effect1_dropShadow_2354_1178"/>
<feBlend mode="normal" in="SourceGraphic" in2="effect1_dropShadow_2354_1178" result="shape"/>
</filter>
<clipPath id="clip0_2354_1178">
<rect width="61" height="61" fill="white"/>
</clipPath>
</defs>
</svg>
