<svg width="54" height="71" viewBox="0 0 54 71" fill="none" xmlns="http://www.w3.org/2000/svg">
<g clip-path="url(#clip0_2354_1458)">
<g filter="url(#filter0_d_2354_1458)">
<path d="M24.5562 7.60948C25.7303 6.79684 27.2673 6.79684 28.4413 7.60948L30.3412 8.91193C30.9817 9.34608 31.7288 9.55759 32.4866 9.51307L34.7601 9.36835C36.169 9.27929 37.4925 10.0808 38.1223 11.3944L39.1469 13.5206C39.4885 14.2331 40.0435 14.8008 40.7159 15.157L42.7759 16.2368C44.0354 16.8936 44.8039 18.274 44.7185 19.7434L44.5798 22.1146C44.5371 22.9049 44.7399 23.6953 45.1561 24.3521L46.4156 26.3336C47.1948 27.5582 47.1948 29.1612 46.4156 30.3857L45.1561 32.3783C44.7399 33.0463 44.5371 33.8255 44.5798 34.6159L44.7185 36.987C44.8039 38.4565 44.0354 39.8368 42.7759 40.4936L40.7373 41.5623C40.0542 41.9185 39.5098 42.4974 39.1683 43.1987L38.1329 45.3472C37.5032 46.6608 36.1797 47.4623 34.7708 47.3732L32.4973 47.2285C31.7395 47.184 30.9817 47.3955 30.3519 47.8297L28.452 49.1432C27.2779 49.9559 25.7409 49.9559 24.5668 49.1432L22.6563 47.8297C22.0159 47.3955 21.2687 47.184 20.5109 47.2285L18.2374 47.3732C16.8285 47.4623 15.505 46.6608 14.8752 45.3472L13.8506 43.221C13.509 42.5085 12.954 41.9408 12.2816 41.5846L10.2216 40.5048C8.9621 39.848 8.1936 38.4676 8.27899 36.9982L8.41775 34.627C8.46044 33.8366 8.25764 33.0463 7.84137 32.3895L6.59257 30.3968C5.8134 29.1723 5.8134 27.5693 6.59257 26.3448L7.84137 24.3633C8.25764 23.6953 8.46044 22.9161 8.41775 22.1257L8.27899 19.7546C8.1936 18.2851 8.9621 16.9048 10.2216 16.248L12.2602 15.1793C12.9433 14.8119 13.4984 14.2331 13.8399 13.5206L14.8646 11.3944C15.4943 10.0808 16.8178 9.27929 18.2267 9.36835L20.5002 9.51307C21.258 9.55759 22.0159 9.34608 22.6456 8.91193L24.5562 7.60948ZM35.0376 28.3708C35.0376 26.0089 34.138 23.7437 32.5366 22.0735C30.9353 20.4034 28.7634 19.4651 26.4988 19.4651C24.2341 19.4651 22.0622 20.4034 20.4609 22.0735C18.8595 23.7437 17.9599 26.0089 17.9599 28.3708C17.9599 30.7327 18.8595 32.9979 20.4609 34.668C22.0622 36.3382 24.2341 37.2765 26.4988 37.2765C28.7634 37.2765 30.9353 36.3382 32.5366 34.668C34.138 32.9979 35.0376 30.7327 35.0376 28.3708ZM6.14428 56.1787L10.7446 44.7683C10.7659 44.7795 10.7766 44.7906 10.7873 44.8129L11.8119 46.9391C13.0607 49.5217 15.6544 51.0914 18.4295 50.9244L20.703 50.7797C20.7244 50.7797 20.7564 50.7797 20.7777 50.8019L22.6776 52.1155C23.222 52.4829 23.7983 52.7723 24.3961 52.9727L20.3828 62.9136C20.1373 63.5259 19.593 63.9378 18.9632 63.9934C18.3335 64.0491 17.7251 63.7485 17.3835 63.1919L13.9467 57.7038L7.95878 58.6278C7.35039 58.7168 6.742 58.4608 6.35775 57.9598C5.9735 57.4589 5.89879 56.7687 6.1336 56.1787H6.14428ZM32.6147 62.9025L28.6014 52.9727C29.1992 52.7723 29.7755 52.494 30.3199 52.1155L32.2198 50.8019C32.2411 50.7908 32.2625 50.7797 32.2945 50.7797L34.568 50.9244C37.3431 51.0914 39.9368 49.5217 41.1856 46.9391L42.2102 44.8129C42.2209 44.7906 42.2316 44.7795 42.2529 44.7683L46.8639 56.1787C47.0987 56.7687 47.0133 57.4478 46.6398 57.9598C46.2662 58.4719 45.6471 58.728 45.0387 58.6278L39.0509 57.7038L35.614 63.1808C35.2724 63.7374 34.664 64.038 34.0343 63.9823C33.4046 63.9266 32.8602 63.5036 32.6147 62.9025Z" fill="white"/>
</g>
</g>
<defs>
<filter id="filter0_d_2354_1458" x="2" y="7" width="49" height="65" filterUnits="userSpaceOnUse" color-interpolation-filters="sRGB">
<feFlood flood-opacity="0" result="BackgroundImageFix"/>
<feColorMatrix in="SourceAlpha" type="matrix" values="0 0 0 0 0 0 0 0 0 0 0 0 0 0 0 0 0 0 127 0" result="hardAlpha"/>
<feOffset dy="4"/>
<feGaussianBlur stdDeviation="2"/>
<feComposite in2="hardAlpha" operator="out"/>
<feColorMatrix type="matrix" values="0 0 0 0 0 0 0 0 0 0 0 0 0 0 0 0 0 0 0.25 0"/>
<feBlend mode="normal" in2="BackgroundImageFix" result="effect1_dropShadow_2354_1458"/>
<feBlend mode="normal" in="SourceGraphic" in2="effect1_dropShadow_2354_1458" result="shape"/>
</filter>
<clipPath id="clip0_2354_1458">
<rect width="54" height="71" fill="white"/>
</clipPath>
</defs>
</svg>
