<svg width="65" height="52" viewBox="0 0 65 52" fill="none" xmlns="http://www.w3.org/2000/svg">
<g clip-path="url(#clip0_2354_1472)">
<g filter="url(#filter0_d_2354_1472)">
<path d="M34.5575 0.474609C33.6125 -0.158203 32.3875 -0.158203 31.4425 0.474609L19.5513 8.4375H9.2C6.88125 8.4375 5 10.3271 5 12.6562V40.7812C5 43.1104 6.88125 45 9.2 45H27.4V36.5625C27.4 33.46 29.9112 30.9375 33 30.9375C36.0887 30.9375 38.6 33.46 38.6 36.5625V45H56.8C59.1187 45 61 43.1104 61 40.7812V12.6562C61 10.3271 59.1187 8.4375 56.8 8.4375H46.4487L34.5575 0.474609ZM13.4 16.875H16.2C16.97 16.875 17.6 17.5078 17.6 18.2812V23.9062C17.6 24.6797 16.97 25.3125 16.2 25.3125H13.4C12.63 25.3125 12 24.6797 12 23.9062V18.2812C12 17.5078 12.63 16.875 13.4 16.875ZM48.4 18.2812C48.4 17.5078 49.03 16.875 49.8 16.875H52.6C53.37 16.875 54 17.5078 54 18.2812V23.9062C54 24.6797 53.37 25.3125 52.6 25.3125H49.8C49.03 25.3125 48.4 24.6797 48.4 23.9062V18.2812ZM13.4 28.125H16.2C16.97 28.125 17.6 28.7578 17.6 29.5312V35.1562C17.6 35.9297 16.97 36.5625 16.2 36.5625H13.4C12.63 36.5625 12 35.9297 12 35.1562V29.5312C12 28.7578 12.63 28.125 13.4 28.125ZM48.4 29.5312C48.4 28.7578 49.03 28.125 49.8 28.125H52.6C53.37 28.125 54 28.7578 54 29.5312V35.1562C54 35.9297 53.37 36.5625 52.6 36.5625H49.8C49.03 36.5625 48.4 35.9297 48.4 35.1562V29.5312ZM25.3 15.4688C25.3 13.4175 26.1112 11.4502 27.5553 9.99972C28.9993 8.54924 30.9578 7.73438 33 7.73438C35.0422 7.73438 37.0007 8.54924 38.4447 9.99972C39.8888 11.4502 40.7 13.4175 40.7 15.4688C40.7 17.52 39.8888 19.4873 38.4447 20.9378C37.0007 22.3883 35.0422 23.2031 33 23.2031C30.9578 23.2031 28.9993 22.3883 27.5553 20.9378C26.1112 19.4873 25.3 17.52 25.3 15.4688ZM33 11.25C32.23 11.25 31.6 11.8828 31.6 12.6562V15.4688C31.6 16.2422 32.23 16.875 33 16.875H35.8C36.57 16.875 37.2 16.2422 37.2 15.4688C37.2 14.6953 36.57 14.0625 35.8 14.0625H34.4V12.6562C34.4 11.8828 33.77 11.25 33 11.25Z" fill="white"/>
</g>
</g>
<defs>
<filter id="filter0_d_2354_1472" x="1" y="0" width="64" height="53" filterUnits="userSpaceOnUse" color-interpolation-filters="sRGB">
<feFlood flood-opacity="0" result="BackgroundImageFix"/>
<feColorMatrix in="SourceAlpha" type="matrix" values="0 0 0 0 0 0 0 0 0 0 0 0 0 0 0 0 0 0 127 0" result="hardAlpha"/>
<feOffset dy="4"/>
<feGaussianBlur stdDeviation="2"/>
<feComposite in2="hardAlpha" operator="out"/>
<feColorMatrix type="matrix" values="0 0 0 0 0 0 0 0 0 0 0 0 0 0 0 0 0 0 0.25 0"/>
<feBlend mode="normal" in2="BackgroundImageFix" result="effect1_dropShadow_2354_1472"/>
<feBlend mode="normal" in="SourceGraphic" in2="effect1_dropShadow_2354_1472" result="shape"/>
</filter>
<clipPath id="clip0_2354_1472">
<rect width="65" height="52" fill="white"/>
</clipPath>
</defs>
</svg>
