<svg width="66" height="60" viewBox="0 0 66 60" fill="none" xmlns="http://www.w3.org/2000/svg">
<g clip-path="url(#clip0_2354_1462)">
<g filter="url(#filter0_d_2354_1462)">
<path d="M59.1477 17.4818C60.0284 18.6198 60.2266 19.9076 59.7422 21.3451L50.6599 48.4779C50.2415 49.7556 49.3994 50.8288 48.1334 51.6973C46.8673 52.5658 45.5188 53 44.0876 53H13.6041C11.9088 53 10.274 52.4659 8.69969 51.3978C7.12542 50.3296 6.03004 49.0169 5.41355 47.4596C4.88513 46.122 4.86311 44.8542 5.3475 43.6562C5.3475 43.5764 5.38052 43.3069 5.44658 42.8477C5.51263 42.3885 5.55666 42.0191 5.57868 41.7396C5.6007 41.5799 5.56767 41.3652 5.4796 41.0957C5.39153 40.8262 5.35851 40.6315 5.38052 40.5117C5.42456 40.2921 5.51263 40.0825 5.64474 39.8828C5.77684 39.6832 5.95849 39.4486 6.18967 39.179C6.42086 38.9095 6.6025 38.6749 6.73461 38.4753C7.24102 37.7166 7.73641 36.8032 8.2208 35.735C8.70519 34.6669 9.03546 33.7535 9.2116 32.9948C9.27765 32.7951 9.28316 32.4957 9.22811 32.0964C9.17307 31.697 9.16756 31.4175 9.2116 31.2578C9.27765 31.0382 9.4648 30.7587 9.77305 30.4193C10.0813 30.0799 10.2684 29.8503 10.3345 29.7305C10.7969 29.0117 11.2592 28.0933 11.7216 26.9753C12.184 25.8572 12.4592 24.9588 12.5473 24.2799C12.5693 24.1003 12.5418 23.7808 12.4647 23.3216C12.3877 22.8624 12.3932 22.5829 12.4812 22.4831C12.5693 22.2235 12.8115 21.9191 13.2078 21.5697C13.6041 21.2203 13.8463 20.9957 13.9344 20.8958C14.3527 20.3767 14.8206 19.5332 15.338 18.3652C15.8554 17.1973 16.1582 16.2339 16.2462 15.4753C16.2683 15.3155 16.2352 15.061 16.1472 14.7116C16.0591 14.3622 16.0371 14.0977 16.0811 13.918C16.1252 13.7582 16.2242 13.5786 16.3784 13.3789C16.5325 13.1793 16.7306 12.9497 16.9728 12.6901C17.215 12.4306 17.4022 12.2209 17.5343 12.0612C17.7104 11.8216 17.8921 11.5171 18.0792 11.1478C18.2664 10.7784 18.4315 10.429 18.5746 10.0996C18.7177 9.77018 18.8939 9.41081 19.103 9.02148C19.3122 8.63216 19.5269 8.31272 19.7471 8.06315C19.9672 7.81359 20.259 7.57899 20.6223 7.35938C20.9856 7.13976 21.3819 7.02496 21.8112 7.01497C22.2406 7.00499 22.7635 7.0599 23.38 7.17969L23.3469 7.26953C24.1836 7.08984 24.7451 7 25.0313 7H50.1645C51.7938 7 53.0488 7.55903 53.9295 8.67708C54.8102 9.79514 55.0084 11.0929 54.524 12.5703L45.4747 39.7031C44.6821 42.079 43.895 43.6113 43.1133 44.3001C42.3317 44.9889 40.9171 45.3333 38.8694 45.3333H10.1694C9.57489 45.3333 9.15656 45.4831 8.91436 45.7826C8.67217 46.102 8.66116 46.5312 8.88133 47.0703C9.40976 48.4679 10.995 49.1667 13.6372 49.1667H44.1206C44.7591 49.1667 45.3756 49.0119 45.9701 48.7025C46.5646 48.393 46.9499 47.9787 47.126 47.4596L57.034 17.901C57.1881 17.4618 57.2432 16.8928 57.1991 16.194C58.0358 16.4935 58.6853 16.9227 59.1477 17.4818ZM24.0075 17.5417C23.9194 17.8012 23.9414 18.0258 24.0735 18.2155C24.2056 18.4052 24.4258 18.5 24.7341 18.5H44.8142C45.1004 18.5 45.3811 18.4052 45.6564 18.2155C45.9316 18.0258 46.1132 17.8012 46.2013 17.5417L46.8949 15.625C46.9829 15.3655 46.9609 15.1408 46.8288 14.9512C46.6967 14.7615 46.4765 14.6667 46.1683 14.6667H26.0882C25.8019 14.6667 25.5212 14.7615 25.246 14.9512C24.9708 15.1408 24.7891 15.3655 24.701 15.625L24.0075 17.5417ZM21.2663 25.2083C21.1782 25.4679 21.2002 25.6925 21.3323 25.8822C21.4644 26.0718 21.6846 26.1667 21.9929 26.1667H42.073C42.3592 26.1667 42.6399 26.0718 42.9152 25.8822C43.1904 25.6925 43.372 25.4679 43.4601 25.2083L44.1537 23.2917C44.2417 23.0321 44.2197 22.8075 44.0876 22.6178C43.9555 22.4282 43.7353 22.3333 43.4271 22.3333H23.3469C23.0607 22.3333 22.78 22.4282 22.5048 22.6178C22.2296 22.8075 22.0479 23.0321 21.9598 23.2917L21.2663 25.2083Z" fill="white"/>
</g>
</g>
<defs>
<filter id="filter0_d_2354_1462" x="1" y="7" width="63" height="54" filterUnits="userSpaceOnUse" color-interpolation-filters="sRGB">
<feFlood flood-opacity="0" result="BackgroundImageFix"/>
<feColorMatrix in="SourceAlpha" type="matrix" values="0 0 0 0 0 0 0 0 0 0 0 0 0 0 0 0 0 0 127 0" result="hardAlpha"/>
<feOffset dy="4"/>
<feGaussianBlur stdDeviation="2"/>
<feComposite in2="hardAlpha" operator="out"/>
<feColorMatrix type="matrix" values="0 0 0 0 0 0 0 0 0 0 0 0 0 0 0 0 0 0 0.25 0"/>
<feBlend mode="normal" in2="BackgroundImageFix" result="effect1_dropShadow_2354_1462"/>
<feBlend mode="normal" in="SourceGraphic" in2="effect1_dropShadow_2354_1462" result="shape"/>
</filter>
<clipPath id="clip0_2354_1462">
<rect width="66" height="60" fill="white"/>
</clipPath>
</defs>
</svg>
