<svg width="71" height="71" viewBox="0 0 71 71" fill="none" xmlns="http://www.w3.org/2000/svg">
<g clip-path="url(#clip0_2354_1513)">
<g filter="url(#filter0_d_2354_1513)">
<path d="M18.1906 6C17.084 6.01005 15.7929 6.04272 14.7389 6.24501C14.0934 6.36814 13.5664 6.55912 13.3161 6.72999C13.158 6.83051 13.1053 6.88328 13.0789 6.93982L16.1881 14.3767C16.1881 14.3717 16.2013 14.3654 16.2013 14.3604C16.8732 13.4407 17.7295 12.6755 18.9152 12.6755H21.6818L18.1906 6ZM47.8068 6L44.3155 12.6755H47.0822C48.281 12.6755 49.1242 13.457 49.7961 14.3905L52.9184 6.93982C52.8921 6.88328 52.8394 6.83051 52.6813 6.72999C52.431 6.55912 51.904 6.36814 51.2585 6.24501C50.2045 6.04272 48.9134 6.01256 47.8068 6ZM32.9987 7.63966C28.8883 7.63966 24.7647 9.6952 24.7647 13.8063H27.1361C27.1361 8.60209 38.8613 8.60209 38.8613 13.8063H41.2327C41.2327 9.6952 37.1091 7.63966 32.9987 7.63966ZM18.9152 14.9371C18.9152 14.9371 18.6122 15.0137 18.1511 15.6595C17.6768 16.2877 17.1367 17.3557 16.6229 18.7378C15.5952 21.502 14.6072 25.5352 13.764 30.2594C12.1053 39.645 11.0145 51.8325 11 62.8892C11.1765 63.0023 11.5876 63.1907 12.1567 63.3541C13.3029 63.6933 15.0683 64.0074 17.2025 64.2587C21.471 64.7487 27.2415 65 32.9987 65C38.7559 65 44.5263 64.7487 48.7948 64.2587C50.9291 64.0074 52.6945 63.6933 53.8407 63.3541C54.4072 63.1907 54.8156 63.0023 55 62.8892C54.9868 52.1969 53.8933 40.0219 52.2334 30.5358C51.3902 25.7613 50.4021 21.6653 49.3745 18.8383C48.8475 17.4311 48.3206 16.338 47.8463 15.6721C47.372 15.015 47.0558 14.9371 47.0822 14.9371H18.9152ZM32.9987 17.7578C36.042 17.7578 39.0853 18.2729 41.5884 19.366C44.1047 20.4591 46.16 22.2056 46.7923 24.6431L46.8055 24.6557L50.9291 41.781H15.0683L19.1919 24.6557L19.205 24.6431C19.8374 22.2056 21.8926 20.4591 24.4089 19.366C26.9121 18.2729 29.9554 17.7578 32.9987 17.7578ZM32.9987 20.0194C30.2452 20.0194 27.4918 20.5094 25.3839 21.4266C23.2891 22.3438 21.919 23.6128 21.4974 25.1834L18.0457 39.5194H47.9517L44.5 25.1834C44.0784 23.6128 42.7082 22.3438 40.6135 21.4266C38.5056 20.5094 35.7521 20.0194 32.9987 20.0194ZM24.567 25.799H41.4303V28.0606H29.9686V31.4027H27.5972V28.0606H24.567V25.799ZM15.3713 45.1231H17.7427C17.7427 49.5081 18.3487 52.7246 19.3763 54.6972C20.4171 56.6572 21.6555 57.4237 23.6053 57.4237H42.3921C44.3419 57.4237 45.5803 56.6572 46.6211 54.6972C47.6487 52.7246 48.2547 49.5081 48.2547 45.1231H50.6261C50.6261 49.6965 50.0464 53.202 48.729 55.7023C47.4115 58.2152 45.1323 59.6853 42.3921 59.6853H23.6053C20.865 59.6853 18.5858 58.2152 17.2684 55.7023C15.951 53.202 15.3713 49.6965 15.3713 45.1231Z" fill="white"/>
</g>
</g>
<defs>
<filter id="filter0_d_2354_1513" x="7" y="6" width="52" height="67" filterUnits="userSpaceOnUse" color-interpolation-filters="sRGB">
<feFlood flood-opacity="0" result="BackgroundImageFix"/>
<feColorMatrix in="SourceAlpha" type="matrix" values="0 0 0 0 0 0 0 0 0 0 0 0 0 0 0 0 0 0 127 0" result="hardAlpha"/>
<feOffset dy="4"/>
<feGaussianBlur stdDeviation="2"/>
<feComposite in2="hardAlpha" operator="out"/>
<feColorMatrix type="matrix" values="0 0 0 0 0 0 0 0 0 0 0 0 0 0 0 0 0 0 0.25 0"/>
<feBlend mode="normal" in2="BackgroundImageFix" result="effect1_dropShadow_2354_1513"/>
<feBlend mode="normal" in="SourceGraphic" in2="effect1_dropShadow_2354_1513" result="shape"/>
</filter>
<clipPath id="clip0_2354_1513">
<rect width="71" height="71" fill="white"/>
</clipPath>
</defs>
</svg>
