<svg width="51" height="51" viewBox="0 0 51 51" fill="none" xmlns="http://www.w3.org/2000/svg">
<g clip-path="url(#clip0_2354_1466)">
<g filter="url(#filter0_d_2354_1466)">
<path d="M18.8427 12.4002L10.5603 10.2004L12.0665 4.65842C12.1881 4.22213 12.4772 3.85155 12.8707 3.62739C13.2643 3.40323 13.7304 3.34364 14.1677 3.46162L19.1317 4.79441C19.348 4.85165 19.5509 4.95103 19.7288 5.08686C19.9066 5.22268 20.0558 5.39227 20.168 5.5859C20.2801 5.77954 20.3529 5.9934 20.3822 6.21524C20.4115 6.43707 20.3967 6.66251 20.3387 6.87862L18.8427 12.4002ZM3.47472 37.4106C3.38111 37.1056 3.37522 36.7804 3.45772 36.4722L9.64232 13.6038L17.9213 15.8036L11.7367 38.672C11.6537 38.981 11.4852 39.2603 11.2505 39.4778L6.29672 44.0576C6.23273 44.1158 6.15514 44.157 6.07108 44.1775C5.98702 44.1979 5.89917 44.1969 5.81559 44.1746C5.73202 44.1522 5.65538 44.1093 5.59272 44.0496C5.53005 43.99 5.48336 43.9156 5.45692 43.8332L3.47472 37.4106ZM33.9999 17.0004C26.3499 17.0004 23.7999 14.4504 23.7999 6.80042C31.4499 6.80042 33.9999 9.35042 33.9999 17.0004ZM29.2399 44.146C24.5819 44.86 18.6115 38.3456 17.2719 31.226L20.2945 20.0604C21.6511 18.8704 23.3647 18.2482 25.1191 18.2482C27.0211 18.2382 28.8792 18.8191 30.4367 19.9108C30.9847 20.2808 31.6321 20.4757 32.2933 20.4697C32.9545 20.4636 33.5982 20.2568 34.1393 19.8768C35.5754 18.8135 37.3164 18.2423 39.1033 18.2482C41.7213 18.2482 44.6895 19.9108 46.0733 22.3316C51.2957 31.498 42.0137 45.1422 35.3837 44.1494C35.0804 44.0885 34.7881 43.9818 34.5167 43.8332C33.8315 43.4829 33.0729 43.3002 32.3033 43.3002C31.5337 43.3002 30.7751 43.4829 30.0899 43.8332C29.8237 43.9791 29.5372 44.0845 29.2399 44.146Z" fill="white"/>
</g>
</g>
<defs>
<filter id="filter0_d_2354_1466" x="-0.600098" y="3.40234" width="52.2046" height="48.7988" filterUnits="userSpaceOnUse" color-interpolation-filters="sRGB">
<feFlood flood-opacity="0" result="BackgroundImageFix"/>
<feColorMatrix in="SourceAlpha" type="matrix" values="0 0 0 0 0 0 0 0 0 0 0 0 0 0 0 0 0 0 127 0" result="hardAlpha"/>
<feOffset dy="4"/>
<feGaussianBlur stdDeviation="2"/>
<feComposite in2="hardAlpha" operator="out"/>
<feColorMatrix type="matrix" values="0 0 0 0 0 0 0 0 0 0 0 0 0 0 0 0 0 0 0.25 0"/>
<feBlend mode="normal" in2="BackgroundImageFix" result="effect1_dropShadow_2354_1466"/>
<feBlend mode="normal" in="SourceGraphic" in2="effect1_dropShadow_2354_1466" result="shape"/>
</filter>
<clipPath id="clip0_2354_1466">
<rect width="51" height="51" fill="white"/>
</clipPath>
</defs>
</svg>
