<svg width="61" height="61" viewBox="0 0 61 61" fill="none" xmlns="http://www.w3.org/2000/svg">
<g clip-path="url(#clip0_2217_154)">
<g filter="url(#filter0_d_2217_154)">
<path d="M42.8438 42.0917C45.2406 38.66 46.5248 34.5746 46.5225 30.3888C46.5203 26.203 45.2316 22.1191 42.8311 18.69M40.5435 15.9679C37.689 13.1133 34.0521 11.1692 30.0927 10.3815C26.1333 9.59389 22.0293 9.99803 18.2996 11.5429C14.5699 13.0877 11.382 15.7038 9.13918 19.0604C6.89634 22.417 5.69922 26.3634 5.69922 30.4003C5.69922 34.4373 6.89634 38.3836 9.13918 41.7402C11.382 45.0968 14.5699 47.713 18.2996 49.2578C22.0293 50.8026 26.1333 51.2068 30.0927 50.4191C34.0521 49.6315 37.689 47.6874 40.5435 44.8327" stroke="white" stroke-width="4" stroke-linecap="round" stroke-linejoin="round" shape-rendering="crispEdges"/>
</g>
<g filter="url(#filter1_d_2217_154)">
<path d="M33.5174 21.436C31.4799 19.7527 28.9298 18.8136 26.2873 18.7736C23.6447 18.7336 21.0673 19.595 18.9798 21.2158C16.8923 22.8366 15.4193 25.1203 14.8033 27.6904C14.1874 30.2604 14.4654 32.9637 15.5914 35.3547C16.7175 37.7456 18.6245 39.6817 20.9981 40.8438C23.3718 42.0059 26.0705 42.3248 28.6496 41.7478C31.2288 41.1709 33.5344 39.7325 35.1866 37.6698C36.8389 35.6071 37.7392 33.043 37.7392 30.4002H27.5222M49.8764 47.0049C53.2795 42.1305 55.1029 36.3281 55.0995 30.3833C55.0961 24.4384 53.2661 18.6381 49.8574 13.7676" stroke="white" stroke-width="4" stroke-linecap="round" stroke-linejoin="round" shape-rendering="crispEdges"/>
</g>
</g>
<defs>
<filter id="filter0_d_2217_154" x="-0.300781" y="7.98926" width="52.8232" height="52.8223" filterUnits="userSpaceOnUse" color-interpolation-filters="sRGB">
<feFlood flood-opacity="0" result="BackgroundImageFix"/>
<feColorMatrix in="SourceAlpha" type="matrix" values="0 0 0 0 0 0 0 0 0 0 0 0 0 0 0 0 0 0 127 0" result="hardAlpha"/>
<feOffset dy="4"/>
<feGaussianBlur stdDeviation="2"/>
<feComposite in2="hardAlpha" operator="out"/>
<feColorMatrix type="matrix" values="0 0 0 0 0 0 0 0 0 0 0 0 0 0 0 0 0 0 0.25 0"/>
<feBlend mode="normal" in2="BackgroundImageFix" result="effect1_dropShadow_2217_154"/>
<feBlend mode="normal" in="SourceGraphic" in2="effect1_dropShadow_2217_154" result="shape"/>
</filter>
<filter id="filter1_d_2217_154" x="8.48315" y="11.7676" width="52.6162" height="45.2373" filterUnits="userSpaceOnUse" color-interpolation-filters="sRGB">
<feFlood flood-opacity="0" result="BackgroundImageFix"/>
<feColorMatrix in="SourceAlpha" type="matrix" values="0 0 0 0 0 0 0 0 0 0 0 0 0 0 0 0 0 0 127 0" result="hardAlpha"/>
<feOffset dy="4"/>
<feGaussianBlur stdDeviation="2"/>
<feComposite in2="hardAlpha" operator="out"/>
<feColorMatrix type="matrix" values="0 0 0 0 0 0 0 0 0 0 0 0 0 0 0 0 0 0 0.25 0"/>
<feBlend mode="normal" in2="BackgroundImageFix" result="effect1_dropShadow_2217_154"/>
<feBlend mode="normal" in="SourceGraphic" in2="effect1_dropShadow_2217_154" result="shape"/>
</filter>
<clipPath id="clip0_2217_154">
<rect width="60.8" height="60.8" fill="white"/>
</clipPath>
</defs>
</svg>
