<svg width="53" height="53" viewBox="0 0 53 53" fill="none" xmlns="http://www.w3.org/2000/svg">
<g clip-path="url(#clip0_2217_128)">
<g filter="url(#filter0_d_2217_128)">
<path d="M14.85 5.7815C14.85 3.37745 17.8316 2.465 19.2737 4.1975C21.2124 6.524 22.6644 7.877 23.9498 8.6855C24.5894 9.0953 25.2868 9.40678 26.0189 9.6095C25.396 10.539 24.902 11.5486 24.5504 12.6109C23.7218 12.3278 22.9297 11.9473 22.1909 11.4773C20.8857 10.6573 19.5855 9.5039 18.15 7.93145V13.9589C18.15 14.2644 18.0652 14.564 17.905 14.8241C17.7447 15.0843 17.5154 15.2949 17.2425 15.4324C14.2428 16.9454 12.0087 19.2323 10.8339 22.397C10.3802 23.6213 9.34235 24.6889 7.9052 24.9908C7.53648 25.068 7.20553 25.2697 6.96789 25.5621C6.73025 25.8544 6.60038 26.2195 6.60005 26.5962V29.5002C6.60005 30.279 7.14455 30.9506 7.9052 31.1106C9.34235 31.4126 10.3802 32.4802 10.8339 33.7028C12.0087 36.8691 14.2428 39.156 17.2425 40.6691C17.5154 40.8066 17.7447 41.0171 17.905 41.2773C18.0652 41.5375 18.15 41.837 18.15 42.1425V44.5499C18.15 44.9875 18.3239 45.4072 18.6333 45.7166C18.9428 46.0261 19.3624 46.1999 19.8 46.1999H23.1C23.1 45.3247 23.4477 44.4853 24.0666 43.8664C24.6855 43.2476 25.5248 42.8999 26.4 42.8999H33C33.8753 42.8999 34.7146 43.2476 35.3335 43.8664C35.9524 44.4853 36.3 45.3247 36.3 46.1999H39.6C40.0377 46.1999 40.4573 46.0261 40.7668 45.7166C41.0762 45.4072 41.25 44.9875 41.25 44.5499V39.1461C41.2501 38.9195 41.2969 38.6952 41.3874 38.4874C41.478 38.2796 41.6104 38.0927 41.7764 37.9383C44.5533 35.3561 46.2 31.9439 46.2 28.0499C46.2 26.8305 46.035 25.6524 45.7182 24.5271C46.641 23.4456 47.3706 22.2132 47.8748 20.8839C48.9537 23.1182 49.5095 25.5688 49.5 28.0499C49.5 32.6864 47.624 36.7536 44.55 39.8474V44.5499C44.55 45.8627 44.0285 47.1218 43.1002 48.0501C42.1719 48.9784 40.9129 49.4999 39.6 49.4999H36.3C35.4248 49.4999 34.5855 49.1522 33.9666 48.5333C33.3477 47.9145 33 47.0751 33 46.1999H26.4C26.4 47.0751 26.0524 47.9145 25.4335 48.5333C24.8146 49.1522 23.9753 49.4999 23.1 49.4999H19.8C18.4872 49.4999 17.2282 48.9784 16.2999 48.0501C15.3716 47.1218 14.85 45.8627 14.85 44.5499V43.1259C11.6342 41.2796 9.113 38.5505 7.7402 34.8512C7.6214 34.5327 7.39865 34.376 7.2254 34.3397C6.11537 34.1061 5.11945 33.4978 4.40473 32.617C3.69 31.7361 3.29997 30.6362 3.30005 29.5019V26.5979C3.30005 24.2582 4.9385 22.2419 7.22705 21.7601C7.4003 21.7238 7.62305 21.5687 7.7402 21.2486C9.113 17.5493 11.6342 14.8202 14.85 12.9739V5.7815ZM36.3 9.8999C35.4208 9.8999 34.5505 10.0756 33.7401 10.4166C32.9297 10.7576 32.1956 11.2571 31.5809 11.8858C30.9662 12.5145 30.4834 13.2596 30.1607 14.0774C29.838 14.8953 29.6819 15.7694 29.7017 16.6484C29.7066 16.8761 29.8947 17.2589 30.4722 17.4916L39.8013 21.2618C40.3788 21.4961 40.7814 21.3509 40.9448 21.1892C41.8742 20.2687 42.5091 19.0928 42.7689 17.8108C43.0287 16.5287 42.9017 15.1984 42.404 13.9887C41.9063 12.779 41.0603 11.7445 39.9735 11.0165C38.8867 10.2885 37.6081 9.89983 36.3 9.8999ZM26.4 16.4999C26.4 14.8698 26.8025 13.2649 27.5717 11.8277C28.341 10.3905 29.4532 9.16554 30.8097 8.26151C32.1662 7.35749 33.7249 6.8024 35.3474 6.64554C36.97 6.48869 38.6061 6.73491 40.1107 7.36236C41.6152 7.98981 42.9415 8.97905 43.9718 10.2423C45.0021 11.5055 45.7046 13.0036 46.0168 14.6035C46.329 16.2034 46.2413 17.8557 45.7615 19.4136C45.2817 20.9715 44.4246 22.3868 43.2663 23.5338C41.9034 24.8852 39.9795 24.8934 38.5655 24.3209L29.2364 20.5523C27.8207 19.9798 26.4446 18.6383 26.4017 16.7194L26.4 16.4999ZM17.325 24.7499C17.9815 24.7499 18.611 24.4891 19.0751 24.025C19.5393 23.5608 19.8 22.9313 19.8 22.2749C19.8 21.6185 19.5393 20.989 19.0751 20.5248C18.611 20.0607 17.9815 19.7999 17.325 19.7999C16.6686 19.7999 16.0391 20.0607 15.575 20.5248C15.1108 20.989 14.85 21.6185 14.85 22.2749C14.85 22.9313 15.1108 23.5608 15.575 24.025C16.0391 24.4891 16.6686 24.7499 17.325 24.7499Z" fill="white"/>
</g>
</g>
<defs>
<filter id="filter0_d_2217_128" x="-0.699951" y="3.30078" width="54.2002" height="54.1992" filterUnits="userSpaceOnUse" color-interpolation-filters="sRGB">
<feFlood flood-opacity="0" result="BackgroundImageFix"/>
<feColorMatrix in="SourceAlpha" type="matrix" values="0 0 0 0 0 0 0 0 0 0 0 0 0 0 0 0 0 0 127 0" result="hardAlpha"/>
<feOffset dy="4"/>
<feGaussianBlur stdDeviation="2"/>
<feComposite in2="hardAlpha" operator="out"/>
<feColorMatrix type="matrix" values="0 0 0 0 0 0 0 0 0 0 0 0 0 0 0 0 0 0 0.25 0"/>
<feBlend mode="normal" in2="BackgroundImageFix" result="effect1_dropShadow_2217_128"/>
<feBlend mode="normal" in="SourceGraphic" in2="effect1_dropShadow_2217_128" result="shape"/>
</filter>
<clipPath id="clip0_2217_128">
<rect width="52.8" height="52.8" fill="white"/>
</clipPath>
</defs>
</svg>
