<svg width="59" height="59" viewBox="0 0 59 59" fill="none" xmlns="http://www.w3.org/2000/svg">
<g filter="url(#filter0_d_2217_148)">
<path d="M43.8321 10.4482H15.1679C13.8552 10.4482 12.7587 10.4482 11.8615 10.522C10.9273 10.5957 10.0521 10.7629 9.22121 11.1857C7.95055 11.8331 6.91713 12.8656 6.26875 14.1357C5.84592 14.9667 5.67875 15.8418 5.605 16.776C5.53125 17.6733 5.53125 18.7672 5.53125 20.0824V38.9133C5.53125 40.2285 5.53125 41.3225 5.605 42.2197C5.67875 43.1539 5.84592 44.0291 6.26875 44.8575C6.91588 46.1304 7.94943 47.1657 9.22121 47.8149C10.0497 48.2353 10.9273 48.4 11.859 48.4787C12.7538 48.5499 13.8502 48.55 15.1581 48.55H43.8419C45.1522 48.55 46.2462 48.55 47.1385 48.4762C48.0727 48.4025 48.9479 48.2353 49.7763 47.8125C51.0496 47.1647 52.0849 46.1302 52.7337 44.8575C53.1541 44.0291 53.3188 43.1539 53.3975 42.2222C53.4688 41.3274 53.4688 40.2334 53.4688 38.9231V20.0751C53.4688 18.7648 53.4687 17.6708 53.395 16.776C53.3212 15.8418 53.1541 14.9667 52.7313 14.1382C52.0826 12.8668 51.0483 11.8333 49.7763 11.1857C48.9479 10.7629 48.0702 10.5957 47.1361 10.522C46.2437 10.4482 45.1424 10.4482 43.8321 10.4482ZM10.8978 14.4701C11.119 14.357 11.4583 14.2537 12.1638 14.1972C12.8915 14.1382 13.8355 14.1357 15.2441 14.1357H43.7608C45.1694 14.1357 46.1134 14.1357 46.8386 14.1972C47.5442 14.2537 47.881 14.357 48.1047 14.4701C48.6848 14.7651 49.1544 15.2371 49.4494 15.8123C49.5625 16.0336 49.6657 16.3728 49.7222 17.0784C49.7812 17.8036 49.7837 18.7476 49.7837 20.1513V20.2816H9.21875V20.1587C9.21875 18.7525 9.21875 17.806 9.28021 17.0784C9.33675 16.3728 9.44 16.036 9.55308 15.8123C9.84808 15.2346 10.3201 14.7651 10.8978 14.4701ZM14.75 35.0316H24.5833C25.0723 35.0316 25.5413 35.2258 25.8871 35.5716C26.2328 35.9174 26.4271 36.3863 26.4271 36.8753C26.4271 37.3643 26.2328 37.8333 25.8871 38.1791C25.5413 38.5248 25.0723 38.7191 24.5833 38.7191H14.75C14.261 38.7191 13.792 38.5248 13.4463 38.1791C13.1005 37.8333 12.9062 37.3643 12.9062 36.8753C12.9062 36.3863 13.1005 35.9174 13.4463 35.5716C13.792 35.2258 14.261 35.0316 14.75 35.0316Z" fill="white"/>
</g>
<defs>
<filter id="filter0_d_2217_148" x="1.53125" y="10.4482" width="55.9375" height="46.1016" filterUnits="userSpaceOnUse" color-interpolation-filters="sRGB">
<feFlood flood-opacity="0" result="BackgroundImageFix"/>
<feColorMatrix in="SourceAlpha" type="matrix" values="0 0 0 0 0 0 0 0 0 0 0 0 0 0 0 0 0 0 127 0" result="hardAlpha"/>
<feOffset dy="4"/>
<feGaussianBlur stdDeviation="2"/>
<feComposite in2="hardAlpha" operator="out"/>
<feColorMatrix type="matrix" values="0 0 0 0 0 0 0 0 0 0 0 0 0 0 0 0 0 0 0.25 0"/>
<feBlend mode="normal" in2="BackgroundImageFix" result="effect1_dropShadow_2217_148"/>
<feBlend mode="normal" in="SourceGraphic" in2="effect1_dropShadow_2217_148" result="shape"/>
</filter>
</defs>
</svg>
