<svg width="58" height="59" viewBox="0 0 58 59" fill="none" xmlns="http://www.w3.org/2000/svg">
<g clip-path="url(#clip0_2217_166)">
<g filter="url(#filter0_d_2217_166)">
<path d="M9.57736 17.7859C7.80176 17.7852 6.06096 18.2869 4.54969 19.2351C3.03842 20.1833 1.81627 21.5405 1.01994 23.1549C0.348814 24.5121 -0.000732422 26.0102 -0.000732422 27.5295C-0.000732422 29.0487 0.348814 30.5469 1.01994 31.9041C1.81627 33.5185 3.03842 34.8756 4.54969 35.8238C6.06096 36.772 7.80176 37.2738 9.57736 37.2731C12.1632 37.2731 14.3382 36.4077 15.9259 34.9205C17.7336 33.2242 18.7776 30.7167 18.7776 27.752C18.7739 27.0879 18.7174 26.4253 18.6084 25.7705H9.57978V29.522H14.7514C14.6455 30.121 14.4218 30.6921 14.0938 31.2011C13.7657 31.7101 13.3401 32.1465 12.8423 32.4842C11.9819 33.0767 10.8751 33.416 9.57978 33.416C7.08094 33.416 4.96153 31.7025 4.20269 29.3941C3.80281 28.1843 3.80281 26.8747 4.20269 25.6648C4.96153 23.354 7.08094 21.643 9.57978 21.643C10.9453 21.6197 12.2649 22.1443 13.2531 23.1033L15.9888 20.3253C14.2565 18.6663 11.9564 17.7559 9.57736 17.7859ZM25.2881 19.138V36.1005H27.4293V29.2294H30.9697C32.4261 29.2294 33.6522 28.7476 34.6479 27.7839C35.1436 27.3321 35.5375 26.7765 35.8023 26.1553C36.0672 25.534 36.1969 24.8619 36.1824 24.1849C36.1925 23.5115 36.0608 22.8436 35.7961 22.2262C35.5314 21.6089 35.1399 21.0563 34.6479 20.6056C34.1602 20.1261 33.5842 19.7495 32.953 19.4972C32.3218 19.2449 31.6478 19.122 30.9697 19.1355L25.2881 19.138ZM31.1534 21.2275C31.5269 21.2347 31.8953 21.3178 32.2369 21.4719C32.5784 21.626 32.8863 21.848 33.1423 22.1248C33.4146 22.3942 33.631 22.7164 33.7788 23.0724C33.9266 23.4283 34.0027 23.8108 34.0027 24.1972C34.0027 24.5836 33.9266 24.9661 33.7788 25.322C33.631 25.678 33.4146 26.0002 33.1423 26.2696C32.8686 26.558 32.5387 26.7851 32.1737 26.9362C31.8088 27.0874 31.4167 27.1592 31.0229 27.1472H27.4293V21.2275H31.1534ZM41.1197 24.1161C39.0865 24.1161 37.5503 24.8741 36.5111 26.39L38.3985 27.5971C39.0945 26.5711 40.0411 26.0582 41.2381 26.0582C42.0015 26.0474 42.7406 26.3311 43.3068 26.8522C43.587 27.0859 43.812 27.3806 43.9651 27.7146C44.1182 28.0487 44.1955 28.4135 44.1913 28.782V29.2786C43.3696 28.8033 42.3224 28.5665 41.0496 28.5681C39.5577 28.5681 38.3663 28.9238 37.4754 29.635C36.5812 30.343 36.1349 31.2977 36.1365 32.499C36.1275 33.0388 36.2367 33.5738 36.4561 34.0653C36.6756 34.5569 36.9998 34.9926 37.4053 35.3408C38.2511 36.0996 39.3024 36.479 40.559 36.479C42.0332 36.479 43.2133 35.8153 44.0994 34.4878H44.1913V36.098H46.2406V28.9467C46.2406 27.4471 45.7831 26.2671 44.8679 25.4067C43.9496 24.5463 42.7002 24.1161 41.1197 24.1161ZM46.5886 24.4947L51.2914 35.3654L48.6379 41.2163H50.8492L58.0001 24.4922H55.668L52.362 32.8284H52.3137L48.9159 24.4947H46.5886ZM41.4024 30.316C42.5963 30.316 43.5275 30.5864 44.1961 31.1272C44.1961 32.0417 43.8417 32.8391 43.1328 33.5192C42.8174 33.8426 42.442 34.0991 42.0284 34.2738C41.6148 34.4485 41.1712 34.538 40.7234 34.537C40.1194 34.5489 39.5301 34.3473 39.0559 33.9666C38.8355 33.8039 38.6563 33.5902 38.5332 33.3431C38.41 33.0961 38.3465 32.8227 38.3478 32.5457C38.3478 31.918 38.6402 31.3878 39.225 30.9552C39.805 30.5291 40.5324 30.316 41.4024 30.316Z" fill="white"/>
</g>
</g>
<defs>
<filter id="filter0_d_2217_166" x="-4.00073" y="17.7852" width="66.0007" height="31.4307" filterUnits="userSpaceOnUse" color-interpolation-filters="sRGB">
<feFlood flood-opacity="0" result="BackgroundImageFix"/>
<feColorMatrix in="SourceAlpha" type="matrix" values="0 0 0 0 0 0 0 0 0 0 0 0 0 0 0 0 0 0 127 0" result="hardAlpha"/>
<feOffset dy="4"/>
<feGaussianBlur stdDeviation="2"/>
<feComposite in2="hardAlpha" operator="out"/>
<feColorMatrix type="matrix" values="0 0 0 0 0 0 0 0 0 0 0 0 0 0 0 0 0 0 0.25 0"/>
<feBlend mode="normal" in2="BackgroundImageFix" result="effect1_dropShadow_2217_166"/>
<feBlend mode="normal" in="SourceGraphic" in2="effect1_dropShadow_2217_166" result="shape"/>
</filter>
<clipPath id="clip0_2217_166">
<rect width="58" height="59" fill="white"/>
</clipPath>
</defs>
</svg>
