<svg width="66" height="66" viewBox="0 0 66 66" fill="none" xmlns="http://www.w3.org/2000/svg">
<g clip-path="url(#clip0_2217_176)">
<g filter="url(#filter0_d_2217_176)">
<path opacity="0.5" fill-rule="evenodd" clip-rule="evenodd" d="M60.1332 32.8001C60.1332 47.8963 47.8961 60.1335 32.7999 60.1335C17.7037 60.1335 5.46655 47.8963 5.46655 32.8001C5.46655 17.7039 17.7037 5.4668 32.7999 5.4668C47.8961 5.4668 60.1332 17.7039 60.1332 32.8001Z" fill="white"/>
<g filter="url(#filter1_d_2217_176)">
<path fill-rule="evenodd" clip-rule="evenodd" d="M32.7998 14.3506C33.3435 14.3506 33.8649 14.5666 34.2494 14.951C34.6338 15.3355 34.8498 15.8569 34.8498 16.4006V17.2671C39.3051 18.0652 43.0498 21.4135 43.0498 25.9673C43.0498 26.5109 42.8338 27.0324 42.4494 27.4168C42.0649 27.8013 41.5435 28.0173 40.9998 28.0173C40.4561 28.0173 39.9347 27.8013 39.5502 27.4168C39.1658 27.0324 38.9498 26.5109 38.9498 25.9673C38.9498 24.1141 37.4082 22.1488 34.8498 21.4491V30.9337C39.3051 31.7319 43.0498 35.0802 43.0498 39.6339C43.0498 44.1877 39.3051 47.536 34.8498 48.3341V49.2006C34.8498 49.7443 34.6338 50.2657 34.2494 50.6502C33.8649 51.0346 33.3435 51.2506 32.7998 51.2506C32.2561 51.2506 31.7347 51.0346 31.3502 50.6502C30.9658 50.2657 30.7498 49.7443 30.7498 49.2006V48.3341C26.2945 47.536 22.5498 44.1877 22.5498 39.6339C22.5498 39.0902 22.7658 38.5688 23.1502 38.1844C23.5347 37.7999 24.0561 37.5839 24.5998 37.5839C25.1435 37.5839 25.6649 37.7999 26.0494 38.1844C26.4338 38.5688 26.6498 39.0902 26.6498 39.6339C26.6498 41.4871 28.1914 43.4524 30.7498 44.1494V34.6675C26.2945 33.8693 22.5498 30.521 22.5498 25.9673C22.5498 21.4135 26.2945 18.0652 30.7498 17.2671V16.4006C30.7498 15.8569 30.9658 15.3355 31.3502 14.951C31.7347 14.5666 32.2561 14.3506 32.7998 14.3506ZM30.7498 21.4491C28.1914 22.1488 26.6498 24.1141 26.6498 25.9673C26.6498 27.8205 28.1914 29.7857 30.7498 30.4827V21.4491ZM38.9498 39.6339C38.9498 37.7807 37.4082 35.8155 34.8498 35.1185V44.1494C37.4082 43.4524 38.9498 41.4871 38.9498 39.6339Z" fill="white"/>
</g>
</g>
</g>
<defs>
<filter id="filter0_d_2217_176" x="1.46655" y="5.4668" width="62.6667" height="62.667" filterUnits="userSpaceOnUse" color-interpolation-filters="sRGB">
<feFlood flood-opacity="0" result="BackgroundImageFix"/>
<feColorMatrix in="SourceAlpha" type="matrix" values="0 0 0 0 0 0 0 0 0 0 0 0 0 0 0 0 0 0 127 0" result="hardAlpha"/>
<feOffset dy="4"/>
<feGaussianBlur stdDeviation="2"/>
<feComposite in2="hardAlpha" operator="out"/>
<feColorMatrix type="matrix" values="0 0 0 0 0 0 0 0 0 0 0 0 0 0 0 0 0 0 0.25 0"/>
<feBlend mode="normal" in2="BackgroundImageFix" result="effect1_dropShadow_2217_176"/>
<feBlend mode="normal" in="SourceGraphic" in2="effect1_dropShadow_2217_176" result="shape"/>
</filter>
<filter id="filter1_d_2217_176" x="18.5498" y="14.3506" width="28.5" height="44.9004" filterUnits="userSpaceOnUse" color-interpolation-filters="sRGB">
<feFlood flood-opacity="0" result="BackgroundImageFix"/>
<feColorMatrix in="SourceAlpha" type="matrix" values="0 0 0 0 0 0 0 0 0 0 0 0 0 0 0 0 0 0 127 0" result="hardAlpha"/>
<feOffset dy="4"/>
<feGaussianBlur stdDeviation="2"/>
<feComposite in2="hardAlpha" operator="out"/>
<feColorMatrix type="matrix" values="0 0 0 0 0 0 0 0 0 0 0 0 0 0 0 0 0 0 0.25 0"/>
<feBlend mode="normal" in2="BackgroundImageFix" result="effect1_dropShadow_2217_176"/>
<feBlend mode="normal" in="SourceGraphic" in2="effect1_dropShadow_2217_176" result="shape"/>
</filter>
<clipPath id="clip0_2217_176">
<rect width="65.6" height="65.6" fill="white"/>
</clipPath>
</defs>
</svg>
