<svg width="69" height="69" viewBox="0 0 69 69" fill="none" xmlns="http://www.w3.org/2000/svg">
<g clip-path="url(#clip0_2217_190)">
<g opacity="0.5" filter="url(#filter0_d_2217_190)">
<path d="M34.5 63.25C50.3786 63.25 63.25 50.3786 63.25 34.5C63.25 18.6214 50.3786 5.75 34.5 5.75C18.6214 5.75 5.75 18.6214 5.75 34.5C5.75 50.3786 18.6214 63.25 34.5 63.25Z" fill="white"/>
</g>
<g filter="url(#filter1_d_2217_190)">
<path d="M19.4062 34.4996C19.4062 33.7655 19.457 33.0468 19.5586 32.3433H28.75C29.3219 32.3433 29.8703 32.1162 30.2747 31.7118C30.6791 31.3074 30.9062 30.759 30.9062 30.1871C30.9062 29.6152 30.6791 29.0668 30.2747 28.6624C29.8703 28.258 29.3219 28.0308 28.75 28.0308H20.8581C21.7511 26.1464 23.025 24.4674 24.5992 23.0998C26.1735 21.7322 28.0141 20.7057 30.0049 20.0849C31.9958 19.4642 34.0936 19.2627 36.1662 19.4932C38.2388 19.7237 40.2411 20.3811 42.0469 21.4241C42.2922 21.5679 42.5635 21.6618 42.8453 21.7003C43.127 21.7388 43.4136 21.7212 43.6885 21.6486C43.9634 21.5759 44.2213 21.4495 44.4472 21.2768C44.6731 21.1041 44.8626 20.8884 45.0047 20.6421C45.1469 20.3958 45.239 20.1239 45.2757 19.8419C45.3123 19.5599 45.2928 19.2734 45.2183 18.999C45.1438 18.7246 45.0158 18.4676 44.8415 18.2428C44.6673 18.0181 44.4503 17.83 44.2031 17.6895C41.7352 16.2661 38.9843 15.4033 36.1456 15.1624C33.3069 14.9214 30.4499 15.3081 27.7774 16.295C25.1048 17.282 22.6823 18.845 20.6816 20.8732C18.6809 22.9014 17.151 25.3451 16.2006 28.0308H14.375C13.8031 28.0308 13.2547 28.258 12.8503 28.6624C12.4459 29.0668 12.2188 29.6152 12.2188 30.1871C12.2188 30.759 12.4459 31.3074 12.8503 31.7118C13.2547 32.1162 13.8031 32.3433 14.375 32.3433H15.2116C15.0526 33.7765 15.0526 35.2227 15.2116 36.6558H14.375C13.8031 36.6558 13.2547 36.883 12.8503 37.2874C12.4459 37.6918 12.2188 38.2402 12.2188 38.8121C12.2188 39.384 12.4459 39.9324 12.8503 40.3368C13.2547 40.7412 13.8031 40.9683 14.375 40.9683H16.1977C17.1483 43.6547 18.6785 46.0988 20.6798 48.1273C22.681 50.1557 25.1043 51.7188 27.7775 52.7056C30.4507 53.6923 33.3083 54.0785 36.1476 53.8368C38.9868 53.5951 41.7381 52.7313 44.206 51.3069C44.458 51.1687 44.6798 50.9816 44.8584 50.7565C45.037 50.5315 45.1689 50.273 45.2462 49.9962C45.3235 49.7195 45.3447 49.43 45.3086 49.145C45.2725 48.8599 45.1797 48.585 45.0358 48.3362C44.8919 48.0875 44.6998 47.8701 44.4706 47.6967C44.2415 47.5233 43.98 47.3974 43.7016 47.3265C43.4231 47.2556 43.1333 47.2411 42.8491 47.2838C42.565 47.3265 42.2922 47.4255 42.0469 47.5751C40.2411 48.6181 38.2388 49.2755 36.1662 49.506C34.0936 49.7365 31.9958 49.535 30.0049 48.9143C28.0141 48.2935 26.1735 47.267 24.5992 45.8994C23.025 44.5318 21.7511 42.8528 20.8581 40.9683H28.75C29.3219 40.9683 29.8703 40.7412 30.2747 40.3368C30.6791 39.9324 30.9062 39.384 30.9062 38.8121C30.9062 38.2402 30.6791 37.6918 30.2747 37.2874C29.8703 36.883 29.3219 36.6558 28.75 36.6558H19.5586C19.4538 35.9419 19.4029 35.2212 19.4062 34.4996Z" fill="white"/>
</g>
</g>
<defs>
<filter id="filter0_d_2217_190" x="1.75" y="5.75" width="65.5" height="65.5" filterUnits="userSpaceOnUse" color-interpolation-filters="sRGB">
<feFlood flood-opacity="0" result="BackgroundImageFix"/>
<feColorMatrix in="SourceAlpha" type="matrix" values="0 0 0 0 0 0 0 0 0 0 0 0 0 0 0 0 0 0 127 0" result="hardAlpha"/>
<feOffset dy="4"/>
<feGaussianBlur stdDeviation="2"/>
<feComposite in2="hardAlpha" operator="out"/>
<feColorMatrix type="matrix" values="0 0 0 0 0 0 0 0 0 0 0 0 0 0 0 0 0 0 0.25 0"/>
<feBlend mode="normal" in2="BackgroundImageFix" result="effect1_dropShadow_2217_190"/>
<feBlend mode="normal" in="SourceGraphic" in2="effect1_dropShadow_2217_190" result="shape"/>
</filter>
<filter id="filter1_d_2217_190" x="8.21875" y="15.0928" width="41.1069" height="46.8145" filterUnits="userSpaceOnUse" color-interpolation-filters="sRGB">
<feFlood flood-opacity="0" result="BackgroundImageFix"/>
<feColorMatrix in="SourceAlpha" type="matrix" values="0 0 0 0 0 0 0 0 0 0 0 0 0 0 0 0 0 0 127 0" result="hardAlpha"/>
<feOffset dy="4"/>
<feGaussianBlur stdDeviation="2"/>
<feComposite in2="hardAlpha" operator="out"/>
<feColorMatrix type="matrix" values="0 0 0 0 0 0 0 0 0 0 0 0 0 0 0 0 0 0 0.25 0"/>
<feBlend mode="normal" in2="BackgroundImageFix" result="effect1_dropShadow_2217_190"/>
<feBlend mode="normal" in="SourceGraphic" in2="effect1_dropShadow_2217_190" result="shape"/>
</filter>
<clipPath id="clip0_2217_190">
<rect width="69" height="69" fill="white"/>
</clipPath>
</defs>
</svg>
