<svg width="66" height="66" viewBox="0 0 66 66" fill="none" xmlns="http://www.w3.org/2000/svg">
<g clip-path="url(#clip0_2217_118)">
<path opacity="0.5" d="M37.1268 15.3338C38.6411 15.1206 39.5076 15.178 40.1581 15.3885C41.1913 15.722 42.1124 16.3233 42.8313 17.1187C41.7325 17.0832 40.508 17.0832 39.1304 17.0832H28.9323L30.8566 16.6404C33.6391 15.998 35.5934 15.547 37.1268 15.3338ZM12.9833 32.2532C12.9833 29.9216 12.9833 28.298 13.0872 27.0325C13.1883 25.7943 13.3796 25.0809 13.653 24.5424C14.2428 23.3842 15.1843 22.4426 16.3426 21.8528C16.881 21.5795 17.5944 21.3882 18.8354 21.287C20.0982 21.1859 21.7245 21.1832 24.0533 21.1832H38.8133C42.4924 21.1832 44.3483 21.1996 45.6521 21.533L48.708 22.3148L48.1804 19.2042C47.9809 18.0234 47.6474 16.9547 47.0598 15.9789C45.7852 13.848 43.7806 12.2523 41.4182 11.488C39.9094 11.0015 38.3268 11.0261 36.5583 11.2721C34.8254 11.5154 32.6934 12.0074 30.0311 12.6224L20.5683 14.8063C18.8162 15.2108 17.3922 15.5388 16.2442 15.8942C15.0524 16.2604 14.0247 16.695 13.0954 17.3729C11.6017 18.4625 10.4306 19.9359 9.70603 21.6369C9.2523 22.6947 9.06097 23.7962 8.97077 25.0344C8.8833 26.2371 8.8833 27.6967 8.8833 29.4952V32.2532H12.9833Z" fill="white"/>
<g filter="url(#filter0_d_2217_118)">
<path d="M19.1333 41.6836C18.5896 41.6836 18.0681 41.8996 17.6837 42.284C17.2992 42.6685 17.0833 43.1899 17.0833 43.7336C17.0833 44.2773 17.2992 44.7987 17.6837 45.1832C18.0681 45.5676 18.5896 45.7836 19.1333 45.7836H24.5999C25.1436 45.7836 25.665 45.5676 26.0495 45.1832C26.4339 44.7987 26.6499 44.2773 26.6499 43.7336C26.6499 43.1899 26.4339 42.6685 26.0495 42.284C25.665 41.8996 25.1436 41.6836 24.5999 41.6836H19.1333Z" fill="white"/>
</g>
<g filter="url(#filter1_d_2217_118)">
<path d="M23.9658 17.083H39.7071C41.5548 17.083 43.0472 17.083 44.2581 17.165C45.5072 17.2497 46.6088 17.4301 47.6556 17.862C48.8996 18.3771 50.0299 19.1323 50.982 20.0843C51.934 21.0364 52.6892 22.1667 53.2043 23.4107C53.6362 24.4548 53.8166 25.5591 53.9013 26.8055C53.9833 27.9863 53.9833 29.4295 53.9833 31.2089C54.8024 31.5963 55.4947 32.2084 55.9795 32.9739C56.4642 33.7394 56.7216 34.6269 56.7216 35.533C56.7216 36.4391 56.4642 37.3266 55.9795 38.0921C55.4947 38.8577 54.8024 39.4697 53.9833 39.8571C53.9833 41.6338 53.9833 43.0797 53.9013 44.2578C53.8166 45.5069 53.6362 46.6085 53.2043 47.6553C52.6892 48.8993 51.934 50.0296 50.982 50.9817C50.0299 51.9337 48.8996 52.6889 47.6556 53.204C46.6115 53.6359 45.5072 53.8163 44.2608 53.901C43.0445 53.983 41.5548 53.983 39.7071 53.983H23.9631C21.7436 53.983 19.9506 53.983 18.5019 53.8655C17.0068 53.7425 15.6948 53.4828 14.4812 52.8651C12.5512 51.8828 10.982 50.3145 9.9985 48.3851C9.38077 47.1715 9.12383 45.8595 9.00083 44.3671C8.8833 42.9157 8.8833 41.1227 8.8833 38.9005V32.1655C8.8833 29.9433 8.8833 28.1503 9.00083 26.6989C9.12383 25.2065 9.3835 23.8945 10.0012 22.6809C10.9835 20.7509 12.5518 19.1817 14.4812 18.1982C15.6948 17.5805 17.0068 17.3235 18.4992 17.2005C19.9506 17.083 21.7436 17.083 23.9658 17.083ZM49.8095 27.087C49.7384 26.0483 49.6072 25.4415 49.4159 24.9796C49.1068 24.2332 48.6537 23.555 48.0825 22.9838C47.5113 22.4126 46.8331 21.9595 46.0867 21.6504C45.6248 21.4591 45.0207 21.3279 43.982 21.2568C42.9215 21.183 41.5712 21.183 39.6333 21.183H24.0533C21.7245 21.183 20.0982 21.183 18.8326 21.2869C17.5944 21.388 16.881 21.5793 16.3426 21.8527C15.1843 22.4425 14.2428 23.3841 13.653 24.5423C13.3796 25.0807 13.1883 25.7941 13.0872 27.0351C12.986 28.2979 12.9833 29.9215 12.9833 32.253V38.813C12.9833 41.1445 12.9833 42.7681 13.0872 44.0337C13.1883 45.2719 13.3796 45.9853 13.653 46.5265C14.2434 47.6827 15.1836 48.6229 16.3426 49.2133C16.881 49.4867 17.5944 49.678 18.8354 49.7791C20.0982 49.8803 21.7245 49.883 24.0533 49.883H39.6333C41.574 49.883 42.9242 49.883 43.9793 49.8092C45.018 49.7381 45.6248 49.6069 46.0867 49.4156C46.8331 49.1065 47.5113 48.6534 48.0825 48.0822C48.6537 47.511 49.1068 46.8328 49.4159 46.0864C49.6072 45.6245 49.7384 45.0204 49.8095 43.9817C49.8724 43.0524 49.8833 41.8962 49.8833 40.3163H46.4666C45.8385 40.3163 45.2165 40.1926 44.6361 39.9522C44.0558 39.7118 43.5285 39.3595 43.0843 38.9153C42.6401 38.4712 42.2878 37.9439 42.0474 37.3635C41.807 36.7832 41.6833 36.1612 41.6833 35.533C41.6833 34.9049 41.807 34.2828 42.0474 33.7025C42.2878 33.1222 42.6401 32.5949 43.0843 32.1507C43.5285 31.7065 44.0558 31.3542 44.6361 31.1138C45.2165 30.8734 45.8385 30.7497 46.4666 30.7497H49.8833C49.8833 29.1698 49.8724 28.0163 49.8095 27.087ZM46.4666 34.8497C46.2854 34.8497 46.1116 34.9217 45.9834 35.0498C45.8553 35.178 45.7833 35.3518 45.7833 35.533C45.7833 35.7142 45.8553 35.888 45.9834 36.0162C46.1116 36.1443 46.2854 36.2163 46.4666 36.2163H51.9333C52.1145 36.2163 52.2883 36.1443 52.4165 36.0162C52.5446 35.888 52.6166 35.7142 52.6166 35.533C52.6166 35.3518 52.5446 35.178 52.4165 35.0498C52.2883 34.9217 52.1145 34.8497 51.9333 34.8497H46.4666Z" fill="white"/>
</g>
</g>
<defs>
<filter id="filter0_d_2217_118" x="13.0833" y="41.6836" width="17.5667" height="12.0996" filterUnits="userSpaceOnUse" color-interpolation-filters="sRGB">
<feFlood flood-opacity="0" result="BackgroundImageFix"/>
<feColorMatrix in="SourceAlpha" type="matrix" values="0 0 0 0 0 0 0 0 0 0 0 0 0 0 0 0 0 0 127 0" result="hardAlpha"/>
<feOffset dy="4"/>
<feGaussianBlur stdDeviation="2"/>
<feComposite in2="hardAlpha" operator="out"/>
<feColorMatrix type="matrix" values="0 0 0 0 0 0 0 0 0 0 0 0 0 0 0 0 0 0 0.25 0"/>
<feBlend mode="normal" in2="BackgroundImageFix" result="effect1_dropShadow_2217_118"/>
<feBlend mode="normal" in="SourceGraphic" in2="effect1_dropShadow_2217_118" result="shape"/>
</filter>
<filter id="filter1_d_2217_118" x="4.8833" y="17.083" width="55.8384" height="44.9004" filterUnits="userSpaceOnUse" color-interpolation-filters="sRGB">
<feFlood flood-opacity="0" result="BackgroundImageFix"/>
<feColorMatrix in="SourceAlpha" type="matrix" values="0 0 0 0 0 0 0 0 0 0 0 0 0 0 0 0 0 0 127 0" result="hardAlpha"/>
<feOffset dy="4"/>
<feGaussianBlur stdDeviation="2"/>
<feComposite in2="hardAlpha" operator="out"/>
<feColorMatrix type="matrix" values="0 0 0 0 0 0 0 0 0 0 0 0 0 0 0 0 0 0 0.25 0"/>
<feBlend mode="normal" in2="BackgroundImageFix" result="effect1_dropShadow_2217_118"/>
<feBlend mode="normal" in="SourceGraphic" in2="effect1_dropShadow_2217_118" result="shape"/>
</filter>
<clipPath id="clip0_2217_118">
<rect width="65.6" height="65.6" fill="white"/>
</clipPath>
</defs>
</svg>
