<svg width="54" height="54" viewBox="0 0 54 54" fill="none" xmlns="http://www.w3.org/2000/svg">
<g clip-path="url(#clip0_2217_142)">
<g filter="url(#filter0_d_2217_142)">
<path d="M7.98759 15.6078C9.49659 14.6753 11.1922 14.0859 12.9542 13.8814C14.7163 13.677 16.5018 13.8624 18.1842 14.4247C19.8667 14.9869 21.4049 15.9122 22.69 17.135C23.9752 18.3578 24.9757 19.8481 25.6208 21.5006H47.3491L51.7501 25.8971L47.3513 30.2981H44.0506L40.7498 33.5966L37.4491 30.2981H35.2508L31.9501 33.5988L28.6493 30.3003H25.6208C24.9233 32.087 23.8111 33.6824 22.3758 34.9547C20.9406 36.2271 19.2234 37.14 17.366 37.6183C15.5085 38.0965 13.5639 38.1264 11.6927 37.7054C9.82142 37.2844 8.07704 36.4245 6.60341 35.1968C5.12977 33.9691 3.9691 32.4087 3.2171 30.6442C2.4651 28.8797 2.14332 26.9617 2.27829 25.0485C2.41327 23.1352 3.00113 21.2814 3.99341 19.6399C4.98568 17.9985 6.35619 16.6165 7.98759 15.6078Z" stroke="white" stroke-width="4.3125" stroke-linecap="round" stroke-linejoin="round"/>
<path d="M12.1591 29.205C13.0346 29.205 13.8741 28.8573 14.4931 28.2382C15.1121 27.6192 15.4599 26.7797 15.4599 25.9043C15.4599 25.0289 15.1121 24.1893 14.4931 23.5703C13.8741 22.9513 13.0346 22.6035 12.1591 22.6035C11.2837 22.6035 10.4442 22.9513 9.82517 23.5703C9.20616 24.1893 8.8584 25.0289 8.8584 25.9043C8.8584 26.7797 9.20616 27.6192 9.82517 28.2382C10.4442 28.8573 11.2837 29.205 12.1591 29.205Z" stroke="white" stroke-width="4.3125" stroke-linecap="round" stroke-linejoin="round"/>
<path d="M18.1982 3.9375C18.1982 4.38505 18.376 4.81428 18.6924 5.13074C19.0089 5.44721 19.4381 5.625 19.8857 5.625C20.3332 5.625 20.7625 5.44721 21.0789 5.13074C21.3954 4.81428 21.5732 4.38505 21.5732 3.9375C21.5732 3.48995 21.3954 3.06072 21.0789 2.74426C20.7625 2.42779 20.3332 2.25 19.8857 2.25C19.4381 2.25 19.0089 2.42779 18.6924 2.74426C18.376 3.06072 18.1982 3.48995 18.1982 3.9375ZM12.1592 50.1368C12.1592 50.3584 12.2028 50.5778 12.2876 50.7825C12.3724 50.9873 12.4967 51.1733 12.6534 51.33C12.8101 51.4867 12.9962 51.611 13.2009 51.6958C13.4056 51.7806 13.6251 51.8243 13.8467 51.8243C14.0683 51.8243 14.2877 51.7806 14.4925 51.6958C14.6972 51.611 14.8832 51.4867 15.0399 51.33C15.1966 51.1733 15.3209 50.9873 15.4057 50.7825C15.4905 50.5778 15.5342 50.3584 15.5342 50.1368C15.5342 49.6892 15.3564 49.26 15.0399 48.9435C14.7235 48.627 14.2942 48.4493 13.8467 48.4493C13.3991 48.4493 12.9699 48.627 12.6534 48.9435C12.337 49.26 12.1592 49.6892 12.1592 50.1368ZM48.4494 8.33625C48.4494 8.7838 48.6272 9.21303 48.9437 9.52949C49.2602 9.84596 49.6894 10.0237 50.1369 10.0237C50.5845 10.0237 51.0137 9.84596 51.3302 9.52949C51.6466 9.21303 51.8244 8.7838 51.8244 8.33625C51.8244 7.8887 51.6466 7.45948 51.3302 7.14301C51.0137 6.82654 50.5845 6.64875 50.1369 6.64875C49.6894 6.64875 49.2602 6.82654 48.9437 7.14301C48.6272 7.45948 48.4494 7.8887 48.4494 8.33625ZM48.4494 43.5375C48.4494 43.9851 48.6272 44.4143 48.9437 44.7307C49.2602 45.0472 49.6894 45.225 50.1369 45.225C50.5845 45.225 51.0137 45.0472 51.3302 44.7307C51.6466 44.4143 51.8244 43.9851 51.8244 43.5375C51.8244 43.0899 51.6466 42.6607 51.3302 42.3443C51.0137 42.0278 50.5845 41.85 50.1369 41.85C49.6894 41.85 49.2602 42.0278 48.9437 42.3443C48.6272 42.6607 48.4494 43.0899 48.4494 43.5375Z" stroke="white" stroke-width="4.3125" stroke-linejoin="round"/>
<path d="M39.1005 17.1002V10.4964C39.1005 9.28141 40.086 8.29591 41.301 8.29591H43.4992M27 3.89941H29.1982C30.4132 3.89941 31.3987 4.88491 31.3987 6.09991V17.1024M36.9 35.7999V41.3012C36.9 42.5162 37.8855 43.4994 39.1005 43.4994H43.4992M21.501 50.1009H25.902C27.117 50.1009 28.1002 49.1154 28.1002 47.9004V36.8979" stroke="white" stroke-width="4.3125" stroke-linecap="round" stroke-linejoin="round"/>
</g>
</g>
<defs>
<filter id="filter0_d_2217_142" x="-3.90796" y="0.09375" width="61.8887" height="61.8867" filterUnits="userSpaceOnUse" color-interpolation-filters="sRGB">
<feFlood flood-opacity="0" result="BackgroundImageFix"/>
<feColorMatrix in="SourceAlpha" type="matrix" values="0 0 0 0 0 0 0 0 0 0 0 0 0 0 0 0 0 0 127 0" result="hardAlpha"/>
<feOffset dy="4"/>
<feGaussianBlur stdDeviation="2"/>
<feComposite in2="hardAlpha" operator="out"/>
<feColorMatrix type="matrix" values="0 0 0 0 0 0 0 0 0 0 0 0 0 0 0 0 0 0 0.25 0"/>
<feBlend mode="normal" in2="BackgroundImageFix" result="effect1_dropShadow_2217_142"/>
<feBlend mode="normal" in="SourceGraphic" in2="effect1_dropShadow_2217_142" result="shape"/>
</filter>
<clipPath id="clip0_2217_142">
<rect width="54" height="54" fill="white"/>
</clipPath>
</defs>
</svg>
