<svg width="56" height="56" viewBox="0 0 56 56" fill="none" xmlns="http://www.w3.org/2000/svg">
<g filter="url(#filter0_d_2217_137)">
<path fill-rule="evenodd" clip-rule="evenodd" d="M22.2183 0H22.2001C21.5145 0.00660822 20.8563 0.231288 20.2891 0.627781C19.7312 1.02185 19.2782 1.5688 18.9756 2.21375C18.6627 2.88279 18.5136 3.62849 18.5428 4.37868C18.5721 5.12887 18.7786 5.85814 19.1425 6.49588L21.1657 9.60505C17.7562 11.9146 15.0413 14.6075 13.1121 17.8554C10.8371 21.6816 9.73901 26.1322 9.73901 31.3197C9.73901 36.4311 11.7501 40.3002 15.1839 42.8015C18.5145 45.2267 23.0252 46.2609 27.9999 46.2609C32.9746 46.2609 37.4883 45.2234 40.8189 42.7882C44.2557 40.2771 46.2608 36.3882 46.2608 31.2503C46.2608 26.0628 45.1627 21.6155 42.8876 17.7893C40.9584 14.5513 38.2466 11.8618 34.8432 9.56871L36.8543 6.49588C37.2181 5.85881 37.4248 5.1303 37.4546 4.38075C37.4843 3.6312 37.3361 2.88596 37.0242 2.21706C36.7216 1.5721 36.2686 1.02515 35.7107 0.631085C35.1398 0.231954 34.4779 0.0145182 33.7997 0.00330411L22.2183 0ZM25.4519 9.05987L22.3336 4.2557C22.3272 4.21402 22.3282 4.1714 22.3366 4.13014H33.6632C33.6705 4.17161 33.6705 4.21423 33.6632 4.2557L30.5479 9.02022C30.392 9.25816 30.2843 9.52942 30.2319 9.81608C30.1794 10.1027 30.1834 10.3983 30.2437 10.6831C30.3039 10.9679 30.4189 11.2356 30.5812 11.4684C30.7434 11.7012 30.9492 11.8939 31.1849 12.0336C35.0858 14.3465 37.8796 16.9699 39.7056 20.0394C41.5226 23.0924 42.469 26.7336 42.469 31.2536C42.469 35.05 41.0676 37.6338 38.7077 39.3619C36.2415 41.1626 32.5742 42.134 27.9999 42.134C23.4256 42.134 19.7582 41.1659 17.2921 39.3685C14.9291 37.647 13.5307 35.0731 13.5307 31.3197C13.5307 26.7996 14.4771 23.1585 16.2941 20.0989C18.1232 17.0261 20.917 14.3927 24.8179 12.0633C25.0527 11.9235 25.2577 11.7311 25.4193 11.4989C25.581 11.2666 25.6957 10.9997 25.7558 10.7156C25.816 10.4316 25.8203 10.137 25.7684 9.85101C25.7166 9.56506 25.6097 9.29431 25.4549 9.05657M21.554 18.1759C21.7532 18.0132 21.9798 17.8948 22.221 17.8275C22.4622 17.7602 22.7131 17.7453 22.9596 17.7837C23.2061 17.822 23.4432 17.9129 23.6574 18.051C23.8716 18.1892 24.0588 18.372 24.2082 18.5889L27.9999 24.0969L31.7916 18.5889C32.0933 18.1508 32.5424 17.8611 33.0402 17.7837C33.5379 17.7062 34.0435 17.8473 34.4458 18.1759C34.848 18.5045 35.114 18.9937 35.1851 19.5359C35.2562 20.0781 35.1266 20.6289 34.825 21.067L31.5065 25.8844H33.3083C33.8111 25.8844 34.2933 26.102 34.6488 26.4893C35.0044 26.8765 35.2041 27.4018 35.2041 27.9495C35.2041 28.4972 35.0044 29.0224 34.6488 29.4097C34.2933 29.797 33.8111 30.0146 33.3083 30.0146H29.8957V31.9442H33.3083C33.8111 31.9442 34.2933 32.1617 34.6488 32.549C35.0044 32.9363 35.2041 33.4615 35.2041 34.0092C35.2041 34.5569 35.0044 35.0822 34.6488 35.4694C34.2933 35.8567 33.8111 36.0743 33.3083 36.0743H29.8957V37.0358C29.8957 37.5835 29.696 38.1087 29.3405 38.496C28.9849 38.8833 28.5027 39.1009 27.9999 39.1009C27.4971 39.1009 27.0149 38.8833 26.6593 38.496C26.3038 38.1087 26.104 37.5835 26.104 37.0358V36.0743H22.6915C22.1887 36.0743 21.7065 35.8567 21.3509 35.4694C20.9954 35.0822 20.7956 34.5569 20.7956 34.0092C20.7956 33.4615 20.9954 32.9363 21.3509 32.549C21.7065 32.1617 22.1887 31.9442 22.6915 31.9442H26.104V30.0146H22.6915C22.1887 30.0146 21.7065 29.797 21.3509 29.4097C20.9954 29.0224 20.7956 28.4972 20.7956 27.9495C20.7956 27.4018 20.9954 26.8765 21.3509 26.4893C21.7065 26.102 22.1887 25.8844 22.6915 25.8844H24.4933L21.1748 21.067C21.0254 20.8501 20.9167 20.6032 20.855 20.3405C20.7932 20.0778 20.7795 19.8044 20.8147 19.5359C20.8499 19.2675 20.9333 19.0092 21.0602 18.7758C21.187 18.5425 21.3548 18.3386 21.554 18.1759Z" fill="white"/>
</g>
<defs>
<filter id="filter0_d_2217_137" x="5.73901" y="0" width="44.5217" height="54.2607" filterUnits="userSpaceOnUse" color-interpolation-filters="sRGB">
<feFlood flood-opacity="0" result="BackgroundImageFix"/>
<feColorMatrix in="SourceAlpha" type="matrix" values="0 0 0 0 0 0 0 0 0 0 0 0 0 0 0 0 0 0 127 0" result="hardAlpha"/>
<feOffset dy="4"/>
<feGaussianBlur stdDeviation="2"/>
<feComposite in2="hardAlpha" operator="out"/>
<feColorMatrix type="matrix" values="0 0 0 0 0 0 0 0 0 0 0 0 0 0 0 0 0 0 0.25 0"/>
<feBlend mode="normal" in2="BackgroundImageFix" result="effect1_dropShadow_2217_137"/>
<feBlend mode="normal" in="SourceGraphic" in2="effect1_dropShadow_2217_137" result="shape"/>
</filter>
</defs>
</svg>
