<svg width="61" height="61" viewBox="0 0 61 61" fill="none" xmlns="http://www.w3.org/2000/svg">
<g clip-path="url(#clip0_2354_1056)">
<g filter="url(#filter0_d_2354_1056)">
<path d="M8.72543 44.0347L7.82568 50.3253C7.77008 50.7157 7.8061 51.1138 7.9309 51.4879C8.0557 51.862 8.26585 52.202 8.54473 52.4809C8.82361 52.7598 9.16356 52.9699 9.53769 53.0947C9.91181 53.2195 10.3099 53.2555 10.7003 53.1999L16.9909 52.3002C17.9441 52.1655 20.3332 45.7503 20.3332 45.7503C20.3332 45.7503 21.5329 46.7797 22.0234 46.9347C23.0706 47.2651 24.0898 46.2383 24.4329 45.1962L25.4166 40.6924C25.4166 40.6924 26.8831 41.4345 27.4143 41.5438C28.0904 41.6836 28.7461 41.2668 29.2113 40.7991C29.4898 40.5199 29.6995 40.1796 29.8238 39.8053L30.4999 35.609C30.4999 35.609 32.2155 36.0843 32.8026 36.153C33.4711 36.2292 34.1218 35.8886 34.5996 35.4083L37.492 32.5184C39.9403 33.3123 42.5604 33.415 45.0633 32.8149C47.5662 32.2148 49.8549 30.9354 51.6771 29.1176C54.2942 26.4937 55.7639 22.939 55.7639 19.2331C55.7639 15.5271 54.2942 11.9724 51.6771 9.34855C49.0532 6.73143 45.4985 5.26172 41.7925 5.26172C38.0866 5.26172 34.5319 6.73143 31.908 9.34855C30.0902 11.1707 28.8108 13.4594 28.2107 15.9623C27.6106 18.4653 27.7133 21.0853 28.5072 23.5336L9.44218 42.5961C9.05395 42.9855 8.80245 43.4902 8.72543 44.0347ZM47.0309 13.9947C48.4169 15.3858 49.1951 17.2694 49.1951 19.2331C49.1951 21.1968 48.4169 23.0804 47.0309 24.4715L36.5541 13.9947C37.9452 12.6087 39.8288 11.8305 41.7925 11.8305C43.7562 11.8305 45.6398 12.6087 47.0309 13.9947Z" fill="white"/>
</g>
</g>
<defs>
<filter id="filter0_d_2354_1056" x="3.80029" y="5.26172" width="55.9634" height="55.9639" filterUnits="userSpaceOnUse" color-interpolation-filters="sRGB">
<feFlood flood-opacity="0" result="BackgroundImageFix"/>
<feColorMatrix in="SourceAlpha" type="matrix" values="0 0 0 0 0 0 0 0 0 0 0 0 0 0 0 0 0 0 127 0" result="hardAlpha"/>
<feOffset dy="4"/>
<feGaussianBlur stdDeviation="2"/>
<feComposite in2="hardAlpha" operator="out"/>
<feColorMatrix type="matrix" values="0 0 0 0 0 0 0 0 0 0 0 0 0 0 0 0 0 0 0.25 0"/>
<feBlend mode="normal" in2="BackgroundImageFix" result="effect1_dropShadow_2354_1056"/>
<feBlend mode="normal" in="SourceGraphic" in2="effect1_dropShadow_2354_1056" result="shape"/>
</filter>
<clipPath id="clip0_2354_1056">
<rect width="61" height="61" fill="white"/>
</clipPath>
</defs>
</svg>
