<svg width="54" height="62" viewBox="0 0 54 62" fill="none" xmlns="http://www.w3.org/2000/svg">
<g clip-path="url(#clip0_2354_1000)">
<g filter="url(#filter0_d_2354_1000)">
<path d="M7.53029 4.30566C6.20737 4.30566 5.14307 5.42141 5.14307 6.80827C5.14307 8.19513 6.20737 9.31087 7.53029 9.31087H8.32603V24.8374C8.13704 24.9834 7.94805 25.1398 7.76901 25.2963C6.22726 26.6727 5.14307 28.5914 5.14307 30.9897C5.14307 35.8802 6.56545 39.7592 8.82337 42.7206C10.2358 44.5663 11.9168 45.9845 13.6475 47.0793L11.6681 53.3046C11.3399 54.3265 11.509 55.4422 12.1058 56.3077C12.7026 57.1732 13.6674 57.6946 14.692 57.6946H40.1557C41.1802 57.6946 42.1351 57.1836 42.7418 56.3077C43.3486 55.4318 43.5077 54.316 43.1795 53.3046L41.21 47.1002C42.9408 46.0053 44.6218 44.5872 46.0342 42.7415C48.2921 39.7801 49.7145 35.9115 49.7145 31.0105C49.7145 28.6018 48.6303 26.6831 47.0886 25.3171C46.9095 25.1607 46.7205 25.0043 46.5315 24.8583V9.33173H47.3273C48.6502 9.33173 49.7145 8.21598 49.7145 6.82912C49.7145 5.44226 48.6402 4.30566 47.3173 4.30566H7.53029ZM14.692 12.6477C14.692 11.7301 15.4081 10.9793 16.2834 10.9793H19.4664C20.3417 10.9793 21.0579 11.7301 21.0579 12.6477C21.0579 13.5653 20.3417 14.3161 19.4664 14.3161H16.2834C15.4081 14.3161 14.692 13.5653 14.692 12.6477ZM27.4238 34.3369C18.6309 34.3369 11.509 32.8458 11.509 31.0001C11.509 29.1544 18.6309 27.6633 27.4238 27.6633C36.2167 27.6633 43.3386 29.1544 43.3386 31.0001C43.3386 32.8458 36.2167 34.3369 27.4238 34.3369Z" fill="white"/>
</g>
</g>
<defs>
<filter id="filter0_d_2354_1000" x="1.14307" y="4.30566" width="52.5713" height="61.3887" filterUnits="userSpaceOnUse" color-interpolation-filters="sRGB">
<feFlood flood-opacity="0" result="BackgroundImageFix"/>
<feColorMatrix in="SourceAlpha" type="matrix" values="0 0 0 0 0 0 0 0 0 0 0 0 0 0 0 0 0 0 127 0" result="hardAlpha"/>
<feOffset dy="4"/>
<feGaussianBlur stdDeviation="2"/>
<feComposite in2="hardAlpha" operator="out"/>
<feColorMatrix type="matrix" values="0 0 0 0 0 0 0 0 0 0 0 0 0 0 0 0 0 0 0.25 0"/>
<feBlend mode="normal" in2="BackgroundImageFix" result="effect1_dropShadow_2354_1000"/>
<feBlend mode="normal" in="SourceGraphic" in2="effect1_dropShadow_2354_1000" result="shape"/>
</filter>
<clipPath id="clip0_2354_1000">
<rect width="54" height="62" fill="white"/>
</clipPath>
</defs>
</svg>
