<svg width="60" height="60" viewBox="0 0 60 60" fill="none" xmlns="http://www.w3.org/2000/svg">
<g clip-path="url(#clip0_2354_957)">
<g filter="url(#filter0_d_2354_957)">
<path d="M28.9454 2.57812V12.0703H31.0547V2.57812H28.9454ZM25.1983 14.1797L23.8506 19.5703H36.1495L34.8018 14.1797H25.1983ZM22.5 21.6797C20.3907 21.6797 17.1513 24.1944 14.4173 27.6118C12.1241 30.4782 10.1399 33.8783 9.04199 36.4453H50.9581C49.8599 33.8783 47.8751 30.4785 45.5815 27.6121C42.8473 24.1946 39.6074 21.6797 37.5 21.6797H22.5ZM25.514 38.5547C25.5945 39.1949 25.7519 40.0402 26.0668 40.8795C26.3779 41.7088 26.8333 42.4915 27.4503 43.04C28.0673 43.5886 28.8291 43.9453 30 43.9453C31.171 43.9453 31.9328 43.5886 32.5498 43.04C33.1668 42.4915 33.6221 41.7088 33.9333 40.8795C34.2483 40.0402 34.4056 39.1949 34.4861 38.5547H25.5141H25.514ZM23.4836 39.2739L12.8962 41.6268L13.3539 43.6857L23.987 41.3228C23.7373 40.5913 23.581 39.8814 23.4836 39.2739ZM36.5165 39.2741C36.4192 39.8815 36.2628 40.5914 36.013 41.3228L46.6462 43.6857L47.1039 41.6268L36.5165 39.2741ZM25.0683 43.5081L17.9494 51.8136L19.5507 53.1864L26.5555 45.0142C26.379 44.8915 26.2098 44.7586 26.0488 44.6162C25.6681 44.2777 25.345 43.9023 25.0683 43.5081ZM34.9318 43.5081C34.6551 43.9024 34.332 44.2777 33.9513 44.6162C33.7903 44.7586 33.6211 44.8915 33.4445 45.0142L40.4494 53.1864L42.0507 51.8136L34.9318 43.5081ZM28.9454 45.9694V57.6562H31.0547V45.9693C30.3562 46.083 29.6439 46.083 28.9454 45.9693V45.9694Z" fill="white"/>
</g>
</g>
<defs>
<filter id="filter0_d_2354_957" x="5.04199" y="2.57812" width="49.916" height="63.0781" filterUnits="userSpaceOnUse" color-interpolation-filters="sRGB">
<feFlood flood-opacity="0" result="BackgroundImageFix"/>
<feColorMatrix in="SourceAlpha" type="matrix" values="0 0 0 0 0 0 0 0 0 0 0 0 0 0 0 0 0 0 127 0" result="hardAlpha"/>
<feOffset dy="4"/>
<feGaussianBlur stdDeviation="2"/>
<feComposite in2="hardAlpha" operator="out"/>
<feColorMatrix type="matrix" values="0 0 0 0 0 0 0 0 0 0 0 0 0 0 0 0 0 0 0.25 0"/>
<feBlend mode="normal" in2="BackgroundImageFix" result="effect1_dropShadow_2354_957"/>
<feBlend mode="normal" in="SourceGraphic" in2="effect1_dropShadow_2354_957" result="shape"/>
</filter>
<clipPath id="clip0_2354_957">
<rect width="60" height="60" fill="white"/>
</clipPath>
</defs>
</svg>
