<svg width="58" height="58" viewBox="0 0 58 58" fill="none" xmlns="http://www.w3.org/2000/svg">
<g clip-path="url(#clip0_2354_1004)">
<g filter="url(#filter0_d_2354_1004)">
<path d="M31.737 27.5036L28.7792 24.5447C28.1017 23.867 27.1835 23.4851 26.2252 23.4826C25.267 23.4801 24.3467 23.857 23.6657 24.5311L3.10172 43.5091C2.35293 44.2148 1.86129 45.1143 1.81598 46.1213C1.79411 46.6208 1.87547 47.1194 2.05499 47.586C2.2345 48.0527 2.50831 48.4772 2.8593 48.8333L7.27727 53.3C7.27964 53.3029 7.2823 53.3055 7.2852 53.3079C7.96798 53.9883 8.89166 54.3717 9.85555 54.375H9.98922C10.9963 54.3376 11.898 53.8652 12.6139 53.1096L31.7245 32.6397C32.0634 32.3038 32.3326 31.9042 32.5167 31.4639C32.7008 31.0237 32.7961 30.5514 32.7973 30.0742C32.7985 29.597 32.7054 29.1243 32.5234 28.6832C32.3415 28.242 32.0742 27.8412 31.737 27.5036ZM55.5079 21.5234L55.4728 21.4883L51.5906 17.6458C51.3632 17.4192 51.0932 17.2398 50.7961 17.1181C50.499 16.9964 50.1807 16.9347 49.8597 16.9367C49.3395 16.9372 48.8327 17.1013 48.4108 17.4057C48.4108 17.357 48.4176 17.3094 48.421 17.2675C48.472 16.5311 48.5513 15.4187 47.832 14.4105C46.9767 13.2578 46.0377 12.1696 45.0226 11.1548C45.0199 11.1515 45.0168 11.1485 45.0135 11.1457C43.5046 9.65949 40.2206 6.86032 35.1898 4.80879C33.2818 4.02589 31.2391 3.62374 29.1768 3.625C25.6016 3.625 22.8829 5.23813 21.8418 6.19422C21.2524 6.75729 20.7148 7.37225 20.2355 8.03164C20.0066 8.34766 19.8857 8.72914 19.891 9.11935C19.8962 9.50955 20.0272 9.88765 20.2646 10.1974C20.5019 10.5072 20.8329 10.7321 21.2083 10.8386C21.5837 10.9452 21.9835 10.9278 22.3482 10.7889C22.666 10.6703 22.9905 10.5708 23.3202 10.491C24.0068 10.3458 24.7109 10.3019 25.4102 10.3607C26.9044 10.4842 28.6716 11.2262 29.4532 11.8436C30.7786 12.9095 31.4164 14.3459 31.5217 16.4983C31.5421 16.931 30.6472 18.5532 29.2561 20.4042C28.9911 20.7535 28.8617 21.1871 28.8919 21.6245C28.9221 22.0619 29.1099 22.4735 29.4204 22.7831L33.3184 26.6811C33.6459 27.0095 34.0869 27.1998 34.5505 27.2128C35.0141 27.2259 35.465 27.0607 35.8106 26.7514C36.9128 25.767 38.5916 24.283 39.1784 23.9193C40.0495 23.3835 40.6726 23.2804 40.8436 23.2623C41.2875 23.2189 41.734 23.313 42.1226 23.5319C42.1245 23.5513 42.1224 23.5709 42.1163 23.5894C42.1103 23.6079 42.1005 23.625 42.0875 23.6395L41.8813 23.8355L41.8473 23.8672C41.6195 24.0942 41.4389 24.364 41.3158 24.6611C41.1927 24.9581 41.1296 25.2766 41.1301 25.5982C41.1306 25.9198 41.1948 26.2381 41.3188 26.5347C41.4429 26.8314 41.6244 27.1006 41.853 27.3268L45.734 31.1682C45.9614 31.3947 46.2315 31.5739 46.5286 31.6954C46.8257 31.8169 47.1439 31.8784 47.4649 31.8762C48.1095 31.8772 48.7287 31.625 49.1891 31.1739L55.4762 24.9638C55.4977 24.9423 55.5192 24.9196 55.5396 24.897C55.9614 24.4346 56.1926 23.8298 56.1867 23.204C56.1808 22.5782 55.9383 21.9778 55.5079 21.5234Z" fill="white"/>
</g>
</g>
<defs>
<filter id="filter0_d_2354_1004" x="-2.1875" y="3.625" width="62.3745" height="58.75" filterUnits="userSpaceOnUse" color-interpolation-filters="sRGB">
<feFlood flood-opacity="0" result="BackgroundImageFix"/>
<feColorMatrix in="SourceAlpha" type="matrix" values="0 0 0 0 0 0 0 0 0 0 0 0 0 0 0 0 0 0 127 0" result="hardAlpha"/>
<feOffset dy="4"/>
<feGaussianBlur stdDeviation="2"/>
<feComposite in2="hardAlpha" operator="out"/>
<feColorMatrix type="matrix" values="0 0 0 0 0 0 0 0 0 0 0 0 0 0 0 0 0 0 0.25 0"/>
<feBlend mode="normal" in2="BackgroundImageFix" result="effect1_dropShadow_2354_1004"/>
<feBlend mode="normal" in="SourceGraphic" in2="effect1_dropShadow_2354_1004" result="shape"/>
</filter>
<clipPath id="clip0_2354_1004">
<rect width="58" height="58" fill="white"/>
</clipPath>
</defs>
</svg>
