<svg width="55" height="55" viewBox="0 0 55 55" fill="none" xmlns="http://www.w3.org/2000/svg">
<g clip-path="url(#clip0_2354_1064)">
<g filter="url(#filter0_d_2354_1064)">
<path d="M43.5415 16.0413H25.2082V32.083H6.87484V11.458H2.2915V45.833H6.87484V38.958H48.1248V45.833H52.7082V25.208C52.7082 22.7769 51.7424 20.4453 50.0233 18.7262C48.3042 17.0071 45.9727 16.0413 43.5415 16.0413ZM16.0415 29.7913C17.8649 29.7913 19.6136 29.067 20.9029 27.7777C22.1922 26.4884 22.9165 24.7397 22.9165 22.9163C22.9165 21.093 22.1922 19.3443 20.9029 18.055C19.6136 16.7657 17.8649 16.0413 16.0415 16.0413C14.2181 16.0413 12.4695 16.7657 11.1801 18.055C9.89083 19.3443 9.1665 21.093 9.1665 22.9163C9.1665 24.7397 9.89083 26.4884 11.1801 27.7777C12.4695 29.067 14.2181 29.7913 16.0415 29.7913Z" fill="white"/>
</g>
</g>
<defs>
<filter id="filter0_d_2354_1064" x="-1.7085" y="11.458" width="58.4165" height="42.375" filterUnits="userSpaceOnUse" color-interpolation-filters="sRGB">
<feFlood flood-opacity="0" result="BackgroundImageFix"/>
<feColorMatrix in="SourceAlpha" type="matrix" values="0 0 0 0 0 0 0 0 0 0 0 0 0 0 0 0 0 0 127 0" result="hardAlpha"/>
<feOffset dy="4"/>
<feGaussianBlur stdDeviation="2"/>
<feComposite in2="hardAlpha" operator="out"/>
<feColorMatrix type="matrix" values="0 0 0 0 0 0 0 0 0 0 0 0 0 0 0 0 0 0 0.25 0"/>
<feBlend mode="normal" in2="BackgroundImageFix" result="effect1_dropShadow_2354_1064"/>
<feBlend mode="normal" in="SourceGraphic" in2="effect1_dropShadow_2354_1064" result="shape"/>
</filter>
<clipPath id="clip0_2354_1064">
<rect width="55" height="55" fill="white"/>
</clipPath>
</defs>
</svg>
