<svg width="61" height="61" viewBox="0 0 61 61" fill="none" xmlns="http://www.w3.org/2000/svg">
<g clip-path="url(#clip0_2354_1045)">
<g filter="url(#filter0_d_2354_1045)">
<path d="M7.6001 32.9332C7.6001 38.9801 10.0022 44.7794 14.2781 49.0552C18.5539 53.3311 24.3532 55.7332 30.4001 55.7332C30.4001 43.0665 20.1908 32.9332 7.6001 32.9332ZM30.4001 13.9332C32.0798 13.9332 33.6907 14.6005 34.8784 15.7882C36.0662 16.9759 36.7334 18.5868 36.7334 20.2665C36.7334 21.9462 36.0662 23.5571 34.8784 24.7449C33.6907 25.9326 32.0798 26.5999 30.4001 26.5999C28.7204 26.5999 27.1095 25.9326 25.9218 24.7449C24.734 23.5571 24.0668 21.9462 24.0668 20.2665C24.0668 18.5868 24.734 16.9759 25.9218 15.7882C27.1095 14.6005 28.7204 13.9332 30.4001 13.9332ZM14.1868 25.9665C14.1868 27.6462 14.854 29.2571 16.0418 30.4449C17.2295 31.6326 18.8404 32.2999 20.5201 32.2999C21.8628 32.2999 23.1041 31.8692 24.0668 31.1852V31.6665C24.0668 33.3462 24.734 34.9571 25.9218 36.1449C27.1095 37.3326 28.7204 37.9999 30.4001 37.9999C32.0798 37.9999 33.6907 37.3326 34.8784 36.1449C36.0662 34.9571 36.7334 33.3462 36.7334 31.6665V31.1852C37.6961 31.8692 38.9374 32.2999 40.2801 32.2999C41.9598 32.2999 43.5707 31.6326 44.7584 30.4449C45.9462 29.2571 46.6134 27.6462 46.6134 25.9665C46.6134 23.4332 45.1188 21.2799 42.9908 20.2665C45.1188 19.2532 46.6134 17.0745 46.6134 14.5665C46.6134 12.8868 45.9462 11.2759 44.7584 10.0882C43.5707 8.90046 41.9598 8.2332 40.2801 8.2332C38.9374 8.2332 37.6961 8.63854 36.7334 9.34787V8.86654C36.7334 7.18683 36.0662 5.57592 34.8784 4.38819C33.6907 3.20046 32.0798 2.5332 30.4001 2.5332C28.7204 2.5332 27.1095 3.20046 25.9218 4.38819C24.734 5.57592 24.0668 7.18683 24.0668 8.86654V9.34787C23.1041 8.63854 21.8628 8.2332 20.5201 8.2332C18.8404 8.2332 17.2295 8.90046 16.0418 10.0882C14.854 11.2759 14.1868 12.8868 14.1868 14.5665C14.1868 17.0745 15.6814 19.2532 17.8094 20.2665C15.6814 21.2799 14.1868 23.4332 14.1868 25.9665ZM30.4001 55.7332C36.447 55.7332 42.2463 53.3311 46.5221 49.0552C50.798 44.7794 53.2001 38.9801 53.2001 32.9332C40.5334 32.9332 30.4001 43.0665 30.4001 55.7332Z" fill="white"/>
</g>
</g>
<defs>
<filter id="filter0_d_2354_1045" x="3.6001" y="2.5332" width="53.6001" height="61.2002" filterUnits="userSpaceOnUse" color-interpolation-filters="sRGB">
<feFlood flood-opacity="0" result="BackgroundImageFix"/>
<feColorMatrix in="SourceAlpha" type="matrix" values="0 0 0 0 0 0 0 0 0 0 0 0 0 0 0 0 0 0 127 0" result="hardAlpha"/>
<feOffset dy="4"/>
<feGaussianBlur stdDeviation="2"/>
<feComposite in2="hardAlpha" operator="out"/>
<feColorMatrix type="matrix" values="0 0 0 0 0 0 0 0 0 0 0 0 0 0 0 0 0 0 0.25 0"/>
<feBlend mode="normal" in2="BackgroundImageFix" result="effect1_dropShadow_2354_1045"/>
<feBlend mode="normal" in="SourceGraphic" in2="effect1_dropShadow_2354_1045" result="shape"/>
</filter>
<clipPath id="clip0_2354_1045">
<rect width="60.8" height="60.8" fill="white"/>
</clipPath>
</defs>
</svg>
