<svg width="67" height="67" viewBox="0 0 67 67" fill="none" xmlns="http://www.w3.org/2000/svg">
<g clip-path="url(#clip0_2354_1051)">
<g filter="url(#filter0_d_2354_1051)">
<path d="M52.3435 37.6877H32.2697L38.1348 31.8226C40.2553 32.8905 42.5916 33.4598 44.9657 33.4872C47.3552 33.4935 49.7001 32.8396 51.7416 31.5976C57.9495 27.8393 61.276 19.1397 60.64 8.32552C60.6101 7.8133 60.3931 7.32989 60.0303 6.96708C59.6675 6.60427 59.1841 6.38731 58.6719 6.3574C47.8577 5.72142 39.1581 9.04787 35.3972 15.2558C32.9502 19.2994 32.8873 24.1831 35.1721 28.8652L31.406 32.6313L28.2104 29.4358C29.7807 25.968 29.6682 22.3694 27.8466 19.3648C25.0018 14.6565 18.4797 12.1466 10.3978 12.6203C9.88651 12.6508 9.40409 12.8677 9.04188 13.2299C8.67967 13.5921 8.46281 14.0745 8.43234 14.5858C7.95601 22.6651 10.4685 29.1871 15.1794 32.0346C16.7554 32.9972 18.5672 33.5045 20.4138 33.5002C22.0891 33.4836 23.7416 33.1098 25.2609 32.4036L28.446 35.594L26.3522 37.6877H14.656C14.1007 37.6877 13.5682 37.9083 13.1755 38.301C12.7829 38.6936 12.5623 39.2262 12.5623 39.7815C12.5623 40.3368 12.7829 40.8694 13.1755 41.262C13.5682 41.6547 14.1007 41.8752 14.656 41.8752H17.1659L20.6232 57.4397C20.825 58.3723 21.3413 59.2072 22.0857 59.8043C22.83 60.4014 23.757 60.7244 24.7112 60.719H42.2909C43.2449 60.7234 44.1714 60.4001 44.9155 59.8031C45.6597 59.2062 46.1763 58.3719 46.3789 57.4397L49.8362 41.8752H52.3435C52.8988 41.8752 53.4314 41.6547 53.824 41.262C54.2167 40.8694 54.4373 40.3368 54.4373 39.7815C54.4373 39.2262 54.2167 38.6936 53.824 38.301C53.4314 37.9083 52.8988 37.6877 52.3435 37.6877Z" fill="white"/>
</g>
</g>
<defs>
<filter id="filter0_d_2354_1051" x="4.375" y="6.28027" width="60.3423" height="62.4385" filterUnits="userSpaceOnUse" color-interpolation-filters="sRGB">
<feFlood flood-opacity="0" result="BackgroundImageFix"/>
<feColorMatrix in="SourceAlpha" type="matrix" values="0 0 0 0 0 0 0 0 0 0 0 0 0 0 0 0 0 0 127 0" result="hardAlpha"/>
<feOffset dy="4"/>
<feGaussianBlur stdDeviation="2"/>
<feComposite in2="hardAlpha" operator="out"/>
<feColorMatrix type="matrix" values="0 0 0 0 0 0 0 0 0 0 0 0 0 0 0 0 0 0 0.25 0"/>
<feBlend mode="normal" in2="BackgroundImageFix" result="effect1_dropShadow_2354_1051"/>
<feBlend mode="normal" in="SourceGraphic" in2="effect1_dropShadow_2354_1051" result="shape"/>
</filter>
<clipPath id="clip0_2354_1051">
<rect width="67" height="67" fill="white"/>
</clipPath>
</defs>
</svg>
