<svg width="51" height="51" viewBox="0 0 51 51" fill="none" xmlns="http://www.w3.org/2000/svg">
<g clip-path="url(#clip0_2354_970)">
<g filter="url(#filter0_d_2354_970)">
<path d="M43.0312 11.9534H31.2773L36.7598 6.47094C37.209 6.02184 37.4613 5.41272 37.4613 4.77758C37.4613 4.14245 37.209 3.53333 36.7598 3.08422C36.3107 2.63512 35.7016 2.38281 35.0665 2.38281C34.4314 2.38281 33.8222 2.63512 33.3731 3.08422L25.5 10.9574L17.6289 3.0902C17.1798 2.64109 16.5706 2.38879 15.9355 2.38879C15.3004 2.38879 14.6913 2.64109 14.2421 3.0902C13.793 3.53931 13.5407 4.14843 13.5407 4.78356C13.5407 5.41869 13.793 6.02781 14.2421 6.47692L19.7227 11.9534H7.96875C6.91203 11.9534 5.89859 12.3732 5.15137 13.1204C4.40416 13.8677 3.98438 14.8811 3.98438 15.9378V39.8441C3.98438 40.9008 4.40416 41.9142 5.15137 42.6614C5.89859 43.4087 6.91203 43.8284 7.96875 43.8284H43.0312C44.088 43.8284 45.1014 43.4087 45.8486 42.6614C46.5958 41.9142 47.0156 40.9008 47.0156 39.8441V15.9378C47.0156 14.8811 46.5958 13.8677 45.8486 13.1204C45.1014 12.3732 44.088 11.9534 43.0312 11.9534ZM8.76562 16.7347H25.5V39.0472H8.76562V16.7347ZM42.2344 39.0472H30.2812V16.7347H42.2344V39.0472ZM33.4688 23.1097C33.4688 22.4793 33.6557 21.863 34.0059 21.3388C34.3562 20.8146 34.854 20.4061 35.4364 20.1648C36.0189 19.9236 36.6598 19.8605 37.2781 19.9834C37.8964 20.1064 38.4644 20.41 38.9102 20.8558C39.3559 21.3016 39.6595 21.8695 39.7825 22.4878C39.9055 23.1062 39.8424 23.7471 39.6011 24.3295C39.3599 24.9119 38.9513 25.4098 38.4271 25.76C37.903 26.1103 37.2867 26.2972 36.6562 26.2972C35.8109 26.2972 35.0001 25.9614 34.4023 25.3636C33.8046 24.7658 33.4688 23.9551 33.4688 23.1097ZM39.8438 32.6722C39.8438 33.3026 39.6568 33.9189 39.3066 34.4431C38.9563 34.9673 38.4585 35.3758 37.8761 35.6171C37.2936 35.8583 36.6527 35.9214 36.0344 35.7984C35.4161 35.6755 34.8481 35.3719 34.4023 34.9261C33.9566 34.4803 33.653 33.9124 33.53 33.294C33.407 32.6757 33.4701 32.0348 33.7114 31.4524C33.9526 30.8699 34.3612 30.3721 34.8854 30.0219C35.4095 29.6716 36.0258 29.4847 36.6562 29.4847C37.5016 29.4847 38.3124 29.8205 38.9102 30.4183C39.5079 31.0161 39.8438 31.8268 39.8438 32.6722Z" fill="white"/>
</g>
</g>
<defs>
<filter id="filter0_d_2354_970" x="-0.015625" y="2.38281" width="51.0312" height="49.4453" filterUnits="userSpaceOnUse" color-interpolation-filters="sRGB">
<feFlood flood-opacity="0" result="BackgroundImageFix"/>
<feColorMatrix in="SourceAlpha" type="matrix" values="0 0 0 0 0 0 0 0 0 0 0 0 0 0 0 0 0 0 127 0" result="hardAlpha"/>
<feOffset dy="4"/>
<feGaussianBlur stdDeviation="2"/>
<feComposite in2="hardAlpha" operator="out"/>
<feColorMatrix type="matrix" values="0 0 0 0 0 0 0 0 0 0 0 0 0 0 0 0 0 0 0.25 0"/>
<feBlend mode="normal" in2="BackgroundImageFix" result="effect1_dropShadow_2354_970"/>
<feBlend mode="normal" in="SourceGraphic" in2="effect1_dropShadow_2354_970" result="shape"/>
</filter>
<clipPath id="clip0_2354_970">
<rect width="51" height="51" fill="white"/>
</clipPath>
</defs>
</svg>
