<svg width="56" height="56" viewBox="0 0 56 56" fill="none" xmlns="http://www.w3.org/2000/svg">
<g clip-path="url(#clip0_2354_974)">
<g filter="url(#filter0_d_2354_974)">
<path fill-rule="evenodd" clip-rule="evenodd" d="M25.0752 23.8353C26.6642 18.009 28.2614 12.1512 29.5645 6.24551C29.8492 4.95518 29.54 3.37551 28.0304 2.81434C27.7714 2.71712 27.4754 2.62379 27.1425 2.53434C26.6432 2.39901 26.5067 2.37918 26.2325 2.33251C24.6459 2.06418 23.5889 3.27751 23.1899 4.53751C21.3582 10.3253 19.8065 16.2205 18.2642 22.0842L18.2409 22.1693C18.3264 22.167 18.4116 22.1662 18.4964 22.167C20.9965 22.167 23.198 22.7842 25.0752 23.8353ZM31.5 32.667C31.5 32.0482 31.7459 31.4547 32.1834 31.0171C32.621 30.5795 33.2145 30.3337 33.8334 30.3337H45.5C46.1189 30.3337 46.7124 30.5795 47.1499 31.0171C47.5875 31.4547 47.8334 32.0482 47.8334 32.667C47.8334 33.2859 47.5875 33.8793 47.1499 34.3169C46.7124 34.7545 46.1189 35.0003 45.5 35.0003H33.8334C33.2145 35.0003 32.621 34.7545 32.1834 34.3169C31.7459 33.8793 31.5 33.2859 31.5 32.667ZM37.3334 39.667C36.7145 39.667 36.121 39.9128 35.6834 40.3504C35.2459 40.788 35 41.3815 35 42.0003C35 42.6192 35.2459 43.2127 35.6834 43.6503C36.121 44.0878 36.7145 44.3337 37.3334 44.3337H49C49.6189 44.3337 50.2124 44.0878 50.6499 43.6503C51.0875 43.2127 51.3334 42.6192 51.3334 42.0003C51.3334 41.3815 51.0875 40.788 50.6499 40.3504C50.2124 39.9128 49.6189 39.667 49 39.667H37.3334ZM40.8334 49.0003C40.2145 49.0003 39.621 49.2462 39.1834 49.6838C38.7459 50.1213 38.5 50.7148 38.5 51.3337C38.5 51.9525 38.7459 52.546 39.1834 52.9836C39.621 53.4212 40.2145 53.667 40.8334 53.667H52.5C53.1189 53.667 53.7124 53.4212 54.1499 52.9836C54.5875 52.546 54.8334 51.9525 54.8334 51.3337C54.8334 50.7148 54.5875 50.1213 54.1499 49.6838C53.7124 49.2462 53.1189 49.0003 52.5 49.0003H40.8334ZM18.4964 25.0837C11.445 25.0837 6.08303 30.3652 4.35753 36.8297C3.32503 40.703 2.29953 45.2728 1.9122 49.3387C1.65203 52.0722 3.6762 54.325 6.27086 54.6283C7.48653 54.7707 9.0102 54.9305 10.7147 55.0682C8.72553 50.79 8.5937 46.2528 8.8457 44.1283C8.90587 43.6723 9.1432 43.2582 9.50632 42.9758C9.86945 42.6934 10.3292 42.5654 10.786 42.6193C11.2429 42.6733 11.6601 42.905 11.9474 43.2643C12.2347 43.6235 12.369 44.0815 12.3212 44.539C12.0832 46.5527 12.3165 51.4328 14.8459 55.3295C16.0942 55.3843 17.3799 55.417 18.6667 55.417C19.95 55.417 21.2964 55.3843 22.6474 55.3295C21.3185 53.4313 20.5217 51.371 20.041 49.607C19.7123 48.3986 19.4813 47.1658 19.3504 45.9203C19.3 45.4383 19.2673 44.9546 19.2524 44.4702L19.25 44.3768V44.3337C19.2663 43.8806 19.4576 43.4515 19.7838 43.1366C20.1099 42.8217 20.5455 42.6455 20.9989 42.6452C21.4523 42.6449 21.8881 42.8205 22.2147 43.1349C22.5413 43.4494 22.7332 43.8783 22.75 44.3313V44.392L22.7594 44.6277C22.7699 44.84 22.7897 45.1573 22.8317 45.5552C22.9157 46.3532 23.0837 47.4603 23.4174 48.6853C24.0159 50.881 25.1055 53.3042 27.0527 55.0857C28.042 55.018 28.9987 54.9457 29.8959 54.8698C34.0259 54.5292 35.672 49.5627 32.7904 46.7347L31.5 45.4688C30.8736 44.8543 30.3799 44.1178 30.0494 43.3049C29.7189 42.492 29.5586 41.62 29.5785 40.7427L29.645 37.7443C29.7862 31.3498 25.4602 25.0837 18.4964 25.0837Z" fill="white"/>
</g>
</g>
<defs>
<filter id="filter0_d_2354_974" x="-2.11035" y="2.29492" width="60.9438" height="61.1221" filterUnits="userSpaceOnUse" color-interpolation-filters="sRGB">
<feFlood flood-opacity="0" result="BackgroundImageFix"/>
<feColorMatrix in="SourceAlpha" type="matrix" values="0 0 0 0 0 0 0 0 0 0 0 0 0 0 0 0 0 0 127 0" result="hardAlpha"/>
<feOffset dy="4"/>
<feGaussianBlur stdDeviation="2"/>
<feComposite in2="hardAlpha" operator="out"/>
<feColorMatrix type="matrix" values="0 0 0 0 0 0 0 0 0 0 0 0 0 0 0 0 0 0 0.25 0"/>
<feBlend mode="normal" in2="BackgroundImageFix" result="effect1_dropShadow_2354_974"/>
<feBlend mode="normal" in="SourceGraphic" in2="effect1_dropShadow_2354_974" result="shape"/>
</filter>
<clipPath id="clip0_2354_974">
<rect width="56" height="56" fill="white"/>
</clipPath>
</defs>
</svg>
