<svg width="58" height="58" viewBox="0 0 58 58" fill="none" xmlns="http://www.w3.org/2000/svg">
<g clip-path="url(#clip0_2354_953)">
<g filter="url(#filter0_d_2354_953)">
<path d="M41.0832 4.83301C42.9324 4.8329 44.7118 5.53946 46.0573 6.80811C47.4028 8.07676 48.2126 9.8116 48.3211 11.6577L48.3332 12.083C50.256 12.083 52.1001 12.8468 53.4597 14.2065C54.8193 15.5661 55.5832 17.4102 55.5832 19.333C55.5833 23.0846 54.1294 26.6902 51.5269 29.3923C48.9244 32.0944 45.3759 33.6827 41.6269 33.8233L41.0832 33.833H31.4165L31.779 33.8451C32.9298 33.9316 34.0116 34.4269 34.8289 35.2416C35.6462 36.0563 36.1451 37.1365 36.2353 38.2869L36.2498 38.6663V48.333C36.2502 49.5524 35.7897 50.7269 34.9606 51.621C34.1314 52.5151 32.995 53.0628 31.779 53.1543L31.4165 53.1663H26.5832C25.3638 53.1667 24.1893 52.7062 23.2952 51.8771C22.4011 51.0479 21.8534 49.9115 21.7619 48.6955L21.7498 48.333V38.6663C21.7495 37.4469 22.21 36.2725 23.0391 35.3784C23.8683 34.4842 25.0047 33.9365 26.2207 33.8451L26.5832 33.833V31.4163C26.5833 30.8244 26.8006 30.2531 27.1939 29.8108C27.5872 29.3684 28.1292 29.0858 28.7171 29.0166L28.9998 28.9997H41.0832C43.6469 28.9997 46.1057 27.9812 47.9185 26.1684C49.7314 24.3555 50.7498 21.8968 50.7498 19.333C50.7498 18.7411 50.5324 18.1698 50.1391 17.7274C49.7458 17.2851 49.2038 17.0025 48.6159 16.9333L48.3332 16.9163L48.3211 17.3417C48.217 19.1145 47.4658 20.7875 46.2101 22.0432C44.9543 23.299 43.2813 24.0502 41.5085 24.1543L41.0832 24.1663H16.9165C15.0672 24.1664 13.2878 23.4599 11.9424 22.1912C10.5969 20.9226 9.78708 19.1877 9.67859 17.3417L9.6665 16.9163V12.083C9.6664 10.2337 10.373 8.45435 11.6416 7.10888C12.9103 5.76341 14.6451 4.95358 16.4912 4.84509L16.9165 4.83301H41.0832Z" fill="white"/>
</g>
</g>
<defs>
<filter id="filter0_d_2354_953" x="5.6665" y="4.83301" width="53.9165" height="56.333" filterUnits="userSpaceOnUse" color-interpolation-filters="sRGB">
<feFlood flood-opacity="0" result="BackgroundImageFix"/>
<feColorMatrix in="SourceAlpha" type="matrix" values="0 0 0 0 0 0 0 0 0 0 0 0 0 0 0 0 0 0 127 0" result="hardAlpha"/>
<feOffset dy="4"/>
<feGaussianBlur stdDeviation="2"/>
<feComposite in2="hardAlpha" operator="out"/>
<feColorMatrix type="matrix" values="0 0 0 0 0 0 0 0 0 0 0 0 0 0 0 0 0 0 0.25 0"/>
<feBlend mode="normal" in2="BackgroundImageFix" result="effect1_dropShadow_2354_953"/>
<feBlend mode="normal" in="SourceGraphic" in2="effect1_dropShadow_2354_953" result="shape"/>
</filter>
<clipPath id="clip0_2354_953">
<rect width="58" height="58" fill="white"/>
</clipPath>
</defs>
</svg>
