<svg width="43" height="43" viewBox="0 0 43 43" fill="none" xmlns="http://www.w3.org/2000/svg">
<g clip-path="url(#clip0_2354_963)">
<g filter="url(#filter0_d_2354_963)">
<path fill-rule="evenodd" clip-rule="evenodd" d="M22.3313 0.266693C22.0886 0.0938557 21.798 0.000976562 21.5 0.000976562C21.202 0.000976562 20.9114 0.0938557 20.6687 0.266693L0.602 14.6C0.415967 14.7325 0.264276 14.9075 0.159561 15.1104C0.0548468 15.3134 0.000140814 15.5384 0 15.7668L0 41.5668C0 41.9469 0.151011 42.3115 0.419814 42.5803C0.688616 42.8491 1.05319 43.0001 1.43333 43.0001H5.73333V22.9334H20.0667V43.0001H41.5667C41.9468 43.0001 42.3114 42.8491 42.5802 42.5803C42.849 42.3115 43 41.9469 43 41.5668V15.7668C42.9999 15.5384 42.9452 15.3134 42.8404 15.1104C42.7357 14.9075 42.584 14.7325 42.398 14.6L40.1333 12.9804V5.73343H37.2667V10.9336L22.3313 0.266693ZM31.5333 34.4001V22.9334H34.4V34.4001H31.5333Z" fill="white"/>
</g>
<g filter="url(#filter1_d_2354_963)">
<path d="M17.2001 42.9998V34.3998H14.3334V31.5331H17.2001V25.7998H8.6001V42.9998H17.2001Z" fill="white"/>
</g>
</g>
<defs>
<filter id="filter0_d_2354_963" x="-4" y="0.000976562" width="51" height="50.999" filterUnits="userSpaceOnUse" color-interpolation-filters="sRGB">
<feFlood flood-opacity="0" result="BackgroundImageFix"/>
<feColorMatrix in="SourceAlpha" type="matrix" values="0 0 0 0 0 0 0 0 0 0 0 0 0 0 0 0 0 0 127 0" result="hardAlpha"/>
<feOffset dy="4"/>
<feGaussianBlur stdDeviation="2"/>
<feComposite in2="hardAlpha" operator="out"/>
<feColorMatrix type="matrix" values="0 0 0 0 0 0 0 0 0 0 0 0 0 0 0 0 0 0 0.25 0"/>
<feBlend mode="normal" in2="BackgroundImageFix" result="effect1_dropShadow_2354_963"/>
<feBlend mode="normal" in="SourceGraphic" in2="effect1_dropShadow_2354_963" result="shape"/>
</filter>
<filter id="filter1_d_2354_963" x="4.6001" y="25.7998" width="16.6001" height="25.2002" filterUnits="userSpaceOnUse" color-interpolation-filters="sRGB">
<feFlood flood-opacity="0" result="BackgroundImageFix"/>
<feColorMatrix in="SourceAlpha" type="matrix" values="0 0 0 0 0 0 0 0 0 0 0 0 0 0 0 0 0 0 127 0" result="hardAlpha"/>
<feOffset dy="4"/>
<feGaussianBlur stdDeviation="2"/>
<feComposite in2="hardAlpha" operator="out"/>
<feColorMatrix type="matrix" values="0 0 0 0 0 0 0 0 0 0 0 0 0 0 0 0 0 0 0.25 0"/>
<feBlend mode="normal" in2="BackgroundImageFix" result="effect1_dropShadow_2354_963"/>
<feBlend mode="normal" in="SourceGraphic" in2="effect1_dropShadow_2354_963" result="shape"/>
</filter>
<clipPath id="clip0_2354_963">
<rect width="43" height="43" fill="white"/>
</clipPath>
</defs>
</svg>
