<svg width="56" height="56" viewBox="0 0 56 56" fill="none" xmlns="http://www.w3.org/2000/svg">
<g clip-path="url(#clip0_2354_1320)">
<g filter="url(#filter0_d_2354_1320)">
<path d="M53.2595 1.75H46.2735C46.0603 1.75006 45.8544 1.82798 45.6946 1.96912C45.5347 2.11027 45.4319 2.30491 45.4055 2.5165L44.7492 7.7665C44.7339 7.88944 44.7448 8.01425 44.7813 8.13265C44.8178 8.25106 44.879 8.36036 44.9609 8.45334C45.0428 8.54632 45.1435 8.62084 45.2563 8.67198C45.3692 8.72313 45.4916 8.74972 45.6155 8.75H47.95L46.9928 14.0105C46.7135 14.0213 46.4372 14.0714 46.172 14.1592C45.938 14.2352 45.715 14.3417 45.5087 14.476L45.416 14.5477C45.2366 14.6779 45.0733 14.8289 44.9295 14.9975L44.8595 15.0745C44.7159 15.2628 44.6004 15.4708 44.5165 15.6923C44.5112 15.7133 44.4937 15.729 44.4867 15.75H44.499C44.4018 16.0037 44.3508 16.2728 44.3485 16.5445L44.3503 16.625V19.0872C44.3503 19.5282 44.1 19.9692 43.862 20.2913C43.6765 20.5433 43.75 20.916 44.058 20.9632C46.1493 21.2765 49.8837 19.5982 49.8837 16.5462C49.8837 16.2662 49.8225 16.0038 49.7332 15.7518H49.7455C49.7385 15.7308 49.721 15.715 49.7122 15.694C49.6284 15.4726 49.5128 15.2645 49.3693 15.0763L49.301 14.9993C49.1579 14.8293 48.9939 14.6782 48.8127 14.5495L48.72 14.4795L48.692 14.4585L49.7298 8.75H51.8298C52.2562 8.74988 52.668 8.59404 52.9876 8.31175C53.3073 8.02947 53.5129 7.64017 53.5658 7.217L54.1258 2.7335C54.1411 2.61056 54.1302 2.48575 54.0937 2.36735C54.0572 2.24894 53.996 2.13963 53.9141 2.04666C53.8322 1.95368 53.7315 1.87916 53.6187 1.82802C53.5058 1.77687 53.3834 1.75028 53.2595 1.75ZM48.762 3.65925L47.887 7.15925C47.8448 7.32819 47.7371 7.47344 47.5878 7.56303C47.4385 7.65263 47.2597 7.67924 47.0908 7.637C46.9218 7.59476 46.7766 7.48715 46.687 7.33782C46.5974 7.18849 46.5708 7.00969 46.613 6.84075L47.488 3.34075C47.5302 3.17181 47.6379 3.02656 47.7872 2.93697C47.9365 2.84737 48.1153 2.82076 48.2842 2.863C48.4532 2.90524 48.5984 3.01285 48.688 3.16218C48.7776 3.31151 48.8042 3.49031 48.762 3.65925ZM48.1845 28.5005C48.1845 27.0462 47.628 25.5885 46.5185 24.479C46.3154 24.2758 46.0742 24.1146 45.8088 24.0047C45.5433 23.8947 45.2588 23.8381 44.9715 23.8381C44.6842 23.8381 44.3997 23.8947 44.1342 24.0047C43.8688 24.1146 43.6276 24.2758 43.4245 24.479L43.0605 24.843C42.7596 23.6323 42.1375 22.5253 41.2598 21.6388C41.1005 21.4795 40.9168 21.3605 40.7453 21.2188C40.747 21.1715 40.7593 21.1243 40.7593 21.0753C40.7593 19.621 40.2028 18.1632 39.095 17.0538C38.8919 16.8506 38.6507 16.6894 38.3853 16.5794C38.1198 16.4694 37.8353 16.4128 37.548 16.4128C37.2607 16.4128 36.9762 16.4694 36.7107 16.5794C36.4453 16.6894 36.2041 16.8506 36.001 17.0538L33.1607 19.8923C32.9211 18.9755 32.4978 18.117 31.9165 17.3688C32.8234 16.3414 33.3276 15.0204 33.3358 13.65C33.3357 12.1958 32.7793 10.738 31.6698 9.6285C31.4666 9.42531 31.2254 9.26413 30.96 9.15416C30.6946 9.04419 30.4101 8.98759 30.1227 8.98759C29.8354 8.98759 29.5509 9.04419 29.2855 9.15416C29.0201 9.26413 28.7789 9.42531 28.5758 9.6285L22.3895 15.8165L3.5 34.6483V51.625C3.5 51.8571 3.59219 52.0796 3.75628 52.2437C3.92038 52.4078 4.14294 52.5 4.375 52.5H35.1453L46.2088 41.4365C46.859 40.7864 47.3748 40.0146 47.7268 39.1652C48.0787 38.3157 48.2598 37.4052 48.2598 36.4858C48.248 34.937 47.7231 33.4359 46.767 32.2175C47.6963 31.1518 48.1845 29.8305 48.1845 28.5005ZM7 36.0973L22.0868 21.0122C22.1847 21.1383 22.274 21.2677 22.3895 21.3832C22.7551 21.7489 23.1892 22.0389 23.6669 22.2368C24.1446 22.4347 24.6567 22.5365 25.1737 22.5365C26.18 22.5365 27.1897 22.1515 27.958 21.3832L29.4367 19.9045C29.743 20.44 29.9092 21.0315 29.911 21.6353C29.9108 22.5634 29.5419 23.4535 28.8855 24.1098L7 45.997V36.0973ZM8.946 49L29.5085 28.4375C29.6065 28.5635 29.6957 28.693 29.8112 28.8085C30.1769 29.1741 30.611 29.4642 31.0887 29.662C31.5664 29.8599 32.0784 29.9618 32.5955 29.9618C33.6017 29.9618 34.6132 29.5767 35.3797 28.8085L39.0915 25.0967C39.1772 25.011 39.2367 24.9112 39.3155 24.822C39.7129 25.4865 39.8763 26.2651 39.7795 27.0333C39.6828 27.8015 39.3315 28.5152 38.7817 29.0605L18.8457 49H8.946ZM43.7342 38.962L33.6962 49H23.7965L36.9355 35.861C37.0335 35.987 37.1245 36.1182 37.24 36.2337C37.6056 36.5994 38.0397 36.8894 38.5174 37.0873C38.9951 37.2852 39.5072 37.387 40.0243 37.387C41.0305 37.387 42.0402 37.002 42.8085 36.2337L44.2872 34.755C44.5935 35.2905 44.7597 35.882 44.7615 36.4858C44.7614 36.9458 44.6706 37.4012 44.4944 37.8261C44.3181 38.251 44.0598 38.637 43.7342 38.962Z" fill="white"/>
</g>
</g>
<defs>
<filter id="filter0_d_2354_1320" x="-0.5" y="1.75" width="58.6323" height="58.75" filterUnits="userSpaceOnUse" color-interpolation-filters="sRGB">
<feFlood flood-opacity="0" result="BackgroundImageFix"/>
<feColorMatrix in="SourceAlpha" type="matrix" values="0 0 0 0 0 0 0 0 0 0 0 0 0 0 0 0 0 0 127 0" result="hardAlpha"/>
<feOffset dy="4"/>
<feGaussianBlur stdDeviation="2"/>
<feComposite in2="hardAlpha" operator="out"/>
<feColorMatrix type="matrix" values="0 0 0 0 0 0 0 0 0 0 0 0 0 0 0 0 0 0 0.25 0"/>
<feBlend mode="normal" in2="BackgroundImageFix" result="effect1_dropShadow_2354_1320"/>
<feBlend mode="normal" in="SourceGraphic" in2="effect1_dropShadow_2354_1320" result="shape"/>
</filter>
<clipPath id="clip0_2354_1320">
<rect width="56" height="56" fill="white"/>
</clipPath>
</defs>
</svg>
