<svg width="54" height="54" viewBox="0 0 54 54" fill="none" xmlns="http://www.w3.org/2000/svg">
<g clip-path="url(#clip0_2354_598)">
<g filter="url(#filter0_d_2354_598)">
<path fill-rule="evenodd" clip-rule="evenodd" d="M25.8355 10.3083C24.5305 9.06628 22.6562 8.44866 20.2127 9.04828C19.612 8.22914 18.8061 7.5827 17.8761 7.17403C16.3731 6.52828 14.4865 6.54178 12.3591 7.76466C10.1339 8.80303 9.06174 10.3297 8.76587 11.9317C8.56562 13.0207 8.73999 14.0534 9.02687 14.8679C7.13912 16.5194 6.57099 18.4049 6.84212 20.1813C7.07724 21.718 7.91649 23.0309 8.73999 23.9219C8.59572 24.5415 8.58116 25.1842 8.69724 25.8097C9.04599 25.5622 9.21137 25.4474 9.59049 25.2933C10.2092 25.0413 10.7155 25.012 11.278 25.012C13.0499 25.012 14.0747 25.2179 15.7645 25.687C16.7221 25.9429 17.6417 26.3242 18.4994 26.821L18.8189 26.6838C19.2205 26.5096 19.6643 26.4565 20.0957 26.5308L24.0479 27.2137C23.8955 26.398 23.8079 25.5715 23.7857 24.742C23.7432 22.7693 24.2488 20.8234 25.2462 19.1209C26.2436 17.4184 27.6938 16.026 29.4355 15.0985C28.9805 14.6228 28.4288 14.2499 27.8177 14.005C27.559 12.8204 26.9616 11.3804 25.8355 10.3083ZM14.7812 11.5649C14.9137 11.4994 15.0577 11.4605 15.2052 11.4507C15.3526 11.4408 15.5006 11.4601 15.6406 11.5074C15.7806 11.5547 15.9099 11.6292 16.0211 11.7265C16.1323 11.8238 16.2232 11.9421 16.2887 12.0745L17.1786 13.8745L18.9932 11.9317C19.1994 11.7254 19.4775 11.6072 19.7691 11.602C20.0607 11.5968 20.3429 11.7051 20.5562 11.9039C20.7695 12.1028 20.8973 12.3767 20.9125 12.668C20.9278 12.9592 20.8294 13.245 20.638 13.465L18.2451 16.0278L19.1485 17.8514L20.6459 16.4902C20.868 16.3001 21.1554 16.2039 21.4472 16.2221C21.739 16.2402 22.0123 16.3712 22.2091 16.5874C22.406 16.8036 22.511 17.0879 22.5018 17.3801C22.4927 17.6723 22.3701 17.9495 22.1601 18.1529L20.1857 19.9473L21.3737 22.348C21.5037 22.6153 21.5227 22.923 21.4265 23.2042C21.3304 23.4854 21.1269 23.7171 20.8605 23.8487C20.5941 23.9804 20.2864 24.0012 20.0046 23.9068C19.7229 23.8124 19.4899 23.6104 19.3566 23.3448L18.1247 20.8552L15.9152 21.3018C15.6293 21.346 15.3373 21.2785 15.1 21.113C14.8626 20.9476 14.6981 20.6971 14.6406 20.4136C14.5831 20.13 14.637 19.8352 14.7912 19.5904C14.9454 19.3456 15.188 19.1696 15.4686 19.099L17.0931 18.7705L16.1976 16.9627L12.7787 17.4768C12.6299 17.5055 12.4768 17.5038 12.3286 17.4718C12.1804 17.4398 12.0402 17.3782 11.9164 17.2907C11.7927 17.2032 11.6878 17.0916 11.6083 16.9626C11.5287 16.8335 11.476 16.6898 11.4534 16.5399C11.4308 16.39 11.4388 16.2371 11.4767 16.0903C11.5147 15.9435 11.5819 15.806 11.6744 15.6859C11.7669 15.5657 11.8827 15.4655 12.0148 15.3913C12.147 15.317 12.2928 15.2703 12.4435 15.2538L15.1502 14.8465L14.2716 13.0702C14.1399 12.8029 14.1196 12.4943 14.2152 12.2122C14.3107 11.93 14.5143 11.6972 14.7812 11.5649Z" fill="white"/>
<path fill-rule="evenodd" clip-rule="evenodd" d="M27.1531 27.7813L26.5816 27.6699C26.3779 27.1148 26.2294 26.5409 26.1383 25.9566L26.1214 25.8891C26.0067 25.4199 25.9302 25.0071 25.9234 24.6966C25.899 23.4925 26.1291 22.2968 26.5989 21.1878C27.0686 20.0789 27.7674 19.0817 28.6493 18.2616C28.7183 18.1963 28.7884 18.1397 28.8597 18.0917C31.1266 16.0667 34.2968 15.7146 36.7516 17.7238C36.7234 14.9653 37.8428 12.2698 40.5541 10.7061L41.5047 12.3508C39.2086 13.6749 38.3547 16.1533 38.7349 18.8027C43.9718 17.0814 48.0477 22.0348 46.5177 27.7374C46.0445 29.4876 45.0441 31.0497 43.6523 32.2116L42.9661 31.9719C40.9332 31.2666 38.3738 30.4127 36.3286 29.8491C34.3396 29.3001 31.7802 28.7319 29.7327 28.3044C28.8739 28.1249 28.014 27.9505 27.1531 27.7813ZM42.2483 22.4837C42.541 22.4269 42.8443 22.4886 43.0915 22.6552C43.3387 22.8219 43.5097 23.0798 43.5668 23.3724C43.7727 24.3974 43.6923 25.4593 43.3345 26.4416C42.9767 27.4239 42.3553 28.2887 41.5384 28.9412C41.3069 29.1292 41.0102 29.2174 40.7136 29.1866C40.4169 29.1558 40.1447 29.0085 39.9567 28.7769C39.7687 28.5454 39.6804 28.2487 39.7112 27.952C39.742 27.6554 39.8894 27.3832 40.1209 27.1952C40.6204 26.7988 41.0004 26.2719 41.2189 25.6728C41.4373 25.0737 41.4856 24.4259 41.3584 23.8011C41.3023 23.5087 41.3643 23.206 41.5309 22.9593C41.6975 22.7126 41.9551 22.542 42.2472 22.4848M11.5156 47.2472C14.8906 47.0593 16.9786 46.0997 18.2656 44.6946C18.7774 45.3808 19.6358 45.7791 20.5651 45.6328C21.7294 45.449 22.8913 45.2499 24.0503 45.0354V39.7648H26.5591V44.5506C29.7316 43.9093 33.5903 43.0284 37.8439 41.8438V38.5127H40.3527V41.1227C42.0661 40.6131 43.8312 40.0562 45.6301 39.4487C46.099 39.3056 46.5097 39.0157 46.8014 38.6217C47.0932 38.2276 47.2507 37.7503 47.2507 37.26C47.2507 36.7697 47.0932 36.2923 46.8014 35.8983C46.5097 35.5043 46.099 35.2144 45.6301 35.0713C41.418 33.6524 37.1465 32.4164 32.8276 31.3667V38.5127H30.32V30.7761C26.1687 29.8333 22.7712 29.2348 20.5651 28.8861C20.1325 28.8163 19.689 28.867 19.2834 29.0328C18.8777 29.1985 18.5256 29.4727 18.2656 29.8254C16.9786 28.4192 14.8906 27.4596 11.5156 27.2717C11.3518 27.2639 11.1881 27.29 11.0348 27.3481C10.8814 27.4063 10.7417 27.4954 10.6243 27.6099C10.5068 27.7244 10.4142 27.8618 10.3521 28.0136C10.2901 28.1654 10.2599 28.3283 10.2634 28.4923C10.2927 30.5319 10.4176 32.1519 10.8428 33.4153C9.4647 33.9373 8.16532 34.9903 6.97732 36.5754C6.67357 36.9804 6.67357 37.5396 6.97732 37.9446C8.1552 39.5162 9.44445 40.5658 10.8091 41.0912C10.4468 42.3174 10.3028 43.9262 10.2657 46.0232C10.2617 46.1871 10.2914 46.3501 10.3531 46.5021C10.4147 46.6541 10.507 46.7917 10.6241 46.9065C10.7412 47.0213 10.8807 47.1108 11.0339 47.1694C11.187 47.228 11.3506 47.2545 11.5144 47.2472M13.9883 34.9037L11.7304 35.7587C11.1049 35.9949 10.4029 36.4573 9.66045 37.2594C10.3951 38.0537 11.0903 38.5149 11.7102 38.7534L13.8679 39.5848L13.2132 41.7999C13.0208 42.4524 12.8914 43.3457 12.8228 44.5989C15.2416 44.2277 16.2631 43.3311 16.7907 42.5154C17.5501 41.3421 17.7784 39.6298 17.7784 37.2594C17.7784 34.8891 17.5501 33.1779 16.7907 32.0046C16.2619 31.1878 15.2382 30.2912 12.8161 29.9188C12.8802 31.1338 13.0073 31.9866 13.2188 32.6177L13.9883 34.9037Z" fill="white"/>
</g>
</g>
<defs>
<filter id="filter0_d_2354_598" x="2.74951" y="6.75" width="48.501" height="48.498" filterUnits="userSpaceOnUse" color-interpolation-filters="sRGB">
<feFlood flood-opacity="0" result="BackgroundImageFix"/>
<feColorMatrix in="SourceAlpha" type="matrix" values="0 0 0 0 0 0 0 0 0 0 0 0 0 0 0 0 0 0 127 0" result="hardAlpha"/>
<feOffset dy="4"/>
<feGaussianBlur stdDeviation="2"/>
<feComposite in2="hardAlpha" operator="out"/>
<feColorMatrix type="matrix" values="0 0 0 0 0 0 0 0 0 0 0 0 0 0 0 0 0 0 0.25 0"/>
<feBlend mode="normal" in2="BackgroundImageFix" result="effect1_dropShadow_2354_598"/>
<feBlend mode="normal" in="SourceGraphic" in2="effect1_dropShadow_2354_598" result="shape"/>
</filter>
<clipPath id="clip0_2354_598">
<rect width="54" height="54" fill="white"/>
</clipPath>
</defs>
</svg>
