<svg width="56" height="56" viewBox="0 0 56 56" fill="none" xmlns="http://www.w3.org/2000/svg">
<g clip-path="url(#clip0_2354_574)">
<g filter="url(#filter0_d_2354_574)">
<path d="M44.5687 42H18.58C11.734 42 8.31338 42 6.22505 39.3937C2.26538 34.447 6.77805 21.287 9.51038 16.3333C10.4367 21.9333 19.9777 21.777 23.452 21C21.1374 16.3357 24.2267 14.7793 25.7714 14H25.776C32.6664 22.1667 47.4014 26.6093 51.011 35.511C52.572 39.3563 48.1247 42 44.5687 42Z" stroke="white" stroke-width="3.5" stroke-linecap="round" stroke-linejoin="round"/>
<path d="M4.6665 32.667C14.3848 36.0037 20.3722 36.9697 28.0512 34.543C30.3775 33.808 31.5395 33.4393 32.2652 33.4883C32.9885 33.5397 34.4702 34.228 37.4288 35.6093C41.1225 37.3313 46.1928 38.323 51.3332 35.8357" stroke="white" stroke-width="3.5" stroke-linejoin="round"/>
<path d="M31.5 22.167L35 18.667M36.1667 25.667L39.6667 22.167" stroke="white" stroke-width="3.5" stroke-linecap="round" stroke-linejoin="round"/>
</g>
</g>
<defs>
<filter id="filter0_d_2354_574" x="-1.0835" y="12.25" width="58.166" height="39.5" filterUnits="userSpaceOnUse" color-interpolation-filters="sRGB">
<feFlood flood-opacity="0" result="BackgroundImageFix"/>
<feColorMatrix in="SourceAlpha" type="matrix" values="0 0 0 0 0 0 0 0 0 0 0 0 0 0 0 0 0 0 127 0" result="hardAlpha"/>
<feOffset dy="4"/>
<feGaussianBlur stdDeviation="2"/>
<feComposite in2="hardAlpha" operator="out"/>
<feColorMatrix type="matrix" values="0 0 0 0 0 0 0 0 0 0 0 0 0 0 0 0 0 0 0.25 0"/>
<feBlend mode="normal" in2="BackgroundImageFix" result="effect1_dropShadow_2354_574"/>
<feBlend mode="normal" in="SourceGraphic" in2="effect1_dropShadow_2354_574" result="shape"/>
</filter>
<clipPath id="clip0_2354_574">
<rect width="56" height="56" fill="white"/>
</clipPath>
</defs>
</svg>
