<svg width="53" height="53" viewBox="0 0 53 53" fill="none" xmlns="http://www.w3.org/2000/svg">
<g clip-path="url(#clip0_2354_1305)">
<g filter="url(#filter0_d_2354_1305)">
<path d="M10.6713 23.1C12.3487 23.1013 13.9765 22.5318 15.2872 21.4851L19.5669 23.2268L20.2702 21.9244C20.3967 21.6913 20.5459 21.4712 20.7157 21.2675L22.1822 19.7804L17.9365 17.2085C18.2534 15.7072 18.0974 14.1446 17.49 12.7356C16.8826 11.3266 15.8536 10.1404 14.5445 9.34007C13.2354 8.53975 11.7105 8.16464 10.1795 8.26633C8.64852 8.36802 7.18664 8.9415 5.99489 9.90793C4.80314 10.8744 3.94006 12.1862 3.52432 13.6632C3.10859 15.1402 3.16063 16.7097 3.67329 18.1558C4.18594 19.602 5.13403 20.8538 6.38718 21.7392C7.64033 22.6246 9.13699 23.1 10.6713 23.1ZM10.6713 11.55C11.4872 11.55 12.2847 11.7919 12.9631 12.2452C13.6414 12.6985 14.1701 13.3427 14.4824 14.0964C14.7946 14.8502 14.8763 15.6796 14.7171 16.4798C14.5579 17.2799 14.1651 18.0149 13.5882 18.5918C13.0113 19.1687 12.2763 19.5616 11.4761 19.7207C10.6759 19.8799 9.84652 19.7982 9.09278 19.486C8.33903 19.1738 7.6948 18.6451 7.24154 17.9667C6.78828 17.2884 6.54635 16.4909 6.54635 15.675C6.54635 14.581 6.98095 13.5318 7.75453 12.7582C8.52812 11.9846 9.57733 11.55 10.6713 11.55Z" fill="white"/>
</g>
<g filter="url(#filter1_d_2354_1305)">
<path d="M49.5001 17.4283L48.9308 16.131C48.4688 15.0564 47.4108 14.481 45.5504 14.2902C44.5068 14.187 42.7712 14.1623 40.4261 14.6831C38.3636 15.142 27.8304 17.5912 23.4156 20.7283C21.3273 22.2122 20.9344 24.2005 20.6251 25.7979C20.3384 27.2561 20.1094 28.408 18.7688 29.4073C17.2219 30.5561 15.9566 31.0964 15.3059 31.3254C13.93 30.2331 12.2104 29.666 10.4547 29.7256C8.69903 29.7853 7.02184 30.4677 5.72327 31.6508C4.42471 32.8339 3.58952 34.4405 3.36714 36.1831C3.14477 37.9257 3.54974 39.6905 4.50957 41.1618C5.46941 42.6331 6.92147 43.7149 8.60593 44.2135C10.2904 44.7121 12.0973 44.5951 13.7034 43.8833C15.3094 43.1715 16.6098 41.9115 17.3718 40.3286C18.1338 38.7458 18.3077 36.9435 17.8623 35.2441L49.5001 17.4283ZM26.3464 26.4001C26.0201 26.4001 25.7011 26.3034 25.4298 26.1221C25.1584 25.9408 24.9469 25.6831 24.822 25.3816C24.6972 25.0801 24.6645 24.7483 24.7281 24.4282C24.7918 24.1082 24.949 23.8142 25.1797 23.5834C25.4105 23.3527 25.7045 23.1955 26.0245 23.1318C26.3446 23.0682 26.6764 23.1009 26.9779 23.2257C27.2794 23.3506 27.5371 23.5621 27.7184 23.8334C27.8997 24.1048 27.9964 24.4238 27.9964 24.7501C27.9964 25.1877 27.8226 25.6074 27.5132 25.9169C27.2037 26.2263 26.784 26.4001 26.3464 26.4001ZM10.6714 41.2501C9.8556 41.2501 9.05807 41.0082 8.37972 40.5549C7.70136 40.1017 7.17265 39.4575 6.86044 38.7037C6.54823 37.95 6.46654 37.1206 6.6257 36.3204C6.78487 35.5202 7.17774 34.7852 7.75463 34.2083C8.33152 33.6314 9.06652 33.2386 9.86669 33.0794C10.6669 32.9202 11.4963 33.0019 12.25 33.3141C13.0038 33.6263 13.648 34.1551 14.1013 34.8334C14.5545 35.5118 14.7964 36.3093 14.7964 37.1251C14.7964 38.2192 14.3618 39.2684 13.5883 40.042C12.8147 40.8155 11.7655 41.2501 10.6714 41.2501Z" fill="white"/>
</g>
<g filter="url(#filter2_d_2354_1305)">
<path d="M35.4536 26.7988L26.8179 31.7674L29.6672 33.1163L30.0405 33.2957C31.969 34.229 37.0984 36.7122 42.3361 37.0216C42.7373 37.0453 43.1065 37.0567 43.4478 37.0567C45.5815 37.0536 46.7158 36.506 47.4119 36.0935L49.5002 34.6497L35.4536 26.7988Z" fill="white"/>
</g>
</g>
<defs>
<filter id="filter0_d_2354_1305" x="-0.753418" y="8.25" width="26.9355" height="22.9766" filterUnits="userSpaceOnUse" color-interpolation-filters="sRGB">
<feFlood flood-opacity="0" result="BackgroundImageFix"/>
<feColorMatrix in="SourceAlpha" type="matrix" values="0 0 0 0 0 0 0 0 0 0 0 0 0 0 0 0 0 0 127 0" result="hardAlpha"/>
<feOffset dy="4"/>
<feGaussianBlur stdDeviation="2"/>
<feComposite in2="hardAlpha" operator="out"/>
<feColorMatrix type="matrix" values="0 0 0 0 0 0 0 0 0 0 0 0 0 0 0 0 0 0 0.25 0"/>
<feBlend mode="normal" in2="BackgroundImageFix" result="effect1_dropShadow_2354_1305"/>
<feBlend mode="normal" in="SourceGraphic" in2="effect1_dropShadow_2354_1305" result="shape"/>
</filter>
<filter id="filter1_d_2354_1305" x="-0.692383" y="14.2305" width="54.1924" height="38.2871" filterUnits="userSpaceOnUse" color-interpolation-filters="sRGB">
<feFlood flood-opacity="0" result="BackgroundImageFix"/>
<feColorMatrix in="SourceAlpha" type="matrix" values="0 0 0 0 0 0 0 0 0 0 0 0 0 0 0 0 0 0 127 0" result="hardAlpha"/>
<feOffset dy="4"/>
<feGaussianBlur stdDeviation="2"/>
<feComposite in2="hardAlpha" operator="out"/>
<feColorMatrix type="matrix" values="0 0 0 0 0 0 0 0 0 0 0 0 0 0 0 0 0 0 0.25 0"/>
<feBlend mode="normal" in2="BackgroundImageFix" result="effect1_dropShadow_2354_1305"/>
<feBlend mode="normal" in="SourceGraphic" in2="effect1_dropShadow_2354_1305" result="shape"/>
</filter>
<filter id="filter2_d_2354_1305" x="22.8179" y="26.7988" width="30.6821" height="18.2578" filterUnits="userSpaceOnUse" color-interpolation-filters="sRGB">
<feFlood flood-opacity="0" result="BackgroundImageFix"/>
<feColorMatrix in="SourceAlpha" type="matrix" values="0 0 0 0 0 0 0 0 0 0 0 0 0 0 0 0 0 0 127 0" result="hardAlpha"/>
<feOffset dy="4"/>
<feGaussianBlur stdDeviation="2"/>
<feComposite in2="hardAlpha" operator="out"/>
<feColorMatrix type="matrix" values="0 0 0 0 0 0 0 0 0 0 0 0 0 0 0 0 0 0 0.25 0"/>
<feBlend mode="normal" in2="BackgroundImageFix" result="effect1_dropShadow_2354_1305"/>
<feBlend mode="normal" in="SourceGraphic" in2="effect1_dropShadow_2354_1305" result="shape"/>
</filter>
<clipPath id="clip0_2354_1305">
<rect width="52.8" height="52.8" fill="white"/>
</clipPath>
</defs>
</svg>
