<svg width="53" height="53" viewBox="0 0 53 53" fill="none" xmlns="http://www.w3.org/2000/svg">
<g clip-path="url(#clip0_2354_721)">
<g filter="url(#filter0_d_2354_721)">
<path d="M8.80029 16.3106C8.80029 15.8618 8.80029 15.6374 8.88389 15.435C8.96749 15.2326 9.12589 15.0742 9.44489 14.7552L12.8219 11.3782C14.0935 10.1066 14.7315 9.4686 15.5389 9.1342C16.3463 8.7998 17.2483 8.7998 19.0457 8.7998H33.7549C35.5545 8.7998 36.4521 8.7998 37.2617 9.1342C38.0691 9.4686 38.7049 10.1066 39.9787 11.3782L43.3557 14.7552C43.6747 15.0742 43.8331 15.2326 43.9167 15.435C44.0003 15.6374 44.0003 15.8618 44.0003 16.3106V17.5998H8.80029V16.3106Z" stroke="white" stroke-width="4.4"/>
<path fill-rule="evenodd" clip-rule="evenodd" d="M46.2001 17.5996H6.6001V37.3996C6.6001 41.5488 6.6001 43.6212 7.8893 44.9104C9.1785 46.1996 11.2509 46.1996 15.4001 46.1996H37.4001C41.5493 46.1996 43.6217 46.1996 44.9109 44.9104C46.2001 43.6212 46.2001 41.5488 46.2001 37.3996V17.5996ZM22.0001 24.1996C22.0001 23.6161 21.7683 23.0566 21.3557 22.644C20.9432 22.2314 20.3836 21.9996 19.8001 21.9996C19.2166 21.9996 18.657 22.2314 18.2445 22.644C17.8319 23.0566 17.6001 23.6161 17.6001 24.1996C17.6001 26.5335 18.5272 28.7718 20.1776 30.4221C21.8279 32.0725 24.0662 32.9996 26.4001 32.9996C28.734 32.9996 30.9723 32.0725 32.6226 30.4221C34.273 28.7718 35.2001 26.5335 35.2001 24.1996C35.2001 23.6161 34.9683 23.0566 34.5557 22.644C34.1432 22.2314 33.5836 21.9996 33.0001 21.9996C32.4166 21.9996 31.857 22.2314 31.4445 22.644C31.0319 23.0566 30.8001 23.6161 30.8001 24.1996C30.8001 25.3666 30.3365 26.4857 29.5114 27.3109C28.6862 28.136 27.567 28.5996 26.4001 28.5996C25.2331 28.5996 24.114 28.136 23.2888 27.3109C22.4637 26.4857 22.0001 25.3666 22.0001 24.1996Z" fill="white"/>
</g>
</g>
<defs>
<filter id="filter0_d_2354_721" x="2.59863" y="6.59961" width="47.6035" height="47.5996" filterUnits="userSpaceOnUse" color-interpolation-filters="sRGB">
<feFlood flood-opacity="0" result="BackgroundImageFix"/>
<feColorMatrix in="SourceAlpha" type="matrix" values="0 0 0 0 0 0 0 0 0 0 0 0 0 0 0 0 0 0 127 0" result="hardAlpha"/>
<feOffset dy="4"/>
<feGaussianBlur stdDeviation="2"/>
<feComposite in2="hardAlpha" operator="out"/>
<feColorMatrix type="matrix" values="0 0 0 0 0 0 0 0 0 0 0 0 0 0 0 0 0 0 0.25 0"/>
<feBlend mode="normal" in2="BackgroundImageFix" result="effect1_dropShadow_2354_721"/>
<feBlend mode="normal" in="SourceGraphic" in2="effect1_dropShadow_2354_721" result="shape"/>
</filter>
<clipPath id="clip0_2354_721">
<rect width="52.8" height="52.8" fill="white"/>
</clipPath>
</defs>
</svg>
