<svg width="61" height="61" viewBox="0 0 61 61" fill="none" xmlns="http://www.w3.org/2000/svg">
<g clip-path="url(#clip0_2354_609)">
<g filter="url(#filter0_d_2354_609)">
<path d="M50.6668 20.2666H10.1334C8.73431 20.2666 7.6001 21.4008 7.6001 22.7999V27.8666C7.6001 29.2657 8.73431 30.3999 10.1334 30.3999H50.6668C52.0659 30.3999 53.2001 29.2657 53.2001 27.8666V22.7999C53.2001 21.4008 52.0659 20.2666 50.6668 20.2666Z" stroke="white" stroke-width="5.06667" stroke-linecap="round" stroke-linejoin="round"/>
<path d="M30.4003 20.2664V53.1997M30.4003 20.2664C29.484 16.4902 27.9061 13.2619 25.8726 11.0024C23.8391 8.74293 21.4442 7.55716 19.0003 7.59974C17.3206 7.59974 15.7097 8.267 14.522 9.45473C13.3343 10.6425 12.667 12.2534 12.667 13.9331C12.667 15.6128 13.3343 17.2237 14.522 18.4114C15.7097 19.5991 17.3206 20.2664 19.0003 20.2664M30.4003 20.2664C31.3167 16.4902 32.8945 13.2619 34.9281 11.0024C36.9616 8.74293 39.3565 7.55716 41.8003 7.59974C43.48 7.59974 45.0909 8.267 46.2787 9.45473C47.4664 10.6425 48.1337 12.2534 48.1337 13.9331C48.1337 15.6128 47.4664 17.2237 46.2787 18.4114C45.0909 19.5991 43.48 20.2664 41.8003 20.2664M48.1337 30.3997V48.1331C48.1337 49.4768 47.5998 50.7656 46.6497 51.7157C45.6995 52.6659 44.4108 53.1997 43.067 53.1997H17.7337C16.3899 53.1997 15.1012 52.6659 14.151 51.7157C13.2008 50.7656 12.667 49.4768 12.667 48.1331V30.3997" stroke="white" stroke-width="5.06667" stroke-linecap="round" stroke-linejoin="round"/>
</g>
</g>
<defs>
<filter id="filter0_d_2354_609" x="1.06689" y="5.06543" width="58.6665" height="58.668" filterUnits="userSpaceOnUse" color-interpolation-filters="sRGB">
<feFlood flood-opacity="0" result="BackgroundImageFix"/>
<feColorMatrix in="SourceAlpha" type="matrix" values="0 0 0 0 0 0 0 0 0 0 0 0 0 0 0 0 0 0 127 0" result="hardAlpha"/>
<feOffset dy="4"/>
<feGaussianBlur stdDeviation="2"/>
<feComposite in2="hardAlpha" operator="out"/>
<feColorMatrix type="matrix" values="0 0 0 0 0 0 0 0 0 0 0 0 0 0 0 0 0 0 0.25 0"/>
<feBlend mode="normal" in2="BackgroundImageFix" result="effect1_dropShadow_2354_609"/>
<feBlend mode="normal" in="SourceGraphic" in2="effect1_dropShadow_2354_609" result="shape"/>
</filter>
<clipPath id="clip0_2354_609">
<rect width="60.8" height="60.8" fill="white"/>
</clipPath>
</defs>
</svg>
