<svg width="59" height="59" viewBox="0 0 59 59" fill="none" xmlns="http://www.w3.org/2000/svg">
<g clip-path="url(#clip0_2354_729)">
<g filter="url(#filter0_d_2354_729)">
<path d="M34.1846 39.8921V33.4336C34.1846 32.912 33.9774 32.4118 33.6086 32.0429C33.2397 31.6741 32.7395 31.4669 32.2179 31.4669H28.2846C27.763 31.4669 27.2628 31.6741 26.8939 32.0429C26.5251 32.4118 26.3179 32.912 26.3179 33.4336V39.8882C23.3289 40.6526 20.6314 42.2811 18.5628 44.5701C16.4941 46.8592 15.146 49.7071 14.6871 52.7581C14.6422 53.0424 14.6594 53.3332 14.7376 53.6102C14.8158 53.8873 14.953 54.1442 15.1399 54.3632C15.3267 54.5822 15.5588 54.7581 15.8201 54.8789C16.0814 54.9997 16.3658 55.0625 16.6537 55.063H43.8803C44.1681 55.0625 44.4525 54.9997 44.7138 54.8789C44.9752 54.7581 45.2072 54.5822 45.3941 54.3632C45.581 54.1442 45.7182 53.8873 45.7964 53.6102C45.8745 53.3332 45.8918 53.0424 45.8469 52.7581C45.3849 49.7038 44.0319 46.8538 41.9573 44.5652C39.8828 42.2765 37.1789 40.6509 34.1846 39.8921ZM52.4313 24.6977L42.598 5.03099C42.4361 4.70253 42.1858 4.42578 41.8752 4.23189C41.5645 4.03801 41.206 3.9347 40.8398 3.93359H19.6627C19.2985 3.93433 18.9416 4.03623 18.6318 4.22791C18.3221 4.41959 18.0716 4.69353 17.9085 5.01919L8.07512 24.6859C7.92531 24.9848 7.8542 25.317 7.8685 25.6511C7.8828 25.9851 7.98204 26.3101 8.15685 26.5951C8.33166 26.8801 8.57626 27.1159 8.86753 27.2801C9.15881 27.4443 9.48715 27.5316 9.82152 27.5336H42.0513V33.4336C42.0513 33.9552 42.2584 34.4554 42.6273 34.8242C42.9961 35.1931 43.4963 35.4003 44.0179 35.4003C44.5395 35.4003 45.0397 35.1931 45.4086 34.8242C45.7774 34.4554 45.9846 33.9552 45.9846 33.4336V27.5336H50.681C51.0141 27.5313 51.3411 27.4444 51.6314 27.281C51.9218 27.1177 52.1658 26.8834 52.3408 26.5999C52.5157 26.3164 52.6158 25.9932 52.6317 25.6605C52.6475 25.3277 52.5786 24.9965 52.4313 24.6977Z" fill="white"/>
</g>
</g>
<defs>
<filter id="filter0_d_2354_729" x="3.8667" y="3.93359" width="52.7671" height="59.1299" filterUnits="userSpaceOnUse" color-interpolation-filters="sRGB">
<feFlood flood-opacity="0" result="BackgroundImageFix"/>
<feColorMatrix in="SourceAlpha" type="matrix" values="0 0 0 0 0 0 0 0 0 0 0 0 0 0 0 0 0 0 127 0" result="hardAlpha"/>
<feOffset dy="4"/>
<feGaussianBlur stdDeviation="2"/>
<feComposite in2="hardAlpha" operator="out"/>
<feColorMatrix type="matrix" values="0 0 0 0 0 0 0 0 0 0 0 0 0 0 0 0 0 0 0.25 0"/>
<feBlend mode="normal" in2="BackgroundImageFix" result="effect1_dropShadow_2354_729"/>
<feBlend mode="normal" in="SourceGraphic" in2="effect1_dropShadow_2354_729" result="shape"/>
</filter>
<clipPath id="clip0_2354_729">
<rect width="59" height="59" fill="white"/>
</clipPath>
</defs>
</svg>
