<svg width="58" height="58" viewBox="0 0 58 58" fill="none" xmlns="http://www.w3.org/2000/svg">
<g clip-path="url(#clip0_2354_725)">
<g filter="url(#filter0_d_2354_725)">
<path d="M12.25 37.4167C10.2361 37.4167 8.52431 36.7118 7.11458 35.3021C5.70486 33.8924 5 32.1806 5 30.1667C5 28.1528 5.70486 26.441 7.11458 25.0312C8.52431 23.6215 10.2361 22.9167 12.25 22.9167V18.0833C12.25 16.7542 12.7237 15.6167 13.671 14.671C14.6183 13.7253 15.7558 13.2516 17.0833 13.25H24.3333C24.3333 11.2361 25.0382 9.52431 26.4479 8.11458C27.8576 6.70486 29.5694 6 31.5833 6C33.5972 6 35.309 6.70486 36.7188 8.11458C38.1285 9.52431 38.8333 11.2361 38.8333 13.25H46.0833C47.4125 13.25 48.5508 13.7237 49.4981 14.671C50.4454 15.6183 50.9183 16.7558 50.9167 18.0833V22.9167C52.9306 22.9167 54.6424 23.6215 56.0521 25.0312C57.4618 26.441 58.1667 28.1528 58.1667 30.1667C58.1667 32.1806 57.4618 33.8924 56.0521 35.3021C54.6424 36.7118 52.9306 37.4167 50.9167 37.4167V47.0833C50.9167 48.4125 50.4438 49.5508 49.4981 50.4981C48.5524 51.4454 47.4141 51.9183 46.0833 51.9167H17.0833C15.7542 51.9167 14.6167 51.4438 13.671 50.4981C12.7253 49.5524 12.2516 48.4141 12.25 47.0833V37.4167ZM24.3333 32.5833C25.3403 32.5833 26.1966 32.2313 26.9023 31.5273C27.6079 30.8232 27.9599 29.9669 27.9583 28.9583C27.9567 27.9498 27.6047 27.0943 26.9023 26.3918C26.1998 25.6894 25.3435 25.3366 24.3333 25.3333C23.3232 25.3301 22.4677 25.6829 21.7668 26.3918C21.066 27.1007 20.7132 27.9562 20.7083 28.9583C20.7035 29.9604 21.0563 30.8167 21.7668 31.5273C22.4773 32.2378 23.3328 32.5898 24.3333 32.5833ZM38.8333 32.5833C39.8403 32.5833 40.6966 32.2313 41.4023 31.5273C42.1079 30.8232 42.4599 29.9669 42.4583 28.9583C42.4567 27.9498 42.1047 27.0943 41.4023 26.3918C40.6998 25.6894 39.8435 25.3366 38.8333 25.3333C37.8232 25.3301 36.9677 25.6829 36.2668 26.3918C35.566 27.1007 35.2132 27.9562 35.2083 28.9583C35.2035 29.9604 35.5563 30.8167 36.2668 31.5273C36.9773 32.2378 37.8328 32.5898 38.8333 32.5833ZM24.3333 42.25H38.8333C39.5181 42.25 40.0924 42.018 40.5564 41.554C41.0204 41.09 41.2516 40.5164 41.25 39.8333C41.2484 39.1502 41.0164 38.5767 40.554 38.1127C40.0916 37.6487 39.5181 37.4167 38.8333 37.4167H24.3333C23.6486 37.4167 23.0751 37.6487 22.6127 38.1127C22.1503 38.5767 21.9183 39.1502 21.9167 39.8333C21.9151 40.5164 22.1471 41.0908 22.6127 41.5564C23.0783 42.022 23.6518 42.2532 24.3333 42.25ZM17.0833 47.0833H46.0833V18.0833H17.0833V47.0833Z" fill="white"/>
</g>
</g>
<defs>
<filter id="filter0_d_2354_725" x="1" y="6" width="61.1665" height="53.917" filterUnits="userSpaceOnUse" color-interpolation-filters="sRGB">
<feFlood flood-opacity="0" result="BackgroundImageFix"/>
<feColorMatrix in="SourceAlpha" type="matrix" values="0 0 0 0 0 0 0 0 0 0 0 0 0 0 0 0 0 0 127 0" result="hardAlpha"/>
<feOffset dy="4"/>
<feGaussianBlur stdDeviation="2"/>
<feComposite in2="hardAlpha" operator="out"/>
<feColorMatrix type="matrix" values="0 0 0 0 0 0 0 0 0 0 0 0 0 0 0 0 0 0 0.25 0"/>
<feBlend mode="normal" in2="BackgroundImageFix" result="effect1_dropShadow_2354_725"/>
<feBlend mode="normal" in="SourceGraphic" in2="effect1_dropShadow_2354_725" result="shape"/>
</filter>
<clipPath id="clip0_2354_725">
<rect width="58" height="58" fill="white"/>
</clipPath>
</defs>
</svg>
