<svg width="59" height="59" viewBox="0 0 59 59" fill="none" xmlns="http://www.w3.org/2000/svg">
<g clip-path="url(#clip0_2354_1325)">
<g filter="url(#filter0_d_2354_1325)">
<path d="M24.5832 31.2949C30.3886 30.1738 36.1323 28.7543 41.7916 27.042V9.83366C41.7916 9.83366 25.8124 4.91699 18.4374 4.91699C15.1543 4.92623 11.9867 6.12973 9.52575 8.3029C7.0648 10.4761 5.47864 13.4704 5.06327 16.7272C4.6479 19.9839 5.4317 23.2805 7.2684 26.0018C9.1051 28.7231 11.8692 30.6831 15.0449 31.5162L17.2082 46.7087H19.6666C19.7649 47.8804 20.1419 49.0116 20.7663 50.008C21.3906 51.0044 22.2442 51.8371 23.2557 52.4366C24.3962 53.1146 25.3434 54.0744 26.0063 55.2238C26.6692 56.3731 27.0257 57.6736 27.0416 59.0003H29.4999C29.4887 57.3068 29.0531 55.6431 28.2328 54.1614C27.4125 52.6798 26.2338 51.4275 24.8045 50.5191C23.0836 49.167 22.1249 48.2574 22.1249 46.7087H24.5832M9.83323 18.4378C9.83323 16.1559 10.7397 13.9674 12.3533 12.3538C13.9669 10.7402 16.1554 9.83366 18.4374 9.83366C24.6941 10.4226 30.873 11.6584 36.8749 13.5212V23.3545C30.873 25.2173 24.6941 26.4531 18.4374 27.042C16.1554 27.042 13.9669 26.1355 12.3533 24.5219C10.7397 22.9083 9.83323 20.7198 9.83323 18.4378ZM54.0832 22.1253C52.1754 22.1756 50.2895 21.7083 48.6257 20.7732C47.2962 20.0102 45.7824 19.6275 44.2499 19.667V17.2087C46.1578 17.1584 48.0436 17.6256 49.7074 18.5607C51.037 19.3238 52.5508 19.7065 54.0832 19.667M54.0832 14.7503C52.5508 14.7898 51.037 14.4071 49.7074 13.6441C48.0436 12.709 46.1578 12.2418 44.2499 12.292V14.7503C45.7824 14.7108 47.2962 15.0935 48.6257 15.8566C50.2895 16.7917 52.1754 17.2589 54.0832 17.2087M54.0832 24.5837C52.5508 24.6232 51.037 24.2405 49.7074 23.4774C48.0436 22.5423 46.1578 22.0751 44.2499 22.1253V24.5837C45.7824 24.5442 47.2962 24.9269 48.6257 25.6899C50.2895 26.625 52.1754 27.0922 54.0832 27.042M22.1249 18.4378C22.1249 19.1671 21.9086 19.8801 21.5034 20.4865C21.0983 21.0929 20.5223 21.5655 19.8485 21.8446C19.1747 22.1237 18.4333 22.1968 17.718 22.0545C17.0027 21.9122 16.3456 21.561 15.8299 21.0453C15.3142 20.5296 14.963 19.8725 14.8208 19.1572C14.6785 18.4419 14.7515 17.7005 15.0306 17.0267C15.3097 16.3529 15.7823 15.777 16.3887 15.3718C16.9951 14.9666 17.7081 14.7503 18.4374 14.7503C19.4154 14.7503 20.3533 15.1388 21.0449 15.8304C21.7364 16.5219 22.1249 17.4598 22.1249 18.4378Z" fill="white"/>
</g>
</g>
<defs>
<filter id="filter0_d_2354_1325" x="0.95459" y="4.91699" width="57.1284" height="62.083" filterUnits="userSpaceOnUse" color-interpolation-filters="sRGB">
<feFlood flood-opacity="0" result="BackgroundImageFix"/>
<feColorMatrix in="SourceAlpha" type="matrix" values="0 0 0 0 0 0 0 0 0 0 0 0 0 0 0 0 0 0 127 0" result="hardAlpha"/>
<feOffset dy="4"/>
<feGaussianBlur stdDeviation="2"/>
<feComposite in2="hardAlpha" operator="out"/>
<feColorMatrix type="matrix" values="0 0 0 0 0 0 0 0 0 0 0 0 0 0 0 0 0 0 0.25 0"/>
<feBlend mode="normal" in2="BackgroundImageFix" result="effect1_dropShadow_2354_1325"/>
<feBlend mode="normal" in="SourceGraphic" in2="effect1_dropShadow_2354_1325" result="shape"/>
</filter>
<clipPath id="clip0_2354_1325">
<rect width="59" height="59" fill="white"/>
</clipPath>
</defs>
</svg>
