<svg width="61" height="61" viewBox="0 0 61 61" fill="none" xmlns="http://www.w3.org/2000/svg">
<g clip-path="url(#clip0_2354_619)">
<g filter="url(#filter0_d_2354_619)">
<path d="M30.4998 25.4163L20.3332 11.183L24.3998 5.08301H36.5998L40.6665 11.183L30.4998 25.4163ZM39.3957 17.283L36.3457 21.6038C41.9373 23.8913 45.7498 29.2288 45.7498 35.583C45.7498 39.6276 44.1432 43.5065 41.2832 46.3664C38.4233 49.2263 34.5444 50.833 30.4998 50.833C26.4553 50.833 22.5764 49.2263 19.7165 46.3664C16.8565 43.5065 15.2498 39.6276 15.2498 35.583C15.2498 29.2288 19.0623 23.8913 24.654 21.6038L21.604 17.283C14.7415 20.5872 10.1665 27.4497 10.1665 35.583C10.1665 40.9757 12.3088 46.1476 16.122 49.9608C19.9352 53.7741 25.1071 55.9163 30.4998 55.9163C35.8926 55.9163 41.0644 53.7741 44.8777 49.9608C48.6909 46.1476 50.8332 40.9757 50.8332 35.583C50.8332 27.4497 46.2582 20.5872 39.3957 17.283Z" fill="white"/>
</g>
</g>
<defs>
<filter id="filter0_d_2354_619" x="6.1665" y="5.08301" width="48.6665" height="58.833" filterUnits="userSpaceOnUse" color-interpolation-filters="sRGB">
<feFlood flood-opacity="0" result="BackgroundImageFix"/>
<feColorMatrix in="SourceAlpha" type="matrix" values="0 0 0 0 0 0 0 0 0 0 0 0 0 0 0 0 0 0 127 0" result="hardAlpha"/>
<feOffset dy="4"/>
<feGaussianBlur stdDeviation="2"/>
<feComposite in2="hardAlpha" operator="out"/>
<feColorMatrix type="matrix" values="0 0 0 0 0 0 0 0 0 0 0 0 0 0 0 0 0 0 0.25 0"/>
<feBlend mode="normal" in2="BackgroundImageFix" result="effect1_dropShadow_2354_619"/>
<feBlend mode="normal" in="SourceGraphic" in2="effect1_dropShadow_2354_619" result="shape"/>
</filter>
<clipPath id="clip0_2354_619">
<rect width="61" height="61" fill="white"/>
</clipPath>
</defs>
</svg>
