<svg width="55" height="55" viewBox="0 0 55 55" fill="none" xmlns="http://www.w3.org/2000/svg">
<g clip-path="url(#clip0_2354_628)">
<g filter="url(#filter0_d_2354_628)">
<path d="M40.9294 3.4375L29.5856 14.7354L34.4439 19.5938L36.8731 17.1875L34.4439 14.7354L40.9294 8.25L43.3585 10.6792L45.8335 8.25M49.0419 8.25L35.6585 21.6333L30.7773 23.2604L6.8752 47.1396L10.1523 50.4167L23.1002 37.4229L32.8398 47.1396L42.5564 37.4229L32.8398 27.7063L33.2294 27.2708L38.1106 25.6437L49.0419 14.7354C50.8294 12.9479 50.8294 10.0375 49.0419 8.25ZM15.0106 9.87708L5.29395 19.5938L16.6377 30.9375L26.3544 21.2208M41.7544 41.4792L36.8731 46.3375L40.1044 49.5687L44.9856 44.6875L41.7544 41.4792Z" fill="white"/>
</g>
</g>
<defs>
<filter id="filter0_d_2354_628" x="1.29395" y="3.4375" width="53.0884" height="54.9795" filterUnits="userSpaceOnUse" color-interpolation-filters="sRGB">
<feFlood flood-opacity="0" result="BackgroundImageFix"/>
<feColorMatrix in="SourceAlpha" type="matrix" values="0 0 0 0 0 0 0 0 0 0 0 0 0 0 0 0 0 0 127 0" result="hardAlpha"/>
<feOffset dy="4"/>
<feGaussianBlur stdDeviation="2"/>
<feComposite in2="hardAlpha" operator="out"/>
<feColorMatrix type="matrix" values="0 0 0 0 0 0 0 0 0 0 0 0 0 0 0 0 0 0 0.25 0"/>
<feBlend mode="normal" in2="BackgroundImageFix" result="effect1_dropShadow_2354_628"/>
<feBlend mode="normal" in="SourceGraphic" in2="effect1_dropShadow_2354_628" result="shape"/>
</filter>
<clipPath id="clip0_2354_628">
<rect width="55" height="55" fill="white"/>
</clipPath>
</defs>
</svg>
