<svg width="56" height="56" viewBox="0 0 56 56" fill="none" xmlns="http://www.w3.org/2000/svg">
<g clip-path="url(#clip0_2354_565)">
<g filter="url(#filter0_d_2354_565)">
<path d="M39.6668 9.33301C42.2475 9.33301 44.2285 11.3 45.6961 13.4163L46.1931 14.1653L46.6481 14.912C46.7928 15.1562 46.9312 15.3958 47.0635 15.6307C48.8998 18.9137 50.4981 23.2 51.5551 27.435C52.6051 31.6373 53.1861 36.0263 52.8151 39.4773C52.4418 42.9423 50.6568 46.6663 46.6668 46.6663C43.0875 46.6663 40.2665 44.753 37.9751 42.884L35.3851 40.7117C33.2315 38.9477 30.8748 37.333 28.0001 37.333C25.1255 37.333 22.7665 38.9477 20.6175 40.7117L18.0275 42.8817C15.7315 44.753 12.9105 46.6663 9.33346 46.6663C5.34113 46.6663 3.55613 42.9423 3.18513 39.4773C2.81646 36.024 3.39513 31.6373 4.44513 27.435C5.50213 23.2 7.10046 18.9137 8.93679 15.6307L9.35213 14.9097L9.80713 14.1653L10.3041 13.4163C11.7718 11.3 13.7528 9.33301 16.3335 9.33301C17.5235 9.33301 18.7065 9.62234 19.8685 9.96301L21.2521 10.3877C21.4808 10.4577 21.7079 10.5246 21.9335 10.5883C23.9518 11.167 26.0168 11.6663 28.0001 11.6663C29.9835 11.6663 32.0485 11.167 34.0668 10.5883L36.1318 9.96534C37.2938 9.62234 38.4768 9.33301 39.6668 9.33301ZM19.8335 18.6663C18.2864 18.6663 16.8026 19.2809 15.7087 20.3749C14.6147 21.4688 14.0001 22.9526 14.0001 24.4997C14.0001 26.0468 14.6147 27.5305 15.7087 28.6245C16.8026 29.7184 18.2864 30.333 19.8335 30.333C21.3806 30.333 22.8643 29.7184 23.9582 28.6245C25.0522 27.5305 25.6668 26.0468 25.6668 24.4997C25.6668 22.9526 25.0522 21.4688 23.9582 20.3749C22.8643 19.2809 21.3806 18.6663 19.8335 18.6663ZM36.1668 18.6663C35.548 18.6663 34.9545 18.9122 34.5169 19.3498C34.0793 19.7873 33.8335 20.3808 33.8335 20.9997V22.1663H32.6668C32.048 22.1663 31.4545 22.4122 31.0169 22.8498C30.5793 23.2873 30.3335 23.8808 30.3335 24.4997C30.3335 25.1185 30.5793 25.712 31.0169 26.1496C31.4545 26.5872 32.048 26.833 32.6668 26.833H33.8335V27.9997C33.8335 28.6185 34.0793 29.212 34.5169 29.6496C34.9545 30.0872 35.548 30.333 36.1668 30.333C36.7856 30.333 37.3791 30.0872 37.8167 29.6496C38.2543 29.212 38.5001 28.6185 38.5001 27.9997V26.833H39.6668C40.2856 26.833 40.8791 26.5872 41.3167 26.1496C41.7543 25.712 42.0001 25.1185 42.0001 24.4997C42.0001 23.8808 41.7543 23.2873 41.3167 22.8498C40.8791 22.4122 40.2856 22.1663 39.6668 22.1663H38.5001V20.9997C38.5001 20.3808 38.2543 19.7873 37.8167 19.3498C37.3791 18.9122 36.7856 18.6663 36.1668 18.6663ZM19.8335 23.333C20.1429 23.333 20.4396 23.4559 20.6584 23.6747C20.8772 23.8935 21.0001 24.1903 21.0001 24.4997C21.0001 24.8091 20.8772 25.1058 20.6584 25.3246C20.4396 25.5434 20.1429 25.6663 19.8335 25.6663C19.524 25.6663 19.2273 25.5434 19.0085 25.3246C18.7897 25.1058 18.6668 24.8091 18.6668 24.4997C18.6668 24.1903 18.7897 23.8935 19.0085 23.6747C19.2273 23.4559 19.524 23.333 19.8335 23.333Z" fill="white"/>
</g>
</g>
<defs>
<filter id="filter0_d_2354_565" x="-0.92627" y="9.33301" width="57.8535" height="45.333" filterUnits="userSpaceOnUse" color-interpolation-filters="sRGB">
<feFlood flood-opacity="0" result="BackgroundImageFix"/>
<feColorMatrix in="SourceAlpha" type="matrix" values="0 0 0 0 0 0 0 0 0 0 0 0 0 0 0 0 0 0 127 0" result="hardAlpha"/>
<feOffset dy="4"/>
<feGaussianBlur stdDeviation="2"/>
<feComposite in2="hardAlpha" operator="out"/>
<feColorMatrix type="matrix" values="0 0 0 0 0 0 0 0 0 0 0 0 0 0 0 0 0 0 0.25 0"/>
<feBlend mode="normal" in2="BackgroundImageFix" result="effect1_dropShadow_2354_565"/>
<feBlend mode="normal" in="SourceGraphic" in2="effect1_dropShadow_2354_565" result="shape"/>
</filter>
<clipPath id="clip0_2354_565">
<rect width="56" height="56" fill="white"/>
</clipPath>
</defs>
</svg>
