<svg width="54" height="54" viewBox="0 0 54 54" fill="none" xmlns="http://www.w3.org/2000/svg">
<g clip-path="url(#clip0_2354_569)">
<g filter="url(#filter0_d_2354_569)">
<path fill-rule="evenodd" clip-rule="evenodd" d="M23.8187 5.62516C24.6625 4.78154 25.8069 4.30762 27.0002 4.30762C28.1934 4.30762 29.3378 4.78154 30.1817 5.62516L33.8537 9.29716C34.3337 8.61916 34.8002 7.94041 35.2532 7.26091C36.1127 5.96941 36.9362 4.05241 38.8509 4.58341C39.3248 4.71471 39.7427 4.99766 40.0405 5.38897C40.3384 5.78027 40.4998 6.25839 40.5002 6.75016V20.2502C40.5007 23.4408 39.371 26.5286 37.3116 28.9656C35.2522 31.4027 32.3962 33.0316 29.2502 33.5634V42.5634C31.3917 42.2001 33.4141 41.3262 35.1464 40.0157C36.8786 38.7053 38.2697 36.9968 39.2019 35.0349C39.3287 34.7679 39.5068 34.5286 39.726 34.3304C39.9453 34.1323 40.2015 33.9793 40.4799 33.8802C40.7583 33.781 41.0535 33.7377 41.3486 33.7526C41.6438 33.7676 41.9331 33.8405 42.2 33.9673C42.467 34.094 42.7064 34.2721 42.9045 34.4914C43.1026 34.7107 43.2556 34.9668 43.3548 35.2452C43.4539 35.5236 43.4972 35.8188 43.4823 36.114C43.4674 36.4091 43.3944 36.6984 43.2677 36.9654C41.9722 39.6987 40.0087 42.0615 37.5588 43.8355C35.1088 45.6094 32.2513 46.7374 29.2502 47.1152C29.2502 48.3887 28.3344 49.5024 27.0002 49.5024C25.6659 49.5024 24.7502 48.3887 24.7502 47.1129C21.7495 46.7356 18.8923 45.6083 16.4424 43.8352C13.9924 42.062 12.0288 39.7001 10.7327 36.9677C10.4767 36.4285 10.4453 35.8097 10.6455 35.2475C10.8458 34.6852 11.2611 34.2255 11.8003 33.9695C12.3394 33.7135 12.9582 33.6822 13.5205 33.8824C14.0827 34.0826 14.5424 34.498 14.7984 35.0372C15.7309 36.9986 17.1221 38.7066 18.8543 40.0167C20.5866 41.3267 22.6089 42.2003 24.7502 42.5634V33.5634C21.6041 33.0316 18.7481 31.4027 16.6887 28.9656C14.6293 26.5286 13.4997 23.4408 13.5002 20.2502V6.75016C13.5 6.258 13.6612 5.77938 13.9591 5.38761C14.257 4.99585 14.6751 4.71256 15.1494 4.58116C17.0529 4.05466 17.8944 5.97841 18.7494 7.25866C19.1994 7.93966 19.6652 8.61916 20.1467 9.29716L23.8187 5.62516ZM22.9907 12.8162C23.9177 13.7994 25.5422 15.7502 27.0002 15.7502C28.4582 15.7502 30.0827 13.7994 31.0097 12.8162L27.0002 8.80666L22.9907 12.8162Z" fill="white"/>
</g>
</g>
<defs>
<filter id="filter0_d_2354_569" x="6.51514" y="4.30762" width="40.9702" height="53.1943" filterUnits="userSpaceOnUse" color-interpolation-filters="sRGB">
<feFlood flood-opacity="0" result="BackgroundImageFix"/>
<feColorMatrix in="SourceAlpha" type="matrix" values="0 0 0 0 0 0 0 0 0 0 0 0 0 0 0 0 0 0 127 0" result="hardAlpha"/>
<feOffset dy="4"/>
<feGaussianBlur stdDeviation="2"/>
<feComposite in2="hardAlpha" operator="out"/>
<feColorMatrix type="matrix" values="0 0 0 0 0 0 0 0 0 0 0 0 0 0 0 0 0 0 0.25 0"/>
<feBlend mode="normal" in2="BackgroundImageFix" result="effect1_dropShadow_2354_569"/>
<feBlend mode="normal" in="SourceGraphic" in2="effect1_dropShadow_2354_569" result="shape"/>
</filter>
<clipPath id="clip0_2354_569">
<rect width="54" height="54" fill="white"/>
</clipPath>
</defs>
</svg>
