<svg width="59" height="59" viewBox="0 0 59 59" fill="none" xmlns="http://www.w3.org/2000/svg">
<g filter="url(#filter0_d_2354_592)">
<path fill-rule="evenodd" clip-rule="evenodd" d="M38.104 9.83301C39.0206 9.83305 39.9044 10.1745 40.583 10.7908C41.2616 11.4071 41.6863 12.2541 41.7743 13.1665L41.7915 13.5205V13.7221C45.3125 15.1463 48.3457 17.5597 50.5247 20.6706C52.7038 23.7814 53.9354 27.4567 54.0708 31.2525L54.0831 31.958V36.8747C54.0831 37.4841 53.8568 38.0718 53.448 38.5238C53.0391 38.9758 52.477 39.2598 51.8706 39.3207C50.3399 39.4748 48.8403 39.5895 47.3719 39.6649C40.3533 46.4351 34.8147 49.1663 29.3498 49.1663C26.5375 49.1663 23.9464 48.4387 21.4438 47.4627C20.1711 46.9538 18.9127 46.4095 17.6703 45.8304L15.0645 44.6283L13.7542 44.0383C12.1882 43.3425 11.1778 43.2123 10.4895 43.227L10.1158 43.2442L8.88176 43.3966C8.70212 43.4156 8.52157 43.4246 8.34093 43.4237C7.83777 43.4281 7.33889 43.3309 6.87422 43.1379C6.40954 42.9448 5.98864 42.6599 5.63677 42.3002C5.40815 42.0715 5.2269 41.8 5.10339 41.5012C4.97988 41.2023 4.91654 40.882 4.91699 40.5587C4.91745 40.2353 4.9817 39.9152 5.10605 39.6168C5.2304 39.3183 5.41242 39.0473 5.64168 38.8192L5.86785 38.6225L14.7547 31.7097C14.8188 26.6425 16.8364 21.7956 20.3869 18.1797C23.9373 14.5637 28.7465 12.4579 33.8117 12.3012L34.6254 12.2913C34.8797 11.5721 35.3508 10.9494 35.9739 10.5091C36.5969 10.0688 37.3411 9.83261 38.104 9.83301ZM18.4373 35.0703L13.6755 38.7774C14.3081 38.9593 14.9989 39.215 15.7479 39.5444L16.8123 40.0238L20.6203 41.7717C21.5078 42.1724 22.3657 42.5436 23.2286 42.8804C25.4509 43.7482 27.3955 44.2497 29.3474 44.2497C32.1597 44.2497 35.4391 43.2 39.8986 39.6968C33.2512 39.3773 26.8768 38.0842 19.8533 35.5865L18.4373 35.0703ZM42.8486 19.8532C43.296 20.9594 43.6868 22.1271 44.0113 23.3293C44.9578 26.8398 45.3733 30.8591 44.7488 34.8441C46.2231 34.8105 47.6962 34.7367 49.1665 34.6228V31.958C49.1665 29.5809 48.592 27.2391 47.492 25.1319C46.3919 23.0247 44.7989 21.2121 42.8486 19.8532ZM34.4165 17.208C30.7895 17.2077 27.2896 18.5437 24.5854 20.9608C21.8812 23.3779 20.1624 26.7066 19.7574 30.3109C26.8915 33.02 33.1898 34.4114 39.7707 34.7679C40.4296 31.4 40.1321 27.828 39.2643 24.6076C38.4186 21.4658 37.0936 18.8772 35.83 17.2744C35.3602 17.2297 34.8884 17.2075 34.4165 17.208Z" fill="white"/>
</g>
<defs>
<filter id="filter0_d_2354_592" x="0.916992" y="9.83301" width="57.166" height="47.333" filterUnits="userSpaceOnUse" color-interpolation-filters="sRGB">
<feFlood flood-opacity="0" result="BackgroundImageFix"/>
<feColorMatrix in="SourceAlpha" type="matrix" values="0 0 0 0 0 0 0 0 0 0 0 0 0 0 0 0 0 0 127 0" result="hardAlpha"/>
<feOffset dy="4"/>
<feGaussianBlur stdDeviation="2"/>
<feComposite in2="hardAlpha" operator="out"/>
<feColorMatrix type="matrix" values="0 0 0 0 0 0 0 0 0 0 0 0 0 0 0 0 0 0 0.25 0"/>
<feBlend mode="normal" in2="BackgroundImageFix" result="effect1_dropShadow_2354_592"/>
<feBlend mode="normal" in="SourceGraphic" in2="effect1_dropShadow_2354_592" result="shape"/>
</filter>
</defs>
</svg>
