<svg width="55" height="55" viewBox="0 0 55 55" fill="none" xmlns="http://www.w3.org/2000/svg">
<g clip-path="url(#clip0_2354_578)">
<g filter="url(#filter0_d_2354_578)">
<path d="M32.0835 4.58301C33.2991 4.58301 34.4649 5.06589 35.3244 5.92543C36.1839 6.78498 36.6668 7.95077 36.6668 9.16634V12.4113C40.7139 14.1805 43.5418 18.2184 43.5418 22.9163V32.083C43.5425 34.3131 42.8923 36.4949 41.6711 38.3609C40.4499 40.2269 38.7107 41.696 36.6668 42.588V45.833C36.6668 47.0486 36.1839 48.2144 35.3244 49.0739C34.4649 49.9335 33.2991 50.4163 32.0835 50.4163H22.9168C21.7013 50.4163 20.5355 49.9335 19.6759 49.0739C18.8164 48.2144 18.3335 47.0486 18.3335 45.833V42.588C16.2896 41.696 14.5504 40.2269 13.3292 38.3609C12.108 36.4949 11.4579 34.3131 11.4585 32.083V22.9163C11.4579 20.6863 12.108 18.5045 13.3292 16.6385C14.5504 14.7725 16.2896 13.3034 18.3335 12.4113V9.16634C18.3335 7.95077 18.8164 6.78498 19.6759 5.92543C20.5355 5.06589 21.7013 4.58301 22.9168 4.58301H32.0835ZM32.0835 43.5413H22.9168V45.833H32.0835V43.5413ZM32.0835 16.0413H22.9168C21.1632 16.0412 19.4759 16.7113 18.2 17.9143C16.9241 19.1173 16.1562 20.7624 16.0533 22.513L16.0418 22.9163V32.083C16.0417 33.8366 16.7117 35.524 17.9148 36.7999C19.1178 38.0757 20.7629 38.8437 22.5135 38.9466L22.9168 38.958H32.0835C33.8371 38.9581 35.5245 38.2881 36.8003 37.0851C38.0762 35.882 38.8442 34.2369 38.947 32.4863L38.9585 32.083V22.9163C38.9585 21.093 38.2342 19.3443 36.9449 18.055C35.6555 16.7657 33.9069 16.0413 32.0835 16.0413ZM27.5002 18.333C28.108 18.333 28.6908 18.5745 29.1206 19.0042C29.5504 19.434 29.7918 20.0169 29.7918 20.6247V26.5509L32.441 29.2001C32.8584 29.6323 33.0894 30.2112 33.0842 30.8121C33.079 31.4129 32.838 31.9877 32.4131 32.4126C31.9882 32.8375 31.4134 33.0785 30.8125 33.0837C30.2117 33.0889 29.6328 32.858 29.2006 32.4405L25.8777 29.1199C25.6617 28.9034 25.4912 28.6459 25.3763 28.3625C25.2614 28.0792 25.2043 27.7756 25.2085 27.4699V20.6247C25.2085 20.0169 25.4499 19.434 25.8797 19.0042C26.3095 18.5745 26.8924 18.333 27.5002 18.333ZM32.0835 9.16634H22.9168V11.458H32.0835V9.16634Z" fill="white"/>
</g>
</g>
<defs>
<filter id="filter0_d_2354_578" x="7.4585" y="4.58301" width="40.0835" height="53.833" filterUnits="userSpaceOnUse" color-interpolation-filters="sRGB">
<feFlood flood-opacity="0" result="BackgroundImageFix"/>
<feColorMatrix in="SourceAlpha" type="matrix" values="0 0 0 0 0 0 0 0 0 0 0 0 0 0 0 0 0 0 127 0" result="hardAlpha"/>
<feOffset dy="4"/>
<feGaussianBlur stdDeviation="2"/>
<feComposite in2="hardAlpha" operator="out"/>
<feColorMatrix type="matrix" values="0 0 0 0 0 0 0 0 0 0 0 0 0 0 0 0 0 0 0.25 0"/>
<feBlend mode="normal" in2="BackgroundImageFix" result="effect1_dropShadow_2354_578"/>
<feBlend mode="normal" in="SourceGraphic" in2="effect1_dropShadow_2354_578" result="shape"/>
</filter>
<clipPath id="clip0_2354_578">
<rect width="55" height="55" fill="white"/>
</clipPath>
</defs>
</svg>
