<svg width="58" height="58" viewBox="0 0 58 58" fill="none" xmlns="http://www.w3.org/2000/svg">
<g clip-path="url(#clip0_2354_586)">
<g filter="url(#filter0_d_2354_586)">
<path fill-rule="evenodd" clip-rule="evenodd" d="M21.75 3.625C20.0675 3.625 18.454 4.29336 17.2643 5.48304C16.0746 6.67273 15.4062 8.28628 15.4062 9.96875V14.5H10.875C8.95218 14.5 7.10811 15.2638 5.74848 16.6235C4.38884 17.9831 3.625 19.8272 3.625 21.75V47.125C3.625 49.0478 4.38884 50.8919 5.74848 52.2515C7.10811 53.6112 8.95218 54.375 10.875 54.375H47.125C49.0478 54.375 50.8919 53.6112 52.2515 52.2515C53.6112 50.8919 54.375 49.0478 54.375 47.125V21.75C54.375 19.8272 53.6112 17.9831 52.2515 16.6235C50.8919 15.2638 49.0478 14.5 47.125 14.5H42.5938V9.96875C42.5938 8.28628 41.9254 6.67273 40.7357 5.48304C39.546 4.29336 37.9325 3.625 36.25 3.625H21.75ZM37.1562 14.5V9.96875C37.1562 9.7284 37.0608 9.49789 36.8908 9.32793C36.7209 9.15798 36.4904 9.0625 36.25 9.0625H21.75C21.5096 9.0625 21.2791 9.15798 21.1092 9.32793C20.9392 9.49789 20.8438 9.7284 20.8438 9.96875V14.5H37.1562ZM10.875 19.9375H47.125C47.6057 19.9375 48.0667 20.1285 48.4066 20.4684C48.7465 20.8083 48.9375 21.2693 48.9375 21.75V25.375H9.0625V21.75C9.0625 21.2693 9.25346 20.8083 9.59337 20.4684C9.93328 20.1285 10.3943 19.9375 10.875 19.9375ZM9.0625 30.8125V47.125C9.0625 47.6057 9.25346 48.0667 9.59337 48.4066C9.93328 48.7465 10.3943 48.9375 10.875 48.9375H47.125C47.6057 48.9375 48.0667 48.7465 48.4066 48.4066C48.7465 48.0667 48.9375 47.6057 48.9375 47.125V30.8125H32.625V36.25H25.375V30.8125H9.0625Z" fill="white"/>
</g>
</g>
<defs>
<filter id="filter0_d_2354_586" x="-0.375" y="3.625" width="58.75" height="58.75" filterUnits="userSpaceOnUse" color-interpolation-filters="sRGB">
<feFlood flood-opacity="0" result="BackgroundImageFix"/>
<feColorMatrix in="SourceAlpha" type="matrix" values="0 0 0 0 0 0 0 0 0 0 0 0 0 0 0 0 0 0 127 0" result="hardAlpha"/>
<feOffset dy="4"/>
<feGaussianBlur stdDeviation="2"/>
<feComposite in2="hardAlpha" operator="out"/>
<feColorMatrix type="matrix" values="0 0 0 0 0 0 0 0 0 0 0 0 0 0 0 0 0 0 0.25 0"/>
<feBlend mode="normal" in2="BackgroundImageFix" result="effect1_dropShadow_2354_586"/>
<feBlend mode="normal" in="SourceGraphic" in2="effect1_dropShadow_2354_586" result="shape"/>
</filter>
<clipPath id="clip0_2354_586">
<rect width="58" height="58" fill="white"/>
</clipPath>
</defs>
</svg>
