<svg width="53" height="53" viewBox="0 0 53 53" fill="none" xmlns="http://www.w3.org/2000/svg">
<g clip-path="url(#clip0_2354_557)">
<g filter="url(#filter0_d_2354_557)">
<path d="M16.5002 39.6006C17.3754 39.6006 18.2148 39.9483 18.8336 40.5671C19.4525 41.186 19.8002 42.0254 19.8002 42.9006C19.8002 43.7758 19.4525 44.6152 18.8336 45.234C18.2148 45.8529 17.3754 46.2006 16.5002 46.2006C15.625 46.2006 14.7856 45.8529 14.1667 45.234C13.5479 44.6152 13.2002 43.7758 13.2002 42.9006C13.2002 42.0254 13.5479 41.186 14.1667 40.5671C14.7856 39.9483 15.625 39.6006 16.5002 39.6006ZM36.3002 39.6006C37.1754 39.6006 38.0148 39.9483 38.6336 40.5671C39.2525 41.186 39.6002 42.0254 39.6002 42.9006C39.6002 43.7758 39.2525 44.6152 38.6336 45.234C38.0148 45.8529 37.1754 46.2006 36.3002 46.2006C35.425 46.2006 34.5856 45.8529 33.9667 45.234C33.3479 44.6152 33.0002 43.7758 33.0002 42.9006C33.0002 42.0254 33.3479 41.186 33.9667 40.5671C34.5856 39.9483 35.425 39.6006 36.3002 39.6006Z" stroke="white" stroke-width="3.3"/>
<path d="M4.94795 5.04274C4.53484 4.89746 4.08095 4.92222 3.68611 5.1116C3.29127 5.30097 2.98783 5.63944 2.84255 6.05254C2.69726 6.46564 2.72203 6.91954 2.9114 7.31438C3.10078 7.70922 3.43924 8.01266 3.85235 8.15794L4.94795 5.04274ZM45.4477 21.7429L47.0625 22.0751L47.0647 22.0663L45.4477 21.7429ZM12.5577 21.4723V15.4839H9.25775V21.4723H12.5577ZM5.52215 5.24514L4.94795 5.04274L3.85235 8.15794L4.42655 8.35814L5.52215 5.24514ZM24.0637 35.7503H35.7281V32.4503H24.0637V35.7503ZM12.5577 15.4839C12.5577 13.9285 12.5599 12.6305 12.4477 11.5767C12.3267 10.4833 12.0737 9.48674 11.4533 8.58034L8.72755 10.4415C8.92555 10.7319 9.07955 11.1323 9.16535 11.9309C9.25555 12.7669 9.25775 13.8559 9.25775 15.4839H12.5577ZM4.42655 8.35814C5.89615 8.87514 6.86195 9.21834 7.57255 9.57034C8.23915 9.89594 8.53395 10.1599 8.72755 10.4437L11.4533 8.58034C10.8285 7.66514 9.99475 7.07994 9.02455 6.60254C8.10055 6.14934 6.91695 5.73574 5.52215 5.24514L4.42655 8.35814ZM9.25775 21.4723C9.25775 24.6689 9.28854 26.9723 9.58774 28.7323C9.91114 30.6111 10.5557 31.9575 11.7547 33.2247L14.1505 30.9543C13.4465 30.2107 13.0659 29.4847 12.8415 28.1757C12.5995 26.7457 12.5577 24.7481 12.5577 21.4723H9.25775ZM24.0637 32.4503C20.9463 32.4503 18.7837 32.4459 17.1535 32.2149C15.5805 31.9927 14.7511 31.5879 14.1505 30.9543L11.7547 33.2247C13.0615 34.6041 14.7181 35.2047 16.6893 35.4819C18.6033 35.7547 21.0475 35.7503 24.0637 35.7503V32.4503ZM10.9077 15.1143H37.5937V11.8143H10.9099L10.9077 15.1143ZM43.8307 21.4085L42.7307 26.7435L45.9647 27.4079L47.0625 22.0751L43.8307 21.4085ZM37.5981 15.1143C39.4813 15.1143 41.1401 15.1165 42.4491 15.2617C43.0959 15.338 43.5887 15.4363 43.9275 15.5565C44.2817 15.6819 44.3389 15.7765 44.3103 15.7391L46.9261 13.7283C46.4091 13.0551 45.6831 12.6745 45.0209 12.4435C44.3049 12.2078 43.5648 12.0529 42.8143 11.9815C41.2853 11.8121 39.4197 11.8143 37.5981 11.8143V15.1143ZM47.0647 22.0663C47.4387 20.2007 47.7555 18.6343 47.8325 17.3803C47.9139 16.0911 47.7665 14.8195 46.9261 13.7283L44.3103 15.7391C44.4467 15.9173 44.5963 16.2363 44.5391 17.1779C44.4797 18.1547 44.2223 19.4593 43.8307 21.4195L47.0647 22.0663ZM35.7281 35.7503C37.4045 35.7503 38.8125 35.7525 39.9477 35.6139C41.1247 35.4709 42.2005 35.1541 43.1377 34.3907L41.0521 31.8321C40.7771 32.0565 40.3877 32.2369 39.5451 32.3381C38.6585 32.4481 37.4881 32.4503 35.7281 32.4503V35.7503ZM42.7351 26.7435C42.3787 28.4661 42.1411 29.6101 41.8551 30.4571C41.5845 31.2623 41.3271 31.6077 41.0521 31.8321L43.1377 34.3907C44.0771 33.6251 44.6029 32.6373 44.9813 31.5109C45.3465 30.4285 45.6281 29.0513 45.9669 27.4101L42.7351 26.7435Z" fill="white"/>
<path d="M36.3003 14.3008L33.0003 33.0008M19.8003 14.3008L23.1003 33.0008" stroke="white" stroke-width="3.3" stroke-linecap="round"/>
</g>
</g>
<defs>
<filter id="filter0_d_2354_557" x="-1.25098" y="4.94922" width="53.103" height="50.9014" filterUnits="userSpaceOnUse" color-interpolation-filters="sRGB">
<feFlood flood-opacity="0" result="BackgroundImageFix"/>
<feColorMatrix in="SourceAlpha" type="matrix" values="0 0 0 0 0 0 0 0 0 0 0 0 0 0 0 0 0 0 127 0" result="hardAlpha"/>
<feOffset dy="4"/>
<feGaussianBlur stdDeviation="2"/>
<feComposite in2="hardAlpha" operator="out"/>
<feColorMatrix type="matrix" values="0 0 0 0 0 0 0 0 0 0 0 0 0 0 0 0 0 0 0.25 0"/>
<feBlend mode="normal" in2="BackgroundImageFix" result="effect1_dropShadow_2354_557"/>
<feBlend mode="normal" in="SourceGraphic" in2="effect1_dropShadow_2354_557" result="shape"/>
</filter>
<clipPath id="clip0_2354_557">
<rect width="52.8" height="52.8" fill="white"/>
</clipPath>
</defs>
</svg>
