<svg width="67" height="67" viewBox="0 0 67 67" fill="none" xmlns="http://www.w3.org/2000/svg">
<g clip-path="url(#clip0_2354_614)">
<g filter="url(#filter0_d_2354_614)">
<path d="M27.2188 53.0413C27.2188 52.6711 27.3658 52.3161 27.6276 52.0543C27.8893 51.7926 28.2444 51.6455 28.6146 51.6455H38.3854C38.7556 51.6455 39.1107 51.7926 39.3724 52.0543C39.6342 52.3161 39.7812 52.6711 39.7812 53.0413C39.7812 53.4115 39.6342 53.7666 39.3724 54.0283C39.1107 54.2901 38.7556 54.4372 38.3854 54.4372H28.6146C28.2444 54.4372 27.8893 54.2901 27.6276 54.0283C27.3658 53.7666 27.2188 53.4115 27.2188 53.0413Z" fill="white"/>
</g>
<g filter="url(#filter1_d_2354_614)">
<path d="M28.3911 6.28125H38.6086C40.1021 6.28125 41.3444 6.28125 42.3634 6.365C43.4242 6.44875 44.418 6.63858 45.3588 7.11875C46.8037 7.85483 47.9783 9.0295 48.7144 10.4743C49.1946 11.4151 49.3844 12.409 49.4682 13.4698C49.5519 14.4887 49.5519 15.731 49.5519 17.2246V49.7754C49.5519 51.269 49.5519 52.5112 49.4682 53.5302C49.3844 54.591 49.1946 55.5849 48.7144 56.5257C47.9791 57.9701 46.8054 59.1447 45.3616 59.8813C44.418 60.3614 43.4242 60.5513 42.3634 60.635C41.3444 60.7188 40.1021 60.7188 38.6114 60.7188H28.3911C26.8975 60.7188 25.6553 60.7188 24.6363 60.635C23.5755 60.5513 22.5816 60.3614 21.6408 59.8813C20.1968 59.1466 19.0223 57.974 18.2853 56.5312C17.8051 55.5877 17.6153 54.5938 17.5315 53.533C17.4478 52.514 17.4478 51.2718 17.4478 49.7782V17.2246C17.4478 15.731 17.4478 14.4887 17.5315 13.4698C17.6153 12.409 17.8051 11.4151 18.2853 10.4743C19.0213 9.0295 20.196 7.85483 21.6408 7.11875C22.5816 6.63858 23.5755 6.44875 24.6363 6.365C25.6553 6.28125 26.8975 6.28125 28.3911 6.28125ZM24.9769 10.5385C24.1757 10.6028 23.7932 10.72 23.542 10.8484C22.8843 11.1832 22.3497 11.7178 22.0149 12.3755C21.8865 12.6267 21.7693 13.0092 21.705 13.8104C21.638 14.6367 21.6353 15.7087 21.6353 17.3083V49.6917C21.6353 51.2885 21.6353 52.3633 21.705 53.1868C21.7693 53.9908 21.8865 54.3733 22.0149 54.6245C22.3499 55.2834 22.8831 55.8166 23.542 56.1516C23.7932 56.28 24.1757 56.3973 24.9769 56.4615C25.8032 56.5285 26.8752 56.5312 28.4748 56.5312H38.5248C40.1217 56.5312 41.1965 56.5313 42.02 56.4615C42.824 56.3973 43.2065 56.28 43.4605 56.1516C44.1171 55.8164 44.6507 55.2818 44.9848 54.6245C45.1132 54.3733 45.2304 53.9908 45.2946 53.1868C45.3616 52.3633 45.3644 51.2885 45.3644 49.6917V17.3083C45.3644 15.7115 45.3644 14.6367 45.2946 13.8104C45.2304 13.0092 45.1132 12.6267 44.9848 12.3755C44.6507 11.7182 44.1171 11.1836 43.4605 10.8484C43.2065 10.72 42.824 10.6028 42.0228 10.5385C41.431 10.4961 40.8378 10.4747 40.2445 10.4743L39.8983 11.5156C39.6052 12.3922 39.4573 12.8333 39.1865 13.1571C38.9472 13.4433 38.6401 13.665 38.2931 13.802C37.8967 13.9583 37.4333 13.9583 36.5065 13.9583H30.4932C29.5664 13.9583 29.103 13.9583 28.7065 13.802C28.3599 13.6658 28.0528 13.4451 27.8132 13.1599C27.5424 12.8333 27.3945 12.3922 27.1013 11.5128L26.7552 10.4743C26.1618 10.4747 25.5687 10.4961 24.9769 10.5385Z" fill="white"/>
</g>
</g>
<defs>
<filter id="filter0_d_2354_614" x="23.2188" y="51.6455" width="20.5625" height="10.792" filterUnits="userSpaceOnUse" color-interpolation-filters="sRGB">
<feFlood flood-opacity="0" result="BackgroundImageFix"/>
<feColorMatrix in="SourceAlpha" type="matrix" values="0 0 0 0 0 0 0 0 0 0 0 0 0 0 0 0 0 0 127 0" result="hardAlpha"/>
<feOffset dy="4"/>
<feGaussianBlur stdDeviation="2"/>
<feComposite in2="hardAlpha" operator="out"/>
<feColorMatrix type="matrix" values="0 0 0 0 0 0 0 0 0 0 0 0 0 0 0 0 0 0 0.25 0"/>
<feBlend mode="normal" in2="BackgroundImageFix" result="effect1_dropShadow_2354_614"/>
<feBlend mode="normal" in="SourceGraphic" in2="effect1_dropShadow_2354_614" result="shape"/>
</filter>
<filter id="filter1_d_2354_614" x="13.4478" y="6.28125" width="40.104" height="62.4375" filterUnits="userSpaceOnUse" color-interpolation-filters="sRGB">
<feFlood flood-opacity="0" result="BackgroundImageFix"/>
<feColorMatrix in="SourceAlpha" type="matrix" values="0 0 0 0 0 0 0 0 0 0 0 0 0 0 0 0 0 0 127 0" result="hardAlpha"/>
<feOffset dy="4"/>
<feGaussianBlur stdDeviation="2"/>
<feComposite in2="hardAlpha" operator="out"/>
<feColorMatrix type="matrix" values="0 0 0 0 0 0 0 0 0 0 0 0 0 0 0 0 0 0 0.25 0"/>
<feBlend mode="normal" in2="BackgroundImageFix" result="effect1_dropShadow_2354_614"/>
<feBlend mode="normal" in="SourceGraphic" in2="effect1_dropShadow_2354_614" result="shape"/>
</filter>
<clipPath id="clip0_2354_614">
<rect width="67" height="67" fill="white"/>
</clipPath>
</defs>
</svg>
