<svg width="58" height="58" viewBox="0 0 58 58" fill="none" xmlns="http://www.w3.org/2000/svg">
<g clip-path="url(#clip0_2354_624)">
<g filter="url(#filter0_d_2354_624)">
<path fill-rule="evenodd" clip-rule="evenodd" d="M7.25 9.0625C7.25 7.62039 7.82288 6.23734 8.84261 5.21761C9.86234 4.19788 11.2454 3.625 12.6875 3.625L45.3125 3.625C46.7546 3.625 48.1377 4.19788 49.1574 5.21761C50.1771 6.23734 50.75 7.62039 50.75 9.0625V12.6186H7.25V9.0625ZM7.25 17.1499V48.9375C7.25 50.3796 7.82288 51.7627 8.84261 52.7824C9.86234 53.8021 11.2454 54.375 12.6875 54.375H45.3125C46.7546 54.375 48.1377 53.8021 49.1574 52.7824C50.1771 51.7627 50.75 50.3796 50.75 48.9375V17.1499H7.25ZM15.921 34.4375C15.9203 32.9532 16.1728 31.4796 16.6678 30.0802C17.7593 26.9896 19.9712 24.4213 22.8658 22.8836C25.7604 21.3458 29.1268 20.9506 32.2988 21.7762C35.4709 22.6017 38.2174 24.5879 39.9951 27.3417C41.7727 30.0955 42.4519 33.4163 41.8983 36.6469C41.3446 39.8775 39.5984 42.7826 37.0052 44.7873C34.4121 46.792 31.1609 47.7503 27.8949 47.4726C24.629 47.1948 21.5863 45.7012 19.369 43.2873C17.1516 40.8735 15.9211 37.7152 15.921 34.4375ZM19.9447 33.35C20.0159 32.9274 20.2344 32.5438 20.5616 32.267C20.8887 31.9903 21.3034 31.8384 21.7319 31.8384H23.0151C25.7882 31.8384 27.4123 32.5163 28.8731 33.1216L29.0906 33.2122C30.4573 33.7814 31.8384 34.3142 34.568 34.3142H36.3696C36.6327 34.3144 36.8926 34.3718 37.1313 34.4825C37.37 34.5931 37.5817 34.7545 37.7518 34.9552C37.9219 35.156 38.0462 35.3914 38.1161 35.645C38.186 35.8986 38.1999 36.1645 38.1567 36.424C37.7085 38.8011 36.3456 40.9075 34.3609 42.2905C32.3762 43.6735 29.9282 44.2228 27.5429 43.8201C25.1576 43.4175 23.0255 42.0952 21.6047 40.1374C20.1839 38.1796 19.5879 35.7426 19.9447 33.35Z" fill="white"/>
</g>
</g>
<defs>
<filter id="filter0_d_2354_624" x="3.25" y="3.625" width="51.5" height="58.75" filterUnits="userSpaceOnUse" color-interpolation-filters="sRGB">
<feFlood flood-opacity="0" result="BackgroundImageFix"/>
<feColorMatrix in="SourceAlpha" type="matrix" values="0 0 0 0 0 0 0 0 0 0 0 0 0 0 0 0 0 0 127 0" result="hardAlpha"/>
<feOffset dy="4"/>
<feGaussianBlur stdDeviation="2"/>
<feComposite in2="hardAlpha" operator="out"/>
<feColorMatrix type="matrix" values="0 0 0 0 0 0 0 0 0 0 0 0 0 0 0 0 0 0 0.25 0"/>
<feBlend mode="normal" in2="BackgroundImageFix" result="effect1_dropShadow_2354_624"/>
<feBlend mode="normal" in="SourceGraphic" in2="effect1_dropShadow_2354_624" result="shape"/>
</filter>
<clipPath id="clip0_2354_624">
<rect width="58" height="58" fill="white"/>
</clipPath>
</defs>
</svg>
