<svg width="55" height="55" viewBox="0 0 55 55" fill="none" xmlns="http://www.w3.org/2000/svg">
<g clip-path="url(#clip0_2354_247)">
<g filter="url(#filter0_d_2354_247)">
<path d="M5.34739 20.7165L7.63906 19.372V24.4443H47.3613V19.4179L49.6224 20.7165C49.9716 20.8991 50.3778 20.9398 50.7562 20.83C51.1347 20.7202 51.4561 20.4685 51.6533 20.1273C51.8505 19.7862 51.9082 19.382 51.8145 18.9993C51.7207 18.6165 51.4827 18.2848 51.1502 18.0734L27.5002 4.46094L3.81962 18.0734C3.63704 18.1689 3.47567 18.3004 3.34521 18.4599C3.21475 18.6194 3.11791 18.8036 3.0605 19.0015C3.00309 19.1994 2.9863 19.4069 3.01115 19.6114C3.03599 19.8159 3.10196 20.0134 3.20508 20.1917C3.30819 20.3701 3.44633 20.5258 3.61117 20.6494C3.77602 20.7731 3.96417 20.8621 4.1643 20.9111C4.36444 20.9601 4.57242 20.9681 4.77574 20.9347C4.97905 20.9013 5.1735 20.827 5.34739 20.7165ZM27.271 10.8623C27.4568 10.7551 27.6676 10.6986 27.8821 10.6986C28.0967 10.6986 28.3074 10.7551 28.4932 10.8623L38.7599 16.8054H33.8405L27.8821 13.3832L21.9238 16.8054H17.0196L27.271 10.8623Z" fill="white"/>
</g>
<g filter="url(#filter1_d_2354_247)">
<path d="M50.1876 41.2498H48.889V39.9512C48.889 39.4853 48.7039 39.0384 48.3744 38.7089C48.0449 38.3794 47.598 38.1943 47.1321 38.1943H42.7779V26.9346H36.6668V38.1943H30.5557V26.9346H24.4446V38.1943H18.3334V26.9346H12.2223V38.1943H7.86816C7.40219 38.1943 6.95531 38.3794 6.62582 38.7089C6.29633 39.0384 6.11122 39.4853 6.11122 39.9512V41.2498H4.81261C4.34664 41.2498 3.89975 41.435 3.57026 41.7644C3.24077 42.0939 3.05566 42.5408 3.05566 43.0068V47.361H51.9446V43.0068C51.9446 42.5408 51.7594 42.0939 51.43 41.7644C51.1005 41.435 50.6536 41.2498 50.1876 41.2498Z" fill="white"/>
</g>
</g>
<defs>
<filter id="filter0_d_2354_247" x="-1" y="4.46094" width="56.8584" height="27.9834" filterUnits="userSpaceOnUse" color-interpolation-filters="sRGB">
<feFlood flood-opacity="0" result="BackgroundImageFix"/>
<feColorMatrix in="SourceAlpha" type="matrix" values="0 0 0 0 0 0 0 0 0 0 0 0 0 0 0 0 0 0 127 0" result="hardAlpha"/>
<feOffset dy="4"/>
<feGaussianBlur stdDeviation="2"/>
<feComposite in2="hardAlpha" operator="out"/>
<feColorMatrix type="matrix" values="0 0 0 0 0 0 0 0 0 0 0 0 0 0 0 0 0 0 0.25 0"/>
<feBlend mode="normal" in2="BackgroundImageFix" result="effect1_dropShadow_2354_247"/>
<feBlend mode="normal" in="SourceGraphic" in2="effect1_dropShadow_2354_247" result="shape"/>
</filter>
<filter id="filter1_d_2354_247" x="-0.944336" y="26.9346" width="56.8887" height="28.4268" filterUnits="userSpaceOnUse" color-interpolation-filters="sRGB">
<feFlood flood-opacity="0" result="BackgroundImageFix"/>
<feColorMatrix in="SourceAlpha" type="matrix" values="0 0 0 0 0 0 0 0 0 0 0 0 0 0 0 0 0 0 127 0" result="hardAlpha"/>
<feOffset dy="4"/>
<feGaussianBlur stdDeviation="2"/>
<feComposite in2="hardAlpha" operator="out"/>
<feColorMatrix type="matrix" values="0 0 0 0 0 0 0 0 0 0 0 0 0 0 0 0 0 0 0.25 0"/>
<feBlend mode="normal" in2="BackgroundImageFix" result="effect1_dropShadow_2354_247"/>
<feBlend mode="normal" in="SourceGraphic" in2="effect1_dropShadow_2354_247" result="shape"/>
</filter>
<clipPath id="clip0_2354_247">
<rect width="55" height="55" fill="white"/>
</clipPath>
</defs>
</svg>
