<svg width="53" height="53" viewBox="0 0 53 53" fill="none" xmlns="http://www.w3.org/2000/svg">
<g clip-path="url(#clip0_2354_220)">
<g filter="url(#filter0_d_2354_220)">
<path d="M14.8498 5.7815C14.8498 3.37745 17.8314 2.465 19.2735 4.1975C21.2122 6.524 22.6642 7.877 23.9496 8.6855C24.5891 9.0953 25.2866 9.40678 26.0187 9.6095C25.3957 10.539 24.9017 11.5486 24.5502 12.6109C23.7215 12.3278 22.9295 11.9473 22.1907 11.4773C20.8855 10.6573 19.5853 9.5039 18.1498 7.93145V13.9589C18.1498 14.2644 18.0649 14.564 17.9047 14.8241C17.7445 15.0843 17.5152 15.2949 17.2423 15.4324C14.2426 16.9454 12.0085 19.2323 10.8337 22.397C10.38 23.6213 9.3421 24.6889 7.90495 24.9908C7.53623 25.068 7.20529 25.2697 6.96765 25.5621C6.73001 25.8544 6.60013 26.2195 6.5998 26.5962V29.5002C6.5998 30.279 7.1443 30.9506 7.90495 31.1106C9.3421 31.4126 10.38 32.4802 10.8337 33.7028C12.0085 36.8691 14.2426 39.156 17.2423 40.6691C17.5152 40.8066 17.7445 41.0171 17.9047 41.2773C18.0649 41.5375 18.1498 41.837 18.1498 42.1425V44.5499C18.1498 44.9875 18.3236 45.4072 18.6331 45.7166C18.9425 46.0261 19.3622 46.1999 19.7998 46.1999H23.0998C23.0998 45.3247 23.4475 44.4853 24.0664 43.8664C24.6852 43.2476 25.5246 42.8999 26.3998 42.8999H32.9998C33.875 42.8999 34.7144 43.2476 35.3333 43.8664C35.9521 44.4853 36.2998 45.3247 36.2998 46.1999H39.5998C40.0374 46.1999 40.4571 46.0261 40.7665 45.7166C41.076 45.4072 41.2498 44.9875 41.2498 44.5499V39.1461C41.2499 38.9195 41.2966 38.6952 41.3872 38.4874C41.4778 38.2796 41.6102 38.0927 41.7762 37.9383C44.5531 35.3561 46.1998 31.9439 46.1998 28.0499C46.1998 26.8305 46.0348 25.6524 45.718 24.5271C46.6408 23.4456 47.3703 22.2132 47.8745 20.8839C48.9535 23.1182 49.5093 25.5688 49.4998 28.0499C49.4998 32.6864 47.6238 36.7536 44.5498 39.8474V44.5499C44.5498 45.8627 44.0283 47.1218 43.1 48.0501C42.1717 48.9784 40.9126 49.4999 39.5998 49.4999H36.2998C35.4246 49.4999 34.5852 49.1522 33.9664 48.5333C33.3475 47.9145 32.9998 47.0751 32.9998 46.1999H26.3998C26.3998 47.0751 26.0521 47.9145 25.4333 48.5333C24.8144 49.1522 23.975 49.4999 23.0998 49.4999H19.7998C18.487 49.4999 17.2279 48.9784 16.2996 48.0501C15.3713 47.1218 14.8498 45.8627 14.8498 44.5499V43.1259C11.634 41.2796 9.11275 38.5505 7.73995 34.8512C7.62115 34.5327 7.3984 34.376 7.22515 34.3397C6.11512 34.1061 5.1192 33.4978 4.40448 32.617C3.68976 31.7361 3.29972 30.6362 3.2998 29.5019V26.5979C3.2998 24.2582 4.93825 22.2419 7.2268 21.7601C7.40005 21.7238 7.6228 21.5687 7.73995 21.2486C9.11275 17.5493 11.634 14.8202 14.8498 12.9739V5.7815ZM36.2998 9.8999C35.4206 9.8999 34.5502 10.0756 33.7398 10.4166C32.9294 10.7576 32.1953 11.2571 31.5807 11.8858C30.966 12.5145 30.4831 13.2596 30.1604 14.0774C29.8377 14.8953 29.6817 15.7694 29.7015 16.6484C29.7064 16.8761 29.8945 17.2589 30.472 17.4916L39.8011 21.2618C40.3786 21.4961 40.7812 21.3509 40.9446 21.1892C41.874 20.2687 42.5089 19.0928 42.7687 17.8108C43.0285 16.5287 42.9015 15.1984 42.4037 13.9887C41.906 12.779 41.0601 11.7445 39.9733 11.0165C38.8865 10.2885 37.6079 9.89983 36.2998 9.8999ZM26.3998 16.4999C26.3998 14.8698 26.8022 13.2649 27.5715 11.8277C28.3408 10.3905 29.453 9.16554 30.8095 8.26151C32.1659 7.35749 33.7246 6.8024 35.3472 6.64554C36.9697 6.48869 38.6059 6.73491 40.1104 7.36236C41.6149 7.98981 42.9412 8.97905 43.9715 10.2423C45.0019 11.5055 45.7043 13.0036 46.0165 14.6035C46.3287 16.2034 46.241 17.8557 45.7612 19.4136C45.2814 20.9715 44.4243 22.3868 43.2661 23.5338C41.9032 24.8852 39.9793 24.8934 38.5653 24.3209L29.2362 20.5523C27.8205 19.9798 26.4444 18.6383 26.4015 16.7194L26.3998 16.4999ZM17.3248 24.7499C17.9812 24.7499 18.6107 24.4891 19.0749 24.025C19.539 23.5608 19.7998 22.9313 19.7998 22.2749C19.7998 21.6185 19.539 20.989 19.0749 20.5248C18.6107 20.0607 17.9812 19.7999 17.3248 19.7999C16.6684 19.7999 16.0389 20.0607 15.5747 20.5248C15.1106 20.989 14.8498 21.6185 14.8498 22.2749C14.8498 22.9313 15.1106 23.5608 15.5747 24.025C16.0389 24.4891 16.6684 24.7499 17.3248 24.7499Z" fill="white"/>
</g>
</g>
<defs>
<filter id="filter0_d_2354_220" x="-0.700195" y="3.30078" width="54.2002" height="54.1992" filterUnits="userSpaceOnUse" color-interpolation-filters="sRGB">
<feFlood flood-opacity="0" result="BackgroundImageFix"/>
<feColorMatrix in="SourceAlpha" type="matrix" values="0 0 0 0 0 0 0 0 0 0 0 0 0 0 0 0 0 0 127 0" result="hardAlpha"/>
<feOffset dy="4"/>
<feGaussianBlur stdDeviation="2"/>
<feComposite in2="hardAlpha" operator="out"/>
<feColorMatrix type="matrix" values="0 0 0 0 0 0 0 0 0 0 0 0 0 0 0 0 0 0 0.25 0"/>
<feBlend mode="normal" in2="BackgroundImageFix" result="effect1_dropShadow_2354_220"/>
<feBlend mode="normal" in="SourceGraphic" in2="effect1_dropShadow_2354_220" result="shape"/>
</filter>
<clipPath id="clip0_2354_220">
<rect width="52.8" height="52.8" fill="white"/>
</clipPath>
</defs>
</svg>
