<svg width="62" height="62" viewBox="0 0 62 62" fill="none" xmlns="http://www.w3.org/2000/svg">
<g clip-path="url(#clip0_2354_262)">
<g filter="url(#filter0_d_2354_262)">
<path d="M44.5625 27.125H21.3125C20.2275 27.125 19.375 26.2725 19.375 25.1875C19.375 24.1025 20.2275 23.25 21.3125 23.25H44.5625C45.6475 23.25 46.5 24.1025 46.5 25.1875C46.5 26.2725 45.6475 27.125 44.5625 27.125ZM44.5625 34.875H21.3125C20.2275 34.875 19.375 34.0225 19.375 32.9375C19.375 31.8525 20.2275 31 21.3125 31H44.5625C45.6475 31 46.5 31.8525 46.5 32.9375C46.5 34.0225 45.6475 34.875 44.5625 34.875Z" fill="white"/>
</g>
<g filter="url(#filter1_d_2354_262)">
<path d="M31 58.125C16.0425 58.125 3.875 45.9575 3.875 31C3.875 16.0425 16.0425 3.875 31 3.875C45.9575 3.875 58.125 16.0425 58.125 31C58.125 45.9575 45.9575 58.125 31 58.125ZM31 7.75C18.1737 7.75 7.75 18.1737 7.75 31C7.75 43.8262 18.1737 54.25 31 54.25C43.8262 54.25 54.25 43.8262 54.25 31C54.25 18.1737 43.8262 7.75 31 7.75Z" fill="white"/>
</g>
<g filter="url(#filter2_d_2354_262)">
<path d="M25.1875 50.375C24.1025 50.375 23.25 49.5225 23.25 48.4375V21.3125C23.25 18.0963 25.8463 15.5 29.0625 15.5H32.9375C35.5068 15.5 37.9708 16.5206 39.7876 18.3374C41.6044 20.1542 42.625 22.6182 42.625 25.1875V32.9375C42.625 35.5068 41.6044 37.9708 39.7876 39.7876C37.9708 41.6044 35.5068 42.625 32.9375 42.625H27.125V48.4375C27.125 49.5225 26.2725 50.375 25.1875 50.375ZM27.125 38.75H32.9375C36.1537 38.75 38.75 36.1537 38.75 32.9375V25.1875C38.75 21.9713 36.1537 19.375 32.9375 19.375H29.0625C27.9775 19.375 27.125 20.2275 27.125 21.3125V38.75Z" fill="white"/>
</g>
</g>
<defs>
<filter id="filter0_d_2354_262" x="15.375" y="23.25" width="35.125" height="19.625" filterUnits="userSpaceOnUse" color-interpolation-filters="sRGB">
<feFlood flood-opacity="0" result="BackgroundImageFix"/>
<feColorMatrix in="SourceAlpha" type="matrix" values="0 0 0 0 0 0 0 0 0 0 0 0 0 0 0 0 0 0 127 0" result="hardAlpha"/>
<feOffset dy="4"/>
<feGaussianBlur stdDeviation="2"/>
<feComposite in2="hardAlpha" operator="out"/>
<feColorMatrix type="matrix" values="0 0 0 0 0 0 0 0 0 0 0 0 0 0 0 0 0 0 0.25 0"/>
<feBlend mode="normal" in2="BackgroundImageFix" result="effect1_dropShadow_2354_262"/>
<feBlend mode="normal" in="SourceGraphic" in2="effect1_dropShadow_2354_262" result="shape"/>
</filter>
<filter id="filter1_d_2354_262" x="-0.125" y="3.875" width="62.25" height="62.25" filterUnits="userSpaceOnUse" color-interpolation-filters="sRGB">
<feFlood flood-opacity="0" result="BackgroundImageFix"/>
<feColorMatrix in="SourceAlpha" type="matrix" values="0 0 0 0 0 0 0 0 0 0 0 0 0 0 0 0 0 0 127 0" result="hardAlpha"/>
<feOffset dy="4"/>
<feGaussianBlur stdDeviation="2"/>
<feComposite in2="hardAlpha" operator="out"/>
<feColorMatrix type="matrix" values="0 0 0 0 0 0 0 0 0 0 0 0 0 0 0 0 0 0 0.25 0"/>
<feBlend mode="normal" in2="BackgroundImageFix" result="effect1_dropShadow_2354_262"/>
<feBlend mode="normal" in="SourceGraphic" in2="effect1_dropShadow_2354_262" result="shape"/>
</filter>
<filter id="filter2_d_2354_262" x="19.25" y="15.5" width="27.375" height="42.875" filterUnits="userSpaceOnUse" color-interpolation-filters="sRGB">
<feFlood flood-opacity="0" result="BackgroundImageFix"/>
<feColorMatrix in="SourceAlpha" type="matrix" values="0 0 0 0 0 0 0 0 0 0 0 0 0 0 0 0 0 0 127 0" result="hardAlpha"/>
<feOffset dy="4"/>
<feGaussianBlur stdDeviation="2"/>
<feComposite in2="hardAlpha" operator="out"/>
<feColorMatrix type="matrix" values="0 0 0 0 0 0 0 0 0 0 0 0 0 0 0 0 0 0 0.25 0"/>
<feBlend mode="normal" in2="BackgroundImageFix" result="effect1_dropShadow_2354_262"/>
<feBlend mode="normal" in="SourceGraphic" in2="effect1_dropShadow_2354_262" result="shape"/>
</filter>
<clipPath id="clip0_2354_262">
<rect width="62" height="62" fill="white"/>
</clipPath>
</defs>
</svg>
