<svg width="67" height="67" viewBox="0 0 67 67" fill="none" xmlns="http://www.w3.org/2000/svg">
<g filter="url(#filter0_d_2354_351)">
<path d="M42.7727 41.3333C42.7727 39.0181 35.5075 37.1429 26.5455 37.1429M42.7727 41.3333C42.7727 43.6486 35.5075 45.5238 26.5455 45.5238C17.5834 45.5238 10.3182 43.6486 10.3182 41.3333M42.7727 41.3333V51.6775C42.7727 54.064 35.5075 56 26.5455 56C17.5834 56 10.3182 54.0661 10.3182 51.6775V41.3333M42.7727 41.3333C51.6375 41.3333 59 39.2653 59 37.1429V16.1905M26.5455 37.1429C17.5834 37.1429 10.3182 39.0181 10.3182 41.3333M26.5455 37.1429C16.3037 37.1429 8 35.0749 8 32.9524V22.4762M26.5455 18.2857C16.3037 18.2857 8 20.161 8 22.4762M8 22.4762C8 24.7914 16.3037 26.6667 26.5455 26.6667C26.5455 28.7891 34.0865 30.8571 42.9512 30.8571C51.816 30.8571 59 28.7891 59 26.6667M59 16.1905C59 13.8752 51.8136 12 42.9512 12C34.0888 12 26.9025 13.8752 26.9025 16.1905M59 16.1905C59 18.5057 51.8136 20.381 42.9512 20.381C34.0888 20.381 26.9025 18.5057 26.9025 16.1905M26.9025 16.1905V37.4907" stroke="white" stroke-width="5.08333" shape-rendering="crispEdges"/>
</g>
<defs>
<filter id="filter0_d_2354_351" x="1.4585" y="9.45801" width="64.083" height="57.084" filterUnits="userSpaceOnUse" color-interpolation-filters="sRGB">
<feFlood flood-opacity="0" result="BackgroundImageFix"/>
<feColorMatrix in="SourceAlpha" type="matrix" values="0 0 0 0 0 0 0 0 0 0 0 0 0 0 0 0 0 0 127 0" result="hardAlpha"/>
<feOffset dy="4"/>
<feGaussianBlur stdDeviation="2"/>
<feComposite in2="hardAlpha" operator="out"/>
<feColorMatrix type="matrix" values="0 0 0 0 0 0 0 0 0 0 0 0 0 0 0 0 0 0 0.25 0"/>
<feBlend mode="normal" in2="BackgroundImageFix" result="effect1_dropShadow_2354_351"/>
<feBlend mode="normal" in="SourceGraphic" in2="effect1_dropShadow_2354_351" result="shape"/>
</filter>
</defs>
</svg>
