<svg width="59" height="59" viewBox="0 0 59 59" fill="none" xmlns="http://www.w3.org/2000/svg">
<g clip-path="url(#clip0_2354_291)">
<g filter="url(#filter0_d_2354_291)">
<path d="M20.65 51.625C16.9215 51.625 13.7765 50.345 11.2149 47.7851C8.65333 45.2251 7.37336 42.0801 7.375 38.35C7.375 36.7931 7.64132 35.2771 8.17396 33.8021C8.7066 32.3271 9.46458 30.9955 10.4479 29.8073L19.175 19.2979L13.2135 7.375H45.7865L39.825 19.2979L48.5521 29.8073C49.5354 30.9955 50.2934 32.3271 50.826 33.8021C51.3587 35.2771 51.625 36.7931 51.625 38.35C51.625 42.0785 50.3344 45.2235 47.7531 47.7851C45.1719 50.3467 42.0375 51.6266 38.35 51.625H20.65ZM29.5 39.3333C28.1479 39.3333 26.9909 38.8523 26.0288 37.8903C25.0668 36.9283 24.585 35.7704 24.5833 34.4167C24.5817 33.0629 25.0635 31.9059 26.0288 30.9455C26.9941 29.9851 28.1512 29.5033 29.5 29.5C30.8488 29.4967 32.0067 29.9786 32.9736 30.9455C33.9406 31.9124 34.4216 33.0695 34.4167 34.4167C34.4118 35.7638 33.9307 36.9217 32.9736 37.8903C32.0165 38.8589 30.8586 39.3399 29.5 39.3333ZM23.6615 17.2083H35.3385L37.7969 12.2917H21.2031L23.6615 17.2083ZM20.65 46.7083H38.35C40.6854 46.7083 42.6627 45.8995 44.282 44.282C45.9012 42.6644 46.71 40.6871 46.7083 38.35C46.7083 37.3667 46.5338 36.4145 46.1847 35.4934C45.8356 34.5724 45.3546 33.7423 44.7417 33.0031L35.7073 22.125H23.3542L14.2583 32.9417C13.6438 33.6792 13.1627 34.5191 12.8153 35.4615C12.4678 36.4038 12.2933 37.3667 12.2917 38.35C12.2917 40.6854 13.1013 42.6627 14.7205 44.282C16.3397 45.9012 18.3162 46.71 20.65 46.7083Z" fill="white"/>
</g>
</g>
<defs>
<filter id="filter0_d_2354_291" x="3.375" y="7.375" width="52.25" height="52.25" filterUnits="userSpaceOnUse" color-interpolation-filters="sRGB">
<feFlood flood-opacity="0" result="BackgroundImageFix"/>
<feColorMatrix in="SourceAlpha" type="matrix" values="0 0 0 0 0 0 0 0 0 0 0 0 0 0 0 0 0 0 127 0" result="hardAlpha"/>
<feOffset dy="4"/>
<feGaussianBlur stdDeviation="2"/>
<feComposite in2="hardAlpha" operator="out"/>
<feColorMatrix type="matrix" values="0 0 0 0 0 0 0 0 0 0 0 0 0 0 0 0 0 0 0.25 0"/>
<feBlend mode="normal" in2="BackgroundImageFix" result="effect1_dropShadow_2354_291"/>
<feBlend mode="normal" in="SourceGraphic" in2="effect1_dropShadow_2354_291" result="shape"/>
</filter>
<clipPath id="clip0_2354_291">
<rect width="59" height="59" fill="white"/>
</clipPath>
</defs>
</svg>
