<svg width="59" height="59" viewBox="0 0 59 59" fill="none" xmlns="http://www.w3.org/2000/svg">
<g filter="url(#filter0_d_2354_274)">
<path d="M43.8321 10.4478H15.1679C13.8552 10.4478 12.7587 10.4478 11.8615 10.5215C10.9273 10.5953 10.0521 10.7624 9.22121 11.1853C7.95055 11.8326 6.91713 12.8651 6.26875 14.1353C5.84592 14.9662 5.67875 15.8413 5.605 16.7755C5.53125 17.6728 5.53125 18.7668 5.53125 20.082V38.9128C5.53125 40.228 5.53125 41.322 5.605 42.2193C5.67875 43.1534 5.84592 44.0286 6.26875 44.857C6.91588 46.1299 7.94943 47.1652 9.22121 47.8144C10.0497 48.2348 10.9273 48.3995 11.859 48.4782C12.7538 48.5495 13.8502 48.5495 15.1581 48.5495H43.8419C45.1522 48.5495 46.2462 48.5495 47.1385 48.4757C48.0727 48.402 48.9479 48.2348 49.7763 47.812C51.0496 47.1642 52.0849 46.1297 52.7337 44.857C53.1541 44.0286 53.3188 43.1534 53.3975 42.2217C53.4688 41.3269 53.4688 40.2329 53.4688 38.9226V20.0746C53.4688 18.7643 53.4687 17.6703 53.395 16.7755C53.3212 15.8413 53.1541 14.9662 52.7313 14.1377C52.0826 12.8663 51.0483 11.8328 49.7763 11.1853C48.9479 10.7624 48.0702 10.5953 47.1361 10.5215C46.2437 10.4478 45.1424 10.4478 43.8321 10.4478ZM10.8978 14.4696C11.119 14.3565 11.4583 14.2533 12.1638 14.1967C12.8915 14.1377 13.8355 14.1353 15.2441 14.1353H43.7608C45.1694 14.1353 46.1134 14.1353 46.8386 14.1967C47.5442 14.2533 47.881 14.3565 48.1047 14.4696C48.6848 14.7646 49.1544 15.2366 49.4494 15.8118C49.5625 16.0331 49.6657 16.3723 49.7222 17.0779C49.7812 17.8031 49.7837 18.7471 49.7837 20.1508V20.2811H9.21875V20.1582C9.21875 18.752 9.21875 17.8055 9.28021 17.0779C9.33675 16.3723 9.44 16.0355 9.55308 15.8118C9.84808 15.2341 10.3201 14.7646 10.8978 14.4696ZM14.75 35.0311H24.5833C25.0723 35.0311 25.5413 35.2253 25.8871 35.5711C26.2328 35.9169 26.4271 36.3858 26.4271 36.8748C26.4271 37.3638 26.2328 37.8328 25.8871 38.1786C25.5413 38.5243 25.0723 38.7186 24.5833 38.7186H14.75C14.261 38.7186 13.792 38.5243 13.4463 38.1786C13.1005 37.8328 12.9062 37.3638 12.9062 36.8748C12.9062 36.3858 13.1005 35.9169 13.4463 35.5711C13.792 35.2253 14.261 35.0311 14.75 35.0311Z" fill="white"/>
</g>
<defs>
<filter id="filter0_d_2354_274" x="1.53125" y="10.4478" width="55.9375" height="46.1021" filterUnits="userSpaceOnUse" color-interpolation-filters="sRGB">
<feFlood flood-opacity="0" result="BackgroundImageFix"/>
<feColorMatrix in="SourceAlpha" type="matrix" values="0 0 0 0 0 0 0 0 0 0 0 0 0 0 0 0 0 0 127 0" result="hardAlpha"/>
<feOffset dy="4"/>
<feGaussianBlur stdDeviation="2"/>
<feComposite in2="hardAlpha" operator="out"/>
<feColorMatrix type="matrix" values="0 0 0 0 0 0 0 0 0 0 0 0 0 0 0 0 0 0 0.25 0"/>
<feBlend mode="normal" in2="BackgroundImageFix" result="effect1_dropShadow_2354_274"/>
<feBlend mode="normal" in="SourceGraphic" in2="effect1_dropShadow_2354_274" result="shape"/>
</filter>
</defs>
</svg>
