<svg width="56" height="57" viewBox="0 0 56 57" fill="none" xmlns="http://www.w3.org/2000/svg">
<g clip-path="url(#clip0_2354_287)">
<g filter="url(#filter0_d_2354_287)">
<path d="M46.8229 20.1352C47.9709 22.2252 48.1226 24.9185 47.5229 28.0369C45.7962 37.0761 39.8812 40.1969 32.3259 40.1969H31.1592C30.7121 40.1976 30.2799 40.3606 29.9403 40.6566C29.6007 40.9527 29.376 41.3623 29.3066 41.8119L29.2109 42.3344L27.7409 51.8178L27.6662 52.2215C27.5968 52.6709 27.372 53.0802 27.0323 53.3758C26.6927 53.6715 26.2605 53.834 25.8136 53.8341H18.0132C17.8505 53.8341 17.6896 53.7981 17.5418 53.7288C17.394 53.6594 17.2627 53.5583 17.1569 53.4324C17.0511 53.3064 16.9734 53.1587 16.9291 52.9993C16.8848 52.8398 16.875 52.6725 16.9002 52.5089L17.3086 49.875H20.8529L23.0672 35.5775H26.3012C37.2166 35.5775 44.3822 30.3454 46.8229 20.1352ZM39.9162 8.0465C41.6942 10.108 42.2122 12.3452 41.6732 15.8484C41.6266 16.1405 41.5799 16.4184 41.5262 16.7034C39.8112 25.6642 34.3209 29.6376 25.2979 29.6376H20.8996C19.4296 29.6376 18.1626 30.6209 17.7426 32.0174L17.7076 32.0126L15.5376 46.0109H7.2869C7.26921 46.0116 7.25159 46.0082 7.23537 46.001C7.21916 45.9938 7.20477 45.9829 7.1933 45.9691C7.18183 45.9554 7.17359 45.9392 7.16919 45.9217C7.16479 45.9043 7.16435 45.886 7.1679 45.8684L13.2299 6.65712C13.3116 6.12594 13.577 5.64193 13.9783 5.29227C14.3796 4.94262 14.8903 4.75032 15.4186 4.75H29.3602C34.4539 4.75 38.0332 5.86387 39.9162 8.0465Z" fill="white"/>
</g>
</g>
<defs>
<filter id="filter0_d_2354_287" x="3.16553" y="4.75" width="48.7021" height="57.084" filterUnits="userSpaceOnUse" color-interpolation-filters="sRGB">
<feFlood flood-opacity="0" result="BackgroundImageFix"/>
<feColorMatrix in="SourceAlpha" type="matrix" values="0 0 0 0 0 0 0 0 0 0 0 0 0 0 0 0 0 0 127 0" result="hardAlpha"/>
<feOffset dy="4"/>
<feGaussianBlur stdDeviation="2"/>
<feComposite in2="hardAlpha" operator="out"/>
<feColorMatrix type="matrix" values="0 0 0 0 0 0 0 0 0 0 0 0 0 0 0 0 0 0 0.25 0"/>
<feBlend mode="normal" in2="BackgroundImageFix" result="effect1_dropShadow_2354_287"/>
<feBlend mode="normal" in="SourceGraphic" in2="effect1_dropShadow_2354_287" result="shape"/>
</filter>
<clipPath id="clip0_2354_287">
<rect width="56" height="57" fill="white"/>
</clipPath>
</defs>
</svg>
