<svg width="53" height="54" viewBox="0 0 53 54" fill="none" xmlns="http://www.w3.org/2000/svg">
<g clip-path="url(#clip0_2354_268)">
<g opacity="0.5" filter="url(#filter0_d_2354_268)">
<path d="M7.00467 16.1366C8.8663 14.2376 11.5494 13.7066 16.0147 13.5581L19.3272 13.5041C20.1928 13.4996 21.1115 13.4981 22.0832 13.4996H30.9165C31.8911 13.4996 32.8098 13.5011 33.6725 13.5041L36.985 13.5581C41.4503 13.7066 44.1334 14.2376 45.995 16.1366C48.5832 18.7713 48.5832 23.0148 48.5832 31.4996C48.5832 39.9843 48.5832 44.2278 45.995 46.8626C43.4068 49.4973 39.2441 49.4996 30.9165 49.4996H22.0832C13.7555 49.4996 9.59063 49.4996 7.00467 46.8626C4.41871 44.2256 4.4165 39.9843 4.4165 31.4996C4.4165 23.0148 4.4165 18.7713 7.00467 16.1366Z" fill="white"/>
</g>
<g filter="url(#filter1_d_2354_268)">
<path d="M28.1561 22.5C28.1561 22.0524 27.9816 21.6232 27.671 21.3068C27.3604 20.9903 26.9391 20.8125 26.4998 20.8125C26.0606 20.8125 25.6393 20.9903 25.3287 21.3068C25.0181 21.6232 24.8436 22.0524 24.8436 22.5V22.5225C22.4387 23.139 20.4269 25.0718 20.4269 27.7493C20.4269 31.0275 23.4413 33.1875 26.4998 33.1875C28.3195 33.1875 29.2602 34.3867 29.2602 35.2507C29.2602 36.1147 28.3195 37.3118 26.4998 37.3118C24.6801 37.3118 23.7394 36.1147 23.7394 35.2507C23.7394 34.8032 23.5649 34.374 23.2543 34.0575C22.9437 33.741 22.5224 33.5632 22.0831 33.5632C21.6439 33.5632 21.2226 33.741 20.912 34.0575C20.6014 34.374 20.4269 34.8032 20.4269 35.2507C20.4269 37.9282 22.4387 39.8587 24.8436 40.4775V40.5C24.8436 40.9476 25.0181 41.3768 25.3287 41.6932C25.6393 42.0097 26.0606 42.1875 26.4998 42.1875C26.9391 42.1875 27.3604 42.0097 27.671 41.6932C27.9816 41.3768 28.1561 40.9476 28.1561 40.5V40.4775C30.5609 39.861 32.5727 37.9282 32.5727 35.2507C32.5727 31.9725 29.5584 29.8125 26.4998 29.8125C24.6801 29.8125 23.7394 28.6133 23.7394 27.7493C23.7394 26.8853 24.6801 25.6882 26.4998 25.6882C28.3195 25.6882 29.2602 26.8853 29.2602 27.7493C29.2602 28.1968 29.4347 28.626 29.7453 28.9425C30.0559 29.259 30.4772 29.4368 30.9165 29.4368C31.3557 29.4368 31.777 29.259 32.0876 28.9425C32.3982 28.626 32.5727 28.1968 32.5727 27.7493C32.5727 25.0718 30.5609 23.139 28.1561 22.5225V22.5ZM26.6146 2.8125H26.385C24.4019 2.8125 22.7456 2.8125 21.4339 2.9925C20.0471 3.1815 18.7949 3.6 17.7901 4.62375C16.7831 5.64975 16.3724 6.9255 16.1869 8.33625C16.061 9.297 16.0257 11.5898 16.0146 13.5563L19.3271 13.5045C19.3382 11.5988 19.3713 9.549 19.4707 8.78625C19.6076 7.749 19.8439 7.3035 20.1332 7.011C20.4225 6.7185 20.8553 6.47775 21.8756 6.336C22.9422 6.192 24.371 6.1875 26.4998 6.1875C28.6286 6.1875 30.0597 6.192 31.1263 6.33825C32.1443 6.47775 32.5816 6.7185 32.8687 7.01325C33.1557 7.308 33.3942 7.749 33.5312 8.78625C33.6305 9.55125 33.6637 11.5988 33.6725 13.5045L36.985 13.5585C36.9761 11.5898 36.9408 9.297 36.8127 8.3385C36.6272 6.9255 36.2165 5.64975 35.2117 4.626C34.2047 3.6 32.9526 3.1815 31.5679 2.9925C30.254 2.8125 28.5999 2.8125 26.6146 2.8125Z" fill="white"/>
</g>
</g>
<defs>
<filter id="filter0_d_2354_268" x="0.416504" y="13.499" width="52.1665" height="44.001" filterUnits="userSpaceOnUse" color-interpolation-filters="sRGB">
<feFlood flood-opacity="0" result="BackgroundImageFix"/>
<feColorMatrix in="SourceAlpha" type="matrix" values="0 0 0 0 0 0 0 0 0 0 0 0 0 0 0 0 0 0 127 0" result="hardAlpha"/>
<feOffset dy="4"/>
<feGaussianBlur stdDeviation="2"/>
<feComposite in2="hardAlpha" operator="out"/>
<feColorMatrix type="matrix" values="0 0 0 0 0 0 0 0 0 0 0 0 0 0 0 0 0 0 0.25 0"/>
<feBlend mode="normal" in2="BackgroundImageFix" result="effect1_dropShadow_2354_268"/>
<feBlend mode="normal" in="SourceGraphic" in2="effect1_dropShadow_2354_268" result="shape"/>
</filter>
<filter id="filter1_d_2354_268" x="12.0146" y="2.8125" width="28.9702" height="47.375" filterUnits="userSpaceOnUse" color-interpolation-filters="sRGB">
<feFlood flood-opacity="0" result="BackgroundImageFix"/>
<feColorMatrix in="SourceAlpha" type="matrix" values="0 0 0 0 0 0 0 0 0 0 0 0 0 0 0 0 0 0 127 0" result="hardAlpha"/>
<feOffset dy="4"/>
<feGaussianBlur stdDeviation="2"/>
<feComposite in2="hardAlpha" operator="out"/>
<feColorMatrix type="matrix" values="0 0 0 0 0 0 0 0 0 0 0 0 0 0 0 0 0 0 0.25 0"/>
<feBlend mode="normal" in2="BackgroundImageFix" result="effect1_dropShadow_2354_268"/>
<feBlend mode="normal" in="SourceGraphic" in2="effect1_dropShadow_2354_268" result="shape"/>
</filter>
<clipPath id="clip0_2354_268">
<rect width="53" height="54" fill="white"/>
</clipPath>
</defs>
</svg>
