<svg width="66" height="66" viewBox="0 0 66 66" fill="none" xmlns="http://www.w3.org/2000/svg">
<g clip-path="url(#clip0_2354_241)">
<g filter="url(#filter0_d_2354_241)">
<path opacity="0.5" fill-rule="evenodd" clip-rule="evenodd" d="M60.1335 32.8001C60.1335 47.8963 47.8963 60.1335 32.8001 60.1335C17.7039 60.1335 5.4668 47.8963 5.4668 32.8001C5.4668 17.7039 17.7039 5.4668 32.8001 5.4668C47.8963 5.4668 60.1335 17.7039 60.1335 32.8001Z" fill="white"/>
<g filter="url(#filter1_d_2354_241)">
<path fill-rule="evenodd" clip-rule="evenodd" d="M32.8003 14.3506C33.344 14.3506 33.8654 14.5666 34.2499 14.951C34.6343 15.3355 34.8503 15.8569 34.8503 16.4006V17.2671C39.3056 18.0652 43.0503 21.4135 43.0503 25.9673C43.0503 26.5109 42.8343 27.0324 42.4499 27.4168C42.0654 27.8013 41.544 28.0173 41.0003 28.0173C40.4566 28.0173 39.9352 27.8013 39.5507 27.4168C39.1663 27.0324 38.9503 26.5109 38.9503 25.9673C38.9503 24.1141 37.4087 22.1488 34.8503 21.4491V30.9337C39.3056 31.7319 43.0503 35.0802 43.0503 39.6339C43.0503 44.1877 39.3056 47.536 34.8503 48.3341V49.2006C34.8503 49.7443 34.6343 50.2657 34.2499 50.6502C33.8654 51.0346 33.344 51.2506 32.8003 51.2506C32.2566 51.2506 31.7352 51.0346 31.3507 50.6502C30.9663 50.2657 30.7503 49.7443 30.7503 49.2006V48.3341C26.295 47.536 22.5503 44.1877 22.5503 39.6339C22.5503 39.0902 22.7663 38.5688 23.1507 38.1844C23.5352 37.7999 24.0566 37.5839 24.6003 37.5839C25.144 37.5839 25.6654 37.7999 26.0499 38.1844C26.4343 38.5688 26.6503 39.0902 26.6503 39.6339C26.6503 41.4871 28.1919 43.4524 30.7503 44.1494V34.6675C26.295 33.8693 22.5503 30.521 22.5503 25.9673C22.5503 21.4135 26.295 18.0652 30.7503 17.2671V16.4006C30.7503 15.8569 30.9663 15.3355 31.3507 14.951C31.7352 14.5666 32.2566 14.3506 32.8003 14.3506ZM30.7503 21.4491C28.1919 22.1488 26.6503 24.1141 26.6503 25.9673C26.6503 27.8205 28.1919 29.7857 30.7503 30.4827V21.4491ZM38.9503 39.6339C38.9503 37.7807 37.4087 35.8155 34.8503 35.1185V44.1494C37.4087 43.4524 38.9503 41.4871 38.9503 39.6339Z" fill="white"/>
</g>
</g>
</g>
<defs>
<filter id="filter0_d_2354_241" x="1.4668" y="5.4668" width="62.6665" height="62.667" filterUnits="userSpaceOnUse" color-interpolation-filters="sRGB">
<feFlood flood-opacity="0" result="BackgroundImageFix"/>
<feColorMatrix in="SourceAlpha" type="matrix" values="0 0 0 0 0 0 0 0 0 0 0 0 0 0 0 0 0 0 127 0" result="hardAlpha"/>
<feOffset dy="4"/>
<feGaussianBlur stdDeviation="2"/>
<feComposite in2="hardAlpha" operator="out"/>
<feColorMatrix type="matrix" values="0 0 0 0 0 0 0 0 0 0 0 0 0 0 0 0 0 0 0.25 0"/>
<feBlend mode="normal" in2="BackgroundImageFix" result="effect1_dropShadow_2354_241"/>
<feBlend mode="normal" in="SourceGraphic" in2="effect1_dropShadow_2354_241" result="shape"/>
</filter>
<filter id="filter1_d_2354_241" x="18.5503" y="14.3506" width="28.5" height="44.9004" filterUnits="userSpaceOnUse" color-interpolation-filters="sRGB">
<feFlood flood-opacity="0" result="BackgroundImageFix"/>
<feColorMatrix in="SourceAlpha" type="matrix" values="0 0 0 0 0 0 0 0 0 0 0 0 0 0 0 0 0 0 127 0" result="hardAlpha"/>
<feOffset dy="4"/>
<feGaussianBlur stdDeviation="2"/>
<feComposite in2="hardAlpha" operator="out"/>
<feColorMatrix type="matrix" values="0 0 0 0 0 0 0 0 0 0 0 0 0 0 0 0 0 0 0.25 0"/>
<feBlend mode="normal" in2="BackgroundImageFix" result="effect1_dropShadow_2354_241"/>
<feBlend mode="normal" in="SourceGraphic" in2="effect1_dropShadow_2354_241" result="shape"/>
</filter>
<clipPath id="clip0_2354_241">
<rect width="65.6" height="65.6" fill="white"/>
</clipPath>
</defs>
</svg>
