<svg width="66" height="66" viewBox="0 0 66 66" fill="none" xmlns="http://www.w3.org/2000/svg">
<g clip-path="url(#clip0_2354_209)">
<path opacity="0.5" d="M37.1268 15.3338C38.6411 15.1206 39.5076 15.178 40.1581 15.3885C41.1913 15.722 42.1124 16.3233 42.8313 17.1187C41.7325 17.0832 40.508 17.0832 39.1304 17.0832H28.9323L30.8566 16.6404C33.6391 15.998 35.5934 15.547 37.1268 15.3338ZM12.9833 32.2532C12.9833 29.9216 12.9833 28.298 13.0872 27.0325C13.1883 25.7943 13.3796 25.0809 13.653 24.5424C14.2428 23.3842 15.1843 22.4426 16.3426 21.8528C16.881 21.5795 17.5944 21.3882 18.8354 21.287C20.0982 21.1859 21.7245 21.1832 24.0533 21.1832H38.8133C42.4924 21.1832 44.3483 21.1996 45.6521 21.533L48.708 22.3148L48.1804 19.2042C47.9809 18.0234 47.6474 16.9547 47.0598 15.9789C45.7852 13.848 43.7806 12.2523 41.4182 11.488C39.9094 11.0015 38.3268 11.0261 36.5583 11.2721C34.8254 11.5154 32.6934 12.0074 30.0311 12.6224L20.5683 14.8063C18.8162 15.2108 17.3922 15.5388 16.2442 15.8942C15.0524 16.2604 14.0247 16.695 13.0954 17.3729C11.6017 18.4625 10.4306 19.9359 9.70603 21.6369C9.2523 22.6947 9.06097 23.7962 8.97077 25.0344C8.8833 26.2371 8.8833 27.6967 8.8833 29.4952V32.2532H12.9833Z" fill="white"/>
<g filter="url(#filter0_d_2354_209)">
<path d="M19.1335 41.6831C18.5898 41.6831 18.0684 41.8991 17.6839 42.2835C17.2995 42.668 17.0835 43.1894 17.0835 43.7331C17.0835 44.2768 17.2995 44.7982 17.6839 45.1827C18.0684 45.5671 18.5898 45.7831 19.1335 45.7831H24.6002C25.1439 45.7831 25.6653 45.5671 26.0497 45.1827C26.4342 44.7982 26.6502 44.2768 26.6502 43.7331C26.6502 43.1894 26.4342 42.668 26.0497 42.2835C25.6653 41.8991 25.1439 41.6831 24.6002 41.6831H19.1335Z" fill="white"/>
</g>
<g filter="url(#filter1_d_2354_209)">
<path d="M23.9658 17.0835H39.7071C41.5548 17.0835 43.0472 17.0835 44.2581 17.1655C45.5072 17.2502 46.6088 17.4306 47.6556 17.8625C48.8996 18.3776 50.0299 19.1328 50.982 20.0848C51.934 21.0369 52.6892 22.1672 53.2043 23.4112C53.6362 24.4553 53.8166 25.5596 53.9013 26.806C53.9833 27.9868 53.9833 29.43 53.9833 31.2094C54.8024 31.5968 55.4947 32.2088 55.9795 32.9744C56.4642 33.7399 56.7216 34.6274 56.7216 35.5335C56.7216 36.4396 56.4642 37.3271 55.9795 38.0926C55.4947 38.8581 54.8024 39.4702 53.9833 39.8576C53.9833 41.6343 53.9833 43.0802 53.9013 44.2583C53.8166 45.5074 53.6362 46.609 53.2043 47.6558C52.6892 48.8998 51.934 50.0301 50.982 50.9822C50.0299 51.9342 48.8996 52.6894 47.6556 53.2045C46.6115 53.6364 45.5072 53.8168 44.2608 53.9015C43.0445 53.9835 41.5548 53.9835 39.7071 53.9835H23.9631C21.7436 53.9835 19.9506 53.9835 18.5019 53.866C17.0068 53.743 15.6948 53.4833 14.4812 52.8656C12.5512 51.8833 10.982 50.315 9.9985 48.3856C9.38077 47.172 9.12383 45.86 9.00083 44.3676C8.8833 42.9162 8.8833 41.1232 8.8833 38.901V32.166C8.8833 29.9438 8.8833 28.1508 9.00083 26.6994C9.12383 25.207 9.3835 23.895 10.0012 22.6814C10.9835 20.7514 12.5518 19.1822 14.4812 18.1987C15.6948 17.581 17.0068 17.324 18.4992 17.201C19.9506 17.0835 21.7436 17.0835 23.9658 17.0835ZM49.8095 27.0875C49.7384 26.0488 49.6072 25.442 49.4159 24.9801C49.1068 24.2337 48.6537 23.5555 48.0825 22.9843C47.5113 22.4131 46.8331 21.96 46.0867 21.6509C45.6248 21.4596 45.0207 21.3284 43.982 21.2573C42.9215 21.1835 41.5712 21.1835 39.6333 21.1835H24.0533C21.7245 21.1835 20.0982 21.1835 18.8326 21.2874C17.5944 21.3885 16.881 21.5798 16.3426 21.8532C15.1843 22.443 14.2428 23.3845 13.653 24.5428C13.3796 25.0812 13.1883 25.7946 13.0872 27.0356C12.986 28.2984 12.9833 29.922 12.9833 32.2535V38.8135C12.9833 41.145 12.9833 42.7686 13.0872 44.0342C13.1883 45.2724 13.3796 45.9858 13.653 46.527C14.2434 47.6832 15.1836 48.6234 16.3426 49.2138C16.881 49.4872 17.5944 49.6785 18.8354 49.7796C20.0982 49.8808 21.7245 49.8835 24.0533 49.8835H39.6333C41.574 49.8835 42.9242 49.8835 43.9793 49.8097C45.018 49.7386 45.6248 49.6074 46.0867 49.4161C46.8331 49.107 47.5113 48.6539 48.0825 48.0827C48.6537 47.5115 49.1068 46.8333 49.4159 46.0869C49.6072 45.625 49.7384 45.0209 49.8095 43.9822C49.8724 43.0529 49.8833 41.8967 49.8833 40.3168H46.4666C45.8385 40.3168 45.2165 40.1931 44.6361 39.9527C44.0558 39.7123 43.5285 39.36 43.0843 38.9158C42.6401 38.4717 42.2878 37.9443 42.0474 37.364C41.807 36.7837 41.6833 36.1617 41.6833 35.5335C41.6833 34.9053 41.807 34.2833 42.0474 33.703C42.2878 33.1227 42.6401 32.5953 43.0843 32.1512C43.5285 31.707 44.0558 31.3547 44.6361 31.1143C45.2165 30.8739 45.8385 30.7502 46.4666 30.7502H49.8833C49.8833 29.1703 49.8724 28.0168 49.8095 27.0875ZM46.4666 34.8502C46.2854 34.8502 46.1116 34.9222 45.9834 35.0503C45.8553 35.1785 45.7833 35.3523 45.7833 35.5335C45.7833 35.7147 45.8553 35.8885 45.9834 36.0167C46.1116 36.1448 46.2854 36.2168 46.4666 36.2168H51.9333C52.1145 36.2168 52.2883 36.1448 52.4165 36.0167C52.5446 35.8885 52.6166 35.7147 52.6166 35.5335C52.6166 35.3523 52.5446 35.1785 52.4165 35.0503C52.2883 34.9222 52.1145 34.8502 51.9333 34.8502H46.4666Z" fill="white"/>
</g>
</g>
<defs>
<filter id="filter0_d_2354_209" x="13.0835" y="41.6831" width="17.5669" height="12.1001" filterUnits="userSpaceOnUse" color-interpolation-filters="sRGB">
<feFlood flood-opacity="0" result="BackgroundImageFix"/>
<feColorMatrix in="SourceAlpha" type="matrix" values="0 0 0 0 0 0 0 0 0 0 0 0 0 0 0 0 0 0 127 0" result="hardAlpha"/>
<feOffset dy="4"/>
<feGaussianBlur stdDeviation="2"/>
<feComposite in2="hardAlpha" operator="out"/>
<feColorMatrix type="matrix" values="0 0 0 0 0 0 0 0 0 0 0 0 0 0 0 0 0 0 0.25 0"/>
<feBlend mode="normal" in2="BackgroundImageFix" result="effect1_dropShadow_2354_209"/>
<feBlend mode="normal" in="SourceGraphic" in2="effect1_dropShadow_2354_209" result="shape"/>
</filter>
<filter id="filter1_d_2354_209" x="4.8833" y="17.0835" width="55.8384" height="44.8999" filterUnits="userSpaceOnUse" color-interpolation-filters="sRGB">
<feFlood flood-opacity="0" result="BackgroundImageFix"/>
<feColorMatrix in="SourceAlpha" type="matrix" values="0 0 0 0 0 0 0 0 0 0 0 0 0 0 0 0 0 0 127 0" result="hardAlpha"/>
<feOffset dy="4"/>
<feGaussianBlur stdDeviation="2"/>
<feComposite in2="hardAlpha" operator="out"/>
<feColorMatrix type="matrix" values="0 0 0 0 0 0 0 0 0 0 0 0 0 0 0 0 0 0 0.25 0"/>
<feBlend mode="normal" in2="BackgroundImageFix" result="effect1_dropShadow_2354_209"/>
<feBlend mode="normal" in="SourceGraphic" in2="effect1_dropShadow_2354_209" result="shape"/>
</filter>
<clipPath id="clip0_2354_209">
<rect width="65.6" height="65.6" fill="white"/>
</clipPath>
</defs>
</svg>
