<svg width="44" height="44" viewBox="0 0 44 44" fill="none" xmlns="http://www.w3.org/2000/svg">
<g clip-path="url(#clip0_2354_283)">
<g filter="url(#filter0_d_2354_283)">
<path fill-rule="evenodd" clip-rule="evenodd" d="M3.14286 0C2.30932 0 1.50992 0.331122 0.920522 0.920522C0.331122 1.50992 0 2.30932 0 3.14286L0 12.5714C0 13.405 0.331122 14.2044 0.920522 14.7938C1.50992 15.3832 2.30932 15.7143 3.14286 15.7143H9.03571V40.4643C9.03571 42.5511 10.8114 44 12.6909 44H31.3091C33.1886 44 34.9643 42.5543 34.9643 40.4643V15.7143H40.8571C41.6907 15.7143 42.4901 15.3832 43.0795 14.7938C43.6689 14.2044 44 13.405 44 12.5714V3.14286C44 2.30932 43.6689 1.50992 43.0795 0.920522C42.4901 0.331122 41.6907 0 40.8571 0L3.14286 0ZM12.9643 40.0714V11.3929H31.0357V40.0714H12.9643ZM22 20.2337C21.2777 20.2337 20.5625 20.376 19.8952 20.6524C19.228 20.9288 18.6216 21.3339 18.1109 21.8446C17.6002 22.3553 17.1951 22.9617 16.9187 23.629C16.6423 24.2962 16.5 25.0114 16.5 25.7337C16.5 26.456 16.6423 27.1712 16.9187 27.8385C17.1951 28.5058 17.6002 29.1121 18.1109 29.6228C18.6216 30.1335 19.228 30.5387 19.8952 30.8151C20.5625 31.0915 21.2777 31.2337 22 31.2337C23.4587 31.2337 24.8576 30.6543 25.8891 29.6228C26.9205 28.5914 27.5 27.1924 27.5 25.7337C27.5 24.275 26.9205 22.8761 25.8891 21.8446C24.8576 20.8132 23.4587 20.2337 22 20.2337ZM22 18.3386C21.3748 18.3386 20.7753 18.0902 20.3332 17.6482C19.8912 17.2061 19.6429 16.6066 19.6429 15.9814C19.6429 15.3563 19.8912 14.7567 20.3332 14.3147C20.7753 13.8726 21.3748 13.6243 22 13.6243C22.6252 13.6243 23.2247 13.8726 23.6668 14.3147C24.1088 14.7567 24.3571 15.3563 24.3571 15.9814C24.3571 16.6066 24.1088 17.2061 23.6668 17.6482C23.2247 18.0902 22.6252 18.3386 22 18.3386ZM22 38.0129C21.3748 38.0129 20.7753 37.7645 20.3332 37.3225C19.8912 36.8804 19.6429 36.2809 19.6429 35.6557C19.6429 35.0306 19.8912 34.431 20.3332 33.989C20.7753 33.5469 21.3748 33.2986 22 33.2986C22.6252 33.2986 23.2247 33.5469 23.6668 33.989C24.1088 34.431 24.3571 35.0306 24.3571 35.6557C24.3571 36.2809 24.1088 36.8804 23.6668 37.3225C23.2247 37.7645 22.6252 38.0129 22 38.0129Z" fill="white"/>
</g>
</g>
<defs>
<filter id="filter0_d_2354_283" x="-4" y="0" width="52" height="52" filterUnits="userSpaceOnUse" color-interpolation-filters="sRGB">
<feFlood flood-opacity="0" result="BackgroundImageFix"/>
<feColorMatrix in="SourceAlpha" type="matrix" values="0 0 0 0 0 0 0 0 0 0 0 0 0 0 0 0 0 0 127 0" result="hardAlpha"/>
<feOffset dy="4"/>
<feGaussianBlur stdDeviation="2"/>
<feComposite in2="hardAlpha" operator="out"/>
<feColorMatrix type="matrix" values="0 0 0 0 0 0 0 0 0 0 0 0 0 0 0 0 0 0 0.25 0"/>
<feBlend mode="normal" in2="BackgroundImageFix" result="effect1_dropShadow_2354_283"/>
<feBlend mode="normal" in="SourceGraphic" in2="effect1_dropShadow_2354_283" result="shape"/>
</filter>
<clipPath id="clip0_2354_283">
<rect width="44" height="44" fill="white"/>
</clipPath>
</defs>
</svg>
