<svg width="54" height="54" viewBox="0 0 54 54" fill="none" xmlns="http://www.w3.org/2000/svg">
<g clip-path="url(#clip0_2354_232)">
<g filter="url(#filter0_d_2354_232)">
<path d="M7.98735 15.6083C9.49634 14.6758 11.1919 14.0864 12.954 13.8819C14.7161 13.6775 16.5016 13.8629 18.184 14.4252C19.8664 14.9874 21.4047 15.9127 22.6898 17.1355C23.9749 18.3582 24.9755 19.8486 25.6206 21.5011H47.3489L51.7498 25.8976L47.3511 30.2986H44.0503L40.7496 33.5971L37.4488 30.2986H35.2506L31.9498 33.5993L28.6491 30.3008H25.6206C24.9231 32.0875 23.8109 33.6829 22.3756 34.9552C20.9403 36.2276 19.2232 37.1405 17.3657 37.6188C15.5082 38.097 13.5637 38.1269 11.6924 37.7059C9.82118 37.2848 8.0768 36.425 6.60316 35.1973C5.12953 33.9696 3.96885 32.4092 3.21685 30.6447C2.46485 28.8802 2.14307 26.9622 2.27805 25.0489C2.41302 23.1357 3.00089 21.2819 3.99316 19.6404C4.98544 17.999 6.35595 16.617 7.98735 15.6083Z" stroke="white" stroke-width="4.3125" stroke-linecap="round" stroke-linejoin="round"/>
<path d="M12.1587 29.205C13.0341 29.205 13.8736 28.8573 14.4926 28.2382C15.1117 27.6192 15.4594 26.7797 15.4594 25.9043C15.4594 25.0289 15.1117 24.1893 14.4926 23.5703C13.8736 22.9513 13.0341 22.6035 12.1587 22.6035C11.2832 22.6035 10.4437 22.9513 9.82468 23.5703C9.20567 24.1893 8.85791 25.0289 8.85791 25.9043C8.85791 26.7797 9.20567 27.6192 9.82468 28.2382C10.4437 28.8573 11.2832 29.205 12.1587 29.205Z" stroke="white" stroke-width="4.3125" stroke-linecap="round" stroke-linejoin="round"/>
<path d="M18.1977 3.9375C18.1977 4.38505 18.3755 4.81428 18.6919 5.13074C19.0084 5.44721 19.4376 5.625 19.8852 5.625C20.3327 5.625 20.762 5.44721 21.0784 5.13074C21.3949 4.81428 21.5727 4.38505 21.5727 3.9375C21.5727 3.48995 21.3949 3.06072 21.0784 2.74426C20.762 2.42779 20.3327 2.25 19.8852 2.25C19.4376 2.25 19.0084 2.42779 18.6919 2.74426C18.3755 3.06072 18.1977 3.48995 18.1977 3.9375ZM12.1587 50.1368C12.1587 50.3584 12.2023 50.5778 12.2871 50.7825C12.372 50.9873 12.4963 51.1733 12.6529 51.33C12.8096 51.4867 12.9957 51.611 13.2004 51.6958C13.4052 51.7806 13.6246 51.8243 13.8462 51.8243C14.0678 51.8243 14.2872 51.7806 14.492 51.6958C14.6967 51.611 14.8827 51.4867 15.0394 51.33C15.1961 51.1733 15.3204 50.9873 15.4052 50.7825C15.49 50.5778 15.5337 50.3584 15.5337 50.1368C15.5337 49.6892 15.3559 49.26 15.0394 48.9435C14.723 48.627 14.2937 48.4493 13.8462 48.4493C13.3986 48.4493 12.9694 48.627 12.6529 48.9435C12.3365 49.26 12.1587 49.6892 12.1587 50.1368ZM48.4489 8.33625C48.4489 8.7838 48.6267 9.21303 48.9432 9.52949C49.2597 9.84596 49.6889 10.0237 50.1364 10.0237C50.584 10.0237 51.0132 9.84596 51.3297 9.52949C51.6462 9.21303 51.8239 8.7838 51.8239 8.33625C51.8239 7.8887 51.6462 7.45948 51.3297 7.14301C51.0132 6.82654 50.584 6.64875 50.1364 6.64875C49.6889 6.64875 49.2597 6.82654 48.9432 7.14301C48.6267 7.45948 48.4489 7.8887 48.4489 8.33625ZM48.4489 43.5375C48.4489 43.9851 48.6267 44.4143 48.9432 44.7307C49.2597 45.0472 49.6889 45.225 50.1364 45.225C50.584 45.225 51.0132 45.0472 51.3297 44.7307C51.6462 44.4143 51.8239 43.9851 51.8239 43.5375C51.8239 43.0899 51.6462 42.6607 51.3297 42.3443C51.0132 42.0278 50.584 41.85 50.1364 41.85C49.6889 41.85 49.2597 42.0278 48.9432 42.3443C48.6267 42.6607 48.4489 43.0899 48.4489 43.5375Z" stroke="white" stroke-width="4.3125" stroke-linejoin="round"/>
<path d="M39.1005 17.1002V10.4964C39.1005 9.28141 40.086 8.29591 41.301 8.29591H43.4992M27 3.89941H29.1982C30.4132 3.89941 31.3987 4.88491 31.3987 6.09991V17.1024M36.9 35.7999V41.3012C36.9 42.5162 37.8855 43.4994 39.1005 43.4994H43.4992M21.501 50.1009H25.902C27.117 50.1009 28.1002 49.1154 28.1002 47.9004V36.8979" stroke="white" stroke-width="4.3125" stroke-linecap="round" stroke-linejoin="round"/>
</g>
</g>
<defs>
<filter id="filter0_d_2354_232" x="-3.9082" y="0.09375" width="61.8882" height="61.8867" filterUnits="userSpaceOnUse" color-interpolation-filters="sRGB">
<feFlood flood-opacity="0" result="BackgroundImageFix"/>
<feColorMatrix in="SourceAlpha" type="matrix" values="0 0 0 0 0 0 0 0 0 0 0 0 0 0 0 0 0 0 127 0" result="hardAlpha"/>
<feOffset dy="4"/>
<feGaussianBlur stdDeviation="2"/>
<feComposite in2="hardAlpha" operator="out"/>
<feColorMatrix type="matrix" values="0 0 0 0 0 0 0 0 0 0 0 0 0 0 0 0 0 0 0.25 0"/>
<feBlend mode="normal" in2="BackgroundImageFix" result="effect1_dropShadow_2354_232"/>
<feBlend mode="normal" in="SourceGraphic" in2="effect1_dropShadow_2354_232" result="shape"/>
</filter>
<clipPath id="clip0_2354_232">
<rect width="54" height="54" fill="white"/>
</clipPath>
</defs>
</svg>
