<svg width="56" height="56" viewBox="0 0 56 56" fill="none" xmlns="http://www.w3.org/2000/svg">
<g filter="url(#filter0_d_2354_228)">
<path fill-rule="evenodd" clip-rule="evenodd" d="M22.2185 0H22.2003C21.5148 0.00660822 20.8565 0.231288 20.2893 0.627781C19.7314 1.02185 19.2784 1.5688 18.9759 2.21375C18.6629 2.88279 18.5138 3.62849 18.5431 4.37868C18.5723 5.12887 18.7788 5.85814 19.1427 6.49588L21.166 9.60505C17.7564 11.9146 15.0416 14.6075 13.1124 17.8554C10.8373 21.6816 9.73926 26.1322 9.73926 31.3197C9.73926 36.4311 11.7504 40.3002 15.1842 42.8015C18.5148 45.2267 23.0254 46.2609 28.0001 46.2609C32.9748 46.2609 37.4885 45.2234 40.8191 42.7882C44.2559 40.2771 46.261 36.3882 46.261 31.2503C46.261 26.0628 45.1629 21.6155 42.8879 17.7893C40.9587 14.5513 38.2468 11.8618 34.8434 9.56871L36.8545 6.49588C37.2183 5.85881 37.4251 5.1303 37.4548 4.38075C37.4846 3.6312 37.3363 2.88596 37.0244 2.21706C36.7218 1.5721 36.2689 1.02515 35.7109 0.631085C35.1401 0.231954 34.4782 0.0145182 33.7999 0.00330411L22.2185 0ZM25.4521 9.05987L22.3338 4.2557C22.3274 4.21402 22.3285 4.1714 22.3368 4.13014H33.6634C33.6708 4.17161 33.6708 4.21423 33.6634 4.2557L30.5482 9.02022C30.3923 9.25816 30.2846 9.52942 30.2321 9.81608C30.1797 10.1027 30.1837 10.3983 30.2439 10.6831C30.3041 10.9679 30.4192 11.2356 30.5814 11.4684C30.7437 11.7012 30.9495 11.8939 31.1852 12.0336C35.0861 14.3465 37.8798 16.9699 39.7059 20.0394C41.5229 23.0924 42.4693 26.7336 42.4693 31.2536C42.4693 35.05 41.0679 37.6338 38.7079 39.3619C36.2418 41.1626 32.5744 42.134 28.0001 42.134C23.4258 42.134 19.7585 41.1659 17.2923 39.3685C14.9293 37.647 13.531 35.0731 13.531 31.3197C13.531 26.7996 14.4774 23.1585 16.2944 20.0989C18.1235 17.0261 20.9172 14.3927 24.8181 12.0633C25.0529 11.9235 25.2579 11.7311 25.4196 11.4989C25.5812 11.2666 25.6959 10.9997 25.7561 10.7156C25.8162 10.4316 25.8205 10.137 25.7687 9.85101C25.7168 9.56506 25.6099 9.29431 25.4551 9.05657M21.5542 18.1759C21.7534 18.0132 21.98 17.8948 22.2212 17.8275C22.4624 17.7602 22.7134 17.7453 22.9598 17.7837C23.2063 17.822 23.4434 17.9129 23.6577 18.051C23.8719 18.1892 24.059 18.372 24.2084 18.5889L28.0001 24.0969L31.7918 18.5889C32.0935 18.1508 32.5426 17.8611 33.0404 17.7837C33.5382 17.7062 34.0438 17.8473 34.446 18.1759C34.8483 18.5045 35.1142 18.9937 35.1853 19.5359C35.2564 20.0781 35.1269 20.6289 34.8252 21.067L31.5067 25.8844H33.3085C33.8113 25.8844 34.2936 26.102 34.6491 26.4893C35.0046 26.8765 35.2044 27.4018 35.2044 27.9495C35.2044 28.4972 35.0046 29.0224 34.6491 29.4097C34.2936 29.797 33.8113 30.0146 33.3085 30.0146H29.896V31.9442H33.3085C33.8113 31.9442 34.2936 32.1617 34.6491 32.549C35.0046 32.9363 35.2044 33.4615 35.2044 34.0092C35.2044 34.5569 35.0046 35.0822 34.6491 35.4694C34.2936 35.8567 33.8113 36.0743 33.3085 36.0743H29.896V37.0358C29.896 37.5835 29.6962 38.1087 29.3407 38.496C28.9852 38.8833 28.5029 39.1009 28.0001 39.1009C27.4973 39.1009 27.0151 38.8833 26.6596 38.496C26.304 38.1087 26.1043 37.5835 26.1043 37.0358V36.0743H22.6917C22.1889 36.0743 21.7067 35.8567 21.3512 35.4694C20.9956 35.0822 20.7959 34.5569 20.7959 34.0092C20.7959 33.4615 20.9956 32.9363 21.3512 32.549C21.7067 32.1617 22.1889 31.9442 22.6917 31.9442H26.1043V30.0146H22.6917C22.1889 30.0146 21.7067 29.797 21.3512 29.4097C20.9956 29.0224 20.7959 28.4972 20.7959 27.9495C20.7959 27.4018 20.9956 26.8765 21.3512 26.4893C21.7067 26.102 22.1889 25.8844 22.6917 25.8844H24.4936L21.1751 21.067C21.0257 20.8501 20.917 20.6032 20.8552 20.3405C20.7934 20.0778 20.7797 19.8044 20.8149 19.5359C20.8501 19.2675 20.9336 19.0092 21.0604 18.7758C21.1872 18.5425 21.355 18.3386 21.5542 18.1759Z" fill="white"/>
</g>
<defs>
<filter id="filter0_d_2354_228" x="5.73926" y="0" width="44.522" height="54.2607" filterUnits="userSpaceOnUse" color-interpolation-filters="sRGB">
<feFlood flood-opacity="0" result="BackgroundImageFix"/>
<feColorMatrix in="SourceAlpha" type="matrix" values="0 0 0 0 0 0 0 0 0 0 0 0 0 0 0 0 0 0 127 0" result="hardAlpha"/>
<feOffset dy="4"/>
<feGaussianBlur stdDeviation="2"/>
<feComposite in2="hardAlpha" operator="out"/>
<feColorMatrix type="matrix" values="0 0 0 0 0 0 0 0 0 0 0 0 0 0 0 0 0 0 0.25 0"/>
<feBlend mode="normal" in2="BackgroundImageFix" result="effect1_dropShadow_2354_228"/>
<feBlend mode="normal" in="SourceGraphic" in2="effect1_dropShadow_2354_228" result="shape"/>
</filter>
</defs>
</svg>
