<svg width="61" height="54" viewBox="0 0 61 54" fill="none" xmlns="http://www.w3.org/2000/svg">
<g clip-path="url(#clip0_2354_1525)">
<g filter="url(#filter0_d_2354_1525)">
<path d="M35.061 20.253L50.875 25.9009V48.9405C50.875 49.3881 50.6972 49.8173 50.3807 50.1338C50.0643 50.4502 49.6351 50.628 49.1875 50.628H42.4375C41.9899 50.628 41.5607 50.4502 41.2443 50.1338C40.9278 49.8173 40.75 49.3881 40.75 48.9405V37.128H23.875V48.9405C23.875 49.3881 23.6972 49.8173 23.3807 50.1338C23.0643 50.4502 22.6351 50.628 22.1875 50.628H15.4375C14.9899 50.628 14.5607 50.4502 14.2443 50.1338C13.9278 49.8173 13.75 49.3881 13.75 48.9405V26.3797C9.83078 24.9822 7 21.2718 7 16.878C7 15.9829 7.35558 15.1245 7.98851 14.4915C8.62145 13.8586 9.47989 13.503 10.375 13.503C11.2701 13.503 12.1286 13.8586 12.7615 14.4915C13.3944 15.1245 13.75 15.9829 13.75 16.878C13.7517 17.7726 14.1078 18.6301 14.7404 19.2627C15.3729 19.8952 16.2304 20.2513 17.125 20.253H35.061ZM61 8.44051V11.8155C61 13.6057 60.2888 15.3226 59.023 16.5885C57.7571 17.8544 56.0402 18.5655 54.25 18.5655H50.875V22.3181L37.375 17.4971V1.69051C37.375 0.187585 39.1912 -0.565462 40.2554 0.497663L43.1325 3.37801H48.7888C49.9395 3.37801 51.2937 4.21333 51.8073 5.24376L52.5625 6.75301H59.3125C59.7601 6.75301 60.1893 6.9308 60.5057 7.24727C60.8222 7.56374 61 7.99296 61 8.44051ZM49.1875 8.44051C49.1875 8.10676 49.0885 7.7805 48.9031 7.50299C48.7177 7.22548 48.4541 7.00919 48.1458 6.88147C47.8374 6.75374 47.4981 6.72033 47.1708 6.78544C46.8434 6.85055 46.5428 7.01127 46.3068 7.24727C46.0708 7.48327 45.91 7.78396 45.8449 8.1113C45.7798 8.43864 45.8132 8.77794 45.941 9.08629C46.0687 9.39464 46.285 9.65819 46.5625 9.84362C46.84 10.029 47.1662 10.128 47.5 10.128C47.9476 10.128 48.3768 9.95022 48.6932 9.63376C49.0097 9.31729 49.1875 8.88807 49.1875 8.44051Z" fill="white"/>
</g>
</g>
<defs>
<filter id="filter0_d_2354_1525" x="3" y="0" width="62" height="58.6279" filterUnits="userSpaceOnUse" color-interpolation-filters="sRGB">
<feFlood flood-opacity="0" result="BackgroundImageFix"/>
<feColorMatrix in="SourceAlpha" type="matrix" values="0 0 0 0 0 0 0 0 0 0 0 0 0 0 0 0 0 0 127 0" result="hardAlpha"/>
<feOffset dy="4"/>
<feGaussianBlur stdDeviation="2"/>
<feComposite in2="hardAlpha" operator="out"/>
<feColorMatrix type="matrix" values="0 0 0 0 0 0 0 0 0 0 0 0 0 0 0 0 0 0 0.25 0"/>
<feBlend mode="normal" in2="BackgroundImageFix" result="effect1_dropShadow_2354_1525"/>
<feBlend mode="normal" in="SourceGraphic" in2="effect1_dropShadow_2354_1525" result="shape"/>
</filter>
<clipPath id="clip0_2354_1525">
<rect width="60.75" height="54" fill="white"/>
</clipPath>
</defs>
</svg>
