<svg width="57" height="57" viewBox="0 0 57 57" fill="none" xmlns="http://www.w3.org/2000/svg">
<g clip-path="url(#clip0_2354_1548)">
<g filter="url(#filter0_d_2354_1548)">
<path d="M30.875 10.6875C30.875 12.2622 30.2494 13.7724 29.1359 14.8859C28.0224 15.9994 26.5122 16.625 24.9375 16.625C23.3628 16.625 21.8526 15.9994 20.7391 14.8859C19.6256 13.7724 19 12.2622 19 10.6875C19 9.11278 19.6256 7.60255 20.7391 6.48905C21.8526 5.37556 23.3628 4.75 24.9375 4.75C26.5122 4.75 28.0224 5.37556 29.1359 6.48905C30.2494 7.60255 30.875 9.11278 30.875 10.6875Z" fill="white"/>
<path fill-rule="evenodd" clip-rule="evenodd" d="M38.4655 29.64C37.8479 29.7638 37.2064 29.6371 36.6822 29.2879C36.1579 28.9387 35.7939 28.3956 35.6701 27.778C35.2664 25.7593 34.1762 24.8639 32.7489 24.3533C32.5237 24.2721 32.2947 24.2023 32.0625 24.1443V49.7088C32.0612 50.3514 31.8168 50.9697 31.3783 51.4395C30.9398 51.9093 30.3397 52.1956 29.6987 52.2411C29.0576 52.2865 28.4232 52.0876 27.9228 51.6843C27.4224 51.2811 27.0932 50.7034 27.0014 50.0674L25.2771 38H24.5979L22.8736 50.065C22.7818 50.7008 22.4528 51.2784 21.9527 51.6816C21.4525 52.0849 20.8184 52.2839 20.1775 52.2388C19.5367 52.1937 18.9366 51.9078 18.4979 51.4384C18.0592 50.9691 17.8143 50.3512 17.8125 49.7088V35.625C15.6079 35.625 13.4936 34.7492 11.9347 33.1903C10.3758 31.6314 9.5 29.5171 9.5 27.3125C9.5 25.1079 10.3758 22.9936 11.9347 21.4347C13.4936 19.8758 15.6079 19 17.8125 19H28.5V19.0047C30.1672 19.0285 32.3404 19.1639 34.3449 19.8811C37.0738 20.8549 39.5461 22.9283 40.3299 26.847C40.3911 27.153 40.3915 27.468 40.3309 27.7741C40.2704 28.0802 40.1501 28.3714 39.9769 28.631C39.8038 28.8906 39.5812 29.1136 39.3219 29.2871C39.0625 29.4606 38.7715 29.5814 38.4655 29.6424M17.8125 23.75C16.8677 23.75 15.9615 24.1253 15.2934 24.7934C14.6253 25.4615 14.25 26.3677 14.25 27.3125C14.25 28.2573 14.6253 29.1635 15.2934 29.8316C15.9615 30.4997 16.8677 30.875 17.8125 30.875V23.75Z" fill="white"/>
<path d="M40.3749 34.2C40.3749 33.6704 40.5816 33.3331 40.8808 33.0933C41.2477 32.8138 41.695 32.6605 42.1562 32.6562C42.6003 32.6562 43.0872 32.8154 43.4316 33.0933C43.5979 33.2242 43.7305 33.3929 43.8185 33.5854C43.9065 33.7779 43.9473 33.9886 43.9374 34.2V49.875C43.9374 50.3474 44.1251 50.8005 44.4591 51.1345C44.7932 51.4686 45.2463 51.6562 45.7187 51.6562C46.1911 51.6562 46.6442 51.4686 46.9782 51.1345C47.3123 50.8005 47.4999 50.3474 47.4999 49.875V34.2C47.4999 32.5137 46.7399 31.1861 45.6688 30.3192C44.6679 29.5294 43.4312 29.0979 42.1562 29.0938C40.9687 29.0938 39.6743 29.488 38.6436 30.3192C38.0635 30.7844 37.5971 31.3757 37.2798 32.0482C36.9625 32.7206 36.8027 33.4565 36.8124 34.2C36.8124 34.6724 37.0001 35.1255 37.3341 35.4595C37.6682 35.7936 38.1213 35.9812 38.5937 35.9812C39.0661 35.9812 39.5192 35.7936 39.8532 35.4595C40.1873 35.1255 40.3749 34.6724 40.3749 34.2Z" fill="white"/>
</g>
</g>
<defs>
<filter id="filter0_d_2354_1548" x="5.5" y="4.75" width="46" height="55.4971" filterUnits="userSpaceOnUse" color-interpolation-filters="sRGB">
<feFlood flood-opacity="0" result="BackgroundImageFix"/>
<feColorMatrix in="SourceAlpha" type="matrix" values="0 0 0 0 0 0 0 0 0 0 0 0 0 0 0 0 0 0 127 0" result="hardAlpha"/>
<feOffset dy="4"/>
<feGaussianBlur stdDeviation="2"/>
<feComposite in2="hardAlpha" operator="out"/>
<feColorMatrix type="matrix" values="0 0 0 0 0 0 0 0 0 0 0 0 0 0 0 0 0 0 0.25 0"/>
<feBlend mode="normal" in2="BackgroundImageFix" result="effect1_dropShadow_2354_1548"/>
<feBlend mode="normal" in="SourceGraphic" in2="effect1_dropShadow_2354_1548" result="shape"/>
</filter>
<clipPath id="clip0_2354_1548">
<rect width="57" height="57" fill="white"/>
</clipPath>
</defs>
</svg>
