<svg width="57" height="57" viewBox="0 0 57 57" fill="none" xmlns="http://www.w3.org/2000/svg">
<g clip-path="url(#clip0_2354_1555)">
<g filter="url(#filter0_d_2354_1555)">
<path fill-rule="evenodd" clip-rule="evenodd" d="M29.6874 10.6875C29.6874 12.2622 29.0619 13.7724 27.9484 14.8859C26.8349 15.9994 25.3247 16.625 23.7499 16.625C22.1752 16.625 20.665 15.9994 19.5515 14.8859C18.438 13.7724 17.8124 12.2622 17.8124 10.6875C17.8124 9.11278 18.438 7.60255 19.5515 6.48905C20.665 5.37556 22.1752 4.75 23.7499 4.75C25.3247 4.75 26.8349 5.37556 27.9484 6.48905C29.0619 7.60255 29.6874 9.11278 29.6874 10.6875ZM16.6249 49.875V45.125L21.3749 45.7188V49.875C21.3749 50.5049 21.1247 51.109 20.6793 51.5544C20.2339 51.9998 19.6298 52.25 18.9999 52.25C18.37 52.25 17.7659 51.9998 17.3205 51.5544C16.8752 51.109 16.6249 50.5049 16.6249 49.875ZM26.1249 45.7188V49.875C26.1249 50.5049 26.3752 51.109 26.8205 51.5544C27.2659 51.9998 27.87 52.25 28.4999 52.25C29.1298 52.25 29.7339 51.9998 30.1793 51.5544C30.6247 51.109 30.8749 50.5049 30.8749 49.875V45.125L26.1249 45.7188ZM38.4654 29.64C37.8478 29.7638 37.2063 29.6371 36.6821 29.2879C36.1579 28.9387 35.7938 28.3956 35.6701 27.778C35.2663 25.7593 34.1762 24.8639 32.7488 24.3532C31.7109 23.9827 30.5401 23.8403 29.3502 23.7832L35.6249 41.5625C35.6249 41.5625 28.9346 42.75 23.7499 42.75C18.5653 42.75 11.8749 41.5625 11.8749 41.5625L14.2523 34.827C12.5449 34.0195 11.1634 32.6547 10.3353 30.9572C9.50719 29.2598 9.28182 27.3309 9.6963 25.4883C10.1108 23.6456 11.1404 21.9991 12.6156 20.8197C14.0909 19.6404 15.9237 18.9986 17.8124 19H28.4999V19.0047C30.1672 19.0285 32.3403 19.1639 34.3448 19.8811C37.0737 20.8549 39.5461 22.9282 40.3298 26.847C40.3911 27.153 40.3914 27.468 40.3309 27.7741C40.2703 28.0802 40.15 28.3714 39.9769 28.631C39.8037 28.8906 39.5811 29.1136 39.3218 29.2871C39.0624 29.4606 38.7714 29.5814 38.4654 29.6424M18.1616 23.75H17.8124C17.0459 23.7498 16.2998 23.9968 15.6849 24.4544C15.0699 24.9119 14.619 25.5556 14.399 26.2898C14.1789 27.0241 14.2016 27.8097 14.4635 28.53C14.7255 29.2504 15.2128 29.867 15.8531 30.2884L18.1616 23.75ZM40.3749 34.2C40.3749 33.6704 40.5816 33.3331 40.8808 33.0933C41.2477 32.8138 41.695 32.6605 42.1562 32.6562C42.6003 32.6562 43.0872 32.8154 43.4316 33.0933C43.5979 33.2242 43.7305 33.3929 43.8185 33.5854C43.9065 33.7779 43.9473 33.9886 43.9374 34.2V49.875C43.9374 50.3474 44.1251 50.8005 44.4591 51.1345C44.7932 51.4686 45.2463 51.6562 45.7187 51.6562C46.1911 51.6562 46.6442 51.4686 46.9782 51.1345C47.3123 50.8005 47.4999 50.3474 47.4999 49.875V34.2C47.4999 32.5138 46.7399 31.1861 45.6688 30.3193C44.6679 29.5294 43.4312 29.0979 42.1562 29.0938C40.9687 29.0938 39.6743 29.488 38.6436 30.3193C38.0635 30.7844 37.5971 31.3757 37.2798 32.0482C36.9625 32.7206 36.8027 33.4565 36.8124 34.2C36.8124 34.6724 37.0001 35.1255 37.3341 35.4595C37.6682 35.7936 38.1213 35.9812 38.5937 35.9812C39.0661 35.9812 39.5192 35.7936 39.8532 35.4595C40.1873 35.1255 40.3749 34.6724 40.3749 34.2Z" fill="white"/>
</g>
</g>
<defs>
<filter id="filter0_d_2354_1555" x="5.49365" y="4.75" width="46.0063" height="55.5" filterUnits="userSpaceOnUse" color-interpolation-filters="sRGB">
<feFlood flood-opacity="0" result="BackgroundImageFix"/>
<feColorMatrix in="SourceAlpha" type="matrix" values="0 0 0 0 0 0 0 0 0 0 0 0 0 0 0 0 0 0 127 0" result="hardAlpha"/>
<feOffset dy="4"/>
<feGaussianBlur stdDeviation="2"/>
<feComposite in2="hardAlpha" operator="out"/>
<feColorMatrix type="matrix" values="0 0 0 0 0 0 0 0 0 0 0 0 0 0 0 0 0 0 0.25 0"/>
<feBlend mode="normal" in2="BackgroundImageFix" result="effect1_dropShadow_2354_1555"/>
<feBlend mode="normal" in="SourceGraphic" in2="effect1_dropShadow_2354_1555" result="shape"/>
</filter>
<clipPath id="clip0_2354_1555">
<rect width="57" height="57" fill="white"/>
</clipPath>
</defs>
</svg>
