<svg width="56" height="56" viewBox="0 0 56 56" fill="none" xmlns="http://www.w3.org/2000/svg">
<g clip-path="url(#clip0_2354_1539)">
<g filter="url(#filter0_d_2354_1539)">
<mask id="mask0_2354_1539" style="mask-type:luminance" maskUnits="userSpaceOnUse" x="4" y="5" width="47" height="47">
<path d="M17.9435 38.3181C11.346 36.6673 0.620815 40.7926 11.346 44.918C15.4701 55.642 19.5943 44.918 17.9458 38.3181" fill="#555555"/>
<path d="M17.9435 38.3181C11.346 36.6673 0.620815 40.7926 11.346 44.918C15.4701 55.642 19.5943 44.918 17.9458 38.3181" stroke="white" stroke-width="4.66667" stroke-linecap="round" stroke-linejoin="round"/>
<path d="M26.2293 11.9562C20.5091 11.9398 13.1253 13.7482 12.1955 16.3043C11.5223 18.1582 15.0246 20.6233 19.4871 21.9253M44.308 30.0325C44.3231 35.7538 42.5148 43.1365 39.9586 44.0675C38.1048 44.7407 35.6396 41.2383 34.3376 36.7747" stroke="white" stroke-width="4.66667" stroke-linecap="round" stroke-linejoin="round"/>
<path d="M44.3334 30.0593C52.1057 22.9834 46.8114 9.43844 46.8114 9.43844C46.8114 9.43844 32.7927 5.3201 26.1917 11.9188C19.5907 18.5174 17.9434 38.3181 17.9434 38.3181C17.9434 38.3181 36.5587 37.1351 44.3334 30.0593Z" fill="#555555" stroke="white" stroke-width="4.66667" stroke-linecap="round" stroke-linejoin="round"/>
<path d="M44.3427 30.0686C44.3427 30.0686 36.505 28.8319 31.9679 24.2936C27.4295 19.7564 26.1929 11.9199 26.1929 11.9199" stroke="white" stroke-width="4.66667" stroke-linecap="round" stroke-linejoin="round"/>
<path d="M37.7446 18.5191C38.6558 19.4303 40.1332 19.4303 41.0444 18.5191C41.9557 17.6079 41.9557 16.1305 41.0444 15.2193C40.1332 14.308 38.6558 14.308 37.7446 15.2193C36.8334 16.1305 36.8334 17.6079 37.7446 18.5191Z" fill="white"/>
<path d="M47.8336 24.4355C47.2036 26.4888 46.1093 28.4418 44.3336 30.0588C42.411 31.8088 39.8256 33.1971 37.0233 34.2973M31.5003 8.93164C29.5205 9.50214 27.6713 10.4413 26.1931 11.9183C24.8118 13.302 23.6463 15.2631 22.6675 17.4996" stroke="white" stroke-width="4.66667" stroke-linecap="round" stroke-linejoin="round"/>
</mask>
<g mask="url(#mask0_2354_1539)">
<path d="M0 0H56V56H0V0Z" fill="white"/>
</g>
</g>
</g>
<defs>
<filter id="filter0_d_2354_1539" x="0.459473" y="5.83594" width="54.4453" height="53.9678" filterUnits="userSpaceOnUse" color-interpolation-filters="sRGB">
<feFlood flood-opacity="0" result="BackgroundImageFix"/>
<feColorMatrix in="SourceAlpha" type="matrix" values="0 0 0 0 0 0 0 0 0 0 0 0 0 0 0 0 0 0 127 0" result="hardAlpha"/>
<feOffset dy="4"/>
<feGaussianBlur stdDeviation="2"/>
<feComposite in2="hardAlpha" operator="out"/>
<feColorMatrix type="matrix" values="0 0 0 0 0 0 0 0 0 0 0 0 0 0 0 0 0 0 0.25 0"/>
<feBlend mode="normal" in2="BackgroundImageFix" result="effect1_dropShadow_2354_1539"/>
<feBlend mode="normal" in="SourceGraphic" in2="effect1_dropShadow_2354_1539" result="shape"/>
</filter>
<clipPath id="clip0_2354_1539">
<rect width="56" height="56" fill="white"/>
</clipPath>
</defs>
</svg>
