<svg width="65" height="65" viewBox="0 0 65 65" fill="none" xmlns="http://www.w3.org/2000/svg">
<g clip-path="url(#clip0_2354_1543)">
<g filter="url(#filter0_d_2354_1543)">
<path d="M48.7498 16.2503C47.2603 16.2503 45.9855 15.7204 44.9257 14.6606C43.8658 13.6007 43.335 12.3251 43.3332 10.8337C43.3314 9.34229 43.8622 8.06757 44.9257 7.00951C45.9891 5.95145 47.2639 5.42062 48.7498 5.41701C50.2358 5.4134 51.5114 5.94423 52.5767 7.00951C53.642 8.07479 54.1719 9.34951 54.1665 10.8337C54.1611 12.3178 53.6312 13.5935 52.5767 14.6606C51.5223 15.7276 50.2466 16.2576 48.7498 16.2503ZM46.0415 56.8753V37.917C46.0415 36.1115 45.5784 34.4865 44.6521 33.042C43.7259 31.5976 42.5414 30.4691 41.0988 29.6566L43.4686 22.6826C43.8297 21.5542 44.496 20.6514 45.4673 19.9743C46.4387 19.2972 47.5329 18.9587 48.7498 18.9587C49.9668 18.9587 51.0619 19.2972 52.035 19.9743C53.0082 20.6514 53.6736 21.5542 54.0311 22.6826L59.7186 39.7451C60.0346 40.6479 59.9109 41.4721 59.3475 42.2178C58.7842 42.9635 58.0503 43.3355 57.1457 43.3337H54.1665V56.8753C54.1665 57.6427 53.9065 58.2864 53.3865 58.8064C52.8665 59.3264 52.2237 59.5855 51.4582 59.5837H48.7498C47.9825 59.5837 47.3397 59.3237 46.8215 58.8037C46.3033 58.2837 46.0433 57.6409 46.0415 56.8753ZM33.854 31.1462C32.7255 31.1462 31.7668 30.7517 30.9778 29.9626C30.1887 29.1736 29.7933 28.214 29.7915 27.0837C29.7897 25.9534 30.1851 24.9946 30.9778 24.2074C31.7704 23.4202 32.7291 23.0248 33.854 23.0212C34.9789 23.0176 35.9385 23.413 36.733 24.2074C37.5274 25.0019 37.9219 25.9606 37.9165 27.0837C37.9111 28.2067 37.5166 29.1664 36.733 29.9626C35.9494 30.7589 34.9897 31.1534 33.854 31.1462ZM14.8957 16.2503C13.4061 16.2503 12.1314 15.7204 11.0715 14.6606C10.0116 13.6007 9.48081 12.3251 9.479 10.8337C9.4772 9.34229 10.008 8.06757 11.0715 7.00951C12.135 5.95145 13.4097 5.42062 14.8957 5.41701C16.3816 5.4134 17.6573 5.94423 18.7225 7.00951C19.7878 8.07479 20.3178 9.34951 20.3123 10.8337C20.3069 12.3178 19.777 13.5935 18.7225 14.6606C17.6681 15.7276 16.3925 16.2576 14.8957 16.2503ZM9.479 56.8753V40.6253H8.12484C7.35748 40.6253 6.7147 40.3653 6.1965 39.8453C5.67831 39.3253 5.41831 38.6826 5.4165 37.917V24.3753C5.4165 22.8858 5.94734 21.611 7.009 20.5512C8.07067 19.4913 9.34539 18.9605 10.8332 18.9587H18.9582C20.4478 18.9587 21.7234 19.4895 22.785 20.5512C23.8467 21.6128 24.3766 22.8876 24.3748 24.3753V37.917C24.3748 38.6844 24.1148 39.3281 23.5948 39.8481C23.0748 40.3681 22.4321 40.6271 21.6665 40.6253H20.3123V56.8753C20.3123 57.6427 20.0523 58.2864 19.5323 58.8064C19.0123 59.3264 18.3696 59.5855 17.604 59.5837H12.1873C11.42 59.5837 10.7772 59.3237 10.259 58.8037C9.74081 58.2837 9.48081 57.6409 9.479 56.8753ZM29.7915 56.8753V48.7503C29.0241 48.7503 28.3814 48.4903 27.8632 47.9703C27.345 47.4503 27.085 46.8076 27.0832 46.042V37.917C27.0832 36.7885 27.4786 35.8298 28.2694 35.0408C29.0603 34.2517 30.019 33.8563 31.1457 33.8545H36.5623C37.6908 33.8545 38.6505 34.2499 39.4413 35.0408C40.2321 35.8316 40.6266 36.7903 40.6248 37.917V46.042C40.6248 46.8094 40.3648 47.453 39.8448 47.973C39.3248 48.493 38.6821 48.7522 37.9165 48.7503V56.8753C37.9165 57.6427 37.6565 58.2864 37.1365 58.8064C36.6165 59.3264 35.9737 59.5855 35.2082 59.5837H32.4998C31.7325 59.5837 31.0897 59.3237 30.5715 58.8037C30.0533 58.2837 29.7933 57.6409 29.7915 56.8753Z" fill="white"/>
</g>
</g>
<defs>
<filter id="filter0_d_2354_1543" x="1.4165" y="5.41699" width="62.4722" height="62.167" filterUnits="userSpaceOnUse" color-interpolation-filters="sRGB">
<feFlood flood-opacity="0" result="BackgroundImageFix"/>
<feColorMatrix in="SourceAlpha" type="matrix" values="0 0 0 0 0 0 0 0 0 0 0 0 0 0 0 0 0 0 127 0" result="hardAlpha"/>
<feOffset dy="4"/>
<feGaussianBlur stdDeviation="2"/>
<feComposite in2="hardAlpha" operator="out"/>
<feColorMatrix type="matrix" values="0 0 0 0 0 0 0 0 0 0 0 0 0 0 0 0 0 0 0.25 0"/>
<feBlend mode="normal" in2="BackgroundImageFix" result="effect1_dropShadow_2354_1543"/>
<feBlend mode="normal" in="SourceGraphic" in2="effect1_dropShadow_2354_1543" result="shape"/>
</filter>
<clipPath id="clip0_2354_1543">
<rect width="65" height="65" fill="white"/>
</clipPath>
</defs>
</svg>
