<svg width="58" height="58" viewBox="0 0 58 58" fill="none" xmlns="http://www.w3.org/2000/svg">
<g clip-path="url(#clip0_2354_1521)">
<g filter="url(#filter0_d_2354_1521)">
<path fill-rule="evenodd" clip-rule="evenodd" d="M27.5743 4.87402C29.4835 5.04319 30.6024 5.69569 31.2815 6.44969C32.1104 7.37044 32.6252 8.82527 32.6252 10.8746C32.6255 11.5158 32.4557 12.1457 32.1331 12.6998C31.8106 13.254 31.3468 13.7127 30.7891 14.0292C30.2314 14.3456 29.5997 14.5085 28.9585 14.5011C28.3174 14.4937 27.6896 14.3164 27.1393 13.9873L26.8252 13.7746C26.5713 13.5842 26.2824 13.4456 25.9749 13.3669C25.6675 13.2881 25.3476 13.2707 25.0334 13.3156C24.7192 13.3604 24.417 13.4668 24.1439 13.6285C23.8708 13.7902 23.6322 14.0041 23.4418 14.2579C23.2514 14.5118 23.1129 14.8007 23.0341 15.1082C22.9553 15.4156 22.9379 15.7355 22.9828 16.0497C23.0734 16.6842 23.4124 17.2567 23.9252 17.6413C25.1818 18.5838 26.6761 19.1577 28.2406 19.2988C29.805 19.4398 31.3779 19.1425 32.7828 18.44C34.1878 17.7375 35.3694 16.6576 36.1953 15.3214C37.0211 13.9852 37.4585 12.4454 37.4585 10.8746C37.4585 9.21919 37.212 7.56619 36.6175 6.05819C46.231 9.24819 53.1668 18.3131 53.1668 28.9996C53.1668 42.3469 42.3474 53.1663 29.0002 53.1663C15.6529 53.1663 4.8335 42.3469 4.8335 28.9996C4.8335 16.1309 14.8917 5.61352 27.5743 4.87402ZM35.3802 36.8103C34.8878 36.4003 34.2529 36.2025 33.6148 36.2605C32.9767 36.3185 32.3878 36.6275 31.9775 37.1196C31.1099 38.1588 30.049 38.6663 29.0002 38.6663C27.9513 38.6663 26.8904 38.1588 26.0228 37.1196C25.6074 36.6448 25.0228 36.3512 24.3939 36.3016C23.7649 36.2521 23.1415 36.4504 22.6568 36.8543C22.1722 37.2582 21.8647 37.8356 21.8 38.4632C21.7354 39.0907 21.9187 39.7187 22.3108 40.2129C23.9348 42.1632 26.2838 43.4996 29.0002 43.4996C31.7165 43.4996 34.0655 42.1632 35.6895 40.2129C36.0995 39.7206 36.2973 39.0856 36.2393 38.4476C36.1813 37.8095 35.8722 37.2206 35.3802 36.8103ZM20.5418 24.1663C19.5804 24.1663 18.6584 24.5482 17.9786 25.228C17.2987 25.9078 16.9168 26.8299 16.9168 27.7913C16.9168 28.7527 17.2987 29.6747 17.9786 30.3545C18.6584 31.0344 19.5804 31.4163 20.5418 31.4163C21.5032 31.4163 22.4253 31.0344 23.1051 30.3545C23.7849 29.6747 24.1668 28.7527 24.1668 27.7913C24.1668 26.8299 23.7849 25.9078 23.1051 25.228C22.4253 24.5482 21.5032 24.1663 20.5418 24.1663ZM37.4585 24.1663C36.4971 24.1663 35.5751 24.5482 34.8952 25.228C34.2154 25.9078 33.8335 26.8299 33.8335 27.7913C33.8335 28.7527 34.2154 29.6747 34.8952 30.3545C35.5751 31.0344 36.4971 31.4163 37.4585 31.4163C38.4199 31.4163 39.3419 31.0344 40.0218 30.3545C40.7016 29.6747 41.0835 28.7527 41.0835 27.7913C41.0835 26.8299 40.7016 25.9078 40.0218 25.228C39.3419 24.5482 38.4199 24.1663 37.4585 24.1663Z" fill="white"/>
</g>
</g>
<defs>
<filter id="filter0_d_2354_1521" x="0.833496" y="4.87402" width="56.3335" height="56.292" filterUnits="userSpaceOnUse" color-interpolation-filters="sRGB">
<feFlood flood-opacity="0" result="BackgroundImageFix"/>
<feColorMatrix in="SourceAlpha" type="matrix" values="0 0 0 0 0 0 0 0 0 0 0 0 0 0 0 0 0 0 127 0" result="hardAlpha"/>
<feOffset dy="4"/>
<feGaussianBlur stdDeviation="2"/>
<feComposite in2="hardAlpha" operator="out"/>
<feColorMatrix type="matrix" values="0 0 0 0 0 0 0 0 0 0 0 0 0 0 0 0 0 0 0.25 0"/>
<feBlend mode="normal" in2="BackgroundImageFix" result="effect1_dropShadow_2354_1521"/>
<feBlend mode="normal" in="SourceGraphic" in2="effect1_dropShadow_2354_1521" result="shape"/>
</filter>
<clipPath id="clip0_2354_1521">
<rect width="58" height="58" fill="white"/>
</clipPath>
</defs>
</svg>
