<svg width="58" height="58" viewBox="0 0 58 58" fill="none" xmlns="http://www.w3.org/2000/svg">
<g clip-path="url(#clip0_2354_1529)">
<g filter="url(#filter0_d_2354_1529)">
<path d="M48.2852 21.9019L50.0977 21.9068V21.9019H48.2852ZM9.71521 21.9019H7.90271V21.9068L9.71521 21.9019ZM46.1585 25.7613L44.7738 26.9334L44.9768 27.1751L45.2523 27.3322L46.1585 25.7613ZM45.5012 22.7043C45.1134 22.4197 44.6285 22.3008 44.1531 22.3738C43.6777 22.4467 43.2507 22.7056 42.9661 23.0933C42.6815 23.4811 42.5627 23.966 42.6356 24.4415C42.7086 24.9169 42.9674 25.3438 43.3552 25.6284L45.5012 22.7043ZM14.6452 25.6284C14.8372 25.4875 14.9996 25.3102 15.123 25.1065C15.2465 24.9029 15.3287 24.6769 15.3648 24.4415C15.4009 24.2061 15.3903 23.9658 15.3336 23.7345C15.2769 23.5032 15.1752 23.2853 15.0343 23.0933C14.8934 22.9013 14.716 22.739 14.5124 22.6155C14.3087 22.492 14.0827 22.4099 13.8473 22.3738C13.6119 22.3376 13.3717 22.3482 13.1404 22.4049C12.9091 22.4616 12.6912 22.5634 12.4992 22.7043L14.6452 25.6284ZM29.0002 13.6683C27.1345 13.6683 26.076 13.7674 25.2399 13.8713C24.4182 13.9728 24.0025 14.0453 23.2147 14.0453V17.6703C24.278 17.6703 24.9668 17.5568 25.6797 17.4698C26.3805 17.3828 27.2892 17.2933 29.0002 17.2933V13.6683ZM29.0002 17.2933C30.7112 17.2933 31.6223 17.3828 32.3183 17.4698C33.0336 17.5568 33.72 17.6703 34.7857 17.6703V14.0453C33.9979 14.0453 33.5822 13.9728 32.7605 13.8713C31.5128 13.7223 30.2567 13.6545 29.0002 13.6683V17.2933ZM34.7857 17.6728C35.3005 17.6728 35.7814 17.5253 36.127 17.3973C36.504 17.2571 36.893 17.0734 37.2676 16.8801C38.0047 16.5007 38.8602 15.9932 39.6432 15.5413C40.4649 15.07 41.2382 14.6398 41.9318 14.3257C42.6761 13.9873 43.1015 13.8955 43.2706 13.8955V10.2705C42.2846 10.2705 41.2648 10.6499 40.4407 11.0197C39.5512 11.4386 38.6819 11.8991 37.8355 12.3996C36.98 12.8926 36.2454 13.33 35.6074 13.6563C35.2948 13.8174 35.0483 13.931 34.8679 13.997C34.6576 14.0743 34.6576 14.0453 34.7857 14.0453V17.6728ZM43.2706 13.8955C44.1044 13.8955 44.9019 14.1444 45.4625 14.6278C45.9749 15.0676 46.4727 15.8603 46.4727 17.3707H50.0977C50.0977 14.954 49.247 13.1028 47.8285 11.88C46.4606 10.7031 44.7545 10.2705 43.2706 10.2705V13.8955ZM46.4727 17.3707V21.9019H50.0977V17.3707H46.4727ZM23.2147 14.0478C23.3428 14.0478 23.3428 14.0743 23.1325 13.9994C22.8799 13.8998 22.633 13.786 22.393 13.6587C21.755 13.33 21.0204 12.8926 20.1649 12.402C19.3432 11.9283 18.4345 11.416 17.5597 11.0221C16.738 10.6499 15.7158 10.2705 14.7298 10.2705V13.8955C14.899 13.8955 15.3243 13.9898 16.0686 14.3257C16.7622 14.6398 17.538 15.07 18.3572 15.5413C19.1402 15.9932 19.9957 16.5007 20.7328 16.8801C21.1074 17.0734 21.4965 17.2571 21.8735 17.3973C22.219 17.5253 22.7 17.6728 23.2147 17.6728V14.0478ZM14.7298 10.2705C13.246 10.2705 11.5398 10.7031 10.172 11.88C8.75338 13.1004 7.90271 14.954 7.90271 17.3683H11.5277C11.5277 15.8578 12.0255 15.0676 12.5379 14.6278C13.0985 14.1444 13.8985 13.8955 14.7298 13.8955V10.2705ZM7.90271 17.3707V21.9019H11.5277V17.3683L7.90271 17.3707ZM29.0002 50.1455C32.4585 50.1455 37.5552 49.4568 41.8569 47.4775C46.1682 45.4958 50.0977 41.9844 50.0977 36.2497H46.4727C46.4727 39.9544 44.0391 42.4847 40.344 44.186C36.649 45.8873 32.0984 46.5205 29.0002 46.5205V50.1455ZM47.5409 24.5917C46.9357 23.887 46.2513 23.2521 45.5012 22.7043L43.3552 25.6284C43.932 26.0586 44.4049 26.4912 44.7738 26.931L47.5409 24.5917ZM46.4727 21.8947C46.4727 22.3732 46.3736 23.3688 46.1392 24.0576C46.0063 24.4418 45.9314 24.4322 46.0667 24.3234C46.2069 24.2168 46.3724 24.1485 46.5469 24.1252C46.7215 24.1019 46.8992 24.1244 47.0624 24.1905L45.2523 27.3322C45.6873 27.5835 46.2238 27.7672 46.8231 27.7358C47.4394 27.7043 47.9493 27.4603 48.336 27.1509C49.0295 26.5951 49.38 25.7831 49.5685 25.2273C49.9745 24.0407 50.0953 22.6173 50.1001 21.9068L46.4727 21.8947ZM29.0002 46.5205C25.902 46.5205 21.3563 45.8873 17.6564 44.186C13.9589 42.4847 11.5277 39.9544 11.5277 36.2497H7.90271C7.90271 41.9844 11.8322 45.4958 16.1435 47.4775C20.4452 49.4592 25.542 50.1455 29.0002 50.1455V46.5205ZM11.5277 36.2497C11.5277 34.3453 11.39 32.7769 11.5736 31.107C11.7428 29.5483 12.185 28.1635 13.2266 26.9334L10.4595 24.5893C8.81621 26.5347 8.19271 28.6807 7.97038 30.7131C7.76013 32.6392 7.90271 34.7248 7.90271 36.2497H11.5277ZM13.2266 26.9334C13.6467 26.4443 14.1228 26.0063 14.6452 25.6284L12.4992 22.7043C11.7049 23.2907 11.025 23.919 10.4595 24.5893L13.2266 26.9334ZM7.90271 21.9068C7.90513 22.6173 8.02596 24.0407 8.43196 25.2273C8.62046 25.7831 8.97088 26.5951 9.66446 27.1509C10.0511 27.4603 10.561 27.7043 11.1749 27.7358C11.7766 27.7648 12.3107 27.5835 12.7481 27.3322L10.938 24.1905C11.101 24.1248 11.2781 24.1025 11.4522 24.1258C11.6263 24.1491 11.7914 24.2172 11.9313 24.3234C12.069 24.4322 11.9941 24.4418 11.8612 24.0576C11.6512 23.3554 11.539 22.6275 11.5277 21.8947L7.90271 21.9068Z" fill="white"/>
<path d="M30.9963 38.6668C30.9963 39.0848 30.1239 39.4232 29.0485 39.4232C27.9731 39.4232 27.0982 39.0848 27.0982 38.6668C27.0982 38.2487 27.9706 37.9128 29.0485 37.9128C30.1239 37.9128 30.9963 38.2511 30.9963 38.6668ZM37.4585 32.8523C37.4585 33.8938 36.9341 34.7397 36.2888 34.7397C35.6436 34.7397 35.1191 33.8938 35.1191 32.8523C35.1191 31.8107 35.6436 30.9648 36.2888 30.9648C36.9341 30.9648 37.4585 31.8131 37.4585 32.8523ZM22.9585 32.8523C22.9585 33.8938 22.4341 34.7397 21.7888 34.7397C21.1436 34.7397 20.6191 33.8938 20.6191 32.8523C20.6191 31.8107 21.1436 30.9648 21.7888 30.9648C22.4341 30.9648 22.9585 31.8131 22.9585 32.8523Z" stroke="white" stroke-width="3.625"/>
<path d="M53.1668 37.3831C51.9996 36.6267 46.9318 34.7393 44.9816 34.7393M49.2687 43.4248C48.0991 42.6683 45.3707 40.7809 43.4204 40.7809M4.8335 37.3831C6.00316 36.6267 11.0685 34.7393 13.0187 34.7393M8.73158 43.4248C9.90125 42.6683 12.6297 40.7809 14.5799 40.7809" stroke="white" stroke-width="3.625" stroke-linecap="round"/>
</g>
</g>
<defs>
<filter id="filter0_d_2354_1529" x="-0.979004" y="10.2705" width="59.9585" height="47.875" filterUnits="userSpaceOnUse" color-interpolation-filters="sRGB">
<feFlood flood-opacity="0" result="BackgroundImageFix"/>
<feColorMatrix in="SourceAlpha" type="matrix" values="0 0 0 0 0 0 0 0 0 0 0 0 0 0 0 0 0 0 127 0" result="hardAlpha"/>
<feOffset dy="4"/>
<feGaussianBlur stdDeviation="2"/>
<feComposite in2="hardAlpha" operator="out"/>
<feColorMatrix type="matrix" values="0 0 0 0 0 0 0 0 0 0 0 0 0 0 0 0 0 0 0.25 0"/>
<feBlend mode="normal" in2="BackgroundImageFix" result="effect1_dropShadow_2354_1529"/>
<feBlend mode="normal" in="SourceGraphic" in2="effect1_dropShadow_2354_1529" result="shape"/>
</filter>
<clipPath id="clip0_2354_1529">
<rect width="58" height="58" fill="white"/>
</clipPath>
</defs>
</svg>
