<svg width="51" height="51" viewBox="0 0 51 51" fill="none" xmlns="http://www.w3.org/2000/svg">
<g clip-path="url(#clip0_2354_1533)">
<g filter="url(#filter0_d_2354_1533)">
<path d="M18.5938 3.71875C20.0494 3.71875 21.3849 4.26275 22.3571 5.26788C23.3293 6.27406 23.9062 7.71056 23.9062 9.4435C23.9062 11.1679 23.3368 12.8988 22.4081 14.2088C21.4837 15.5125 20.145 16.4688 18.5938 16.4688C17.0425 16.4688 15.7037 15.5125 14.7794 14.2088C13.8507 12.8988 13.2812 11.1679 13.2812 9.44456C13.2812 7.71056 13.8582 6.27406 14.8314 5.26788C15.8026 4.26275 17.1381 3.71875 18.5938 3.71875ZM6.90625 13.2812C8.36188 13.2812 9.69744 13.8253 10.6696 14.8304C11.6418 15.8366 12.2188 17.2731 12.2188 19.006C12.2188 20.7304 11.6493 22.4612 10.7206 23.7713C9.79625 25.075 8.4575 26.0312 6.90625 26.0312C5.355 26.0312 4.01625 25.075 3.09188 23.7713C2.16325 22.4612 1.59375 20.7294 1.59375 19.0071C1.59375 17.2731 2.17069 15.8366 3.14394 14.8304C4.11506 13.8253 5.45062 13.2812 6.90625 13.2812ZM25.5 20.7188C17.9307 20.7188 11.6599 27.1628 9.68575 35.2431C8.81025 38.828 10.1458 42.6732 13.4396 44.4954C16.0565 45.9446 19.9729 47.2812 25.4989 47.2812C31.0261 47.2812 34.9424 45.9446 37.5604 44.4954C40.8531 42.6732 42.1887 38.828 41.3132 35.2442C39.3401 27.1628 33.0682 20.7188 25.5 20.7188ZM44.0938 13.2812C42.6381 13.2812 41.3026 13.8253 40.3314 14.8304C39.3582 15.8366 38.7812 17.2731 38.7812 19.006C38.7812 20.7304 39.3507 22.4612 40.2794 23.7713C41.2038 25.075 42.5425 26.0312 44.0938 26.0312C45.645 26.0312 46.9837 25.075 47.9081 23.7713C48.8368 22.4612 49.4062 20.7304 49.4062 19.0071C49.4062 17.2731 48.8293 15.8366 47.8571 14.8304C46.8849 13.8253 45.5494 13.2812 44.0938 13.2812ZM32.4062 3.71875C30.9506 3.71875 29.6151 4.26275 28.6439 5.26788C27.6707 6.27406 27.0938 7.71056 27.0938 9.4435C27.0938 11.1679 27.6632 12.8988 28.5919 14.2088C29.5163 15.5125 30.855 16.4688 32.4062 16.4688C33.9575 16.4688 35.2962 15.5125 36.2206 14.2088C37.1493 12.8988 37.7188 11.1679 37.7188 9.44456C37.7188 7.71056 37.1418 6.27406 36.1696 5.26788C35.1974 4.26275 33.8619 3.71875 32.4062 3.71875Z" fill="white"/>
</g>
</g>
<defs>
<filter id="filter0_d_2354_1533" x="-2.40625" y="3.71875" width="55.8125" height="51.5625" filterUnits="userSpaceOnUse" color-interpolation-filters="sRGB">
<feFlood flood-opacity="0" result="BackgroundImageFix"/>
<feColorMatrix in="SourceAlpha" type="matrix" values="0 0 0 0 0 0 0 0 0 0 0 0 0 0 0 0 0 0 127 0" result="hardAlpha"/>
<feOffset dy="4"/>
<feGaussianBlur stdDeviation="2"/>
<feComposite in2="hardAlpha" operator="out"/>
<feColorMatrix type="matrix" values="0 0 0 0 0 0 0 0 0 0 0 0 0 0 0 0 0 0 0.25 0"/>
<feBlend mode="normal" in2="BackgroundImageFix" result="effect1_dropShadow_2354_1533"/>
<feBlend mode="normal" in="SourceGraphic" in2="effect1_dropShadow_2354_1533" result="shape"/>
</filter>
<clipPath id="clip0_2354_1533">
<rect width="51" height="51" fill="white"/>
</clipPath>
</defs>
</svg>
