<svg width="79" height="80" viewBox="0 0 79 80" fill="none" xmlns="http://www.w3.org/2000/svg">
<g filter="url(#filter0_d_2138_1985)">
<path d="M12 24C12 15.1634 19.1634 8 28 8H51C59.8366 8 67 15.1634 67 24V48C67 56.8366 59.8366 64 51 64H28C19.1634 64 12 56.8366 12 48V24Z" fill="url(#paint0_linear_2138_1985)"/>
</g>
<path d="M52.7969 18.0043V25.1363M55.9962 21.5703H49.5977M38.4276 19.4556C38.4961 19.0466 38.6908 18.6772 38.978 18.4114C39.2652 18.1455 39.6267 18 40 18C40.3733 18 40.7348 18.1455 41.022 18.4114C41.3092 18.6772 41.5039 19.0466 41.5724 19.4556L43.2536 29.3655C43.373 30.0701 43.6802 30.7182 44.1351 31.2252C44.5899 31.7322 45.1713 32.0745 45.8034 32.2076L54.6941 34.0816C55.061 34.158 55.3925 34.375 55.6309 34.6951C55.8694 35.0152 56 35.4182 56 35.8343C56 36.2503 55.8694 36.6533 55.6309 36.9734C55.3925 37.2935 55.061 37.5106 54.6941 37.5869L45.8034 39.4609C45.1713 39.594 44.5899 39.9364 44.1351 40.4434C43.6802 40.9504 43.373 41.5984 43.2536 42.303L41.5724 52.2129C41.5039 52.6219 41.3092 52.9913 41.022 53.2572C40.7348 53.523 40.3733 53.6685 40 53.6685C39.6267 53.6685 39.2652 53.523 38.978 53.2572C38.6908 52.9913 38.4961 52.6219 38.4276 52.2129L36.7464 42.303C36.627 41.5984 36.3198 40.9504 35.8649 40.4434C35.4101 39.9364 34.8287 39.594 34.1966 39.4609L25.3059 37.5869C24.939 37.5106 24.6076 37.2935 24.3691 36.9734C24.1306 36.6533 24 36.2503 24 35.8343C24 35.4182 24.1306 35.0152 24.3691 34.6951C24.6076 34.375 24.939 34.158 25.3059 34.0816L34.1966 32.2076C34.8287 32.0745 35.4101 31.7322 35.8649 31.2252C36.3198 30.7182 36.627 30.0701 36.7464 29.3655L38.4276 19.4556Z" stroke="white" stroke-width="2" stroke-linecap="round" stroke-linejoin="round"/>
<defs>
<filter id="filter0_d_2138_1985" x="0" y="0" width="79" height="80" filterUnits="userSpaceOnUse" color-interpolation-filters="sRGB">
<feFlood flood-opacity="0" result="BackgroundImageFix"/>
<feColorMatrix in="SourceAlpha" type="matrix" values="0 0 0 0 0 0 0 0 0 0 0 0 0 0 0 0 0 0 127 0" result="hardAlpha"/>
<feOffset dy="4"/>
<feGaussianBlur stdDeviation="6"/>
<feComposite in2="hardAlpha" operator="out"/>
<feColorMatrix type="matrix" values="0 0 0 0 0 0 0 0 0 0 0 0 0 0 0 0 0 0 0.15 0"/>
<feBlend mode="normal" in2="BackgroundImageFix" result="effect1_dropShadow_2138_1985"/>
<feBlend mode="normal" in="SourceGraphic" in2="effect1_dropShadow_2138_1985" result="shape"/>
</filter>
<linearGradient id="paint0_linear_2138_1985" x1="39.5" y1="8" x2="39.5" y2="64" gradientUnits="userSpaceOnUse">
<stop stop-color="#16A34A"/>
<stop offset="1" stop-color="#10B981"/>
</linearGradient>
</defs>
</svg>
