<svg width="50" height="50" viewBox="0 0 50 50" fill="none" xmlns="http://www.w3.org/2000/svg">
<rect width="50" height="50" rx="12" fill="url(#paint0_linear_2254_950)"/>
<path d="M25.5 11C34.0606 11 41 18.0451 41 26.7361C41 35.4272 34.0606 42.4722 25.5 42.4722C16.9394 42.4722 10 35.4272 10 26.7361C10 18.0451 16.9394 11 25.5 11ZM25.5 14.1472C22.2113 14.1472 19.0573 15.4735 16.7319 17.8344C14.4064 20.1953 13.1 23.3973 13.1 26.7361C13.1 30.0749 14.4064 33.2769 16.7319 35.6378C19.0573 37.9987 22.2113 39.325 25.5 39.325C28.7887 39.325 31.9427 37.9987 34.2681 35.6378C36.5936 33.2769 37.9 30.0749 37.9 26.7361C37.9 23.3973 36.5936 20.1953 34.2681 17.8344C31.9427 15.4735 28.7887 14.1472 25.5 14.1472ZM25.5 31.4569C25.9111 31.4569 26.3053 31.6227 26.596 31.9178C26.8867 32.213 27.05 32.6132 27.05 33.0306C27.05 33.4479 26.8867 33.8482 26.596 34.1433C26.3053 34.4384 25.9111 34.6042 25.5 34.6042C25.0889 34.6042 24.6947 34.4384 24.404 34.1433C24.1133 33.8482 23.95 33.4479 23.95 33.0306C23.95 32.6132 24.1133 32.213 24.404 31.9178C24.6947 31.6227 25.0889 31.4569 25.5 31.4569ZM25.5 17.2944C25.9111 17.2944 26.3053 17.4602 26.596 17.7553C26.8867 18.0505 27.05 18.4507 27.05 18.8681V28.3097C27.05 28.7271 26.8867 29.1273 26.596 29.4224C26.3053 29.7175 25.9111 29.8833 25.5 29.8833C25.0889 29.8833 24.6947 29.7175 24.404 29.4224C24.1133 29.1273 23.95 28.7271 23.95 28.3097V18.8681C23.95 18.4507 24.1133 18.0505 24.404 17.7553C24.6947 17.4602 25.0889 17.2944 25.5 17.2944Z" fill="white"/>
<defs>
<linearGradient id="paint0_linear_2254_950" x1="50" y1="49.9666" x2="-1.54224e-06" y2="0.0333683" gradientUnits="userSpaceOnUse">
<stop stop-color="#FDB871"/>
<stop offset="1" stop-color="#F97316"/>
</linearGradient>
</defs>
</svg>
