<svg width="81" height="89" viewBox="0 0 81 89" fill="none" xmlns="http://www.w3.org/2000/svg">
<path d="M54.5 58.5039C54.5 54.0441 43.531 50.4319 30 50.4319M54.5 58.5039C54.5 62.9636 43.531 66.5758 30 66.5758C16.469 66.5758 5.5 62.9636 5.5 58.5039M54.5 58.5039V78.4295C54.5 83.0265 43.531 86.7558 30 86.7558C16.469 86.7558 5.5 83.0306 5.5 78.4295V58.5039M54.5 58.5039C67.884 58.5039 79 54.5203 79 50.4319V10.072M30 50.4319C16.469 50.4319 5.5 54.0441 5.5 58.5039M30 50.4319C14.537 50.4319 2 46.4484 2 42.3599V22.18M30 14.108C14.537 14.108 2 17.7202 2 22.18M2 22.18C2 26.6397 14.537 30.2519 30 30.2519C30 34.3404 41.3855 38.3239 54.7695 38.3239C68.1535 38.3239 79 34.3404 79 30.2519M79 10.072C79 5.61221 68.15 2 54.7695 2C41.389 2 30.539 5.61221 30.539 10.072M79 10.072C79 14.5317 68.15 18.144 54.7695 18.144C41.389 18.144 30.539 14.5317 30.539 10.072M30.539 10.072V51.1019" stroke="#A5D4B1" stroke-width="4"/>
</svg>
