<svg width="104" height="104" viewBox="0 0 104 104" fill="none" xmlns="http://www.w3.org/2000/svg">
<g filter="url(#filter0_d_2135_1293)">
<rect x="12" y="8" width="80" height="80" rx="16" fill="url(#paint0_linear_2135_1293)"/>
</g>
<path d="M45.3334 65.5C46.3229 65.5 47.125 64.7165 47.125 63.75C47.125 62.7835 46.3229 62 45.3334 62C44.3438 62 43.5417 62.7835 43.5417 63.75C43.5417 64.7165 44.3438 65.5 45.3334 65.5Z" stroke="white" stroke-width="5" stroke-linecap="round" stroke-linejoin="round"/>
<path d="M65.0417 65.5C66.0312 65.5 66.8333 64.7165 66.8333 63.75C66.8333 62.7835 66.0312 62 65.0417 62C64.0522 62 63.25 62.7835 63.25 63.75C63.25 64.7165 64.0522 65.5 65.0417 65.5Z" stroke="white" stroke-width="5" stroke-linecap="round" stroke-linejoin="round"/>
<path d="M34.6729 30.5874H38.2562L43.0221 52.3224C43.1969 53.1184 43.6504 53.83 44.3044 54.3347C44.9584 54.8393 45.7721 55.1055 46.6054 55.0874H64.1279C64.9434 55.0861 65.7341 54.8132 66.3693 54.3136C67.0046 53.8141 67.4463 53.1178 67.6217 52.3399L70.5779 39.3374H40.1733" stroke="white" stroke-width="5" stroke-linecap="round" stroke-linejoin="round"/>
<defs>
<filter id="filter0_d_2135_1293" x="0" y="0" width="104" height="104" filterUnits="userSpaceOnUse" color-interpolation-filters="sRGB">
<feFlood flood-opacity="0" result="BackgroundImageFix"/>
<feColorMatrix in="SourceAlpha" type="matrix" values="0 0 0 0 0 0 0 0 0 0 0 0 0 0 0 0 0 0 127 0" result="hardAlpha"/>
<feOffset dy="4"/>
<feGaussianBlur stdDeviation="6"/>
<feComposite in2="hardAlpha" operator="out"/>
<feColorMatrix type="matrix" values="0 0 0 0 0 0 0 0 0 0 0 0 0 0 0 0 0 0 0.0823529 0"/>
<feBlend mode="normal" in2="BackgroundImageFix" result="effect1_dropShadow_2135_1293"/>
<feBlend mode="normal" in="SourceGraphic" in2="effect1_dropShadow_2135_1293" result="shape"/>
</filter>
<linearGradient id="paint0_linear_2135_1293" x1="92" y1="48" x2="12" y2="48" gradientUnits="userSpaceOnUse">
<stop offset="0.5" stop-color="#FBBF24"/>
<stop offset="1" stop-color="#F59E0B"/>
</linearGradient>
</defs>
</svg>
