<svg width="85" height="85" viewBox="0 0 85 85" fill="none" xmlns="http://www.w3.org/2000/svg">
<path d="M21.2188 4.55739C21.2188 0.140857 26.6962 -1.53542 29.3455 1.64739C32.9072 5.92145 35.5748 8.40708 37.9361 9.89239C39.1111 10.6452 40.3924 11.2175 41.7373 11.5899C40.5929 13.2974 39.6853 15.1523 39.0395 17.1037C37.5172 16.5837 36.0621 15.8846 34.7048 15.0213C32.3071 13.5147 29.9184 11.3959 27.2812 8.50711V19.5803C27.2812 20.1416 27.1254 20.6919 26.831 21.1698C26.5366 21.6478 26.1153 22.0346 25.6141 22.2872C20.1032 25.0668 15.9989 29.2681 13.8407 35.0821C13.0071 37.3313 11.1004 39.2925 8.46022 39.8472C7.78283 39.9891 7.17485 40.3596 6.73828 40.8967C6.3017 41.4337 6.0631 42.1045 6.0625 42.7966V48.1316C6.0625 49.5624 7.06281 50.7961 8.46022 51.0901C11.1004 51.6448 13.0071 53.606 13.8407 55.8522C15.9989 61.6692 20.1032 65.8705 25.6141 68.6501C26.1153 68.9027 26.5366 69.2896 26.831 69.7675C27.1254 70.2454 27.2812 70.7957 27.2812 71.357V75.7796C27.2812 76.5836 27.6006 77.3546 28.1691 77.9231C28.7376 78.4915 29.5086 78.8109 30.3125 78.8109H36.375C36.375 77.203 37.0137 75.661 38.1507 74.5241C39.2876 73.3871 40.8296 72.7484 42.4375 72.7484H54.5625C56.1704 72.7484 57.7124 73.3871 58.8493 74.5241C59.9863 75.661 60.625 77.203 60.625 78.8109H66.6875C67.4914 78.8109 68.2625 78.4915 68.8309 77.9231C69.3994 77.3546 69.7188 76.5836 69.7188 75.7796V65.8523C69.7189 65.4359 69.8048 65.0239 69.9712 64.6422C70.1375 64.2604 70.3808 63.917 70.6857 63.6334C75.7873 58.8895 78.8125 52.6209 78.8125 45.4671C78.8125 43.227 78.5094 41.0627 77.9274 38.9954C79.6226 37.0086 80.9629 34.7444 81.8892 32.3024C83.8713 36.407 84.8924 40.9091 84.875 45.4671C84.875 53.985 81.4285 61.457 75.7812 67.1406V75.7796C75.7812 78.1915 74.8232 80.5045 73.1178 82.2099C71.4123 83.9153 69.0993 84.8734 66.6875 84.8734H60.625C59.0171 84.8734 57.4751 84.2347 56.3382 83.0977C55.2012 81.9608 54.5625 80.4188 54.5625 78.8109H42.4375C42.4375 80.4188 41.7988 81.9608 40.6618 83.0977C39.5249 84.2347 37.9829 84.8734 36.375 84.8734H30.3125C27.9007 84.8734 25.5877 83.9153 23.8822 82.2099C22.1768 80.5045 21.2188 78.1915 21.2188 75.7796V73.1637C15.3108 69.7717 10.6791 64.758 8.15709 57.9619C7.93884 57.3769 7.52963 57.089 7.21134 57.0223C5.17208 56.5931 3.34246 55.4757 2.02942 53.8574C0.716393 52.2392 -0.000153826 50.2186 2.47701e-08 48.1346V42.7996C2.47701e-08 38.5013 3.01003 34.7971 7.21438 33.912C7.53266 33.8453 7.94187 33.5604 8.15709 32.9723C10.6791 26.1763 15.3108 21.1626 21.2188 17.7706V4.55739ZM60.625 12.1234C59.0098 12.1234 57.4108 12.4461 55.922 13.0726C54.4332 13.6991 53.0846 14.6168 51.9554 15.7717C50.8262 16.9266 49.9391 18.2955 49.3462 19.798C48.7534 21.3006 48.4667 22.9064 48.503 24.5212C48.5121 24.9395 48.8577 25.6428 49.9186 26.0702L67.0573 32.9966C68.1182 33.427 68.8579 33.1603 69.158 32.8632C70.8654 31.1721 72.0318 29.0118 72.5091 26.6566C72.9864 24.3013 72.753 21.8574 71.8387 19.635C70.9243 17.4126 69.3702 15.5121 67.3736 14.1747C65.3771 12.8372 63.0281 12.1233 60.625 12.1234ZM42.4375 24.2484C42.4374 21.2537 43.1768 18.3053 44.59 15.665C46.0033 13.0247 48.0466 10.7743 50.5386 9.11347C53.0306 7.45266 55.8941 6.4329 58.8749 6.14474C61.8557 5.85657 64.8616 6.30892 67.6256 7.46161C70.3895 8.61431 72.8261 10.4317 74.7189 12.7523C76.6117 15.073 77.9022 17.8252 78.4758 20.7645C79.0494 23.7037 78.8883 26.7391 78.0068 29.6012C77.1253 32.4632 75.5508 35.0633 73.4229 37.1706C70.9191 39.6532 67.3847 39.6684 64.7869 38.6165L47.6482 31.6931C45.0474 30.6413 42.5193 28.1769 42.4405 24.6515L42.4375 24.2484ZM25.7656 39.4046C26.9715 39.4046 28.128 38.9256 28.9808 38.0729C29.8335 37.2202 30.3125 36.0637 30.3125 34.8578C30.3125 33.6519 29.8335 32.4953 28.9808 31.6426C28.128 30.7899 26.9715 30.3109 25.7656 30.3109C24.5597 30.3109 23.4032 30.7899 22.5505 31.6426C21.6978 32.4953 21.2188 33.6519 21.2188 34.8578C21.2188 36.0637 21.6978 37.2202 22.5505 38.0729C23.4032 38.9256 24.5597 39.4046 25.7656 39.4046Z" fill="#A5D4B1"/>
</svg>
