<svg width="104" height="104" viewBox="0 0 104 104" fill="none" xmlns="http://www.w3.org/2000/svg">
<g filter="url(#filter0_d_2254_949)">
<rect x="12" y="8" width="80" height="80" rx="16" fill="url(#paint0_linear_2254_949)"/>
</g>
<path fill-rule="evenodd" clip-rule="evenodd" d="M43.4921 31.125H61.5079C62.6809 31.1251 63.8131 31.5818 64.6888 32.4082C65.5645 33.2346 66.1227 34.3731 66.2572 35.607L68.8327 59.232C68.91 59.9411 68.8449 60.6594 68.6415 61.3399C68.4381 62.0204 68.1011 62.6477 67.6526 63.1806C67.2041 63.7135 66.6542 64.1399 66.0391 64.4319C65.424 64.724 64.7575 64.875 64.0834 64.875H40.9166C40.2425 64.875 39.576 64.724 38.9609 64.4319C38.3458 64.1399 37.7959 63.7135 37.3474 63.1806C36.8989 62.6477 36.5619 62.0204 36.3585 61.3399C36.1551 60.6594 36.0899 59.9411 36.1672 59.232L38.7427 35.607C38.8773 34.3731 39.4355 33.2346 40.3112 32.4082C41.1869 31.5818 42.319 31.1251 43.4921 31.125ZM33.9934 35.0265C34.2624 32.5587 35.3789 30.2818 37.1303 28.6289C38.8818 26.9761 41.146 26.0627 43.4921 26.0625H61.5079C63.854 26.0627 66.1182 26.9761 67.8697 28.6289C69.6211 30.2818 70.7376 32.5587 71.0066 35.0265L73.5821 58.6515C73.7367 60.0696 73.6063 61.5064 73.1996 62.8674C72.7928 64.2284 72.1188 65.483 71.2218 66.5487C70.3248 67.6145 69.2251 68.4674 67.9948 69.0514C66.7646 69.6354 65.4316 69.9374 64.0834 69.9375H40.9166C39.5684 69.9374 38.2354 69.6354 37.0052 69.0514C35.7749 68.4674 34.6752 67.6145 33.7782 66.5487C32.8812 65.483 32.2072 64.2284 31.8004 62.8674C31.3936 61.5064 31.2633 60.0696 31.4179 58.6515L33.9934 35.0265ZM42.9375 38.7188C42.9375 38.0474 43.1894 37.4036 43.6377 36.9289C44.086 36.4542 44.6941 36.1875 45.3281 36.1875C45.9622 36.1875 46.5702 36.4542 47.0185 36.9289C47.4669 37.4036 47.7187 38.0474 47.7187 38.7188V39.5625C47.7187 40.9052 48.2225 42.1928 49.1191 43.1422C50.0158 44.0916 51.2319 44.625 52.5 44.625C53.7681 44.625 54.9842 44.0916 55.8809 43.1422C56.7775 42.1928 57.2812 40.9052 57.2812 39.5625V38.7188C57.2812 38.0474 57.5331 37.4036 57.9814 36.9289C58.4298 36.4542 59.0378 36.1875 59.6719 36.1875C60.3059 36.1875 60.914 36.4542 61.3623 36.9289C61.8106 37.4036 62.0625 38.0474 62.0625 38.7188V39.5625C62.0625 42.2478 61.055 44.8232 59.2617 46.722C57.4684 48.6208 55.0361 49.6875 52.5 49.6875C49.9639 49.6875 47.5316 48.6208 45.7383 46.722C43.945 44.8232 42.9375 42.2478 42.9375 39.5625V38.7188Z" fill="white"/>
<defs>
<filter id="filter0_d_2254_949" x="0" y="0" width="104" height="104" filterUnits="userSpaceOnUse" color-interpolation-filters="sRGB">
<feFlood flood-opacity="0" result="BackgroundImageFix"/>
<feColorMatrix in="SourceAlpha" type="matrix" values="0 0 0 0 0 0 0 0 0 0 0 0 0 0 0 0 0 0 127 0" result="hardAlpha"/>
<feOffset dy="4"/>
<feGaussianBlur stdDeviation="6"/>
<feComposite in2="hardAlpha" operator="out"/>
<feColorMatrix type="matrix" values="0 0 0 0 0 0 0 0 0 0 0 0 0 0 0 0 0 0 0.0823529 0"/>
<feBlend mode="normal" in2="BackgroundImageFix" result="effect1_dropShadow_2254_949"/>
<feBlend mode="normal" in="SourceGraphic" in2="effect1_dropShadow_2254_949" result="shape"/>
</filter>
<linearGradient id="paint0_linear_2254_949" x1="92" y1="48" x2="12" y2="48" gradientUnits="userSpaceOnUse">
<stop offset="0.5" stop-color="#F472B6"/>
<stop offset="1" stop-color="#EC4899"/>
</linearGradient>
</defs>
</svg>
