<svg width="104" height="104" viewBox="0 0 104 104" fill="none" xmlns="http://www.w3.org/2000/svg">
<g filter="url(#filter0_d_2138_1916)">
<rect x="12" y="8" width="80" height="80" rx="16" fill="url(#paint0_linear_2138_1916)"/>
</g>
<path d="M67.5834 58.8332H71.75C73 58.8332 73.8334 57.9665 73.8334 56.6665V50.1665C73.8334 48.2165 72.375 46.4832 70.7084 46.0498C66.9584 44.9665 61.3334 43.6665 61.3334 43.6665C61.3334 43.6665 58.625 40.6332 56.75 38.6832C55.7084 37.8165 54.4584 37.1665 53 37.1665H38.4167C37.1667 37.1665 36.125 38.0332 35.5 39.1165L32.5834 45.3998C32.3075 46.2367 32.1667 47.1152 32.1667 47.9998V56.6665C32.1667 57.9665 33 58.8332 34.25 58.8332H38.4167" stroke="white" stroke-width="5" stroke-linecap="round" stroke-linejoin="round"/>
<path d="M42.5834 63.1667C44.8845 63.1667 46.75 61.2266 46.75 58.8333C46.75 56.4401 44.8845 54.5 42.5834 54.5C40.2822 54.5 38.4167 56.4401 38.4167 58.8333C38.4167 61.2266 40.2822 63.1667 42.5834 63.1667Z" stroke="white" stroke-width="5" stroke-linecap="round" stroke-linejoin="round"/>
<path d="M46.75 58.833H59.25" stroke="white" stroke-width="5" stroke-linecap="round" stroke-linejoin="round"/>
<path d="M63.4167 63.1667C65.7179 63.1667 67.5833 61.2266 67.5833 58.8333C67.5833 56.4401 65.7179 54.5 63.4167 54.5C61.1155 54.5 59.25 56.4401 59.25 58.8333C59.25 61.2266 61.1155 63.1667 63.4167 63.1667Z" stroke="white" stroke-width="5" stroke-linecap="round" stroke-linejoin="round"/>
<defs>
<filter id="filter0_d_2138_1916" x="0" y="0" width="104" height="104" filterUnits="userSpaceOnUse" color-interpolation-filters="sRGB">
<feFlood flood-opacity="0" result="BackgroundImageFix"/>
<feColorMatrix in="SourceAlpha" type="matrix" values="0 0 0 0 0 0 0 0 0 0 0 0 0 0 0 0 0 0 127 0" result="hardAlpha"/>
<feOffset dy="4"/>
<feGaussianBlur stdDeviation="6"/>
<feComposite in2="hardAlpha" operator="out"/>
<feColorMatrix type="matrix" values="0 0 0 0 0 0 0 0 0 0 0 0 0 0 0 0 0 0 0.0823529 0"/>
<feBlend mode="normal" in2="BackgroundImageFix" result="effect1_dropShadow_2138_1916"/>
<feBlend mode="normal" in="SourceGraphic" in2="effect1_dropShadow_2138_1916" result="shape"/>
</filter>
<linearGradient id="paint0_linear_2138_1916" x1="92" y1="48" x2="12" y2="48" gradientUnits="userSpaceOnUse">
<stop stop-color="#60A5FA"/>
<stop offset="1" stop-color="#2563EB"/>
</linearGradient>
</defs>
</svg>
