<svg width="60" height="60" viewBox="0 0 60 60" fill="none" xmlns="http://www.w3.org/2000/svg">
<g clip-path="url(#clip0_2226_2113)">
<g filter="url(#filter0_d_2226_2113)">
<path d="M22.5001 25V15C22.5001 13.0109 23.2903 11.1032 24.6968 9.6967C26.1033 8.29018 28.011 7.5 30.0001 7.5C31.9892 7.5 33.8969 8.29018 35.3034 9.6967C36.7099 11.1032 37.5001 13.0109 37.5001 15V25M45.0001 20L47.2926 49.8075C47.3191 50.151 47.2744 50.4963 47.1612 50.8216C47.0479 51.147 46.8687 51.4455 46.6346 51.6983C46.4006 51.9511 46.1168 52.1529 45.8011 52.2908C45.4854 52.4288 45.1446 52.5 44.8001 52.5H15.2001C14.8556 52.5 14.5148 52.4288 14.1991 52.2908C13.8834 52.1529 13.5996 51.9511 13.3656 51.6983C13.1316 51.4455 12.9523 51.147 12.8391 50.8216C12.7258 50.4963 12.6811 50.151 12.7076 49.8075L15.0001 20H45.0001Z" stroke="white" stroke-width="3.66667" stroke-linecap="round" stroke-linejoin="round" shape-rendering="crispEdges"/>
</g>
</g>
<defs>
<filter id="filter0_d_2226_2113" x="6.8667" y="5.6665" width="46.2666" height="56.667" filterUnits="userSpaceOnUse" color-interpolation-filters="sRGB">
<feFlood flood-opacity="0" result="BackgroundImageFix"/>
<feColorMatrix in="SourceAlpha" type="matrix" values="0 0 0 0 0 0 0 0 0 0 0 0 0 0 0 0 0 0 127 0" result="hardAlpha"/>
<feOffset dy="4"/>
<feGaussianBlur stdDeviation="2"/>
<feComposite in2="hardAlpha" operator="out"/>
<feColorMatrix type="matrix" values="0 0 0 0 0 0 0 0 0 0 0 0 0 0 0 0 0 0 0.25 0"/>
<feBlend mode="normal" in2="BackgroundImageFix" result="effect1_dropShadow_2226_2113"/>
<feBlend mode="normal" in="SourceGraphic" in2="effect1_dropShadow_2226_2113" result="shape"/>
</filter>
<clipPath id="clip0_2226_2113">
<rect width="60" height="60" fill="white"/>
</clipPath>
</defs>
</svg>
