<svg width="58" height="59" viewBox="0 0 58 59" fill="none" xmlns="http://www.w3.org/2000/svg">
<g clip-path="url(#clip0_2226_2092)">
<g filter="url(#filter0_d_2226_2092)">
<path d="M46.1608 44.25H19.2439C12.1534 44.25 8.61062 44.25 6.4477 41.504C2.34662 36.2924 7.02045 22.4274 9.85037 17.2083C10.8098 23.1083 20.6915 22.9436 24.2899 22.125C21.8926 17.2108 25.0923 15.5711 26.6921 14.75H26.6969C33.8334 23.3542 49.0946 28.0348 52.8332 37.4134C54.4499 41.4647 49.8438 44.25 46.1608 44.25Z" stroke="white" stroke-width="4.3125" stroke-linecap="round" stroke-linejoin="round"/>
<path d="M4.8335 34.4165C14.8989 37.9319 21.1001 38.9497 29.0533 36.393C31.4627 35.6186 32.6662 35.2302 33.4178 35.2818C34.167 35.3359 35.7016 36.0611 38.7659 37.5165C42.5915 39.3307 47.8429 40.3755 53.1668 37.7549" stroke="white" stroke-width="4.3125" stroke-linejoin="round"/>
<path d="M32.625 23.354L36.25 19.6665M37.4583 27.0415L41.0833 23.354" stroke="white" stroke-width="4.3125" stroke-linecap="round" stroke-linejoin="round"/>
</g>
</g>
<defs>
<filter id="filter0_d_2226_2092" x="-1.32275" y="12.5938" width="60.645" height="41.8125" filterUnits="userSpaceOnUse" color-interpolation-filters="sRGB">
<feFlood flood-opacity="0" result="BackgroundImageFix"/>
<feColorMatrix in="SourceAlpha" type="matrix" values="0 0 0 0 0 0 0 0 0 0 0 0 0 0 0 0 0 0 127 0" result="hardAlpha"/>
<feOffset dy="4"/>
<feGaussianBlur stdDeviation="2"/>
<feComposite in2="hardAlpha" operator="out"/>
<feColorMatrix type="matrix" values="0 0 0 0 0 0 0 0 0 0 0 0 0 0 0 0 0 0 0.25 0"/>
<feBlend mode="normal" in2="BackgroundImageFix" result="effect1_dropShadow_2226_2092"/>
<feBlend mode="normal" in="SourceGraphic" in2="effect1_dropShadow_2226_2092" result="shape"/>
</filter>
<clipPath id="clip0_2226_2092">
<rect width="58" height="59" fill="white"/>
</clipPath>
</defs>
</svg>
