<svg width="54" height="54" viewBox="0 0 54 54" fill="none" xmlns="http://www.w3.org/2000/svg">
<mask id="mask0_2226_2067" style="mask-type:luminance" maskUnits="userSpaceOnUse" x="7" y="2" width="43" height="50">
<path d="M28.6875 21.375H37.125C37.7217 21.375 38.294 21.6121 38.716 22.034C39.1379 22.456 39.375 23.0283 39.375 23.625V49.5H14.625V23.625C14.625 23.0283 14.8621 22.456 15.284 22.034C15.706 21.6121 16.2783 21.375 16.875 21.375H19.6875" stroke="white" stroke-width="4.5" stroke-linecap="round" stroke-linejoin="round"/>
<path d="M19.125 9H16.3125C14.6715 9 13.0977 9.6519 11.9373 10.8123C10.7769 11.9727 10.125 13.5465 10.125 15.1875C10.125 16.8285 10.7769 18.4023 11.9373 19.5627C13.0977 20.7231 14.6715 21.375 16.3125 21.375H21.375V33.1875C21.375 33.9334 21.6713 34.6488 22.1988 35.1762C22.7262 35.7037 23.4416 36 24.1875 36C24.9334 36 25.6488 35.7037 26.1762 35.1762C26.7037 34.6488 27 33.9334 27 33.1875V21.375H37.6875C39.3285 21.375 40.9023 20.7231 42.0627 19.5627C43.2231 18.4023 43.875 16.8285 43.875 15.1875C43.875 13.5465 43.2231 11.9727 42.0627 10.8123C40.9023 9.6519 39.3285 9 37.6875 9H32.625C32.625 9 31.5 4.5 25.875 4.5C20.25 4.5 19.125 9 19.125 9Z" fill="#555555" stroke="white" stroke-width="4.5" stroke-linecap="round" stroke-linejoin="round"/>
<path d="M39.375 23.625H45C45.5967 23.625 46.169 23.8621 46.591 24.284C47.0129 24.706 47.25 25.2783 47.25 25.875V31.5C47.25 32.6935 46.7759 33.8381 45.932 34.682C45.0881 35.5259 43.9435 36 42.75 36H39.375" stroke="white" stroke-width="4.5" stroke-linecap="round"/>
</mask>
<g mask="url(#mask0_2226_2067)">
<path d="M0 0H54V54H0V0Z" fill="white"/>
</g>
</svg>
