<svg width="50" height="52" viewBox="0 0 50 52" fill="none" xmlns="http://www.w3.org/2000/svg">
<g clip-path="url(#clip0_2226_2277)">
<g filter="url(#filter0_d_2226_2277)">
<path d="M39.5832 36.8332H43.7498C44.9998 36.8332 45.8332 35.9665 45.8332 34.6665V28.1665C45.8332 26.2165 44.3748 24.4832 42.7082 24.0498C38.9582 22.9665 33.3332 21.6665 33.3332 21.6665C33.3332 21.6665 30.6248 18.6332 28.7498 16.6832C27.7082 15.8165 26.4582 15.1665 24.9998 15.1665H10.4165C9.1665 15.1665 8.12484 16.0332 7.49984 17.1165L4.58317 23.3998C4.3073 24.2367 4.1665 25.1152 4.1665 25.9998V34.6665C4.1665 35.9665 4.99984 36.8332 6.24984 36.8332H10.4165" stroke="white" stroke-width="5" stroke-linecap="round" stroke-linejoin="round"/>
<path d="M14.5832 41.1667C16.8844 41.1667 18.7498 39.2266 18.7498 36.8333C18.7498 34.4401 16.8844 32.5 14.5832 32.5C12.282 32.5 10.4165 34.4401 10.4165 36.8333C10.4165 39.2266 12.282 41.1667 14.5832 41.1667Z" stroke="white" stroke-width="5" stroke-linecap="round" stroke-linejoin="round"/>
<path d="M18.75 36.833H31.25" stroke="white" stroke-width="5" stroke-linecap="round" stroke-linejoin="round"/>
<path d="M35.4167 41.1667C37.7179 41.1667 39.5833 39.2266 39.5833 36.8333C39.5833 34.4401 37.7179 32.5 35.4167 32.5C33.1155 32.5 31.25 34.4401 31.25 36.8333C31.25 39.2266 33.1155 41.1667 35.4167 41.1667Z" stroke="white" stroke-width="5" stroke-linecap="round" stroke-linejoin="round"/>
</g>
</g>
<defs>
<filter id="filter0_d_2226_2277" x="-2.3335" y="12.6665" width="54.6665" height="39" filterUnits="userSpaceOnUse" color-interpolation-filters="sRGB">
<feFlood flood-opacity="0" result="BackgroundImageFix"/>
<feColorMatrix in="SourceAlpha" type="matrix" values="0 0 0 0 0 0 0 0 0 0 0 0 0 0 0 0 0 0 127 0" result="hardAlpha"/>
<feOffset dy="4"/>
<feGaussianBlur stdDeviation="2"/>
<feComposite in2="hardAlpha" operator="out"/>
<feColorMatrix type="matrix" values="0 0 0 0 0 0 0 0 0 0 0 0 0 0 0 0 0 0 0.25 0"/>
<feBlend mode="normal" in2="BackgroundImageFix" result="effect1_dropShadow_2226_2277"/>
<feBlend mode="normal" in="SourceGraphic" in2="effect1_dropShadow_2226_2277" result="shape"/>
</filter>
<clipPath id="clip0_2226_2277">
<rect width="50" height="52" fill="white"/>
</clipPath>
</defs>
</svg>
