<svg width="50" height="50" viewBox="0 0 50 50" fill="none" xmlns="http://www.w3.org/2000/svg">
<g clip-path="url(#clip0_2226_2108)">
<g filter="url(#filter0_d_2226_2108)">
<path d="M4.1665 25H45.8332M41.6665 25V41.6666C41.6665 42.7717 41.2275 43.8315 40.4461 44.6129C39.6647 45.3943 38.6049 45.8333 37.4998 45.8333H12.4998C11.3948 45.8333 10.335 45.3943 9.55356 44.6129C8.77216 43.8315 8.33317 42.7717 8.33317 41.6666V25M8.33317 16.6666L41.6665 8.3333M18.4582 14.125L17.5207 10.3541C17.3863 9.82337 17.3579 9.27133 17.4371 8.72958C17.5162 8.18784 17.7014 7.667 17.9819 7.19684C18.2625 6.72668 18.6329 6.31642 19.0721 5.98952C19.5113 5.66261 20.0106 5.42546 20.5415 5.29163L24.5832 4.29163C25.1153 4.15764 25.6687 4.1301 26.2116 4.21058C26.7544 4.29106 27.276 4.47798 27.7464 4.7606C28.2168 5.04323 28.6267 5.416 28.9527 5.8575C29.2786 6.29899 29.5141 6.80053 29.6457 7.3333L30.5832 11.0833" stroke="white" stroke-width="5.06667" stroke-linecap="round" stroke-linejoin="round" shape-rendering="crispEdges"/>
</g>
</g>
<defs>
<filter id="filter0_d_2226_2108" x="-2.3667" y="1.63232" width="54.7334" height="54.7344" filterUnits="userSpaceOnUse" color-interpolation-filters="sRGB">
<feFlood flood-opacity="0" result="BackgroundImageFix"/>
<feColorMatrix in="SourceAlpha" type="matrix" values="0 0 0 0 0 0 0 0 0 0 0 0 0 0 0 0 0 0 127 0" result="hardAlpha"/>
<feOffset dy="4"/>
<feGaussianBlur stdDeviation="2"/>
<feComposite in2="hardAlpha" operator="out"/>
<feColorMatrix type="matrix" values="0 0 0 0 0 0 0 0 0 0 0 0 0 0 0 0 0 0 0.25 0"/>
<feBlend mode="normal" in2="BackgroundImageFix" result="effect1_dropShadow_2226_2108"/>
<feBlend mode="normal" in="SourceGraphic" in2="effect1_dropShadow_2226_2108" result="shape"/>
</filter>
<clipPath id="clip0_2226_2108">
<rect width="50" height="50" fill="white"/>
</clipPath>
</defs>
</svg>
