<svg width="61" height="61" viewBox="0 0 61 61" fill="none" xmlns="http://www.w3.org/2000/svg">
<g clip-path="url(#clip0_2226_2044)">
<g filter="url(#filter0_d_2226_2044)">
<path d="M25.2259 53.6925L18.9353 42.0009L7.24365 35.7103L11.7551 31.2623L20.9687 32.8509L27.4499 26.3696L7.30719 17.7915L12.6447 12.3269L37.1082 16.6478L44.9874 8.76859C45.9617 7.79428 47.169 7.30713 48.6093 7.30713C50.0496 7.30713 51.2568 7.79428 52.2312 8.76859C53.2055 9.74289 53.6926 10.9392 53.6926 12.3574C53.6926 13.7757 53.2055 14.9728 52.2312 15.9488L44.2884 23.8915L48.6093 48.2915L43.2082 53.6925L34.5666 33.5498L28.0853 40.0311L29.7374 49.1811L25.2259 53.6925Z" fill="white"/>
</g>
</g>
<defs>
<filter id="filter0_d_2226_2044" x="3.24365" y="7.30713" width="54.4487" height="54.3853" filterUnits="userSpaceOnUse" color-interpolation-filters="sRGB">
<feFlood flood-opacity="0" result="BackgroundImageFix"/>
<feColorMatrix in="SourceAlpha" type="matrix" values="0 0 0 0 0 0 0 0 0 0 0 0 0 0 0 0 0 0 127 0" result="hardAlpha"/>
<feOffset dy="4"/>
<feGaussianBlur stdDeviation="2"/>
<feComposite in2="hardAlpha" operator="out"/>
<feColorMatrix type="matrix" values="0 0 0 0 0 0 0 0 0 0 0 0 0 0 0 0 0 0 0.25 0"/>
<feBlend mode="normal" in2="BackgroundImageFix" result="effect1_dropShadow_2226_2044"/>
<feBlend mode="normal" in="SourceGraphic" in2="effect1_dropShadow_2226_2044" result="shape"/>
</filter>
<clipPath id="clip0_2226_2044">
<rect width="61" height="61" fill="white"/>
</clipPath>
</defs>
</svg>
