<svg width="53" height="53" viewBox="0 0 53 53" fill="none" xmlns="http://www.w3.org/2000/svg">
<g clip-path="url(#clip0_2226_2088)">
<g filter="url(#filter0_d_2226_2088)">
<path d="M32.6258 24.5739C34.2729 26.2274 35.1976 28.4661 35.1976 30.7999C35.1976 33.1337 34.2729 35.3724 32.6258 37.0259C30.9723 38.673 28.7336 39.5977 26.3998 39.5977C24.066 39.5977 21.8273 38.673 20.1738 37.0259L32.6258 24.5739ZM13.1998 4.3999H39.5998C40.7668 4.3999 41.8859 4.86347 42.7111 5.68863C43.5362 6.51379 43.9998 7.63295 43.9998 8.7999V43.9999C43.9998 45.1669 43.5362 46.286 42.7111 47.1112C41.8859 47.9363 40.7668 48.3999 39.5998 48.3999H13.1998C12.0329 48.3999 10.9137 47.9363 10.0885 47.1112C9.26337 46.286 8.7998 45.1669 8.7998 43.9999V8.7999C8.7998 7.63295 9.26337 6.51379 10.0885 5.68863C10.9137 4.86347 12.0329 4.3999 13.1998 4.3999ZM15.3998 8.7999C14.8163 8.7999 14.2567 9.03169 13.8442 9.44427C13.4316 9.85685 13.1998 10.4164 13.1998 10.9999C13.1998 11.5834 13.4316 12.143 13.8442 12.5555C14.2567 12.9681 14.8163 13.1999 15.3998 13.1999C15.9833 13.1999 16.5429 12.9681 16.9554 12.5555C17.368 12.143 17.5998 11.5834 17.5998 10.9999C17.5998 10.4164 17.368 9.85685 16.9554 9.44427C16.5429 9.03169 15.9833 8.7999 15.3998 8.7999ZM21.9998 8.7999C21.4163 8.7999 20.8567 9.03169 20.4442 9.44427C20.0316 9.85685 19.7998 10.4164 19.7998 10.9999C19.7998 11.5834 20.0316 12.143 20.4442 12.5555C20.8567 12.9681 21.4163 13.1999 21.9998 13.1999C22.5833 13.1999 23.1429 12.9681 23.5554 12.5555C23.968 12.143 24.1998 11.5834 24.1998 10.9999C24.1998 10.4164 23.968 9.85685 23.5554 9.44427C23.1429 9.03169 22.5833 8.7999 21.9998 8.7999ZM26.3998 17.5999C22.8989 17.5999 19.5415 18.9906 17.066 21.4661C14.5905 23.9416 13.1998 27.299 13.1998 30.7999C13.1998 34.3008 14.5905 37.6582 17.066 40.1337C19.5415 42.6092 22.8989 43.9999 26.3998 43.9999C29.9007 43.9999 33.2581 42.6092 35.7336 40.1337C38.2091 37.6582 39.5998 34.3008 39.5998 30.7999C39.5998 27.299 38.2091 23.9416 35.7336 21.4661C33.2581 18.9906 29.9007 17.5999 26.3998 17.5999Z" fill="white"/>
</g>
</g>
<defs>
<filter id="filter0_d_2226_2088" x="4.7998" y="4.3999" width="43.2002" height="52" filterUnits="userSpaceOnUse" color-interpolation-filters="sRGB">
<feFlood flood-opacity="0" result="BackgroundImageFix"/>
<feColorMatrix in="SourceAlpha" type="matrix" values="0 0 0 0 0 0 0 0 0 0 0 0 0 0 0 0 0 0 127 0" result="hardAlpha"/>
<feOffset dy="4"/>
<feGaussianBlur stdDeviation="2"/>
<feComposite in2="hardAlpha" operator="out"/>
<feColorMatrix type="matrix" values="0 0 0 0 0 0 0 0 0 0 0 0 0 0 0 0 0 0 0.25 0"/>
<feBlend mode="normal" in2="BackgroundImageFix" result="effect1_dropShadow_2226_2088"/>
<feBlend mode="normal" in="SourceGraphic" in2="effect1_dropShadow_2226_2088" result="shape"/>
</filter>
<clipPath id="clip0_2226_2088">
<rect width="52.8" height="52.8" fill="white"/>
</clipPath>
</defs>
</svg>
