<svg width="56" height="56" viewBox="0 0 56 56" fill="none" xmlns="http://www.w3.org/2000/svg">
<g clip-path="url(#clip0_2226_2076)">
<g filter="url(#filter0_d_2226_2076)">
<path d="M39.5931 5C42.1737 5 44.1547 6.967 45.6224 9.08333L46.1194 9.83233L46.5744 10.579C46.7191 10.8232 46.8575 11.0628 46.9897 11.2977C48.8261 14.5807 50.4244 18.867 51.4814 23.102C52.5314 27.3043 53.1124 31.6933 52.7414 35.1443C52.3681 38.6093 50.5831 42.3333 46.5931 42.3333C43.0137 42.3333 40.1927 40.42 37.9014 38.551L35.3114 36.3787C33.1577 34.6147 30.8011 33 27.9264 33C25.0517 33 22.6927 34.6147 20.5437 36.3787L17.9537 38.5487C15.6577 40.42 12.8367 42.3333 9.25973 42.3333C5.2674 42.3333 3.4824 38.6093 3.1114 35.1443C2.74273 31.691 3.3214 27.3043 4.3714 23.102C5.4284 18.867 7.02673 14.5807 8.86306 11.2977L9.2784 10.5767L9.7334 9.83233L10.2304 9.08333C11.6981 6.967 13.6791 5 16.2597 5C17.4497 5 18.6327 5.28933 19.7947 5.63L21.1784 6.05467C21.4071 6.12467 21.6342 6.19156 21.8597 6.25533C23.8781 6.834 25.9431 7.33333 27.9264 7.33333C29.9097 7.33333 31.9747 6.834 33.9931 6.25533L36.0581 5.63233C37.2201 5.28933 38.4031 5 39.5931 5ZM19.7597 14.3333C18.2126 14.3333 16.7289 14.9479 15.6349 16.0419C14.541 17.1358 13.9264 18.6196 13.9264 20.1667C13.9264 21.7138 14.541 23.1975 15.6349 24.2915C16.7289 25.3854 18.2126 26 19.7597 26C21.3068 26 22.7906 25.3854 23.8845 24.2915C24.9785 23.1975 25.5931 21.7138 25.5931 20.1667C25.5931 18.6196 24.9785 17.1358 23.8845 16.0419C22.7906 14.9479 21.3068 14.3333 19.7597 14.3333ZM36.0931 14.3333C35.4742 14.3333 34.8807 14.5792 34.4431 15.0168C34.0056 15.4543 33.7597 16.0478 33.7597 16.6667V17.8333H32.5931C31.9742 17.8333 31.3807 18.0792 30.9431 18.5168C30.5056 18.9543 30.2597 19.5478 30.2597 20.1667C30.2597 20.7855 30.5056 21.379 30.9431 21.8166C31.3807 22.2542 31.9742 22.5 32.5931 22.5H33.7597V23.6667C33.7597 24.2855 34.0056 24.879 34.4431 25.3166C34.8807 25.7542 35.4742 26 36.0931 26C36.7119 26 37.3054 25.7542 37.743 25.3166C38.1806 24.879 38.4264 24.2855 38.4264 23.6667V22.5H39.5931C40.2119 22.5 40.8054 22.2542 41.243 21.8166C41.6806 21.379 41.9264 20.7855 41.9264 20.1667C41.9264 19.5478 41.6806 18.9543 41.243 18.5168C40.8054 18.0792 40.2119 17.8333 39.5931 17.8333H38.4264V16.6667C38.4264 16.0478 38.1806 15.4543 37.743 15.0168C37.3054 14.5792 36.7119 14.3333 36.0931 14.3333ZM19.7597 19C20.0691 19 20.3659 19.1229 20.5847 19.3417C20.8035 19.5605 20.9264 19.8572 20.9264 20.1667C20.9264 20.4761 20.8035 20.7728 20.5847 20.9916C20.3659 21.2104 20.0691 21.3333 19.7597 21.3333C19.4503 21.3333 19.1536 21.2104 18.9348 20.9916C18.716 20.7728 18.5931 20.4761 18.5931 20.1667C18.5931 19.8572 18.716 19.5605 18.9348 19.3417C19.1536 19.1229 19.4503 19 19.7597 19Z" fill="white"/>
</g>
</g>
<defs>
<filter id="filter0_d_2226_2076" x="-1" y="5" width="57.8535" height="45.3335" filterUnits="userSpaceOnUse" color-interpolation-filters="sRGB">
<feFlood flood-opacity="0" result="BackgroundImageFix"/>
<feColorMatrix in="SourceAlpha" type="matrix" values="0 0 0 0 0 0 0 0 0 0 0 0 0 0 0 0 0 0 127 0" result="hardAlpha"/>
<feOffset dy="4"/>
<feGaussianBlur stdDeviation="2"/>
<feComposite in2="hardAlpha" operator="out"/>
<feColorMatrix type="matrix" values="0 0 0 0 0 0 0 0 0 0 0 0 0 0 0 0 0 0 0.25 0"/>
<feBlend mode="normal" in2="BackgroundImageFix" result="effect1_dropShadow_2226_2076"/>
<feBlend mode="normal" in="SourceGraphic" in2="effect1_dropShadow_2226_2076" result="shape"/>
</filter>
<clipPath id="clip0_2226_2076">
<rect width="56" height="56" fill="white"/>
</clipPath>
</defs>
</svg>
