<svg width="55" height="55" viewBox="0 0 55 55" fill="none" xmlns="http://www.w3.org/2000/svg">
<g clip-path="url(#clip0_2226_2082)">
<g filter="url(#filter0_d_2226_2082)">
<path d="M46.979 33.229C47.5868 33.229 48.1697 32.9876 48.5994 32.5578C49.0292 32.128 49.2707 31.5451 49.2707 30.9373V12.604C49.2707 10.7806 48.5463 9.03196 47.257 7.74265C45.9677 6.45333 44.219 5.729 42.3957 5.729H12.604C10.7806 5.729 9.03194 6.45333 7.74263 7.74265C6.45332 9.03196 5.72899 10.7806 5.72899 12.604V30.9373C5.72899 31.5451 5.97043 32.128 6.4002 32.5578C6.82997 32.9876 7.41287 33.229 8.02065 33.229C8.62844 33.229 9.21134 32.9876 9.64111 32.5578C10.0709 32.128 10.3123 31.5451 10.3123 30.9373V12.604C10.3123 11.9962 10.5538 11.4133 10.9835 10.9836C11.4133 10.5538 11.9962 10.3123 12.604 10.3123H42.3957C43.0034 10.3123 43.5863 10.5538 44.0161 10.9836C44.4459 11.4133 44.6873 11.9962 44.6873 12.604V30.9373C44.6873 31.5451 44.9288 32.128 45.3585 32.5578C45.7883 32.9876 46.3712 33.229 46.979 33.229ZM53.854 36.6665H36.6665C36.3626 36.6665 36.0711 36.7872 35.8563 37.0021C35.6414 37.217 35.5207 37.5084 35.5207 37.8123C35.5207 39.4394 32.0832 41.2498 27.4998 41.2498C22.9165 41.2498 19.479 39.4394 19.479 37.8123C19.479 37.5084 19.3583 37.217 19.1434 37.0021C18.9285 36.7872 18.637 36.6665 18.3332 36.6665H1.14565C0.962596 36.6692 0.782611 36.714 0.619665 36.7974C0.456719 36.8809 0.315193 37.0008 0.206071 37.1478C0.0998388 37.295 0.0316881 37.4662 0.00769644 37.6461C-0.0162953 37.826 0.00461781 38.0091 0.0685706 38.179C1.14201 41.4085 3.20515 44.218 5.96529 46.209C8.72542 48.1999 12.0424 49.2711 15.4457 49.2707H39.554C42.969 49.2856 46.3013 48.2211 49.0752 46.2291C51.8491 44.2372 53.9227 41.4197 54.9998 38.179C55.0638 38.0091 55.0847 37.826 55.0607 37.6461C55.0367 37.4662 54.9686 37.295 54.8623 37.1478C54.7464 36.9912 54.5938 36.8655 54.4181 36.7816C54.2423 36.6977 54.0486 36.6582 53.854 36.6665Z" fill="white"/>
</g>
<path d="M24.2688 32.2894C24.2688 32.9284 24.4583 33.5532 24.8134 34.0845C25.1684 34.6159 25.6731 35.0301 26.2635 35.2746C26.8539 35.5192 27.5036 35.5832 28.1304 35.4585C28.7572 35.3338 29.333 35.0261 29.7849 34.5742C30.2368 34.1223 30.5445 33.5465 30.6692 32.9197C30.7939 32.2929 30.7299 31.6432 30.4853 31.0528C30.2408 30.4624 29.8266 29.9577 29.2952 29.6027C28.7639 29.2476 28.1391 29.0581 27.5001 29.0581C26.6431 29.0581 25.8212 29.3985 25.2152 30.0045C24.6092 30.6105 24.2688 31.4324 24.2688 32.2894ZM36.6667 20.6248C37.1421 20.6268 37.6064 20.4809 37.9952 20.2073C38.384 19.9337 38.6781 19.5459 38.8368 19.0977C38.9954 18.6496 39.0107 18.1631 38.8806 17.7059C38.7504 17.2486 38.4813 16.8431 38.1105 16.5456C35.1153 14.0997 31.367 12.7637 27.5001 12.7637C23.6331 12.7637 19.8848 14.0997 16.8896 16.5456C16.4156 16.9285 16.113 17.4841 16.0485 18.09C15.9841 18.696 16.163 19.3028 16.5459 19.7769C16.9288 20.2509 17.4843 20.5535 18.0903 20.6179C18.6963 20.6824 19.3031 20.5035 19.7771 20.1206C21.9576 18.3411 24.6856 17.3692 27.5001 17.3692C30.3145 17.3692 33.0425 18.3411 35.223 20.1206C35.6323 20.449 36.1419 20.627 36.6667 20.6248Z" fill="white"/>
<path d="M34.6269 26.6523C34.8225 26.4235 34.9712 26.1585 35.0644 25.8724C35.1576 25.5862 35.1935 25.2845 35.1701 24.9844C35.1467 24.6844 35.0644 24.3919 34.9279 24.1236C34.7915 23.8554 34.6035 23.6166 34.3748 23.421C32.4562 21.8655 30.0614 21.0166 27.5915 21.0166C25.1215 21.0166 22.7267 21.8655 20.8081 23.421C20.5727 23.6101 20.377 23.8439 20.2322 24.1089C20.0874 24.3739 19.9965 24.6649 19.9645 24.9652C19.9326 25.2654 19.9603 25.5691 20.0461 25.8586C20.1319 26.1481 20.274 26.4178 20.4644 26.6523C20.6801 26.9181 20.9526 27.1323 21.2619 27.279C21.5712 27.4258 21.9095 27.5013 22.2519 27.5002C22.7688 27.4972 23.2695 27.3195 23.6727 26.996C24.7801 26.0953 26.164 25.6035 27.5915 25.6035C29.0189 25.6035 30.4028 26.0953 31.5102 26.996C31.9761 27.3455 32.5576 27.5044 33.1365 27.4406C33.7154 27.3767 34.2483 27.0949 34.6269 26.6523Z" fill="white"/>
</g>
<defs>
<filter id="filter0_d_2226_2082" x="-4.00195" y="5.729" width="63.0723" height="51.542" filterUnits="userSpaceOnUse" color-interpolation-filters="sRGB">
<feFlood flood-opacity="0" result="BackgroundImageFix"/>
<feColorMatrix in="SourceAlpha" type="matrix" values="0 0 0 0 0 0 0 0 0 0 0 0 0 0 0 0 0 0 127 0" result="hardAlpha"/>
<feOffset dy="4"/>
<feGaussianBlur stdDeviation="2"/>
<feComposite in2="hardAlpha" operator="out"/>
<feColorMatrix type="matrix" values="0 0 0 0 0 0 0 0 0 0 0 0 0 0 0 0 0 0 0.25 0"/>
<feBlend mode="normal" in2="BackgroundImageFix" result="effect1_dropShadow_2226_2082"/>
<feBlend mode="normal" in="SourceGraphic" in2="effect1_dropShadow_2226_2082" result="shape"/>
</filter>
<clipPath id="clip0_2226_2082">
<rect width="55" height="55" fill="white"/>
</clipPath>
</defs>
</svg>
