<svg width="53" height="53" viewBox="0 0 53 53" fill="none" xmlns="http://www.w3.org/2000/svg">
<g clip-path="url(#clip0_2226_2117)">
<g filter="url(#filter0_d_2226_2117)">
<path fill-rule="evenodd" clip-rule="evenodd" d="M20.2383 8.76453C19.8178 9.78553 19.245 11.2961 18.8759 12.8011C15.7255 12.9835 13.4386 13.2661 11.8386 13.5332C9.34796 13.9489 7.66 16.0583 7.41974 18.5716C7.1786 21.094 6.91309 24.9957 6.91309 29.9184C6.91309 34.842 7.1786 38.7428 7.41974 41.2652C7.65913 43.7776 9.34796 45.8871 11.8386 46.3037C14.5198 46.7522 19.1284 47.239 26.5 47.239C33.8717 47.239 38.4794 46.7522 41.1615 46.3037C43.6521 45.888 45.3401 43.7785 45.5803 41.2652C45.8215 38.7419 46.087 34.842 46.087 29.9184C46.087 24.9948 45.8215 21.094 45.5803 18.5716C45.341 16.0592 43.6521 13.9498 41.1615 13.5332C39.5615 13.2651 37.2746 12.9844 34.125 12.8011C33.7559 11.2961 33.1831 9.78462 32.7626 8.76453C32.1898 7.37524 30.9998 6.2494 29.4268 5.9905C28.4582 5.83565 27.4798 5.75885 26.5 5.76078C25.3179 5.76078 24.3289 5.86652 23.5742 5.9905C22.0011 6.2494 20.8111 7.37615 20.2383 8.76453ZM26.5 9.40722C25.5163 9.40722 24.7085 9.49473 24.1148 9.59318C23.8641 9.63421 23.5942 9.82382 23.4358 10.2103C23.1043 11.0086 22.8072 11.8219 22.5452 12.648C23.764 12.6152 25.0822 12.5985 26.5 12.5978C27.9178 12.5985 29.2364 12.6152 30.4557 12.648C30.194 11.8219 29.8972 11.0086 29.5661 10.2103C29.4067 9.82382 29.1369 9.63421 28.8853 9.59318C28.0959 9.46765 27.2985 9.40548 26.5 9.40722ZM24.4978 38.9069C23.6795 38.7911 23.1528 38.0564 23.1224 37.1912C23.0937 36.3662 23.0614 35.1629 23.0406 33.5421C21.8787 33.5273 20.717 33.4988 19.5558 33.4564C18.7297 33.4245 18.028 32.873 17.9175 32.016C17.8313 31.3205 17.7903 30.6197 17.7947 29.9184C17.7947 29.0451 17.8478 28.3514 17.9166 27.8208C18.0272 26.9639 18.7288 26.4124 19.5549 26.3805C20.3428 26.3504 21.4919 26.3167 23.0397 26.2948C23.0606 24.6739 23.0928 23.4706 23.1215 22.6456C23.152 21.7805 23.6786 21.0457 24.4969 20.93C25.0036 20.8579 25.6661 20.8023 26.5 20.8023C27.334 20.8023 27.9965 20.8579 28.5031 20.93C29.3214 21.0457 29.8481 21.7805 29.8786 22.6456C29.9073 23.4706 29.9395 24.6739 29.9604 26.2948C31.5082 26.3167 32.6573 26.3504 33.4451 26.3805C34.2713 26.4124 34.9729 26.9639 35.0835 27.8208C35.1523 28.3514 35.2054 29.0451 35.2054 29.9184C35.2054 30.7917 35.1523 31.4855 35.0835 32.016C34.9729 32.873 34.2713 33.4245 33.4451 33.4564C32.6573 33.4865 31.5082 33.5202 29.9604 33.5421C29.9463 34.7587 29.9191 35.9752 29.8786 37.1912C29.8481 38.0564 29.3214 38.7911 28.5031 38.9069C27.9965 38.9789 27.334 39.0345 26.5 39.0345C25.6661 39.0345 25.0036 38.9789 24.4969 38.9069H24.4978Z" fill="white"/>
</g>
</g>
<defs>
<filter id="filter0_d_2226_2117" x="2.91309" y="5.76074" width="47.1738" height="49.478" filterUnits="userSpaceOnUse" color-interpolation-filters="sRGB">
<feFlood flood-opacity="0" result="BackgroundImageFix"/>
<feColorMatrix in="SourceAlpha" type="matrix" values="0 0 0 0 0 0 0 0 0 0 0 0 0 0 0 0 0 0 127 0" result="hardAlpha"/>
<feOffset dy="4"/>
<feGaussianBlur stdDeviation="2"/>
<feComposite in2="hardAlpha" operator="out"/>
<feColorMatrix type="matrix" values="0 0 0 0 0 0 0 0 0 0 0 0 0 0 0 0 0 0 0.25 0"/>
<feBlend mode="normal" in2="BackgroundImageFix" result="effect1_dropShadow_2226_2117"/>
<feBlend mode="normal" in="SourceGraphic" in2="effect1_dropShadow_2226_2117" result="shape"/>
</filter>
<clipPath id="clip0_2226_2117">
<rect width="53" height="53" fill="white"/>
</clipPath>
</defs>
</svg>
