<svg width="52" height="52" viewBox="0 0 52 52" fill="none" xmlns="http://www.w3.org/2000/svg">
<g clip-path="url(#clip0_2226_2270)">
<g filter="url(#filter0_d_2226_2270)">
<path d="M8.01904 8.7619C8.10308 7.77719 8.547 6.86076 9.26262 6.1946C9.97824 5.52844 10.9132 5.16129 11.8819 5.16606C12.8006 5.16606 13.65 5.49106 14.3176 6.03481C15.0322 5.47173 15.9096 5.16622 16.8125 5.16606C17.7517 5.16606 18.6173 5.48898 19.3074 6.03481C19.9984 5.47011 20.8579 5.16356 21.7431 5.16606C23.7358 5.16606 25.4324 6.70148 25.606 8.7619C25.7775 10.7931 26 13.9348 26 16.6244C26.0002 18.2399 25.5913 19.8281 24.8129 21.2348C24.0345 22.6416 22.9131 23.8192 21.5573 24.6536C21.1041 24.9327 20.9857 25.2786 20.9979 25.4577C21.2572 29.4869 21.9167 39.9411 21.9167 41.6181C21.9167 42.9995 21.3789 44.3242 20.4217 45.301C19.4645 46.2777 18.1662 46.8265 16.8125 46.8265C15.4588 46.8265 14.1605 46.2777 13.2033 45.301C12.2461 44.3242 11.7083 42.9995 11.7083 41.6181C11.7083 39.9411 12.3678 29.4869 12.6271 25.4577C12.6373 25.2765 12.5209 24.9327 12.0677 24.6536C10.7119 23.8192 9.5905 22.6416 8.81212 21.2348C8.03373 19.8281 7.6248 18.2399 7.625 16.6244C7.625 13.9369 7.84754 10.7931 8.01904 8.7619ZM20.8958 16.1036C20.8958 16.518 20.7345 16.9154 20.4473 17.2084C20.1602 17.5014 19.7707 17.6661 19.3646 17.6661C18.9585 17.6661 18.569 17.5014 18.2818 17.2084C17.9947 16.9154 17.8333 16.518 17.8333 16.1036V9.33273C17.8333 9.05646 17.7258 8.79151 17.5343 8.59616C17.3429 8.40081 17.0832 8.29106 16.8125 8.29106C16.5418 8.29106 16.2821 8.40081 16.0907 8.59616C15.8992 8.79151 15.7917 9.05646 15.7917 9.33273V16.1036C15.7917 16.518 15.6303 16.9154 15.3432 17.2084C15.056 17.5014 14.6665 17.6661 14.2604 17.6661C13.8543 17.6661 13.4648 17.5014 13.1777 17.2084C12.8905 16.9154 12.7292 16.518 12.7292 16.1036V9.15565C12.7292 8.92634 12.6399 8.70643 12.481 8.54429C12.3221 8.38215 12.1066 8.29106 11.8819 8.29106C11.6801 8.28748 11.4844 8.36161 11.3338 8.49868C11.1832 8.63575 11.0888 8.82569 11.0693 9.03065C10.8998 11.0411 10.6875 14.0723 10.6875 16.6244C10.6875 18.8952 11.8717 20.8827 13.652 21.9786C14.7647 22.6661 15.7896 23.9786 15.6835 25.6619C15.418 29.7869 14.7708 40.0744 14.7708 41.6202C14.7708 42.1728 14.9859 42.7027 15.3688 43.0934C15.7517 43.4841 16.271 43.7036 16.8125 43.7036C17.354 43.7036 17.8733 43.4841 18.2562 43.0934C18.6391 42.7027 18.8542 42.1728 18.8542 41.6202C18.8542 40.0744 18.207 29.7869 17.9415 25.6619C17.8354 23.9786 18.8603 22.6661 19.973 21.9786C20.8775 21.4226 21.6258 20.6374 22.1452 19.6993C22.6647 18.7611 22.9376 17.7019 22.9375 16.6244C22.9375 14.0744 22.7252 11.0411 22.5557 9.03065C22.5362 8.82569 22.4418 8.63575 22.2912 8.49868C22.1406 8.36161 21.9449 8.28748 21.7431 8.29106C21.5184 8.29106 21.3029 8.38215 21.144 8.54429C20.9851 8.70643 20.8958 8.92634 20.8958 9.15565V16.1036ZM28.0417 17.1452C28.0417 13.9682 29.2785 10.9212 31.4801 8.67468C33.6817 6.42815 36.6677 5.16606 39.7812 5.16606C40.1874 5.16606 40.5768 5.33068 40.864 5.62371C41.1512 5.91673 41.3125 6.31416 41.3125 6.72856V24.4369C41.3125 25.0994 41.5289 28.3848 41.7719 32.0244L41.7821 32.1973C42.0475 36.1723 42.3333 40.4952 42.3333 41.6181C42.3333 42.9995 41.7956 44.3242 40.8384 45.301C39.8811 46.2777 38.5829 46.8265 37.2292 46.8265C35.8755 46.8265 34.5772 46.2777 33.62 45.301C32.6628 44.3242 32.125 42.9995 32.125 41.6181C32.125 40.5473 32.3863 36.1786 32.6395 32.1723C32.7661 30.1494 32.8947 28.189 32.9907 26.7348L33.0376 25.9994H31.6146C31.1454 25.9994 30.6808 25.9051 30.2473 25.7219C29.8138 25.5387 29.4199 25.2701 29.0881 24.9316C28.7564 24.593 28.4932 24.1911 28.3136 23.7488C28.1341 23.3064 28.0417 22.8323 28.0417 22.3536V17.1452ZM36.2042 24.5452L36.1614 25.1994C36.0005 27.5907 35.8446 29.9824 35.6938 32.3744C35.4366 36.4577 35.1875 40.6786 35.1875 41.6181C35.1875 42.1707 35.4026 42.7006 35.7855 43.0913C36.1684 43.482 36.6877 43.7015 37.2292 43.7015C37.7706 43.7015 38.29 43.482 38.6728 43.0913C39.0557 42.7006 39.2708 42.1707 39.2708 41.6181C39.2708 40.6181 38.9891 36.3556 38.7155 32.2348L38.7012 32.0181C38.4705 28.5619 38.25 25.2223 38.25 24.4369V8.42856C36.246 8.79518 34.4321 9.86921 33.1258 11.4627C31.8194 13.0562 31.1038 15.0677 31.1042 17.1452V22.3536C31.1042 22.6411 31.3328 22.8744 31.6146 22.8744H34.6771C34.8871 22.8745 35.0948 22.9186 35.2874 23.004C35.48 23.0895 35.6533 23.2145 35.7965 23.3712C35.9397 23.5279 36.0498 23.713 36.12 23.9149C36.1901 24.1169 36.2188 24.3315 36.2042 24.5452Z" fill="white"/>
</g>
</g>
<defs>
<filter id="filter0_d_2226_2270" x="3.625" y="5.16602" width="42.7085" height="49.6606" filterUnits="userSpaceOnUse" color-interpolation-filters="sRGB">
<feFlood flood-opacity="0" result="BackgroundImageFix"/>
<feColorMatrix in="SourceAlpha" type="matrix" values="0 0 0 0 0 0 0 0 0 0 0 0 0 0 0 0 0 0 127 0" result="hardAlpha"/>
<feOffset dy="4"/>
<feGaussianBlur stdDeviation="2"/>
<feComposite in2="hardAlpha" operator="out"/>
<feColorMatrix type="matrix" values="0 0 0 0 0 0 0 0 0 0 0 0 0 0 0 0 0 0 0.25 0"/>
<feBlend mode="normal" in2="BackgroundImageFix" result="effect1_dropShadow_2226_2270"/>
<feBlend mode="normal" in="SourceGraphic" in2="effect1_dropShadow_2226_2270" result="shape"/>
</filter>
<clipPath id="clip0_2226_2270">
<rect width="49" height="50" fill="white" transform="translate(1.5 0.999512)"/>
</clipPath>
</defs>
</svg>
