<svg width="34" height="48" viewBox="0 0 34 48" fill="none" xmlns="http://www.w3.org/2000/svg">
<path d="M14.4358 29.6875L1.84516 27.9062C0.959745 27.7875 0.38387 27.2531 0.117537 26.3031C-0.148797 25.3531 0.0374951 24.5417 0.676412 23.8687L22.4045 0.59375C22.5816 0.395833 22.7941 0.247792 23.042 0.149625C23.29 0.0514582 23.6264 0.00158333 24.0514 0C24.7597 0 25.3002 0.336458 25.6728 1.00937C26.0454 1.68229 26.0539 2.375 25.6983 3.0875L18.6858 17.8125L31.2764 19.5938C32.1618 19.7125 32.7377 20.2469 33.004 21.1969C33.2704 22.1469 33.0841 22.9583 32.4452 23.6313L10.717 46.9062C10.54 47.1042 10.3275 47.253 10.0795 47.3527C9.83162 47.4525 9.49516 47.5016 9.07016 47.5C8.36183 47.5 7.82137 47.1635 7.44879 46.4906C7.0762 45.8177 7.0677 45.125 7.42329 44.4125L14.4358 29.6875ZM17.7295 32.8344L26.2827 23.6906L11.992 21.6719L15.3389 14.725L6.83891 23.8687L21.0764 25.8281L17.7295 32.8344Z" fill="white"/>
</svg>
