<svg width="44" height="44" viewBox="0 0 44 44" fill="none" xmlns="http://www.w3.org/2000/svg">
<path d="M22 13.3342V41.5009M2.5 15.5009C2.5 14.9263 2.72827 14.3752 3.1346 13.9688C3.54093 13.5625 4.09203 13.3342 4.66667 13.3342H39.3333C39.908 13.3342 40.4591 13.5625 40.8654 13.9688C41.2717 14.3752 41.5 14.9263 41.5 15.5009V19.8342C41.5 20.4089 41.2717 20.96 40.8654 21.3663C40.4591 21.7726 39.908 22.0009 39.3333 22.0009H4.66667C4.09203 22.0009 3.54093 21.7726 3.1346 21.3663C2.72827 20.96 2.5 20.4089 2.5 19.8342V15.5009Z" stroke="white" stroke-width="5" stroke-linecap="round" stroke-linejoin="round"/>
<path d="M37.1666 22.0009V37.1676C37.1666 38.3169 36.7101 39.4191 35.8974 40.2317C35.0848 41.0444 33.9826 41.5009 32.8333 41.5009H11.1666C10.0174 41.5009 8.91517 41.0444 8.10252 40.2317C7.28986 39.4191 6.83331 38.3169 6.83331 37.1676V22.0009M12.25 13.3343C10.8134 13.3343 9.43564 12.7636 8.41982 11.7478C7.404 10.732 6.83331 9.3542 6.83331 7.91761C6.83331 6.48102 7.404 5.10327 8.41982 4.08745C9.43564 3.07163 10.8134 2.50095 12.25 2.50095C14.3401 2.46453 16.3884 3.47868 18.1276 5.41113C19.8668 7.34358 21.2162 10.1047 22 13.3343C22.7837 10.1047 24.1332 7.34358 25.8724 5.41113C27.6116 3.47868 29.6598 2.46453 31.75 2.50095C33.1866 2.50095 34.5643 3.07163 35.5801 4.08745C36.596 5.10327 37.1666 6.48102 37.1666 7.91761C37.1666 9.3542 36.596 10.732 35.5801 11.7478C34.5643 12.7636 33.1866 13.3343 31.75 13.3343" stroke="white" stroke-width="5" stroke-linecap="round" stroke-linejoin="round"/>
</svg>
