<svg width="42" height="44" viewBox="0 0 42 44" fill="none" xmlns="http://www.w3.org/2000/svg">
<path d="M33.294 8.31613C31.5155 8.31613 29.8098 7.65068 28.5523 6.46618C27.2947 5.28167 26.5882 3.67514 26.5882 2M33.294 12.5269C31.5155 12.5269 29.8098 13.1923 28.5523 14.3768C27.2947 15.5613 26.5882 17.1679 26.5882 18.843M6.47073 8.31613C8.24922 8.31613 9.95487 7.65068 11.2125 6.46618C12.47 5.28167 13.1765 3.67514 13.1765 2M6.47073 12.5269C8.24922 12.5269 9.95487 13.1923 11.2125 14.3768C12.47 15.5613 13.1765 17.1679 13.1765 18.843M2.00018 40.7137H7.0519C9.30952 40.7137 11.5962 40.9368 13.7935 41.3621C17.7167 42.1189 21.7526 42.2031 25.7075 41.6106M23.6287 34.6691C23.8969 34.6397 24.154 34.6067 24.3998 34.5702C26.4362 34.2649 28.1462 33.2375 29.7108 32.1237L33.7522 29.2499C34.4736 28.7568 35.3421 28.4913 36.2334 28.4913C37.1247 28.4913 37.9931 28.7568 38.7145 29.2499C39.9953 30.1615 40.3887 31.6627 39.5773 32.888C38.6318 34.3154 37.2996 36.1408 36.021 37.2566M23.6287 34.6691L23.3828 34.6944M23.6287 34.6691C23.9864 34.5778 24.3144 34.4042 24.5831 34.1638C24.9205 33.8897 25.196 33.5546 25.3934 33.1784C25.5908 32.8021 25.7061 32.3924 25.7323 31.9735C25.7586 31.5545 25.6953 31.1349 25.5463 30.7394C25.3973 30.3439 25.1655 29.9806 24.8648 29.671C24.5735 29.3664 24.2342 29.1058 23.8589 28.8983C17.6068 25.3844 7.87671 28.0604 2.00018 31.9869M23.6287 34.6691C23.548 34.6861 23.4655 34.6946 23.3828 34.6944M23.3828 34.6944C22.0347 34.8216 20.6767 34.8245 19.328 34.7028" stroke="white" stroke-width="4" stroke-linecap="round"/>
</svg>
