<svg width="51" height="54" viewBox="0 0 51 54" fill="none" xmlns="http://www.w3.org/2000/svg">
<path fill-rule="evenodd" clip-rule="evenodd" d="M16.4921 10.125H34.5079C35.6809 10.1251 36.8131 10.5818 37.6888 11.4082C38.5645 12.2346 39.1227 13.3731 39.2572 14.607L41.8327 38.232C41.91 38.9411 41.8449 39.6594 41.6415 40.3399C41.4381 41.0204 41.1011 41.6477 40.6526 42.1806C40.2041 42.7135 39.6542 43.1399 39.0391 43.4319C38.424 43.724 37.7575 43.875 37.0834 43.875H13.9166C13.2425 43.875 12.576 43.724 11.9609 43.4319C11.3458 43.1399 10.7959 42.7135 10.3474 42.1806C9.89892 41.6477 9.56192 41.0204 9.35853 40.3399C9.15513 39.6594 9.08995 38.9411 9.16725 38.232L11.7427 14.607C11.8773 13.3731 12.4355 12.2346 13.3112 11.4082C14.1869 10.5818 15.319 10.1251 16.4921 10.125ZM6.99337 14.0265C7.2624 11.5587 8.37885 9.2818 10.1303 7.62894C11.8818 5.97609 14.146 5.06268 16.4921 5.0625H34.5079C36.854 5.06268 39.1182 5.97609 40.8697 7.62894C42.6211 9.2818 43.7376 11.5587 44.0066 14.0265L46.5821 37.6515C46.7367 39.0696 46.6063 40.5064 46.1996 41.8674C45.7928 43.2284 45.1188 44.483 44.2218 45.5487C43.3248 46.6145 42.2251 47.4674 40.9948 48.0514C39.7646 48.6354 38.4316 48.9374 37.0834 48.9375H13.9166C12.5684 48.9374 11.2354 48.6354 10.0052 48.0514C8.77491 47.4674 7.6752 46.6145 6.77821 45.5487C5.88122 44.483 5.20722 43.2284 4.80043 41.8674C4.39365 40.5064 4.26327 39.0696 4.41787 37.6515L6.99337 14.0265ZM15.9375 17.7188C15.9375 17.0474 16.1894 16.4036 16.6377 15.9289C17.086 15.4542 17.6941 15.1875 18.3281 15.1875C18.9622 15.1875 19.5702 15.4542 20.0185 15.9289C20.4669 16.4036 20.7187 17.0474 20.7187 17.7188V18.5625C20.7187 19.9052 21.2225 21.1928 22.1191 22.1422C23.0158 23.0916 24.2319 23.625 25.5 23.625C26.7681 23.625 27.9842 23.0916 28.8809 22.1422C29.7775 21.1928 30.2812 19.9052 30.2812 18.5625V17.7188C30.2812 17.0474 30.5331 16.4036 30.9814 15.9289C31.4298 15.4542 32.0378 15.1875 32.6719 15.1875C33.3059 15.1875 33.914 15.4542 34.3623 15.9289C34.8106 16.4036 35.0625 17.0474 35.0625 17.7188V18.5625C35.0625 21.2478 34.055 23.8232 32.2617 25.722C30.4684 27.6208 28.0361 28.6875 25.5 28.6875C22.9639 28.6875 20.5316 27.6208 18.7383 25.722C16.945 23.8232 15.9375 21.2478 15.9375 18.5625V17.7188Z" fill="white"/>
</svg>
