<svg width="50" height="52" viewBox="0 0 50 52" fill="none" xmlns="http://www.w3.org/2000/svg">
<path d="M39.5834 36.8334H43.75C45 36.8334 45.8334 35.9667 45.8334 34.6667V28.1667C45.8334 26.2167 44.375 24.4834 42.7084 24.0501C38.9584 22.9667 33.3334 21.6667 33.3334 21.6667C33.3334 21.6667 30.625 18.6334 28.75 16.6834C27.7084 15.8167 26.4584 15.1667 25 15.1667H10.4167C9.16669 15.1667 8.12502 16.0334 7.50002 17.1167L4.58335 23.4001C4.30748 24.2369 4.16669 25.1154 4.16669 26.0001V34.6667C4.16669 35.9667 5.00002 36.8334 6.25002 36.8334H10.4167" stroke="white" stroke-width="5" stroke-linecap="round" stroke-linejoin="round"/>
<path d="M14.5834 41.1667C16.8845 41.1667 18.75 39.2266 18.75 36.8333C18.75 34.4401 16.8845 32.5 14.5834 32.5C12.2822 32.5 10.4167 34.4401 10.4167 36.8333C10.4167 39.2266 12.2822 41.1667 14.5834 41.1667Z" stroke="white" stroke-width="5" stroke-linecap="round" stroke-linejoin="round"/>
<path d="M18.75 36.8335H31.25" stroke="white" stroke-width="5" stroke-linecap="round" stroke-linejoin="round"/>
<path d="M35.4167 41.1667C37.7179 41.1667 39.5833 39.2266 39.5833 36.8333C39.5833 34.4401 37.7179 32.5 35.4167 32.5C33.1155 32.5 31.25 34.4401 31.25 36.8333C31.25 39.2266 33.1155 41.1667 35.4167 41.1667Z" stroke="white" stroke-width="5" stroke-linecap="round" stroke-linejoin="round"/>
</svg>
