<svg width="80" height="80" viewBox="0 0 80 80" fill="none" xmlns="http://www.w3.org/2000/svg">
<path d="M46.6667 30C45.7222 30 44.9311 29.68 44.2933 29.04C43.6556 28.4 43.3356 27.6089 43.3333 26.6667V13.3333C43.3333 12.3889 43.6533 11.5978 44.2933 10.96C44.9333 10.3222 45.7244 10.0022 46.6667 10H66.6667C67.6111 10 68.4033 10.32 69.0433 10.96C69.6833 11.6 70.0022 12.3911 70 13.3333V26.6667C70 27.6111 69.68 28.4033 69.04 29.0433C68.4 29.6833 67.6089 30.0022 66.6667 30H46.6667ZM13.3333 43.3333C12.3889 43.3333 11.5978 43.0133 10.96 42.3733C10.3222 41.7333 10.0022 40.9422 10 40V13.3333C10 12.3889 10.32 11.5978 10.96 10.96C11.6 10.3222 12.3911 10.0022 13.3333 10H33.3333C34.2778 10 35.07 10.32 35.71 10.96C36.35 11.6 36.6689 12.3911 36.6667 13.3333V40C36.6667 40.9444 36.3467 41.7367 35.7067 42.3767C35.0667 43.0167 34.2756 43.3356 33.3333 43.3333H13.3333ZM46.6667 70C45.7222 70 44.9311 69.68 44.2933 69.04C43.6556 68.4 43.3356 67.6089 43.3333 66.6667V40C43.3333 39.0556 43.6533 38.2644 44.2933 37.6267C44.9333 36.9889 45.7244 36.6689 46.6667 36.6667H66.6667C67.6111 36.6667 68.4033 36.9867 69.0433 37.6267C69.6833 38.2667 70.0022 39.0578 70 40V66.6667C70 67.6111 69.68 68.4033 69.04 69.0433C68.4 69.6833 67.6089 70.0022 66.6667 70H46.6667ZM13.3333 70C12.3889 70 11.5978 69.68 10.96 69.04C10.3222 68.4 10.0022 67.6089 10 66.6667V53.3333C10 52.3889 10.32 51.5978 10.96 50.96C11.6 50.3222 12.3911 50.0022 13.3333 50H33.3333C34.2778 50 35.07 50.32 35.71 50.96C36.35 51.6 36.6689 52.3911 36.6667 53.3333V66.6667C36.6667 67.6111 36.3467 68.4033 35.7067 69.0433C35.0667 69.6833 34.2756 70.0022 33.3333 70H13.3333Z" fill="#34A853"/>
</svg>
