<svg width="76" height="76" viewBox="0 0 76 76" fill="none" xmlns="http://www.w3.org/2000/svg">
<path opacity="0.5" d="M30.1404 69.6668C28.5887 64.6076 26.248 60.8355 23.1183 58.3507C18.4237 54.6252 10.9646 56.9416 8.20964 53.0972C5.45464 49.2529 10.1397 42.1849 11.7832 38.0144C13.4267 33.8439 5.48155 32.3698 6.40939 31.1855C7.02689 30.3959 11.0427 28.1181 18.457 24.3518C20.5628 12.3396 28.3428 6.3335 41.7969 6.3335C61.9781 6.3335 69.6667 23.443 69.6667 34.3268C69.6667 45.2075 60.3567 56.9305 47.0947 59.4591C45.9093 61.186 47.6193 64.5886 52.2247 69.6668" stroke="#34A853" stroke-width="10" stroke-linecap="round" stroke-linejoin="round"/>
<path fill-rule="evenodd" clip-rule="evenodd" d="M30.8751 22.9587C29.8396 26.9709 30.1473 29.7887 31.7982 31.4121C33.448 33.0345 36.26 34.0953 40.2342 34.5946C39.3317 39.77 40.431 42.1978 43.5323 41.878C46.6324 41.5592 48.4955 40.2714 49.1214 38.0146C53.9664 39.3763 56.5926 38.2363 57.0001 34.5946C57.6097 29.1321 54.6647 24.7764 53.4566 24.7764C52.2485 24.7764 49.1214 24.6291 49.1214 22.9587C49.1214 21.2883 45.4671 20.3462 42.169 20.3462C38.8709 20.3462 40.8548 18.1216 36.3265 19.0004C33.3076 19.5862 31.4905 20.9056 30.8751 22.9587Z" fill="#34A853" stroke="#34A853" stroke-width="5" stroke-linejoin="round"/>
<path d="M48.2918 40.375C46.6815 41.3741 44.4728 43.035 43.5418 44.3333C41.2159 47.5792 39.3301 49.5552 38.9185 51.6293" stroke="#34A853" stroke-width="5" stroke-linecap="round"/>
</svg>
