<svg width="51" height="51" viewBox="0 0 51 51" fill="none" xmlns="http://www.w3.org/2000/svg">
<path fill-rule="evenodd" clip-rule="evenodd" d="M0 8.5C0 6.24566 0.895533 4.08365 2.48959 2.48959C4.08365 0.895533 6.24566 0 8.5 0H42.5C44.7543 0 46.9163 0.895533 48.5104 2.48959C50.1045 4.08365 51 6.24566 51 8.5V42.5C51 44.7543 50.1045 46.9163 48.5104 48.5104C46.9163 50.1045 44.7543 51 42.5 51H8.5C6.24566 51 4.08365 50.1045 2.48959 48.5104C0.895533 46.9163 0 44.7543 0 42.5V8.5ZM28.3333 14.1667C28.3333 13.4152 28.0348 12.6946 27.5035 12.1632C26.9721 11.6318 26.2514 11.3333 25.5 11.3333C24.7486 11.3333 24.0279 11.6318 23.4965 12.1632C22.9652 12.6946 22.6667 13.4152 22.6667 14.1667V36.8333C22.6667 37.5848 22.9652 38.3055 23.4965 38.8368C24.0279 39.3682 24.7486 39.6667 25.5 39.6667C26.2514 39.6667 26.9721 39.3682 27.5035 38.8368C28.0348 38.3055 28.3333 37.5848 28.3333 36.8333V14.1667ZM17 22.6667C17 21.9152 16.7015 21.1945 16.1701 20.6632C15.6388 20.1318 14.9181 19.8333 14.1667 19.8333C13.4152 19.8333 12.6946 20.1318 12.1632 20.6632C11.6318 21.1945 11.3333 21.9152 11.3333 22.6667V36.8333C11.3333 37.5848 11.6318 38.3055 12.1632 38.8368C12.6946 39.3682 13.4152 39.6667 14.1667 39.6667C14.9181 39.6667 15.6388 39.3682 16.1701 38.8368C16.7015 38.3055 17 37.5848 17 36.8333V22.6667ZM39.6667 31.1667C39.6667 30.4152 39.3682 29.6945 38.8368 29.1632C38.3055 28.6318 37.5848 28.3333 36.8333 28.3333C36.0819 28.3333 35.3612 28.6318 34.8299 29.1632C34.2985 29.6945 34 30.4152 34 31.1667V36.8333C34 37.5848 34.2985 38.3055 34.8299 38.8368C35.3612 39.3682 36.0819 39.6667 36.8333 39.6667C37.5848 39.6667 38.3055 39.3682 38.8368 38.8368C39.3682 38.3055 39.6667 37.5848 39.6667 36.8333V31.1667Z" fill="#34A853"/>
</svg>
