<svg width="69" height="69" viewBox="0 0 69 69" fill="none" xmlns="http://www.w3.org/2000/svg">
<path d="M58.8096 10.1903L66.0373 11.635C66.4254 11.7127 66.7446 11.9973 66.8567 12.3811C66.9133 12.5675 66.9184 12.7658 66.8713 12.9549C66.8242 13.144 66.7268 13.3168 66.5893 13.4549L60.6683 19.3803C59.9588 20.0858 58.9994 20.4826 57.9988 20.4843H53.0869L40.7531 32.8223C40.9884 33.7108 41.0317 34.6392 40.8801 35.5457C40.7284 36.4522 40.3853 37.316 39.8737 38.0795C39.362 38.843 38.6936 39.4888 37.9128 39.9737C37.132 40.4586 36.2569 40.7715 35.3456 40.8917C34.4344 41.0118 33.5081 40.9364 32.6283 40.6705C31.7485 40.4046 30.9355 39.9542 30.2434 39.3494C29.5513 38.7446 28.9961 37.9993 28.6146 37.1631C28.2332 36.3269 28.0343 35.419 28.0313 34.4999C28.031 33.5073 28.2593 32.5279 28.6983 31.6376C29.1373 30.7474 29.7753 29.97 30.5629 29.3659C31.3505 28.7617 32.2666 28.347 33.2402 28.1536C34.2138 27.9603 35.2189 27.9937 36.1776 28.2511L48.5156 15.9087V11.0054C48.5156 10.0049 48.9124 9.04322 49.6196 8.33597L55.545 2.41059C55.6831 2.27315 55.8559 2.1757 56.045 2.12862C56.2341 2.08154 56.4324 2.08659 56.6188 2.14322C57.0026 2.25534 57.2873 2.57447 57.3649 2.96259L58.8096 10.1903Z" fill="#34A853"/>
<path d="M8.62499 34.4999C8.62942 38.1999 9.4273 41.8559 10.9648 45.2212C12.5023 48.5866 14.7437 51.5831 17.5377 54.0086C20.3318 56.4341 23.6135 58.2322 27.1616 59.2815C30.7096 60.3309 34.4414 60.6071 38.1053 60.0915C41.7692 59.576 45.2799 58.2807 48.4006 56.293C51.5213 54.3053 54.1794 51.6715 56.1956 48.5691C58.2118 45.4668 59.5393 41.9681 60.0884 38.3091C60.6375 34.6501 60.3956 30.9159 59.3788 27.3584C59.236 26.9428 59.1794 26.5025 59.2122 26.0642C59.2451 25.626 59.3668 25.1991 59.5699 24.8094C59.773 24.4197 60.0534 24.0754 60.3938 23.7975C60.7342 23.5196 61.1277 23.3139 61.5501 23.1929C61.9726 23.0719 62.4153 23.0381 62.8512 23.0937C63.2871 23.1492 63.7072 23.2929 64.0858 23.516C64.4645 23.739 64.7937 24.0368 65.0536 24.3912C65.3135 24.7456 65.4985 25.1492 65.5974 25.5774C67.5662 32.4667 67.1922 39.8147 64.5342 46.4686C61.8761 53.1224 57.0845 58.7056 50.9108 62.3423C44.7372 65.979 37.531 67.4633 30.4227 66.5625C23.3145 65.6616 16.7064 62.4266 11.6351 57.3648C6.5694 52.2948 3.33086 45.6861 2.42795 38.5762C1.52503 31.4663 3.00888 24.2578 6.64651 18.0826C10.2842 11.9073 15.8696 7.11496 22.5259 4.45794C29.1822 1.80091 36.5324 1.42967 43.4226 3.40249C44.243 3.64232 44.9351 4.19715 45.3477 4.94573C45.7603 5.69431 45.8598 6.57578 45.6244 7.39749C45.3891 8.21921 44.838 8.91435 44.0917 9.33101C43.3454 9.74768 42.4645 9.85198 41.6415 9.62112C37.7886 8.51474 33.7313 8.31869 29.7897 9.04842C25.848 9.77816 22.1299 11.4137 18.9284 13.8261C15.7269 16.2385 13.1297 19.3617 11.3417 22.9495C9.55363 26.5372 8.62362 30.4913 8.62499 34.4999Z" fill="#34A853"/>
<path d="M21.5626 34.4999C21.5629 36.857 22.2067 39.1694 23.4246 41.1875C24.6425 43.2057 26.3883 44.853 28.4737 45.9519C30.5591 47.0507 32.9049 47.5593 35.2581 47.4229C37.6113 47.2864 39.8826 46.5101 41.827 45.1776C43.7711 43.8418 45.313 41.9999 46.2859 39.8511C47.2588 37.7023 47.6257 35.3284 47.347 32.9862C47.2717 32.4178 47.3491 31.8396 47.5715 31.3111C47.7939 30.7826 48.1531 30.3229 48.6121 29.9794C49.0712 29.6359 49.6135 29.4209 50.1832 29.3567C50.753 29.2924 51.3296 29.3812 51.8536 29.6138C52.3775 29.8434 52.8312 30.2079 53.1683 30.67C53.5055 31.1321 53.714 31.6754 53.7727 32.2444C54.2413 36.2469 53.4522 40.2959 51.5151 43.8295C49.578 47.3632 46.5889 50.2062 42.9627 51.9639C39.3365 53.7216 35.253 54.3068 31.2791 53.6384C27.3051 52.97 23.6378 51.081 20.7862 48.2337C17.9346 45.3864 16.04 41.722 15.3656 37.749C14.6911 33.7761 15.2701 29.6918 17.0223 26.0629C18.7745 22.434 21.613 19.4406 25.1437 17.4981C28.6744 15.5556 32.7222 14.7605 36.7254 15.223C37.154 15.2628 37.5704 15.3877 37.9501 15.5905C38.3299 15.7933 38.6653 16.0698 38.9367 16.4039C39.2082 16.738 39.4102 17.1229 39.531 17.5361C39.6518 17.9493 39.6889 18.3825 39.6401 18.8102C39.5913 19.2379 39.4576 19.6515 39.2468 20.0269C39.0361 20.4023 38.7525 20.7318 38.4128 20.9962C38.073 21.2605 37.6839 21.4544 37.2683 21.5664C36.8526 21.6785 36.4188 21.7064 35.9922 21.6486C34.1795 21.4381 32.3428 21.6135 30.6026 22.1633C28.8625 22.7131 27.2584 23.6247 25.8956 24.8385C24.5328 26.0522 23.4422 27.5405 22.6954 29.2056C21.9487 30.8707 21.5626 32.675 21.5626 34.4999Z" fill="#34A853"/>
</svg>
