<svg width="53" height="53" viewBox="0 0 53 53" fill="none" xmlns="http://www.w3.org/2000/svg">
<g clip-path="url(#clip0_2354_913)">
<g filter="url(#filter0_d_2354_913)">
<path d="M22.1861 3.47801C22.4045 3.58626 22.5961 3.74153 22.7473 3.93268C22.8985 4.12382 23.0055 4.34609 23.0606 4.58351C23.12 4.84421 24.7502 11.8204 24.7502 16.4998C24.7502 19.6348 23.2916 22.4299 21.0212 24.2416C20.1962 24.9016 19.8002 25.621 19.8002 26.2216V27.8254C19.8002 27.9024 19.8046 27.975 19.8134 28.0432C19.9256 28.8616 20.3315 31.9009 20.711 35.0524C21.0839 38.1445 21.4502 41.5171 21.4502 42.8998C21.4502 44.6502 20.7548 46.329 19.5171 47.5667C18.2794 48.8045 16.6006 49.4998 14.8502 49.4998C13.0998 49.4998 11.421 48.8045 10.1833 47.5667C8.94555 46.329 8.2502 44.6502 8.2502 42.8998C8.2502 41.5138 8.61649 38.1478 8.98939 35.0524C9.3689 31.9009 9.7748 28.8616 9.88699 28.0432L9.9002 27.8254V26.2216C9.9002 25.621 9.5042 24.9016 8.6792 24.2416C7.51589 23.3143 6.57653 22.1367 5.93094 20.7964C5.28535 19.4561 4.95013 17.9875 4.9502 16.4998C4.9502 11.8369 6.5672 4.89701 6.6398 4.58681C6.72558 4.21998 6.93313 3.89304 7.22858 3.65932C7.52404 3.42559 7.88997 3.29886 8.2667 3.29981C9.1907 3.29981 9.9398 4.04891 9.9398 4.97291V14.8663C9.92679 15.0892 9.95959 15.3123 10.0362 15.522C10.1128 15.7317 10.2315 15.9234 10.3851 16.0854C10.5387 16.2474 10.7239 16.3762 10.9292 16.4638C11.1345 16.5515 11.3556 16.5961 11.5788 16.595C11.802 16.5939 12.0226 16.547 12.227 16.4573C12.4314 16.3676 12.6153 16.2369 12.7672 16.0734C12.9192 15.9098 13.036 15.7169 13.1104 15.5064C13.1849 15.296 13.2155 15.0725 13.2002 14.8498V4.94981C13.2002 4.5122 13.374 4.09252 13.6835 3.78308C13.9929 3.47365 14.4126 3.29981 14.8502 3.29981C15.2878 3.29981 15.7075 3.47365 16.0169 3.78308C16.3264 4.09252 16.5002 4.5122 16.5002 4.94981V14.9356C16.5094 15.3688 16.6903 15.7807 17.0031 16.0805C17.316 16.3804 17.7351 16.5436 18.1683 16.5345C18.6016 16.5253 19.0134 16.3444 19.3133 16.0315C19.6131 15.7187 19.7764 15.2995 19.7672 14.8663V4.96631C19.7672 4.04561 20.513 3.29981 21.437 3.29981C21.5096 3.29981 21.833 3.29981 22.1861 3.47801ZM29.7002 18.1498C29.7002 14.2113 31.2647 10.4342 34.0497 7.64927C36.8346 4.86436 40.6117 3.29981 44.5502 3.29981C44.9878 3.29981 45.4075 3.47365 45.7169 3.78308C46.0264 4.09252 46.2002 4.5122 46.2002 4.94981V24.6607L46.2629 25.2448C46.5254 27.7077 46.7773 30.1717 47.0186 32.6368C47.4245 36.7816 47.8502 41.428 47.8502 42.8998C47.8502 44.6502 47.1548 46.329 45.9171 47.5667C44.6794 48.8045 43.0006 49.4998 41.2502 49.4998C39.4998 49.4998 37.821 48.8045 36.5833 47.5667C35.3455 46.329 34.6502 44.6502 34.6502 42.8998C34.6502 41.428 35.0759 36.7816 35.4818 32.6368C35.6897 30.5347 35.8976 28.5217 36.0527 27.0301L36.1187 26.3998H33.0002C32.125 26.3998 31.2856 26.0521 30.6667 25.4333C30.0479 24.8144 29.7002 23.975 29.7002 23.0998V18.1498Z" fill="white"/>
</g>
</g>
<defs>
<filter id="filter0_d_2354_913" x="0.950195" y="3.2998" width="50.8999" height="54.2002" filterUnits="userSpaceOnUse" color-interpolation-filters="sRGB">
<feFlood flood-opacity="0" result="BackgroundImageFix"/>
<feColorMatrix in="SourceAlpha" type="matrix" values="0 0 0 0 0 0 0 0 0 0 0 0 0 0 0 0 0 0 127 0" result="hardAlpha"/>
<feOffset dy="4"/>
<feGaussianBlur stdDeviation="2"/>
<feComposite in2="hardAlpha" operator="out"/>
<feColorMatrix type="matrix" values="0 0 0 0 0 0 0 0 0 0 0 0 0 0 0 0 0 0 0.25 0"/>
<feBlend mode="normal" in2="BackgroundImageFix" result="effect1_dropShadow_2354_913"/>
<feBlend mode="normal" in="SourceGraphic" in2="effect1_dropShadow_2354_913" result="shape"/>
</filter>
<clipPath id="clip0_2354_913">
<rect width="52.8" height="52.8" fill="white"/>
</clipPath>
</defs>
</svg>
