<svg width="62" height="62" viewBox="0 0 62 62" fill="none" xmlns="http://www.w3.org/2000/svg">
<g clip-path="url(#clip0_2354_917)">
<g filter="url(#filter0_d_2354_917)">
<path d="M26.4043 6.45963C27.4195 5.115 28.9928 3.875 31 3.875C33.0072 3.875 34.5805 5.115 35.5957 6.45963C36.6381 7.83525 37.3395 9.61 37.572 11.3693C37.8045 13.113 37.6107 15.0893 36.5374 16.6974C35.3942 18.4062 33.4761 19.375 31 19.375C28.52 19.375 26.6058 18.4062 25.4626 16.6974C24.3931 15.0854 24.1955 13.1091 24.428 11.3693C24.6605 9.61 25.3619 7.83525 26.4043 6.45963ZM7.86625 29.6438C8.18489 27.8511 9.12455 26.2278 10.5204 25.0587C11.9163 23.8895 13.6792 23.2492 15.5 23.25H46.5C48.4225 23.2502 50.2763 23.9649 51.7013 25.2553C53.1264 26.5457 54.0209 28.3197 54.2113 30.2327C52.422 31.9951 50.5779 33.701 48.6816 35.3477C47.0192 36.7776 45.2794 38.1688 43.7332 39.1956C42.9557 39.7123 42.2801 40.1011 41.7066 40.362C41.3883 40.5287 41.0435 40.6389 40.6875 40.6875C39.6878 40.6875 39.0135 40.0443 37.5061 38.4051L37.4945 38.3935C36.1925 36.983 34.255 34.875 31 34.875C27.745 34.875 25.8075 36.983 24.5055 38.3935L24.4939 38.4051C22.9826 40.0443 22.3123 40.6875 21.3125 40.6875C21.2294 40.6782 21.1476 40.6601 21.0684 40.6333C20.8385 40.5662 20.6154 40.478 20.4019 40.3698C19.7058 40.0303 19.0361 39.6391 18.3985 39.1995C16.864 38.1688 15.1047 36.7699 13.423 35.3361C11.4946 33.6887 9.61573 31.9842 7.78875 30.225C7.80942 30.0287 7.83525 29.8349 7.86625 29.6438ZM7.75 35.495C8.69163 36.3591 9.77662 37.324 10.912 38.2928C12.6403 39.7653 14.5235 41.2726 16.244 42.4235C17.1004 42.997 17.9568 43.5085 18.755 43.8844C19.5106 44.237 20.4135 44.5664 21.3125 44.5664C24.1335 44.5664 25.9315 42.5901 27.1056 41.2959L27.3459 41.0363C28.7215 39.5366 29.6127 38.75 31 38.75C32.3873 38.75 33.2785 39.5366 34.6541 41.0324L34.8944 41.292C36.0685 42.5863 37.8665 44.5625 40.6875 44.5625C41.602 44.5625 42.5204 44.2486 43.3109 43.8883C44.202 43.466 45.0596 42.9763 45.8761 42.4235C47.6199 41.2687 49.4992 39.7536 51.212 38.2773C52.3047 37.3395 53.3433 36.3979 54.25 35.557V50.375H56.1875C56.7014 50.375 57.1942 50.5791 57.5575 50.9425C57.9209 51.3058 58.125 51.7986 58.125 52.3125C58.125 52.8264 57.9209 53.3192 57.5575 53.6825C57.1942 54.0459 56.7014 54.25 56.1875 54.25H5.8125C5.29864 54.25 4.80583 54.0459 4.44248 53.6825C4.07913 53.3192 3.875 52.8264 3.875 52.3125C3.875 51.7986 4.07913 51.3058 4.44248 50.9425C4.80583 50.5791 5.29864 50.375 5.8125 50.375H7.75V35.495Z" fill="white"/>
</g>
</g>
<defs>
<filter id="filter0_d_2354_917" x="-0.125" y="3.875" width="62.25" height="58.375" filterUnits="userSpaceOnUse" color-interpolation-filters="sRGB">
<feFlood flood-opacity="0" result="BackgroundImageFix"/>
<feColorMatrix in="SourceAlpha" type="matrix" values="0 0 0 0 0 0 0 0 0 0 0 0 0 0 0 0 0 0 127 0" result="hardAlpha"/>
<feOffset dy="4"/>
<feGaussianBlur stdDeviation="2"/>
<feComposite in2="hardAlpha" operator="out"/>
<feColorMatrix type="matrix" values="0 0 0 0 0 0 0 0 0 0 0 0 0 0 0 0 0 0 0.25 0"/>
<feBlend mode="normal" in2="BackgroundImageFix" result="effect1_dropShadow_2354_917"/>
<feBlend mode="normal" in="SourceGraphic" in2="effect1_dropShadow_2354_917" result="shape"/>
</filter>
<clipPath id="clip0_2354_917">
<rect width="62" height="62" fill="white"/>
</clipPath>
</defs>
</svg>
