<svg width="56" height="56" viewBox="0 0 56 56" fill="none" xmlns="http://www.w3.org/2000/svg">
<g clip-path="url(#clip0_2354_921)">
<g filter="url(#filter0_d_2354_921)">
<path d="M16.5049 29.338H11.9002C12.1084 28.904 12.435 28.5377 12.8423 28.2813C13.2497 28.025 13.7212 27.8889 14.2025 27.8889C14.6838 27.8889 15.1554 28.025 15.5627 28.2813C15.9701 28.5377 16.2967 28.904 16.5049 29.338ZM23.8723 27.8842C23.8737 27.2872 23.9177 26.691 24.0038 26.1003C23.6463 26.1579 23.3052 26.2909 23.0031 26.4905C22.7009 26.6901 22.4447 26.9517 22.2515 27.258C22.0582 27.5642 21.9324 27.9081 21.8822 28.2667C21.8321 28.6253 21.8589 28.9905 21.9607 29.338H23.9617C23.9051 28.8555 23.877 28.37 23.8775 27.8842H23.8723ZM13.5328 18.475C11.8225 16.7647 9.52554 14.957 7.49948 14.957H7.33104L7.43768 17.0621C8.41254 17.0147 9.9847 17.9699 11.7568 19.6932C11.8682 19.8011 11.9774 19.9095 12.0844 20.0182C12.3751 19.9555 12.6711 19.9207 12.9684 19.9143C13.076 19.4055 13.2686 18.9185 13.5381 18.4737L13.5328 18.475ZM16.1983 16.4042C16.4814 16.0717 16.7349 15.7151 16.956 15.3385C17.2908 14.7705 17.5522 14.1622 17.7337 13.5284C17.9145 12.8985 18.014 12.2481 18.0297 11.593C18.0436 10.9835 17.9822 10.3746 17.8468 9.78009C17.787 9.52119 17.7137 9.26563 17.6269 9.01447C17.5551 8.8068 17.4735 8.60262 17.3824 8.40262C17.3188 8.26409 17.2499 8.12807 17.1758 7.99487C17.1508 7.94752 17.1245 7.90934 17.11 7.88441L17.0863 7.84613L17.0469 7.86581C17.0206 7.87905 16.9798 7.89884 16.9337 7.92509C16.799 7.9991 16.6673 8.07853 16.539 8.1632C16.3561 8.28452 16.1804 8.41632 16.0128 8.55794C15.8075 8.72637 15.6111 8.90552 15.4247 9.09464C14.9982 9.52975 14.627 10.0158 14.3196 10.5419C13.9897 11.1081 13.7338 11.7142 13.5579 12.3455C13.3769 12.9785 13.277 13.6319 13.2605 14.2901C13.2476 14.8995 13.309 15.5083 13.4434 16.103C13.5515 16.5747 13.7067 17.0344 13.9064 17.4752C13.9579 17.5909 14.0078 17.6895 14.0526 17.7725C14.6286 17.1252 15.3734 16.651 16.2035 16.4029L16.1983 16.4042ZM53.6497 11.6023C53.6248 11.5877 53.5852 11.564 53.5379 11.5391C53.4035 11.4666 53.2657 11.4008 53.1248 11.3418C52.9498 11.268 52.742 11.1864 52.5078 11.1115C52.2546 11.0309 51.9972 10.9637 51.7369 10.9103C51.1392 10.7896 50.529 10.7432 49.92 10.7721C49.2652 10.8033 48.617 10.9183 47.9913 11.1141C47.3649 11.3081 46.7655 11.5804 46.2074 11.9246C45.6887 12.2456 45.2111 12.6286 44.7852 13.0652L44.7259 13.1284C45.3314 13.8447 45.7993 14.6667 46.106 15.553C46.5163 15.6023 46.9299 15.6177 47.3427 15.5991C47.9977 15.5681 48.6462 15.4545 49.2727 15.261C49.8997 15.0699 50.4997 14.7993 51.058 14.4558C51.5772 14.1356 52.0549 13.7525 52.4802 13.3152C52.6661 13.1242 52.8417 12.9235 53.0064 12.714C53.1577 12.5193 53.2853 12.3377 53.3867 12.1745C53.4879 12.0113 53.5655 11.8772 53.6156 11.7798C53.6418 11.7324 53.6603 11.6904 53.6721 11.6641L53.6918 11.6233L53.6497 11.6023ZM44.2826 4.37697C44.2353 4.19136 44.1892 4.01647 44.1748 3.9375L42.0987 4.319C42.1263 4.47037 42.1737 4.65183 42.2382 4.90186C42.546 6.09383 43.2551 8.84078 42.4001 11.2708C43.0468 11.6072 43.6421 12.0342 44.1681 12.539C45.5667 9.37497 44.6615 5.86359 44.2774 4.37686L44.2826 4.37697ZM19.707 52.0625H33.1184C35.4038 52.0625 37.6668 51.6124 39.7782 50.7378C41.8896 49.8633 43.8081 48.5814 45.4241 46.9654C47.0402 45.3494 48.322 43.4309 49.1966 41.3195C50.0712 39.208 50.5213 36.945 50.5213 34.6596V31.4429H2.30811V34.6609C2.3084 39.2756 4.1415 43.7012 7.4043 46.9645C10.6671 50.2277 15.0924 52.0615 19.707 52.0625ZM46.5217 27.8842C46.5244 25.241 45.5042 22.6994 43.6747 20.7917C44.0973 20.0597 44.3458 19.2403 44.4012 18.3969C44.4565 17.5535 44.3172 16.7086 43.9939 15.9277C43.6706 15.1467 43.1721 14.4505 42.5369 13.893C41.9016 13.3354 41.1467 12.9314 40.3304 12.7121C39.5141 12.4929 38.6583 12.4643 37.8292 12.6286C37 12.7928 36.2198 13.1455 35.5488 13.6595C34.8777 14.1734 34.3338 14.8347 33.9592 15.5924C33.5845 16.35 33.3891 17.1837 33.388 18.0289C31.0116 18.7179 28.9641 20.2422 27.6226 22.3213C26.2812 24.4003 25.7361 26.8941 26.0878 29.3432H46.4139C46.4841 28.86 46.5201 28.3725 46.5217 27.8842ZM19.7557 28.6222C19.7552 27.4915 20.1679 26.3995 20.9161 25.5516C20.6712 25.0867 20.289 24.7086 19.8215 24.4685C19.3541 24.2285 18.8241 24.1383 18.3035 24.2102C17.783 24.2821 17.2972 24.5125 16.9123 24.8702C16.5274 25.228 16.262 25.6955 16.1522 26.2094C16.7834 26.5018 17.3415 26.9311 17.7859 27.4661C18.2304 28.0012 18.55 28.6285 18.7217 29.3025C19.0873 29.2913 19.4462 29.2016 19.7741 29.0393C19.7619 28.9006 19.7558 28.7614 19.7557 28.6222ZM11.0727 26.9857C10.7528 26.398 10.2153 25.9591 9.57559 25.7631C8.93587 25.5671 8.24481 25.6296 7.65062 25.9372C7.05644 26.2448 6.60646 26.773 6.39719 27.4085C6.18792 28.044 6.23602 28.7362 6.53118 29.3367H9.66893C9.89089 28.4304 10.3794 27.6115 11.0713 26.9857H11.0727ZM19.8057 19.6919C19.5642 19.2267 19.1855 18.847 18.7209 18.6043C18.2564 18.3615 17.7284 18.2675 17.2086 18.3348C16.6888 18.4022 16.2023 18.6277 15.815 18.9808C15.4276 19.3339 15.1582 19.7976 15.0432 20.309C15.9517 20.7353 16.6996 21.4417 17.1771 22.3244C17.5813 22.1886 18.0024 22.1094 18.4283 22.0889C18.6343 21.1693 19.114 20.3336 19.8043 19.6919H19.8057ZM22.9776 20.5471C22.4097 20.5459 21.8577 20.7338 21.4084 21.0811C20.9592 21.4284 20.6383 21.9154 20.4964 22.4652C21.3819 22.8479 22.128 23.4943 22.6329 24.3162C23.1989 24.0797 23.8062 23.9581 24.4196 23.9585H24.513C24.7287 23.3108 24.9984 22.6823 25.3194 22.0798C25.1203 21.6243 24.7927 21.2368 24.3768 20.9646C23.9609 20.6924 23.4747 20.5473 22.9777 20.5471H22.9776ZM15.3734 23.4348C15.144 22.9698 14.7786 22.5856 14.3258 22.3333C13.8729 22.0809 13.3539 21.9722 12.8379 22.0218C12.3218 22.0713 11.833 22.2767 11.4364 22.6106C11.0398 22.9445 10.7542 23.3912 10.6174 23.8913C11.5939 24.3032 12.4021 25.0336 12.9106 25.9634C13.2959 25.8527 13.6939 25.7921 14.0947 25.7832C14.2823 24.8923 14.7269 24.0758 15.3734 23.4348Z" fill="white"/>
</g>
</g>
<defs>
<filter id="filter0_d_2354_921" x="-1.69189" y="3.9375" width="59.3838" height="56.125" filterUnits="userSpaceOnUse" color-interpolation-filters="sRGB">
<feFlood flood-opacity="0" result="BackgroundImageFix"/>
<feColorMatrix in="SourceAlpha" type="matrix" values="0 0 0 0 0 0 0 0 0 0 0 0 0 0 0 0 0 0 127 0" result="hardAlpha"/>
<feOffset dy="4"/>
<feGaussianBlur stdDeviation="2"/>
<feComposite in2="hardAlpha" operator="out"/>
<feColorMatrix type="matrix" values="0 0 0 0 0 0 0 0 0 0 0 0 0 0 0 0 0 0 0.25 0"/>
<feBlend mode="normal" in2="BackgroundImageFix" result="effect1_dropShadow_2354_921"/>
<feBlend mode="normal" in="SourceGraphic" in2="effect1_dropShadow_2354_921" result="shape"/>
</filter>
<clipPath id="clip0_2354_921">
<rect width="56" height="56" fill="white"/>
</clipPath>
</defs>
</svg>
