<svg width="61" height="61" viewBox="0 0 61 61" fill="none" xmlns="http://www.w3.org/2000/svg">
<g clip-path="url(#clip0_2354_934)">
<g filter="url(#filter0_d_2354_934)">
<path d="M38.4434 27.8664H24.8901C24.679 28.3731 24.4257 28.8696 24.1301 29.356C23.8345 29.8424 23.4757 30.2536 23.0534 30.5897L24.8901 50.6664H38.4434L40.2801 30.5897C39.8579 30.2097 39.499 29.7875 39.2034 29.3231C38.9079 28.8586 38.6545 28.3731 38.4434 27.8664ZM24.1934 17.7331L23.4968 20.5197C23.7923 20.8575 24.0566 21.2164 24.2897 21.5964C24.5228 21.9764 24.7229 22.3775 24.8901 22.7997H38.4434C38.6123 22.3775 38.8133 21.9764 39.0464 21.5964C39.2794 21.2164 39.5429 20.8575 39.8368 20.5197L39.1401 17.7331H24.1934ZM24.8901 55.7331C23.5812 55.7331 22.4412 55.2999 21.4701 54.4335C20.499 53.5671 19.9501 52.4803 19.8234 51.1731L17.8601 29.2597C17.8179 28.8375 17.8922 28.4474 18.083 28.0893C18.2739 27.7313 18.5585 27.4459 18.9368 27.2331C19.2745 27.022 19.5701 26.7686 19.8234 26.4731C20.0768 26.1775 20.2034 25.8186 20.2034 25.3964C20.2034 25.0164 20.119 24.6677 19.9501 24.3501C19.7812 24.0326 19.5279 23.7692 19.1901 23.5597C18.7679 23.3486 18.4512 23.0218 18.2401 22.5793C18.029 22.1368 17.9868 21.6825 18.1134 21.2164L19.7601 14.5664C19.8868 13.9753 20.1823 13.5108 20.6468 13.1731C21.1112 12.8353 21.639 12.6664 22.2301 12.6664H29.1334V10.1331H25.3334V5.06641H38.0001V10.1331H34.2001V12.6664H41.1034C41.6945 12.6664 42.2122 12.8353 42.6564 13.1731C43.1005 13.5108 43.3851 13.9753 43.5101 14.5664L45.2201 21.2164C45.3468 21.6808 45.3045 22.1352 45.0934 22.5793C44.8823 23.0235 44.5657 23.3503 44.1434 23.5597C43.8057 23.7286 43.5422 23.9608 43.353 24.2564C43.1639 24.552 43.0685 24.8897 43.0668 25.2697C43.0668 25.7342 43.1833 26.1252 43.4164 26.4427C43.6494 26.7602 43.9551 27.0236 44.3334 27.2331C44.7117 27.4425 45.0073 27.7279 45.2201 28.0893C45.4329 28.4508 45.5173 28.8409 45.4734 29.2597L43.5101 51.1097C43.3834 52.4186 42.8345 53.5164 41.8634 54.4031C40.8923 55.2897 39.7523 55.7331 38.4434 55.7331H24.8901Z" fill="white"/>
</g>
</g>
<defs>
<filter id="filter0_d_2354_934" x="13.8486" y="5.06641" width="35.6362" height="58.667" filterUnits="userSpaceOnUse" color-interpolation-filters="sRGB">
<feFlood flood-opacity="0" result="BackgroundImageFix"/>
<feColorMatrix in="SourceAlpha" type="matrix" values="0 0 0 0 0 0 0 0 0 0 0 0 0 0 0 0 0 0 127 0" result="hardAlpha"/>
<feOffset dy="4"/>
<feGaussianBlur stdDeviation="2"/>
<feComposite in2="hardAlpha" operator="out"/>
<feColorMatrix type="matrix" values="0 0 0 0 0 0 0 0 0 0 0 0 0 0 0 0 0 0 0.25 0"/>
<feBlend mode="normal" in2="BackgroundImageFix" result="effect1_dropShadow_2354_934"/>
<feBlend mode="normal" in="SourceGraphic" in2="effect1_dropShadow_2354_934" result="shape"/>
</filter>
<clipPath id="clip0_2354_934">
<rect width="60.8" height="60.8" fill="white"/>
</clipPath>
</defs>
</svg>
