<svg width="61" height="61" viewBox="0 0 61 61" fill="none" xmlns="http://www.w3.org/2000/svg">
<g clip-path="url(#clip0_2354_942)">
<g filter="url(#filter0_d_2354_942)">
<path d="M12.7085 55.9171C9.35354 55.9171 8.00646 49.9188 7.72687 47.5296C7.42588 45.2101 7.70535 42.8521 8.54021 40.6671C8.90714 39.6274 9.53828 38.7011 10.3716 37.9792C11.2049 37.2573 12.2117 36.7646 13.2931 36.5496C16.2669 36.0413 18.3765 37.8205 21.0706 38.4305C21.5767 38.5929 22.1163 38.6214 22.6366 38.5132C23.157 38.4049 23.6405 38.1637 24.0398 37.813C24.4392 37.4623 24.7409 37.014 24.9154 36.512C25.0899 36.0099 25.1313 35.4712 25.0356 34.9484C23.9173 30.5767 15.9619 30.5005 12.7085 30.5005C12.7085 25.773 17.8935 25.163 21.6044 25.5188C23.8058 25.7314 25.9735 26.2093 28.0602 26.9421C29.331 27.3742 30.8052 28.4671 32.2031 28.3655C34.3127 28.1875 34.7448 26.0017 33.8298 24.4005C31.6185 20.6388 25.3406 20.3338 21.6044 20.3338C21.6044 15.2505 26.0015 14.2846 30.2206 15.0471C32.3991 15.476 34.5221 16.1496 36.5494 17.055C37.8456 17.6142 39.396 18.6817 40.8194 18.1988C44.4794 17.0805 40.6669 13.1663 39.0402 12.2259C37.8985 11.5959 36.6873 11.1011 35.431 10.7517C34.0585 10.345 32.381 10.4975 33.6265 8.89629C35.5739 7.17816 37.99 6.08072 40.5652 5.74462C45.369 4.62629 52.0027 4.42295 53.1719 10.4721C53.5615 13.6659 52.7951 16.8936 51.0115 19.5713C46.2752 27.6699 40.4133 35.0551 33.601 41.5059C29.9923 45.2052 26.0815 48.5973 21.9094 51.6471C19.3677 53.4771 16.0127 55.9171 12.7085 55.9171Z" fill="white"/>
</g>
</g>
<defs>
<filter id="filter0_d_2354_942" x="3.60938" y="5.12695" width="53.6616" height="58.79" filterUnits="userSpaceOnUse" color-interpolation-filters="sRGB">
<feFlood flood-opacity="0" result="BackgroundImageFix"/>
<feColorMatrix in="SourceAlpha" type="matrix" values="0 0 0 0 0 0 0 0 0 0 0 0 0 0 0 0 0 0 127 0" result="hardAlpha"/>
<feOffset dy="4"/>
<feGaussianBlur stdDeviation="2"/>
<feComposite in2="hardAlpha" operator="out"/>
<feColorMatrix type="matrix" values="0 0 0 0 0 0 0 0 0 0 0 0 0 0 0 0 0 0 0.25 0"/>
<feBlend mode="normal" in2="BackgroundImageFix" result="effect1_dropShadow_2354_942"/>
<feBlend mode="normal" in="SourceGraphic" in2="effect1_dropShadow_2354_942" result="shape"/>
</filter>
<clipPath id="clip0_2354_942">
<rect width="61" height="61" fill="white"/>
</clipPath>
</defs>
</svg>
