<svg width="54" height="54" viewBox="0 0 54 54" fill="none" xmlns="http://www.w3.org/2000/svg">
<g clip-path="url(#clip0_2354_925)">
<g filter="url(#filter0_d_2354_925)">
<path d="M44.7188 16.0312H6.75C6.07867 16.0312 5.43484 16.2979 4.96014 16.7726C4.48543 17.2473 4.21875 17.8912 4.21875 18.5625V28.6875C4.22668 34.0078 6.24 39.1296 9.85711 43.0312H6.75C6.07867 43.0312 5.43484 43.2979 4.96014 43.7726C4.48543 44.2473 4.21875 44.8912 4.21875 45.5625C4.21875 46.2338 4.48543 46.8777 4.96014 47.3524C5.43484 47.8271 6.07867 48.0938 6.75 48.0938H43.875C44.5463 48.0938 45.1902 47.8271 45.6649 47.3524C46.1396 46.8777 46.4062 46.2338 46.4062 45.5625C46.4062 44.8912 46.1396 44.2473 45.6649 43.7726C45.1902 43.2979 44.5463 43.0312 43.875 43.0312H40.7679C42.5865 41.0669 44.0178 38.7768 44.9866 36.2812C47.4015 36.2115 49.6939 35.203 51.377 33.4699C53.06 31.7368 54.001 29.4158 54 27V25.3125C53.9972 22.8518 53.0185 20.4927 51.2785 18.7527C49.5385 17.0128 47.1794 16.034 44.7188 16.0312ZM41.3438 28.6875C41.3384 31.6639 40.5075 34.5805 38.9434 37.1128C37.3793 39.6451 35.1434 41.6939 32.4844 43.0312H18.1406C15.4816 41.6939 13.2457 39.6451 11.6816 37.1128C10.1175 34.5805 9.28661 31.6639 9.28125 28.6875V21.0938H41.3438V28.6875ZM48.9375 27C48.9367 27.8424 48.6838 28.6653 48.2112 29.3626C47.7386 30.06 47.0681 30.5999 46.286 30.9129C46.3665 30.1738 46.4066 29.4309 46.4062 28.6875V21.4481C47.1583 21.7763 47.7982 22.3167 48.2478 23.0031C48.6974 23.6894 48.9371 24.492 48.9375 25.3125V27ZM14.3438 10.125V5.0625C14.3438 4.39117 14.6104 3.74734 15.0851 3.27264C15.5598 2.79793 16.2037 2.53125 16.875 2.53125C17.5463 2.53125 18.1902 2.79793 18.6649 3.27264C19.1396 3.74734 19.4062 4.39117 19.4062 5.0625V10.125C19.4062 10.7963 19.1396 11.4402 18.6649 11.9149C18.1902 12.3896 17.5463 12.6562 16.875 12.6562C16.2037 12.6562 15.5598 12.3896 15.0851 11.9149C14.6104 11.4402 14.3438 10.7963 14.3438 10.125ZM22.7812 10.125V5.0625C22.7812 4.39117 23.0479 3.74734 23.5226 3.27264C23.9973 2.79793 24.6412 2.53125 25.3125 2.53125C25.9838 2.53125 26.6277 2.79793 27.1024 3.27264C27.5771 3.74734 27.8438 4.39117 27.8438 5.0625V10.125C27.8438 10.7963 27.5771 11.4402 27.1024 11.9149C26.6277 12.3896 25.9838 12.6562 25.3125 12.6562C24.6412 12.6562 23.9973 12.3896 23.5226 11.9149C23.0479 11.4402 22.7812 10.7963 22.7812 10.125ZM31.2188 10.125V5.0625C31.2188 4.39117 31.4854 3.74734 31.9601 3.27264C32.4348 2.79793 33.0787 2.53125 33.75 2.53125C34.4213 2.53125 35.0652 2.79793 35.5399 3.27264C36.0146 3.74734 36.2812 4.39117 36.2812 5.0625V10.125C36.2812 10.7963 36.0146 11.4402 35.5399 11.9149C35.0652 12.3896 34.4213 12.6562 33.75 12.6562C33.0787 12.6562 32.4348 12.3896 31.9601 11.9149C31.4854 11.4402 31.2188 10.7963 31.2188 10.125Z" fill="white"/>
</g>
</g>
<defs>
<filter id="filter0_d_2354_925" x="0.21875" y="2.53125" width="57.7812" height="53.5625" filterUnits="userSpaceOnUse" color-interpolation-filters="sRGB">
<feFlood flood-opacity="0" result="BackgroundImageFix"/>
<feColorMatrix in="SourceAlpha" type="matrix" values="0 0 0 0 0 0 0 0 0 0 0 0 0 0 0 0 0 0 127 0" result="hardAlpha"/>
<feOffset dy="4"/>
<feGaussianBlur stdDeviation="2"/>
<feComposite in2="hardAlpha" operator="out"/>
<feColorMatrix type="matrix" values="0 0 0 0 0 0 0 0 0 0 0 0 0 0 0 0 0 0 0.25 0"/>
<feBlend mode="normal" in2="BackgroundImageFix" result="effect1_dropShadow_2354_925"/>
<feBlend mode="normal" in="SourceGraphic" in2="effect1_dropShadow_2354_925" result="shape"/>
</filter>
<clipPath id="clip0_2354_925">
<rect width="54" height="54" fill="white"/>
</clipPath>
</defs>
</svg>
