<svg width="58" height="58" viewBox="0 0 58 58" fill="none" xmlns="http://www.w3.org/2000/svg">
<g clip-path="url(#clip0_2354_946)">
<g filter="url(#filter0_d_2354_946)">
<path d="M21.7502 7.25035C22.4535 7.25026 23.1484 7.40365 23.7862 7.69981C24.4241 7.99598 24.9897 8.42779 25.4435 8.9651C25.8973 9.50241 26.2283 10.1323 26.4135 10.8107C26.5988 11.4892 26.6337 12.1999 26.5159 12.8933L31.284 13.6908C31.4679 12.6018 31.4638 11.4893 31.2719 10.4017C32.1864 9.82897 33.2663 9.57877 34.3395 9.69092C35.4127 9.80308 36.4176 10.2711 37.1939 11.0205C37.9703 11.77 38.4736 12.7576 38.6236 13.8262C38.7736 14.8948 38.5617 15.9828 38.0216 16.917H12.0836C11.7085 16.9166 11.3386 16.8289 11.0033 16.6608C10.6679 16.4927 10.3763 16.2489 10.1515 15.9486C9.92675 15.6483 9.77495 15.2998 9.70815 14.9307C9.64135 14.5616 9.66139 14.182 9.76668 13.822C9.87197 13.462 10.0596 13.1314 10.3148 12.8564C10.5699 12.5815 10.8856 12.3697 11.2368 12.2379C11.5879 12.106 11.965 12.0577 12.338 12.0968C12.7111 12.1359 13.0699 12.2613 13.3861 12.4631C13.7117 12.6716 14.0824 12.799 14.4674 12.8345C14.8523 12.87 15.2401 12.8127 15.5983 12.6674C15.9565 12.522 16.2746 12.2928 16.5259 11.9991C16.7772 11.7054 16.9544 11.3556 17.0426 10.9793C17.2917 9.91786 17.8923 8.97186 18.747 8.29491C19.6016 7.61797 20.66 7.24985 21.7502 7.25035ZM25.4139 3.13476C23.2299 2.23995 20.794 2.17506 18.5655 2.95233C16.337 3.72959 14.4698 5.29531 13.3161 7.35426C11.7646 7.08616 10.168 7.33042 8.76761 8.0501C7.36724 8.76979 6.23922 9.92579 5.55404 11.3434C4.86887 12.7609 4.66379 14.363 4.9698 15.9075C5.27582 17.4519 6.07629 18.8548 7.25023 19.904V48.3337C7.25023 49.6156 7.75945 50.8449 8.66588 51.7514C9.5723 52.6578 10.8017 53.167 12.0836 53.167H36.2502C37.5321 53.167 38.7615 52.6578 39.6679 51.7514C40.5743 50.8449 41.0836 49.6156 41.0836 48.3337H45.9169C47.1988 48.3337 48.4281 47.8245 49.3346 46.918C50.241 46.0116 50.7502 44.7822 50.7502 43.5003V26.5837C50.7502 25.3018 50.241 24.0724 49.3346 23.166C48.4281 22.2596 47.1988 21.7503 45.9169 21.7503H41.0836V20.8948C42.5859 19.1939 43.4419 17.0186 43.5016 14.7499C43.5612 12.4813 42.8209 10.2639 41.41 8.48632C39.9992 6.70869 38.008 5.48411 35.7851 5.02706C33.5621 4.57 31.2493 4.90962 29.2516 5.98643C28.2313 4.72952 26.9117 3.74898 25.4139 3.13476ZM41.0836 26.5837H45.9169V43.5003H41.0836V26.5837ZM36.2502 21.7503V48.3337H12.0836V21.7503H36.2502ZM16.9169 26.5837V43.5003H21.7502V26.5837H16.9169ZM31.4169 26.5837V43.5003H26.5836V26.5837H31.4169Z" fill="white"/>
</g>
</g>
<defs>
<filter id="filter0_d_2354_946" x="0.831543" y="2.41309" width="53.9185" height="58.7539" filterUnits="userSpaceOnUse" color-interpolation-filters="sRGB">
<feFlood flood-opacity="0" result="BackgroundImageFix"/>
<feColorMatrix in="SourceAlpha" type="matrix" values="0 0 0 0 0 0 0 0 0 0 0 0 0 0 0 0 0 0 127 0" result="hardAlpha"/>
<feOffset dy="4"/>
<feGaussianBlur stdDeviation="2"/>
<feComposite in2="hardAlpha" operator="out"/>
<feColorMatrix type="matrix" values="0 0 0 0 0 0 0 0 0 0 0 0 0 0 0 0 0 0 0.25 0"/>
<feBlend mode="normal" in2="BackgroundImageFix" result="effect1_dropShadow_2354_946"/>
<feBlend mode="normal" in="SourceGraphic" in2="effect1_dropShadow_2354_946" result="shape"/>
</filter>
<clipPath id="clip0_2354_946">
<rect width="58" height="58" fill="white"/>
</clipPath>
</defs>
</svg>
