<svg width="53" height="53" viewBox="0 0 53 53" fill="none" xmlns="http://www.w3.org/2000/svg">
<g clip-path="url(#clip0_2354_909)">
<g filter="url(#filter0_d_2354_909)">
<path d="M9.32808 2.65575e-06C7.49399 -1.30631e-05 5.7346 0.726607 4.43501 2.02081C3.13542 3.31502 2.40151 5.07138 2.39392 6.90546C2.39094 7.89474 2.6024 8.87291 3.01375 9.77261C3.4251 10.6723 4.02656 11.4722 4.77671 12.1171C1.84059 16.4423 0.273244 21.5506 0.278333 26.7783C0.278333 41.2517 12.0532 53 26.5001 53C40.947 53 52.7218 41.2517 52.7218 26.7783C52.7373 21.5702 51.1786 16.479 48.25 12.1723C49.0037 11.5227 49.6088 10.7185 50.0241 9.81425C50.4394 8.91003 50.6553 7.92701 50.657 6.93196C50.6562 6.02314 50.4761 5.1234 50.1271 4.28426C49.7781 3.44511 49.267 2.68303 48.6232 2.04163C47.9793 1.40022 47.2153 0.892087 46.3748 0.546307C45.5343 0.200527 44.6339 0.023889 43.7251 0.0265027C42.566 0.0234549 41.4249 0.312869 40.4074 0.867954C39.3898 1.42304 38.5288 2.22585 37.9039 3.20209C34.3584 1.4798 30.4683 0.584296 26.5266 0.583003C22.5869 0.576035 18.697 1.46245 15.1493 3.17559C14.5229 2.20078 13.6615 1.39907 12.6443 0.844172C11.6271 0.289273 10.4868 -0.00101294 9.32808 2.65575e-06ZM26.5001 2.64559C30.283 2.64559 33.856 3.52009 37.0559 5.07917C40.877 6.93814 44.1437 9.76693 46.5297 13.2831C49.2431 17.2798 50.6913 22.0005 50.6858 26.8313C50.71 40.1674 39.8627 51.0147 26.5266 51.0147C13.1882 51.0147 2.34312 40.1674 2.34312 26.8313C2.34312 21.8029 3.87571 17.1455 6.49479 13.2831C8.8891 9.77349 12.1545 6.94641 15.9708 5.07917C19.2481 3.47301 22.8503 2.64045 26.5001 2.64559ZM16.2689 14.0119C14.3852 14.0384 12.4198 14.6567 11.2339 15.4539C8.95708 16.96 6.17679 20.2151 6.6295 24.687C7.05129 29.1588 10.5714 31.9369 12.3977 31.9369C14.2218 31.9369 15.1228 31.0094 15.677 28.7348C16.2335 26.4868 18.1393 23.8942 20.5729 21.1161C23.0065 18.338 20.5199 15.6637 20.5199 15.6637C19.652 14.5308 18.1968 14.0583 16.6443 14.0141L16.2689 14.0119ZM36.6584 14.0273L36.283 14.0295C34.7328 14.0737 33.2841 14.5441 32.4272 15.6902C32.4272 15.6902 29.9407 18.3623 32.3743 21.1426C34.8343 23.9207 36.7136 26.5133 37.2701 28.7613C37.8244 31.0116 38.7254 31.9369 40.5495 31.9634C42.3758 31.9634 45.8694 29.1853 46.3177 24.7135C46.766 20.2416 43.9901 16.9622 41.7155 15.4782C40.5142 14.6832 38.5421 14.0583 36.6584 14.0273ZM16.8673 18.444C17.6358 18.444 18.2453 19.0513 18.2453 19.8198C18.2188 20.5596 17.6093 21.1956 16.8673 21.1956C16.6864 21.1965 16.5071 21.1615 16.3398 21.0926C16.1725 21.0238 16.0205 20.9225 15.8925 20.7946C15.7646 20.6667 15.6633 20.5146 15.5945 20.3473C15.5257 20.18 15.4907 20.0007 15.4915 19.8198C15.4904 19.6387 15.5251 19.4592 15.5938 19.2916C15.6625 19.124 15.7638 18.9717 15.8918 18.8436C16.0197 18.7154 16.1718 18.6139 16.3393 18.5449C16.5068 18.476 16.6862 18.4409 16.8673 18.4418V18.444ZM36.5016 18.444C37.2701 18.444 37.8774 19.0513 37.8774 19.8198C37.8509 20.5596 37.2436 21.1956 36.5016 21.1956C36.3207 21.1965 36.1414 21.1615 35.9741 21.0926C35.8068 21.0238 35.6548 20.9225 35.5268 20.7946C35.3989 20.6667 35.2976 20.5146 35.2288 20.3473C35.1599 20.18 35.125 20.0007 35.1258 19.8198C35.1258 19.0513 35.7618 18.4418 36.5016 18.4418V18.444ZM26.4736 27.3325C25.3098 27.3325 21.9244 27.5445 21.9244 28.6288C21.9244 30.5876 26.0761 31.9899 26.4736 31.8839C26.8711 31.9899 31.0228 30.5876 31.0228 28.6288C31.0228 27.5468 27.6661 27.3325 26.4736 27.3325ZM20.0429 33.5004C20.0429 36.623 22.9005 39.1626 26.4736 39.1626C30.0467 39.1626 32.9308 36.623 32.9308 33.5004H20.0429Z" fill="white"/>
</g>
</g>
<defs>
<filter id="filter0_d_2354_909" x="-3.72168" y="0" width="60.4438" height="61" filterUnits="userSpaceOnUse" color-interpolation-filters="sRGB">
<feFlood flood-opacity="0" result="BackgroundImageFix"/>
<feColorMatrix in="SourceAlpha" type="matrix" values="0 0 0 0 0 0 0 0 0 0 0 0 0 0 0 0 0 0 127 0" result="hardAlpha"/>
<feOffset dy="4"/>
<feGaussianBlur stdDeviation="2"/>
<feComposite in2="hardAlpha" operator="out"/>
<feColorMatrix type="matrix" values="0 0 0 0 0 0 0 0 0 0 0 0 0 0 0 0 0 0 0.25 0"/>
<feBlend mode="normal" in2="BackgroundImageFix" result="effect1_dropShadow_2354_909"/>
<feBlend mode="normal" in="SourceGraphic" in2="effect1_dropShadow_2354_909" result="shape"/>
</filter>
<clipPath id="clip0_2354_909">
<rect width="53" height="53" fill="white"/>
</clipPath>
</defs>
</svg>
