<svg width="38" height="38" viewBox="0 0 38 38" fill="none" xmlns="http://www.w3.org/2000/svg">
<path d="M19 34.8333C16.8097 34.8333 14.7514 34.4174 12.825 33.5856C10.8986 32.7538 9.22294 31.626 7.79794 30.202C6.37294 28.7781 5.24508 27.1024 4.41436 25.175C3.58363 23.2475 3.16774 21.1892 3.16669 19C3.16563 16.8107 3.58152 14.7524 4.41436 12.825C5.24719 10.8975 6.37505 9.22182 7.79794 7.79788C9.22083 6.37393 10.8965 5.24607 12.825 4.41429C14.7535 3.58252 16.8119 3.16663 19 3.16663C21.1882 3.16663 23.2465 3.58252 25.175 4.41429C27.1035 5.24607 28.7792 6.37393 30.2021 7.79788C31.625 9.22182 32.7534 10.8975 33.5873 12.825C34.4212 14.7524 34.8365 16.8107 34.8334 19C34.8302 21.1892 34.4143 23.2475 33.5857 25.175C32.7571 27.1024 31.6292 28.7781 30.2021 30.202C28.775 31.626 27.0993 32.7544 25.175 33.5872C23.2507 34.42 21.1924 34.8354 19 34.8333ZM19 31.6666C22.5361 31.6666 25.5313 30.4395 27.9854 27.9854C30.4396 25.5312 31.6667 22.5361 31.6667 19C31.6667 15.4638 30.4396 12.4687 27.9854 10.0145C25.5313 7.56038 22.5361 6.33329 19 6.33329C15.4639 6.33329 12.4688 7.56038 10.0146 10.0145C7.56044 12.4687 6.33336 15.4638 6.33336 19C6.33336 22.5361 7.56044 25.5312 10.0146 27.9854C12.4688 30.4395 15.4639 31.6666 19 31.6666ZM19 28.5C16.3611 28.5 14.1181 27.5763 12.2709 25.7291C10.4236 23.8819 9.50002 21.6388 9.50002 19C9.50002 16.3611 10.4236 14.118 12.2709 12.2708C14.1181 10.4236 16.3611 9.49996 19 9.49996C21.6389 9.49996 23.882 10.4236 25.7292 12.2708C27.5764 14.118 28.5 16.3611 28.5 19C28.5 21.6388 27.5764 23.8819 25.7292 25.7291C23.882 27.5763 21.6389 28.5 19 28.5ZM19 25.3333C20.7417 25.3333 22.2327 24.7132 23.4729 23.4729C24.7132 22.2326 25.3334 20.7416 25.3334 19C25.3334 17.2583 24.7132 15.7673 23.4729 14.527C22.2327 13.2868 20.7417 12.6666 19 12.6666C17.2584 12.6666 15.7674 13.2868 14.5271 14.527C13.2868 15.7673 12.6667 17.2583 12.6667 19C12.6667 20.7416 13.2868 22.2326 14.5271 23.4729C15.7674 24.7132 17.2584 25.3333 19 25.3333ZM19 22.1666C18.1292 22.1666 17.384 21.8568 16.7644 21.2372C16.1447 20.6176 15.8344 19.8718 15.8334 19C15.8323 18.1281 16.1426 17.3828 16.7644 16.7643C17.3861 16.1457 18.1313 15.8354 19 15.8333C19.8687 15.8312 20.6145 16.1415 21.2373 16.7643C21.86 17.3871 22.1699 18.1323 22.1667 19C22.1635 19.8676 21.8537 20.6134 21.2373 21.2372C20.6208 21.861 19.8751 22.1708 19 22.1666Z" fill="#262626"/>
</svg>
