<svg width="39" height="36" viewBox="0 0 39 36" fill="none" xmlns="http://www.w3.org/2000/svg">
<path fill-rule="evenodd" clip-rule="evenodd" d="M34.9375 14.0969L36.3386 15.2185C36.6175 15.4359 36.9709 15.5345 37.322 15.4931C37.6732 15.4517 37.9939 15.2735 38.2146 14.9972C38.4352 14.7209 38.5381 14.3687 38.5008 14.0171C38.4636 13.6654 38.2892 13.3426 38.0156 13.1187L23.4583 1.47285C22.2669 0.519441 20.7864 0 19.2604 0C17.7345 0 16.254 0.519441 15.0625 1.47285L0.50525 13.1187C0.226795 13.3413 0.0481804 13.6654 0.0087001 14.0197C-0.0307802 14.3741 0.0721076 14.7295 0.294729 15.008C0.517351 15.2865 0.84147 15.4651 1.19579 15.5045C1.5501 15.544 1.90559 15.4411 2.18404 15.2185L3.58333 14.0969V32.5332H1.34375C0.987365 32.5332 0.645577 32.6748 0.393575 32.9268C0.141573 33.1788 0 33.5205 0 33.8769C0 34.2333 0.141573 34.5751 0.393575 34.8271C0.645577 35.0791 0.987365 35.2207 1.34375 35.2207H37.1771C37.5335 35.2207 37.8753 35.0791 38.1273 34.8271C38.3793 34.5751 38.5208 34.2333 38.5208 33.8769C38.5208 33.5205 38.3793 33.1788 38.1273 32.9268C37.8753 32.6748 37.5335 32.5332 37.1771 32.5332H34.9375V14.0969ZM14.3333 11.4811C14.3333 10.1744 14.8524 8.92113 15.7764 7.99713C16.7004 7.07312 17.9537 6.55402 19.2604 6.55402C20.5672 6.55402 21.8204 7.07312 22.7444 7.99713C23.6684 8.92113 24.1875 10.1744 24.1875 11.4811C24.1875 12.7878 23.6684 14.0411 22.7444 14.9651C21.8204 15.8891 20.5672 16.4082 19.2604 16.4082C17.9537 16.4082 16.7004 15.8891 15.7764 14.9651C14.8524 14.0411 14.3333 12.7878 14.3333 11.4811ZM19.35 18.1999C20.5397 18.1999 21.5663 18.1999 22.3887 18.3109C23.2702 18.4292 24.114 18.6961 24.7985 19.3806C25.4829 20.065 25.7498 20.9089 25.8681 21.7904C25.972 22.5608 25.9792 23.5104 25.9792 24.6086V32.5332H23.2917V24.9186C23.2917 23.6143 23.2881 22.7686 23.2057 22.1487C23.1268 21.5664 23.0014 21.3836 22.8975 21.2815C22.7936 21.1794 22.6126 21.0522 22.0303 20.9734C21.4086 20.8909 20.5647 20.8874 19.2604 20.8874C17.9561 20.8874 17.1104 20.8909 16.4905 20.9734C15.9082 21.0522 15.7255 21.1794 15.6233 21.2815C15.5212 21.3836 15.394 21.5664 15.3152 22.1487C15.2327 22.7704 15.2292 23.6143 15.2292 24.9186V32.5332H12.5417V24.829C12.5417 23.6394 12.5417 22.6127 12.6528 21.7904C12.771 20.9089 13.038 20.065 13.7224 19.3806C14.4068 18.6961 15.2525 18.4292 16.1322 18.3109C16.9545 18.1999 17.9812 18.1999 19.1726 18.1999H19.35Z" fill="#262626"/>
</svg>
