<svg width="95" height="95" viewBox="0 0 95 95" fill="none" xmlns="http://www.w3.org/2000/svg">
<g clip-path="url(#clip0_965_737)">
<path fill-rule="evenodd" clip-rule="evenodd" d="M86.3278 0.250956C84.2952 -0.201828 82.1752 -0.0604969 80.2207 0.658099L7.51172 24.9238L7.49137 24.9306C5.64443 25.5604 3.99842 26.6705 2.7224 28.1469C1.44639 29.6232 0.586361 31.4126 0.230653 33.3313C-0.12285 35.0872 -0.0364636 36.9032 0.482115 38.6176C1.00069 40.332 1.93535 41.8915 3.2028 43.157L20.7642 60.6913L20.1874 82.7652C20.1719 83.3552 20.3106 83.9389 20.5897 84.4589C20.8687 84.9788 21.2786 85.417 21.7788 85.7301C22.279 86.0433 22.8522 86.2205 23.4418 86.2444C24.0315 86.2683 24.6171 86.138 25.141 85.8663L38.8074 78.7956L51.8157 91.7495C53.1327 93.0915 54.7757 94.0685 56.5837 94.5847C58.3918 95.101 60.3029 95.1388 62.1299 94.6945C63.9605 94.2652 65.6504 93.3735 67.038 92.1047C68.4257 90.8359 69.4646 89.2324 70.0557 87.4474V87.4406L94.3146 14.752C94.851 13.2786 95.066 11.7075 94.9452 10.1441C94.8244 8.58079 94.3705 7.06138 93.614 5.6879C92.8575 4.31442 91.816 3.11868 90.5593 2.18093C89.3026 1.24318 87.8598 0.585128 86.3278 0.250956Z" fill="#CCEFCC"/>
<path d="M20.7576 60.6914L20.1809 82.7653C20.1654 83.3552 20.304 83.939 20.5831 84.459C20.8622 84.9789 21.272 85.4171 21.7722 85.7302C22.2724 86.0434 22.8456 86.2206 23.4352 86.2445C24.0249 86.2684 24.6106 86.1381 25.1344 85.8664L38.8009 78.7957L20.7576 60.6914Z" fill="#34A853"/>
<path fill-rule="evenodd" clip-rule="evenodd" d="M20.744 61.1594L68.5493 26.4369C69.0002 26.1095 69.3822 25.6964 69.6735 25.2213C69.9647 24.7462 70.1596 24.2183 70.2468 23.6679C70.3341 23.1175 70.3121 22.5553 70.1821 22.0134C70.0521 21.4715 69.8166 20.9605 69.4892 20.5096C69.1617 20.0587 68.7486 19.6767 68.2735 19.3855C67.7984 19.0942 67.2705 18.8994 66.7201 18.8121C66.1697 18.7249 65.6075 18.7468 65.0656 18.8769C64.5237 19.0069 64.0127 19.2423 63.5618 19.5698L14.949 54.8827L20.7575 60.6912L20.744 61.1594Z" fill="#34A853"/>
</g>
<defs>
<clipPath id="clip0_965_737">
<rect width="95" height="95" fill="white"/>
</clipPath>
</defs>
</svg>
