<svg width="72" height="72" viewBox="0 0 72 72" fill="none" xmlns="http://www.w3.org/2000/svg">
<path d="M12.756 30C12.252 31.9601 11.998 33.9761 12 36C12 38.07 12.264 40.08 12.756 42H21.3C20.899 38.0101 20.899 33.99 21.3 30H12.756ZM15.21 24H22.248C23.046 20.349 24.198 17.079 25.611 14.358C21.2561 16.457 17.6324 19.8163 15.21 24ZM59.244 30H50.7C51.101 33.99 51.101 38.0101 50.7 42H59.244C60.2536 38.0637 60.2536 33.9363 59.244 30ZM56.79 24C54.3676 19.8163 50.7439 16.457 46.389 14.358C47.805 17.079 48.954 20.349 49.752 24H56.79ZM27.336 30C27.1127 31.9922 27.0005 33.9953 27 36C27 38.055 27.114 40.065 27.336 42H44.664C45.1149 38.0127 45.1149 33.9873 44.664 30H27.336ZM28.41 24H43.59C43.0431 21.7452 42.2556 19.5556 41.241 17.469C39.357 13.704 37.341 12 36 12C34.659 12 32.643 13.704 30.759 17.469C29.814 19.365 29.019 21.57 28.41 24ZM15.21 48C17.6324 52.1837 21.2561 55.543 25.611 57.642C24.195 54.921 23.046 51.651 22.248 48H15.21ZM56.79 48H49.752C48.954 51.651 47.802 54.921 46.389 57.642C50.7439 55.543 54.3676 52.1837 56.79 48ZM28.41 48C29.019 50.43 29.814 52.635 30.759 54.531C32.643 58.296 34.659 60 36 60C37.341 60 39.357 58.296 41.241 54.531C42.186 52.635 42.981 50.43 43.59 48H28.41ZM36 66C19.431 66 6 52.569 6 36C6 19.431 19.431 6 36 6C52.569 6 66 19.431 66 36C66 52.569 52.569 66 36 66Z" fill="#34A853"/>
</svg>
