<svg width="76" height="76" viewBox="0 0 76 76" fill="none" xmlns="http://www.w3.org/2000/svg">
<path d="M12.2882 34.7417C11.4049 35.6201 10.704 36.6644 10.2257 37.8147C9.74744 38.9649 9.50122 40.1983 9.50122 41.444C9.50122 42.6896 9.74744 43.923 10.2257 45.0733C10.704 46.2235 11.4049 47.2678 12.2882 48.1462L27.9442 63.7262C29.7352 65.5037 32.1563 66.5012 34.6797 66.5012C37.203 66.5012 39.6241 65.5037 41.4152 63.7262L63.5977 41.653C65.3615 39.8924 66.3629 37.5092 66.3859 35.0172L66.4999 19.0477C66.5062 17.7909 66.2631 16.5454 65.7846 15.3833C65.3062 14.2211 64.6019 13.1655 63.7125 12.2775C62.8232 11.3895 61.7665 10.6867 60.6037 10.21C59.4408 9.73328 58.1949 9.49202 56.9382 9.5002L41.5007 9.5667C38.9893 9.56975 36.5812 10.5671 34.8032 12.3407L12.2882 34.7417ZM52.2499 28.5002C50.9901 28.5002 49.782 27.9998 48.8912 27.109C48.0004 26.2182 47.4999 25.01 47.4999 23.7502C47.4999 22.4904 48.0004 21.2822 48.8912 20.3914C49.782 19.5006 50.9901 19.0002 52.2499 19.0002C53.5097 19.0002 54.7179 19.5006 55.6087 20.3914C56.4995 21.2822 56.9999 22.4904 56.9999 23.7502C56.9999 25.01 56.4995 26.2182 55.6087 27.109C54.7179 27.9998 53.5097 28.5002 52.2499 28.5002Z" fill="#34A853"/>
</svg>
