<svg width="50" height="54" viewBox="0 0 50 54" fill="none" xmlns="http://www.w3.org/2000/svg">
<path d="M0 6.75C0 3.024 3.26667 0 7.29167 0H26.0417C30.0667 0 33.3333 3.024 33.3333 6.75V8.84443L45.7292 20.3194C47.0833 21.5731 48.1575 23.0614 48.8903 24.6994C49.623 26.3374 50.0001 28.093 50 29.8659V52.0714C50 52.5829 49.7805 53.0735 49.3898 53.4351C48.9991 53.7968 48.4692 54 47.9167 54C47.3641 54 46.8342 53.7968 46.4435 53.4351C46.0528 53.0735 45.8333 52.5829 45.8333 52.0714V29.8659C45.8336 28.5995 45.5644 27.3454 45.041 26.1753C44.5177 25.0052 43.7506 23.942 42.7833 23.0464L33.3333 14.2984V24.2691L36.8917 27.5631C37.2829 27.9248 37.5029 28.4154 37.5032 28.9272C37.5036 29.439 37.2844 29.9299 36.8937 30.2921C36.5031 30.6542 35.9731 30.8579 35.4202 30.8582C34.8674 30.8586 34.337 30.6556 33.9458 30.294L25.4917 22.464L23.8417 21.1294C23.1898 20.8203 22.4402 20.7367 21.7277 20.8937C21.0152 21.0507 20.3866 21.4379 19.9551 21.9857C19.5235 22.5336 19.3174 23.206 19.3738 23.882C19.4301 24.5579 19.7453 25.1931 20.2625 25.6731L26.475 31.4203C26.6691 31.5994 26.8231 31.8122 26.9282 32.0465C27.0333 32.2808 27.0874 32.532 27.0875 32.7857V36.6429C27.0875 37.6658 27.5265 38.6469 28.3079 39.3703C29.0893 40.0936 30.1491 40.5 31.2542 40.5C31.806 40.501 32.3348 40.7047 32.7246 41.0662C33.1144 41.4278 33.3333 41.9177 33.3333 42.4286V47.25C33.3333 49.0402 32.5651 50.7571 31.1977 52.023C29.8302 53.2888 27.9755 54 26.0417 54H7.29167C5.3578 54 3.50313 53.2888 2.13568 52.023C0.768227 50.7571 0 49.0402 0 47.25V6.75ZM29.1667 45.3214V44.1141C27.9554 43.8237 26.8304 43.2845 25.875 42.5366C24.4542 42.7957 23.1747 43.5036 22.2552 44.5392C21.3356 45.5747 20.833 46.8738 20.8333 48.2143V50.1429H23.9583C24.3194 50.1429 24.6667 50.1107 25 50.0464V48.2143C25 47.7028 25.2195 47.2123 25.6102 46.8506C26.0009 46.4889 26.5308 46.2857 27.0833 46.2857H29.0625C29.1292 45.9771 29.1639 45.6557 29.1667 45.3214ZM22.1125 32.8397L17.3208 28.4001C16.0288 27.2046 15.2719 25.6016 15.2017 23.9117C15.1314 22.2219 15.7528 20.5697 16.9417 19.2857H16.6667C15.3221 19.2858 13.9975 19.5871 12.806 20.1638C11.6145 20.7406 10.5915 21.5756 9.82417 22.5977C9.05688 23.6199 8.56815 24.7987 8.3997 26.0335C8.23125 27.2684 8.38808 28.5227 8.85681 29.6893C9.32553 30.8559 10.0922 31.9001 11.0915 32.733C12.0907 33.5658 13.2928 34.1624 14.5951 34.472C15.8974 34.7815 17.2613 34.7947 18.5703 34.5105C19.8794 34.2262 21.0947 33.653 22.1125 32.8397ZM12.5 5.78571V3.85714H9.375C9.01389 3.85714 8.66667 3.88929 8.33333 3.95357V5.78571C8.33333 6.2972 8.11384 6.78774 7.72314 7.14942C7.33244 7.5111 6.80253 7.71429 6.25 7.71429H4.27083C4.20139 8.02286 4.16667 8.34429 4.16667 8.67857V11.5714H6.25C7.9076 11.5714 9.49732 10.9619 10.6694 9.87683C11.8415 8.7918 12.5 7.32018 12.5 5.78571ZM6.25 42.4286H4.16667V45.3214C4.16667 45.6557 4.20139 45.9771 4.27083 46.2857H6.25C6.80253 46.2857 7.33244 46.4889 7.72314 46.8506C8.11384 47.2123 8.33333 47.7028 8.33333 48.2143V50.0464C8.66667 50.1081 9.01389 50.1403 9.375 50.1429H12.5V48.2143C12.5 46.6798 11.8415 45.2082 10.6694 44.1232C9.49732 43.0381 7.9076 42.4286 6.25 42.4286ZM25 5.78571V3.95357C24.657 3.89037 24.3081 3.85808 23.9583 3.85714H20.8333V5.78571C20.8333 7.32018 21.4918 8.7918 22.6639 9.87683C23.836 10.9619 25.4257 11.5714 27.0833 11.5714H29.1667V8.67857C29.1667 8.34429 29.1319 8.02286 29.0625 7.71429H27.0833C26.5308 7.71429 26.0009 7.5111 25.6102 7.14942C25.2195 6.78774 25 6.2972 25 5.78571Z" fill="#34A853"/>
</svg>
