<svg width="64" height="64" viewBox="0 0 64 64" fill="none" xmlns="http://www.w3.org/2000/svg">
<path fill-rule="evenodd" clip-rule="evenodd" d="M48.5258 15.9726L49.5132 10.0435C49.9932 7.17718 47.7669 4.42061 44.8823 4.76347C41.5132 5.16576 37.7326 6.3269 35.1818 9.66404C33.6144 9.39569 32.0267 9.26415 30.4366 9.2709C23.5978 9.2709 17.3715 11.6846 12.7452 15.6298C12.6316 15.5232 12.5125 15.4225 12.3886 15.328C10.4229 13.8698 8.67662 11.9452 7.78519 9.54975C7.45898 8.70891 6.8146 8.03046 5.99165 7.66141C5.16871 7.29236 4.23349 7.26244 3.38864 7.57813C2.54378 7.89383 1.85735 8.5297 1.47807 9.34798C1.09878 10.1663 1.0572 11.101 1.36233 11.9498C2.83433 15.8995 5.56805 18.7886 8.20576 20.7589C5.84137 24.3233 4.5775 28.5044 4.57148 32.7818C4.57148 37.1932 5.90633 41.3166 8.22862 44.8412C8.02443 45.2983 7.86443 45.7829 7.74862 46.2949L6.51433 51.6435C6.02512 53.7713 6.40121 56.0062 7.55986 57.8567C8.71852 59.7072 10.5648 61.0217 12.6926 61.5109C14.8204 62.0001 17.0554 61.624 18.9059 60.4654C20.7564 59.3067 22.0708 57.4604 22.56 55.3326L22.592 55.1955C27.0086 56.4674 31.6682 56.6463 36.1692 55.7166C36.7454 57.7614 38.0901 59.5041 39.9219 60.58C41.7537 61.6559 43.9307 61.9816 45.9972 61.4891C48.0637 60.9965 49.8596 59.7238 51.0091 57.9373C52.1587 56.1508 52.5727 53.9889 52.1646 51.904L59.584 48.192C60.365 47.8012 61.0218 47.2009 61.4812 46.4581C61.9405 45.7154 62.1843 44.8596 62.1852 43.9863V32.7863C62.1852 32.168 62.0634 31.5557 61.8268 30.9844C61.5901 30.4132 61.2433 29.8941 60.8061 29.4569C60.3688 29.0196 59.8498 28.6728 59.2785 28.4362C58.7072 28.1995 58.095 28.0778 57.4766 28.0778H55.7852C54.7383 23.3875 52.1509 19.2 48.5258 15.9726ZM32.7909 22.2903C33.5487 22.2903 34.2754 21.9893 34.8112 21.4535C35.347 20.9177 35.648 20.1909 35.648 19.4332C35.648 18.6754 35.347 17.9487 34.8112 17.4129C34.2754 16.8771 33.5487 16.576 32.7909 16.576H25.6458C24.888 16.576 24.1613 16.8771 23.6255 17.4129C23.0896 17.9487 22.7886 18.6754 22.7886 19.4332C22.7886 20.1909 23.0896 20.9177 23.6255 21.4535C24.1613 21.9893 24.888 22.2903 25.6458 22.2903H32.7909ZM45.7235 25.472C47.3006 25.472 48.5806 26.752 48.5806 28.3292V32.7863C48.5806 33.5441 48.2796 34.2708 47.7438 34.8066C47.208 35.3425 46.4812 35.6435 45.7235 35.6435C44.9657 35.6435 44.239 35.3425 43.7032 34.8066C43.1674 34.2708 42.8663 33.5441 42.8663 32.7863V28.3292C42.8663 26.752 44.1463 25.472 45.7235 25.472Z" fill="#34A853"/>
</svg>
