<svg width="74" height="68" viewBox="0 0 74 68" fill="none" xmlns="http://www.w3.org/2000/svg">
<path d="M27.7501 30.2795C27.9285 30.4959 28.1403 30.6877 28.3791 30.8488C28.1406 31.0092 27.9287 31.2 27.7501 31.4153C27.5715 31.2 27.3596 31.0092 27.1211 30.8488C27.3598 30.6877 27.5717 30.4959 27.7501 30.2795Z" fill="#34A853"/>
<path fill-rule="evenodd" clip-rule="evenodd" d="M58.5834 8.41333C63.711 8.41333 67.8334 12.1657 67.8334 16.8266V36.4577C67.8334 41.1187 63.711 44.871 58.5834 44.871H50.798C50.3383 44.8714 49.8847 44.9661 49.4709 45.1482C49.0572 45.3303 48.694 45.5951 48.4084 45.9227L39.3897 56.1589C39.1008 56.4874 38.7344 56.7527 38.3175 56.9349C37.9007 57.1172 37.4441 57.2119 36.9816 57.2119C36.5191 57.2119 36.0625 57.1172 35.6456 56.9349C35.2288 56.7527 34.8624 56.4874 34.5735 56.1589L25.5517 45.9227C25.2664 45.5954 24.9037 45.3309 24.4905 45.1488C24.0773 44.9667 23.6243 44.8718 23.1652 44.871H15.4167C10.2922 44.871 6.16675 41.1187 6.16675 36.4577V16.8266C6.16675 12.1657 10.2922 8.41333 15.4167 8.41333H58.5834ZM30.5929 24.1014C29.8745 21.4932 25.9062 21.4147 24.9874 23.8574L24.9103 24.1014L23.9946 27.4302L20.3347 28.2631C17.3747 28.9362 17.3747 32.7615 20.3347 33.4345L23.9946 34.2674L24.9103 37.5963C25.6503 40.2858 29.8529 40.2858 30.5929 37.5963L31.5087 34.2674L35.1686 33.4345C38.1286 32.7615 38.1286 28.9362 35.1686 28.2631L31.5087 27.4302L30.5929 24.1014ZM47.7917 14.7233C47.2764 14.7237 46.7759 14.8806 46.3698 15.1692C45.9637 15.4578 45.6752 15.8615 45.5502 16.3162L44.6467 19.575L41.0608 20.3939C40.5594 20.5069 40.114 20.7693 39.7956 21.1393C39.4773 21.5093 39.3043 21.9657 39.3043 22.4355C39.3043 22.9054 39.4773 23.3617 39.7956 23.7317C40.114 24.1018 40.5594 24.3642 41.0608 24.4771L44.6467 25.2904L45.5471 28.5548C45.6735 29.0083 45.9626 29.4106 46.3685 29.6979C46.7745 29.9852 47.2743 30.1412 47.7887 30.1412C48.3031 30.1412 48.8028 29.9852 49.2088 29.6979C49.6148 29.4106 49.9038 29.0083 50.0302 28.5548L50.9306 25.2932L54.5196 24.4771C55.021 24.3642 55.4664 24.1018 55.7848 23.7317C56.1031 23.3617 56.2761 22.9054 56.2761 22.4355C56.2761 21.9657 56.1031 21.5093 55.7848 21.1393C55.4664 20.7693 55.021 20.5069 54.5196 20.3939L50.9306 19.575L50.0333 16.3162C49.9081 15.861 49.6192 15.457 49.2125 15.1683C48.8057 14.8797 48.3046 14.7231 47.7887 14.7233" fill="#34A853"/>
</svg>
