<svg width="72" height="72" viewBox="0 0 72 72" fill="none" xmlns="http://www.w3.org/2000/svg">
<path d="M66 11.8198L36 1.31982L6 11.8198V35.9998C6 48.3808 13.602 57.0358 20.688 62.4088C24.9662 65.6201 29.6587 68.2388 34.638 70.1938C34.978 70.3218 35.32 70.4438 35.664 70.5598L36 70.6798L36.342 70.5598C36.998 70.332 37.6482 70.0879 38.292 69.8278C42.9292 67.9173 47.3044 65.4243 51.312 62.4088C58.401 57.0358 66 48.3808 66 35.9998V11.8198ZM33.003 46.2448L20.28 33.5158L24.522 29.2708L33.006 37.7578L49.977 20.7868L54.222 25.0288L33.003 46.2448Z" fill="#34A853"/>
</svg>
