<svg width="58" height="58" viewBox="0 0 58 58" fill="none" xmlns="http://www.w3.org/2000/svg">
<path fill-rule="evenodd" clip-rule="evenodd" d="M47.7566 19.1953C47.7566 21.7161 47.2601 24.2122 46.2955 26.541C45.3308 28.8699 43.9169 30.986 42.1345 32.7684C40.352 34.5509 38.2359 35.9648 35.907 36.9295C33.5782 37.8941 31.0821 38.3906 28.5613 38.3906C26.0406 38.3906 23.5445 37.8941 21.2156 36.9295C18.8867 35.9648 16.7706 34.5509 14.9882 32.7684C13.2057 30.986 11.7918 28.8699 10.8272 26.541C9.8625 24.2122 9.366 21.7161 9.366 19.1953C9.366 14.1044 11.3884 9.222 14.9882 5.62218C18.588 2.02236 23.4704 0 28.5613 0C33.6522 0 38.5346 2.02236 42.1345 5.62218C45.7343 9.222 47.7566 14.1044 47.7566 19.1953ZM28.4288 9.22819L31.8281 15.0557L37.6556 16.5099L33.7706 20.8806L34.7419 27.6793L28.4288 24.7656L22.1183 27.6793L23.0895 20.8806L19.2045 16.5099L25.032 15.0531L28.4288 9.22819ZM0 48.8106L9.513 32.3308C11.2933 34.9167 13.5821 37.1126 16.2395 38.7843C18.8969 40.456 21.8672 41.5685 24.969 42.0538L15.7999 57.9324L12.4346 45.5136L0 48.8053V48.8106ZM41.3175 57.9324L32.151 42.0512C35.2526 41.5662 38.2227 40.4541 40.8801 38.7829C43.5375 37.1116 45.8264 34.9162 47.607 32.3308L57.12 48.8079L44.6828 45.5136L41.3201 57.9298L41.3175 57.9324Z" fill="#34A853"/>
</svg>
