<svg width="60" height="60" viewBox="0 0 60 60" fill="none" xmlns="http://www.w3.org/2000/svg">
<path d="M59.4 5.00751C59.4 2.98751 57.7625 1.34751 55.7425 1.34751H4.52249C3.55213 1.27988 2.59464 1.60049 1.86067 2.23882C1.1267 2.87714 0.676367 3.7809 0.608736 4.75126C0.541106 5.72162 0.86172 6.6791 1.50005 7.41307C2.13837 8.14704 3.04213 8.59738 4.01249 8.66501C4.15508 8.6917 4.28395 8.76716 4.37699 8.87845C4.47004 8.98974 4.52148 9.12994 4.52249 9.27501V44.64C4.52539 44.7826 4.4782 44.9218 4.38913 45.0332C4.30007 45.1447 4.17475 45.2214 4.03499 45.25C3.39665 45.3246 2.81321 45.6471 2.41041 46.1479C2.00762 46.6487 1.81773 47.2877 1.88168 47.9272C1.94562 48.5667 2.25829 49.1555 2.75228 49.5666C3.24627 49.9777 3.88201 50.1782 4.52249 50.125H27.695C28.03 50.125 28.3025 50.4 28.3025 50.7375V51.4925C28.3047 51.5935 28.2813 51.6935 28.2345 51.7831C28.1878 51.8727 28.1191 51.949 28.035 52.005C27.3977 52.4511 26.9193 53.0888 26.6692 53.8253C26.4191 54.5619 26.4103 55.359 26.6442 56.1009C26.8781 56.8428 27.3424 57.4908 27.9697 57.9508C28.597 58.4108 29.3546 58.6588 30.1325 58.6588C30.9104 58.6588 31.668 58.4108 32.2953 57.9508C32.9226 57.4908 33.3869 56.8428 33.6208 56.1009C33.8546 55.359 33.8459 54.5619 33.5958 53.8253C33.3457 53.0888 32.8672 52.4511 32.23 52.005C32.1458 51.949 32.0772 51.8727 32.0304 51.7831C31.9837 51.6935 31.9603 51.5935 31.9625 51.4925V50.7375C31.9625 50.4 32.235 50.1275 32.5725 50.1275H55.7425C56.3893 50.1922 57.0353 49.9972 57.5383 49.5856C58.0414 49.1739 58.3603 48.5793 58.425 47.9325C58.4896 47.2857 58.2947 46.6397 57.883 46.1367C57.4714 45.6336 56.8768 45.3147 56.23 45.25C56.0902 45.2214 55.9649 45.1447 55.8758 45.0332C55.7868 44.9218 55.7396 44.7826 55.7425 44.64V9.22501C55.746 9.08054 55.7988 8.94161 55.8919 8.83116C55.9851 8.72071 56.1132 8.64534 56.255 8.61751C57.1262 8.49579 57.9242 8.06351 58.5021 7.40021C59.0799 6.73691 59.3988 5.88722 59.4 5.00751ZM50.865 44.64C50.865 44.975 50.59 45.25 50.255 45.25H10.0125C9.8507 45.25 9.69555 45.1857 9.58115 45.0713C9.46675 44.9569 9.40249 44.8018 9.40249 44.64V9.27501C9.40249 8.93751 9.67499 8.66501 10.0125 8.66501H50.255C50.59 8.66501 50.865 8.94001 50.865 9.27501V44.64Z" fill="#34A853"/>
<path d="M22.2049 40.37C22.2199 41.375 23.0299 42.1875 24.0349 42.2H47.2049C47.6782 42.1825 48.1263 41.9822 48.455 41.6411C48.7836 41.3001 48.9673 40.8449 48.9673 40.3713C48.9673 39.8976 48.7836 39.4424 48.455 39.1014C48.1263 38.7603 47.6782 38.56 47.2049 38.5425H45.3749C45.2136 38.5419 45.059 38.4773 44.9452 38.363C44.8313 38.2486 44.7674 38.0939 44.7674 37.9325V26.9575C44.7674 26.3104 44.5103 25.6898 44.0528 25.2322C43.5952 24.7746 42.9745 24.5175 42.3274 24.5175H39.8874C39.5671 24.5175 39.2499 24.5806 38.954 24.7033C38.6581 24.8259 38.3893 25.0057 38.163 25.2323C37.9366 25.4589 37.7571 25.7279 37.6347 26.024C37.5124 26.32 37.4496 26.6372 37.4499 26.9575V37.9325C37.4499 38.27 37.1749 38.5425 36.8399 38.5425H34.3999C34.2381 38.5425 34.083 38.4782 33.9686 38.3638C33.8542 38.2495 33.7899 38.0943 33.7899 37.9325V34.275C33.7899 33.6283 33.5332 33.0081 33.0761 32.5506C32.6191 32.093 31.9991 31.8357 31.3524 31.835H28.9124C28.2657 31.8357 27.6457 32.093 27.1887 32.5506C26.7316 33.0081 26.4749 33.6283 26.4749 34.275V37.9325C26.4749 38.27 26.1999 38.5425 25.8649 38.5425H24.0349C23.5516 38.5477 23.0895 38.7418 22.7475 39.0834C22.4055 39.4249 22.2108 39.8867 22.2049 40.37ZM25.2549 27.5675C25.3 26.6136 25.0993 25.6641 24.6721 24.81C24.2448 23.956 23.6053 23.226 22.8149 22.69L18.2549 19.7625C18.1572 19.6935 18.0774 19.6022 18.0221 19.496C17.9669 19.3899 17.9378 19.2721 17.9374 19.1525C17.9437 18.9602 18.0228 18.7775 18.1589 18.6415C18.2949 18.5054 18.4776 18.4263 18.6699 18.42H22.8149C23.4616 18.42 24.0819 18.1633 24.5394 17.7062C24.9969 17.2492 25.2543 16.6292 25.2549 15.9825C25.2644 15.4049 25.0686 14.8426 24.7023 14.3958C24.3361 13.949 23.8232 13.6466 23.2549 13.5425C23.1348 13.518 23.0245 13.4587 22.9379 13.3721C22.8512 13.2854 22.7919 13.1751 22.7674 13.055C22.6633 12.4867 22.3609 11.9738 21.9141 11.6076C21.4673 11.2414 20.9051 11.0456 20.3274 11.055C19.7403 11.0621 19.1755 11.2806 18.7365 11.6704C18.2975 12.0603 18.0138 12.5954 17.9374 13.1775C17.9287 13.3023 17.8784 13.4206 17.7945 13.5135C17.7107 13.6064 17.5982 13.6685 17.4749 13.69C13.2574 14.525 11.5299 19.6175 14.3674 22.85C14.7007 23.23 15.0782 23.5583 15.4999 23.835L19.9874 26.81C20.2499 26.9675 20.4024 27.26 20.3774 27.5675C20.3705 27.7594 20.2911 27.9414 20.1551 28.077C20.0191 28.2125 19.8368 28.2913 19.6449 28.2975H15.4999C14.8528 28.2975 14.2322 28.5546 13.7746 29.0122C13.317 29.4698 13.0599 30.0904 13.0599 30.7375C13.0399 31.93 13.8849 32.9625 15.0599 33.1775C15.3049 33.2275 15.4949 33.42 15.5474 33.665C15.6534 34.2324 15.9563 34.7441 16.4026 35.11C16.849 35.4759 17.4103 35.6725 17.9874 35.665C18.5793 35.6702 19.1529 35.46 19.6013 35.0737C20.0497 34.6873 20.3425 34.1511 20.4249 33.565C20.4368 33.4411 20.4885 33.3245 20.5724 33.2325C20.6562 33.1405 20.7677 33.0783 20.8899 33.055C22.137 32.7806 23.2516 32.0854 24.0465 31.0861C24.8414 30.0868 25.2681 28.8443 25.2549 27.5675Z" fill="#34A853"/>
</svg>
