<svg width="55" height="55" viewBox="0 0 55 55" fill="none" xmlns="http://www.w3.org/2000/svg">
<g filter="url(#filter0_d_2354_454)">
<path d="M12.0312 32.6562V22.3438H16.3281V18.9062H4.29688V22.3438H8.59375V32.6562H12.0312ZM35.8234 32.6562L38.2422 28.9349L40.661 32.6562H44.7609L40.2921 25.7812L44.7609 18.9062H40.661L38.2422 22.6276L35.8234 18.9062H31.7235L36.1923 25.7812L31.7235 32.6562H35.8234ZM47.2656 18.9062H50.7031V32.6562H47.2656V18.9062ZM4.29688 11.1719H50.7031V14.6094H4.29688V11.1719ZM4.29688 36.9531H50.7031V40.3906H4.29688V36.9531ZM25.9249 30.0781L26.7842 32.6562H30.4077L25.8242 18.9062H20.888L16.6514 32.6562H20.2483L21.0432 30.0781H25.9249ZM23.3879 22.4669L24.7791 26.6406H22.1018L23.3879 22.4669Z" fill="white"/>
</g>
<defs>
<filter id="filter0_d_2354_454" x="0.296875" y="11.1719" width="54.4062" height="37.2188" filterUnits="userSpaceOnUse" color-interpolation-filters="sRGB">
<feFlood flood-opacity="0" result="BackgroundImageFix"/>
<feColorMatrix in="SourceAlpha" type="matrix" values="0 0 0 0 0 0 0 0 0 0 0 0 0 0 0 0 0 0 127 0" result="hardAlpha"/>
<feOffset dy="4"/>
<feGaussianBlur stdDeviation="2"/>
<feComposite in2="hardAlpha" operator="out"/>
<feColorMatrix type="matrix" values="0 0 0 0 0 0 0 0 0 0 0 0 0 0 0 0 0 0 0.25 0"/>
<feBlend mode="normal" in2="BackgroundImageFix" result="effect1_dropShadow_2354_454"/>
<feBlend mode="normal" in="SourceGraphic" in2="effect1_dropShadow_2354_454" result="shape"/>
</filter>
</defs>
</svg>
