<svg width="65" height="52" viewBox="0 0 65 52" fill="none" xmlns="http://www.w3.org/2000/svg">
<g clip-path="url(#clip0_2354_461)">
<g filter="url(#filter0_d_2354_461)">
<path d="M44.25 5C50.7419 5 56 10.8734 56 18.125V36.5C56 39.3957 53.8923 41.75 51.3 41.75H50.8888C49.9194 44.8098 47.3197 47 44.25 47C41.1803 47 38.5733 44.8098 37.6112 41.75H27.3961C26.4267 44.8098 23.8197 47 20.7573 47C17.695 47 15.088 44.8098 14.1186 41.75H13.7C11.1077 41.75 9 39.3957 9 36.5V12.875C9 8.52734 12.1578 5 16.05 5H44.25ZM20.75 35.1875C19.8151 35.1875 18.9185 35.6023 18.2574 36.3408C17.5964 37.0792 17.225 38.0807 17.225 39.125C17.225 40.1693 17.5964 41.1708 18.2574 41.9092C18.9185 42.6477 19.8151 43.0625 20.75 43.0625C21.6849 43.0625 22.5815 42.6477 23.2426 41.9092C23.9036 41.1708 24.275 40.1693 24.275 39.125C24.275 38.0807 23.9036 37.0792 23.2426 36.3408C22.5815 35.6023 21.6849 35.1875 20.75 35.1875ZM44.25 35.1875C43.3151 35.1875 42.4185 35.6023 41.7574 36.3408C41.0964 37.0792 40.725 38.0807 40.725 39.125C40.725 40.1693 41.0964 41.1708 41.7574 41.9092C42.4185 42.6477 43.3151 43.0625 44.25 43.0625C45.1849 43.0625 46.0815 42.6477 46.7425 41.9092C47.4036 41.1708 47.775 40.1693 47.775 39.125C47.775 38.0807 47.4036 37.0792 46.7425 36.3408C46.0815 35.6023 45.1849 35.1875 44.25 35.1875ZM44.25 10.25C42.9502 10.25 41.9 11.423 41.9 12.875V28.625C41.9 30.077 42.9502 31.25 44.25 31.25H48.95C50.2498 31.25 51.3 30.077 51.3 28.625V18.125C51.3 13.7773 48.1422 10.25 44.25 10.25ZM27.2125 23.375H34.85C36.1498 23.375 37.2 22.202 37.2 20.75V12.875C37.2 11.423 36.1498 10.25 34.85 10.25H27.2125V23.375ZM16.05 10.25C14.7502 10.25 13.7 11.423 13.7 12.875V20.75C13.7 22.202 14.7502 23.375 16.05 23.375H23.6875V10.25H16.05Z" fill="white"/>
</g>
</g>
<defs>
<filter id="filter0_d_2354_461" x="5" y="5" width="55" height="50" filterUnits="userSpaceOnUse" color-interpolation-filters="sRGB">
<feFlood flood-opacity="0" result="BackgroundImageFix"/>
<feColorMatrix in="SourceAlpha" type="matrix" values="0 0 0 0 0 0 0 0 0 0 0 0 0 0 0 0 0 0 127 0" result="hardAlpha"/>
<feOffset dy="4"/>
<feGaussianBlur stdDeviation="2"/>
<feComposite in2="hardAlpha" operator="out"/>
<feColorMatrix type="matrix" values="0 0 0 0 0 0 0 0 0 0 0 0 0 0 0 0 0 0 0.25 0"/>
<feBlend mode="normal" in2="BackgroundImageFix" result="effect1_dropShadow_2354_461"/>
<feBlend mode="normal" in="SourceGraphic" in2="effect1_dropShadow_2354_461" result="shape"/>
</filter>
<clipPath id="clip0_2354_461">
<rect width="65" height="52" fill="white"/>
</clipPath>
</defs>
</svg>
