<svg width="60" height="60" viewBox="0 0 60 60" fill="none" xmlns="http://www.w3.org/2000/svg">
<g clip-path="url(#clip0_2354_383)">
<g filter="url(#filter0_d_2354_383)">
<path d="M57.9209 32.3695C57.499 27.634 56.8041 26.7117 56.5416 26.3648C55.9381 25.5633 54.9724 25.0395 53.9506 24.4898C53.8928 24.4593 53.8429 24.4157 53.8048 24.3626C53.7668 24.3094 53.7416 24.2482 53.7312 24.1836C53.7209 24.1191 53.7257 24.053 53.7452 23.9906C53.7648 23.9283 53.7986 23.8713 53.8439 23.8242C54.0332 23.6323 54.1786 23.4017 54.2702 23.1482C54.3619 22.8947 54.3976 22.6244 54.3748 22.3559C54.3307 21.8796 54.1093 21.4373 53.7544 21.1167C53.3995 20.7961 52.937 20.6206 52.4588 20.625H50.6306C50.5523 20.6255 50.474 20.6306 50.3963 20.6402C50.3429 20.6171 50.2876 20.5987 50.231 20.5852C49.1482 18.2965 47.6658 15.1629 44.5932 13.6336C40.0357 11.3672 31.6404 11.25 29.9998 11.25C28.3592 11.25 19.9639 11.3672 15.4123 13.6301C12.3396 15.1594 10.8572 18.293 9.7744 20.5816L9.76503 20.6004C9.71102 20.608 9.65798 20.6213 9.60682 20.6402C9.52907 20.6306 9.4508 20.6255 9.37245 20.625H7.54081C7.06255 20.6206 6.60012 20.7961 6.24522 21.1167C5.89031 21.4373 5.66886 21.8796 5.62479 22.3559C5.60398 22.6238 5.64126 22.8931 5.73409 23.1453C5.82693 23.3975 5.97312 23.6267 6.16268 23.8172C6.20803 23.8643 6.24182 23.9212 6.26138 23.9836C6.28094 24.046 6.28574 24.1121 6.2754 24.1766C6.26506 24.2411 6.23986 24.3024 6.20179 24.3555C6.16373 24.4087 6.11383 24.4523 6.05604 24.4828C5.03417 25.0359 4.06385 25.5598 3.46503 26.3578C3.20253 26.7094 2.50877 27.627 2.08573 32.3625C1.85135 35.0273 1.8162 37.7859 2.00018 39.5625C2.38573 43.2539 3.10878 45.4852 3.13924 45.5777C3.2502 45.9146 3.45443 46.2132 3.72824 46.4386C4.00205 46.6641 4.33419 46.8073 4.68612 46.8516V46.875C4.68612 47.3723 4.88366 47.8492 5.23529 48.2008C5.58692 48.5525 6.06384 48.75 6.56112 48.75H13.1236C13.6209 48.75 14.0978 48.5525 14.4494 48.2008C14.8011 47.8492 14.9986 47.3723 14.9986 46.875C16.0076 46.875 16.7096 46.6945 17.4537 46.5023C18.5281 46.213 19.6262 46.0204 20.7349 45.927C24.3103 45.5859 27.8658 45.4688 29.9998 45.4688C32.0904 45.4688 35.8029 45.5859 39.3842 45.927C40.4973 46.0204 41.5998 46.2138 42.6783 46.5047C43.3908 46.6875 44.067 46.8562 45.0033 46.8738C45.0033 47.3711 45.2008 47.848 45.5525 48.1997C45.9041 48.5513 46.381 48.7488 46.8783 48.7488H53.4408C53.9381 48.7488 54.415 48.5513 54.7666 48.1997C55.1183 47.848 55.3158 47.3711 55.3158 46.8738V46.8598C55.6686 46.8163 56.0017 46.6735 56.2764 46.448C56.5511 46.2225 56.7561 45.9235 56.8674 45.5859C56.8978 45.4934 57.6209 43.2621 58.0064 39.5707C58.1904 37.793 58.1576 35.0391 57.9209 32.3695ZM13.1635 22.1848C14.101 20.1926 15.1732 17.9379 17.0822 16.9875C19.8408 15.6141 25.5584 14.9953 29.9998 14.9953C34.4412 14.9953 40.1588 15.6094 42.9174 16.9875C44.8264 17.9379 45.8939 20.1937 46.8361 22.1848L46.9533 22.4391C47.0218 22.5838 47.0521 22.7437 47.0413 22.9035C47.0305 23.0633 46.9789 23.2177 46.8914 23.3519C46.804 23.4861 46.6837 23.5957 46.5419 23.6702C46.4001 23.7446 46.2415 23.7815 46.0814 23.7773C42.1873 23.6719 33.9842 23.3344 29.9998 23.3344C26.0154 23.3344 17.8123 23.6801 13.9123 23.7855C13.7522 23.7897 13.5937 23.7528 13.4519 23.6784C13.3101 23.6039 13.1897 23.4943 13.1023 23.3601C13.0148 23.2259 12.9633 23.0716 12.9524 22.9117C12.9416 22.7519 12.9719 22.592 13.0404 22.4473C13.0814 22.3605 13.1248 22.2727 13.1635 22.1848ZM14.5615 31.5164C12.5457 31.7591 10.5169 31.8788 8.48651 31.875C7.24432 31.875 5.96346 31.5234 5.72557 30.4172C5.56268 29.673 5.58026 29.2547 5.66815 28.834C5.74198 28.4766 5.85917 28.2164 6.4451 28.125C7.96854 27.8906 8.82049 28.1848 11.3142 28.9195C12.9678 29.4059 14.1607 30.0539 14.8404 30.5672C15.1814 30.8203 14.9998 31.4813 14.5615 31.5164ZM40.5045 41.1258C38.9623 41.3016 35.8779 41.2371 30.0349 41.2371C24.192 41.2371 21.1088 41.3016 19.5666 41.1258C17.9752 40.9488 15.9467 39.4441 17.3318 38.1035C18.2541 37.2199 20.4057 36.559 23.2709 36.1875C26.1361 35.816 27.349 35.625 30.0232 35.625C32.6974 35.625 33.7873 35.7422 36.7756 36.1887C39.7639 36.6352 42.0221 37.3043 42.7146 38.1047C43.9779 39.5391 42.0947 40.9395 40.5045 41.1328V41.1258ZM54.274 30.416C54.0396 31.527 52.7506 31.8738 51.5131 31.8738C49.4438 31.8743 47.3763 31.7546 45.3209 31.5152C44.9623 31.4812 44.7959 30.852 45.1592 30.566C45.8283 30.0398 47.0342 29.4047 48.6853 28.9184C51.1791 28.1836 52.617 27.8895 53.8521 28.1344C54.1533 28.1941 54.3127 28.5176 54.3314 28.7203C54.4142 29.2848 54.3947 29.8596 54.274 30.4172V30.416Z" fill="white"/>
</g>
</g>
<defs>
<filter id="filter0_d_2354_383" x="-2.11719" y="11.25" width="64.2417" height="45.5" filterUnits="userSpaceOnUse" color-interpolation-filters="sRGB">
<feFlood flood-opacity="0" result="BackgroundImageFix"/>
<feColorMatrix in="SourceAlpha" type="matrix" values="0 0 0 0 0 0 0 0 0 0 0 0 0 0 0 0 0 0 127 0" result="hardAlpha"/>
<feOffset dy="4"/>
<feGaussianBlur stdDeviation="2"/>
<feComposite in2="hardAlpha" operator="out"/>
<feColorMatrix type="matrix" values="0 0 0 0 0 0 0 0 0 0 0 0 0 0 0 0 0 0 0.25 0"/>
<feBlend mode="normal" in2="BackgroundImageFix" result="effect1_dropShadow_2354_383"/>
<feBlend mode="normal" in="SourceGraphic" in2="effect1_dropShadow_2354_383" result="shape"/>
</filter>
<clipPath id="clip0_2354_383">
<rect width="60" height="60" fill="white"/>
</clipPath>
</defs>
</svg>
