<svg width="50" height="57" viewBox="0 0 50 57" fill="none" xmlns="http://www.w3.org/2000/svg">
<g clip-path="url(#clip0_2354_446)">
<g filter="url(#filter0_d_2354_446)">
<path d="M25.7335 34.0814C25.7882 34.3368 25.9419 34.5602 26.1608 34.7026C26.3798 34.845 26.6463 34.8949 26.902 34.8414H26.8948L42.7076 31.4024C42.8356 31.3758 42.9567 31.323 43.0634 31.2474C43.17 31.1718 43.2599 31.075 43.3275 30.963L43.3298 30.9583C43.4015 30.8455 43.4498 30.7195 43.4718 30.5877C43.4938 30.456 43.4892 30.3211 43.4581 30.1912L43.4605 30.1983C39.1546 15.5469 30.4787 4.54828 19.6416 -0.0117187H19.549C19.4012 -0.0117543 19.2552 0.0214569 19.122 0.0854564C18.9887 0.149456 18.8716 0.242604 18.7792 0.358006C18.6869 0.473407 18.6216 0.608106 18.5884 0.75213C18.5551 0.896154 18.5547 1.04581 18.5871 1.19003L18.5847 1.18291L25.7335 34.0814ZM10.4408 38.4039L22.931 35.7012C23.1847 35.6463 23.4071 35.4946 23.5508 35.2784L23.5532 35.2737C23.6266 35.1666 23.6761 35.045 23.6982 34.9172C23.7203 34.7893 23.7146 34.6581 23.6815 34.5327L23.6838 34.5398L19.7057 16.2214C19.6684 16.0278 19.5717 15.8507 19.4291 15.7145C19.2866 15.5783 19.1052 15.4899 18.9101 15.4614H18.9053C18.8628 15.4498 18.8188 15.4442 18.7747 15.4448H18.7391C18.5676 15.4437 18.4013 15.488 18.2524 15.5731C18.1035 15.6581 17.9797 15.781 17.8936 15.9293L17.8912 15.934L17.6133 16.409C13.9131 22.6933 10.7045 28.1297 9.25334 37.2972C9.22935 37.4545 9.24335 37.6152 9.29417 37.7661C9.34499 37.9169 9.43116 38.0533 9.54547 38.164C9.66943 38.267 9.81462 38.3412 9.97065 38.3815C10.1267 38.4217 10.2897 38.4269 10.448 38.3968H10.4408V38.4039ZM9.23197 48.4074C9.43233 48.4038 9.62463 48.3278 9.77347 48.1937L10.3435 47.6237C11.4224 46.5519 12.8815 45.9503 14.4023 45.9503C15.9232 45.9503 17.3822 46.5519 18.4612 47.6237L19.0312 48.1937C19.0983 48.2621 19.1786 48.3163 19.2671 48.3531C19.3557 48.3898 19.4507 48.4083 19.5466 48.4074H19.5703C19.7707 48.4038 19.963 48.3278 20.1118 48.1937L20.7175 47.588C21.7932 46.5284 23.2426 45.9346 24.7526 45.935C26.3343 45.935 27.7641 46.5739 28.8043 47.6047L29.3601 48.1604C29.5046 48.302 29.697 48.3842 29.8992 48.3908C30.0996 48.3871 30.2943 48.3112 30.4431 48.177L30.9988 47.6213C32.0778 46.5495 33.5369 45.948 35.0577 45.948C36.5785 45.948 38.0376 46.5495 39.1166 47.6213L39.6866 48.1913C39.8196 48.3219 40.0001 48.405 40.202 48.405H40.2281C40.4285 48.4014 40.6184 48.3255 40.7672 48.1913L41.3372 47.6213C41.8866 47.0734 42.542 46.6435 43.2633 46.3578L43.3013 46.3435C43.3512 46.2438 43.4153 46.1654 43.4652 46.0657L49.3742 34.0173C49.4601 33.8342 49.4947 33.6312 49.4742 33.43C49.4537 33.2288 49.3789 33.0369 49.2578 32.8749L49.2602 32.8773C49.1335 32.7163 48.9641 32.5943 48.7714 32.525C48.5786 32.4557 48.3703 32.442 48.1701 32.4854L48.1772 32.483L6.22047 41.584C6.03205 41.6257 5.85495 41.7078 5.70147 41.8248C5.54798 41.9417 5.42178 42.0907 5.33162 42.2613C5.24146 42.4319 5.1895 42.62 5.17935 42.8127C5.1692 43.0054 5.2011 43.198 5.27284 43.3772L5.27047 43.3677L6.61234 46.7734C7.43409 47.1178 8.13472 47.5952 8.72372 48.1818C8.77682 48.2518 8.84539 48.3086 8.92408 48.3478C9.00278 48.3869 9.08945 48.4073 9.17734 48.4074L9.23672 48.405L9.23197 48.4074ZM48.5026 53.4163C47.6951 52.6159 46.586 52.1243 45.3605 52.1243C44.135 52.1243 43.0235 52.6183 42.2183 53.4187L41.6483 53.9887C41.2647 54.3676 40.7472 54.5802 40.2079 54.5802C39.6686 54.5802 39.1511 54.3676 38.7675 53.9887L38.1975 53.4187C37.39 52.6183 36.2808 52.1267 35.0553 52.1267C33.8298 52.1267 32.7183 52.6207 31.9132 53.421L31.3575 53.9768C30.9747 54.3546 30.4584 54.5663 29.9206 54.5658H29.9063C29.6396 54.5655 29.3757 54.5118 29.1301 54.4078C28.8846 54.3037 28.6623 54.1515 28.4766 53.9602L27.9185 53.402C27.0803 52.571 25.9472 52.1056 24.7668 52.1077C23.5461 52.1077 22.4417 52.5945 21.6318 53.3854L21.0262 53.991C20.6426 54.37 20.125 54.5825 19.5858 54.5825C19.0465 54.5825 18.529 54.37 18.1453 53.991L17.5753 53.421C16.7678 52.6207 15.6587 52.1267 14.4308 52.1267C13.203 52.1267 12.0938 52.6207 11.2863 53.421L10.7163 53.991C10.3327 54.37 9.81517 54.5825 9.2759 54.5825C8.73664 54.5825 8.2191 54.37 7.83547 53.991C6.88072 53.0505 5.56734 52.4687 4.11859 52.4687C2.66984 52.4687 1.35884 53.0505 0.401716 53.991C0.288258 54.1026 0.19815 54.2357 0.136642 54.3825C0.075134 54.5293 0.043457 54.6869 0.043457 54.846C0.043457 55.0052 0.075134 55.1628 0.136642 55.3095C0.19815 55.4563 0.288258 55.5894 0.401716 55.701C0.512338 55.8145 0.644557 55.9047 0.790582 55.9663C0.936607 56.0279 1.09348 56.0596 1.25197 56.0597H1.26147C1.57629 56.0608 1.8787 55.937 2.10222 55.7153C2.36618 55.4499 2.68 55.2393 3.02563 55.0955C3.37126 54.9518 3.74189 54.8778 4.11622 54.8778C4.49054 54.8778 4.86117 54.9518 5.2068 55.0955C5.55243 55.2393 5.86625 55.4499 6.13022 55.7153C6.93772 56.5133 8.04684 57.0073 9.27234 57.0073C10.4978 57.0073 11.6093 56.5133 12.4145 55.7153L12.9845 55.1453C13.3681 54.7663 13.8856 54.5538 14.4249 54.5538C14.9642 54.5538 15.4817 54.7663 15.8653 55.1453L16.4353 55.7153C17.2333 56.5133 18.3353 57.0073 19.5537 57.0073H19.5798H19.5775H19.5846C20.8006 57.0073 21.9026 56.5204 22.7053 55.7295L23.3276 55.1239C23.7112 54.7449 24.2288 54.5324 24.768 54.5324C25.3073 54.5324 25.8248 54.7449 26.2085 55.1239L26.7642 55.6797C27.567 56.4872 28.6785 56.9859 29.9063 56.9883H29.9325C31.1508 56.9883 32.2528 56.4943 33.0485 55.6963L33.6042 55.1405C33.9879 54.7615 34.5054 54.549 35.0447 54.549C35.5839 54.549 36.1015 54.7615 36.4851 55.1405L37.0551 55.7105C37.8626 56.5085 38.9717 57.0025 40.1972 57.0025C41.4227 57.0025 42.5342 56.5085 43.3393 55.7105L43.9093 55.1405C44.293 54.7615 44.8105 54.549 45.3498 54.549C45.889 54.549 46.4066 54.7615 46.7902 55.1405C47.0063 55.3543 47.3032 55.4849 47.6333 55.4849H47.6595C47.8155 55.483 47.9697 55.4504 48.1132 55.3888C48.2566 55.3273 48.3865 55.2381 48.4955 55.1263C48.6102 55.0157 48.7015 54.8832 48.7639 54.7366C48.8263 54.59 48.8586 54.4323 48.8588 54.273C48.8591 54.1136 48.8272 53.9559 48.7652 53.8091C48.7032 53.6623 48.6123 53.5296 48.4978 53.4187L48.5026 53.4163Z" fill="white"/>
</g>
<g filter="url(#filter1_d_2354_446)">
<path d="M4.05913 49.9775H4.06863C4.85238 49.9775 5.56013 50.2958 6.07313 50.8112C6.88063 51.6115 7.98975 52.1032 9.21525 52.1032C10.4408 52.1032 11.5523 51.6092 12.3574 50.8088L12.9274 50.2388C13.311 49.8598 13.8286 49.6473 14.3678 49.6473C14.9071 49.6473 15.4246 49.8598 15.8083 50.2388L16.3783 50.8088C17.1763 51.6092 18.2783 52.1032 19.499 52.1032H19.5228H19.5275C20.7435 52.1032 21.8455 51.6163 22.6483 50.8254L23.2705 50.2198C23.657 49.8379 24.1794 49.6252 24.7227 49.6283C25.266 49.6314 25.7859 49.8502 26.168 50.2364L26.7238 50.7922C27.5265 51.5973 28.638 52.0984 29.8659 52.1008H29.8896C31.108 52.1008 32.21 51.6068 33.008 50.8064L33.5638 50.2507C33.9474 49.8717 34.4649 49.6591 35.0042 49.6591C35.5435 49.6591 36.061 49.8717 36.4446 50.2507L37.0146 50.8207C37.8221 51.621 38.9313 52.1127 40.1567 52.1127C41.3823 52.1127 42.4938 51.6187 43.2989 50.8183L43.8689 50.2483C44.2525 49.8693 44.7701 49.6568 45.3093 49.6568C45.8486 49.6568 46.3661 49.8693 46.7498 50.2483C46.9659 50.462 47.2628 50.5927 47.5905 50.5927H47.6166C47.7727 50.5908 47.9269 50.5581 48.0703 50.4966C48.2138 50.435 48.3437 50.3458 48.4526 50.234C48.5661 50.1224 48.6562 49.9893 48.7177 49.8425C48.7792 49.6957 48.8109 49.5382 48.8109 49.379C48.8109 49.2199 48.7792 49.0623 48.7177 48.9155C48.6562 48.7687 48.5661 48.6356 48.4526 48.524C47.6451 47.7237 46.536 47.232 45.3105 47.232C44.085 47.232 42.9735 47.726 42.1684 48.5264L41.5984 49.0964C41.2147 49.4754 40.6972 49.6879 40.1579 49.6879C39.6187 49.6879 39.1011 49.4754 38.7175 49.0964L38.1475 48.5264C37.34 47.726 36.2309 47.2344 35.0054 47.2344C33.7799 47.2344 32.6684 47.7284 31.8633 48.5288L31.3075 49.0845C30.9248 49.4624 30.4085 49.674 29.8706 49.6735H29.8564C29.5897 49.6733 29.3257 49.6195 29.0802 49.5155C28.8346 49.4115 28.6124 49.2593 28.4266 49.0679L27.8685 48.5098C27.0305 47.6802 25.8984 47.2157 24.7193 47.2178C23.4985 47.2178 22.3918 47.7047 21.5843 48.4955L20.9786 49.1012C20.595 49.4801 20.0775 49.6927 19.5382 49.6927C18.9989 49.6927 18.4814 49.4801 18.0978 49.1012L17.5278 48.5312C16.7203 47.7308 15.6111 47.2368 14.3833 47.2368C13.1554 47.2368 12.0463 47.7308 11.2388 48.5312L10.6688 49.1012C10.2851 49.4801 9.76758 49.6927 9.22832 49.6927C8.68905 49.6927 8.17151 49.4801 7.78788 49.1012C6.83313 48.1607 5.51975 47.5788 4.071 47.5788C2.62225 47.5788 1.31125 48.1607 0.354128 49.1012C0.2392 49.2119 0.147784 49.3447 0.0853439 49.4916C0.0229042 49.6385 -0.00927734 49.7965 -0.00927734 49.9562C-0.00927734 50.1158 0.0229042 50.2738 0.0853439 50.4207C0.147784 50.5676 0.2392 50.7004 0.354128 50.8112C0.46455 50.9251 0.596679 51.0157 0.742714 51.0777C0.888748 51.1397 1.04573 51.1718 1.20438 51.1722H1.21388C1.5287 51.1733 1.83111 51.0495 2.05463 50.8278C2.55575 50.3029 3.25875 49.9752 4.0425 49.9752H4.05438L4.05913 49.9775Z" fill="white"/>
</g>
</g>
<defs>
<filter id="filter0_d_2354_446" x="-3.95654" y="-0.0117188" width="57.4365" height="65.0186" filterUnits="userSpaceOnUse" color-interpolation-filters="sRGB">
<feFlood flood-opacity="0" result="BackgroundImageFix"/>
<feColorMatrix in="SourceAlpha" type="matrix" values="0 0 0 0 0 0 0 0 0 0 0 0 0 0 0 0 0 0 127 0" result="hardAlpha"/>
<feOffset dy="4"/>
<feGaussianBlur stdDeviation="2"/>
<feComposite in2="hardAlpha" operator="out"/>
<feColorMatrix type="matrix" values="0 0 0 0 0 0 0 0 0 0 0 0 0 0 0 0 0 0 0.25 0"/>
<feBlend mode="normal" in2="BackgroundImageFix" result="effect1_dropShadow_2354_446"/>
<feBlend mode="normal" in="SourceGraphic" in2="effect1_dropShadow_2354_446" result="shape"/>
</filter>
<filter id="filter1_d_2354_446" x="-4.00928" y="47.2178" width="56.8203" height="12.8945" filterUnits="userSpaceOnUse" color-interpolation-filters="sRGB">
<feFlood flood-opacity="0" result="BackgroundImageFix"/>
<feColorMatrix in="SourceAlpha" type="matrix" values="0 0 0 0 0 0 0 0 0 0 0 0 0 0 0 0 0 0 127 0" result="hardAlpha"/>
<feOffset dy="4"/>
<feGaussianBlur stdDeviation="2"/>
<feComposite in2="hardAlpha" operator="out"/>
<feColorMatrix type="matrix" values="0 0 0 0 0 0 0 0 0 0 0 0 0 0 0 0 0 0 0.25 0"/>
<feBlend mode="normal" in2="BackgroundImageFix" result="effect1_dropShadow_2354_446"/>
<feBlend mode="normal" in="SourceGraphic" in2="effect1_dropShadow_2354_446" result="shape"/>
</filter>
<clipPath id="clip0_2354_446">
<rect width="49.88" height="57" fill="white"/>
</clipPath>
</defs>
</svg>
