<svg width="48" height="67" viewBox="0 0 48 67" fill="none" xmlns="http://www.w3.org/2000/svg">
<g clip-path="url(#clip0_2354_442)">
<g filter="url(#filter0_d_2354_442)">
<path d="M28.2786 36.7119C26.9333 36.7144 25.6438 37.241 24.6923 38.1764C23.7408 39.1118 23.2048 40.3798 23.2017 41.703V51.9103C23.2017 53.2346 23.7365 54.5047 24.6887 55.4412C25.6408 56.3776 26.9321 56.9037 28.2786 56.9037C29.6251 56.9037 30.9164 56.3776 31.8685 55.4412C32.8206 54.5047 33.3555 53.2346 33.3555 51.9103V51.8083V51.8131V41.7053C33.353 40.3826 32.8179 39.1147 31.8674 38.1789C30.9169 37.2431 29.6283 36.7157 28.2834 36.7119H28.2786Z" fill="white"/>
</g>
<g filter="url(#filter1_d_2354_442)">
<path d="M46.396 6.30423H36.7048C35.5308 2.62137 32.1449 0 28.147 0C24.149 0 20.7656 2.62137 19.6083 6.23953L19.5916 6.30423H10.0271C9.35935 6.30423 8.71892 6.57006 8.24674 7.04324C7.77455 7.51642 7.50928 8.15818 7.50928 8.82736C7.50928 9.49653 7.77455 10.1383 8.24674 10.6115C8.71892 11.0847 9.35935 11.3505 10.0271 11.3505H19.7183C20.3591 13.5046 21.7508 15.2682 23.58 16.3728L23.6182 16.3944C16.7533 18.4718 11.8324 24.7329 11.7894 32.1537V45.3996C11.7993 46.4999 12.2398 47.5524 13.016 48.3307C13.7923 49.109 14.8423 49.551 15.9404 49.5616H19.3405V42.3732C19.3405 39.9984 20.2819 37.7208 21.9577 36.0416C23.6334 34.3623 25.9062 33.4189 28.2761 33.4189C30.646 33.4189 32.9188 34.3623 34.5945 36.0416C36.2703 37.7208 37.2117 39.9984 37.2117 42.3732V49.5616H40.6095C41.7089 49.5541 42.7612 49.1133 43.5389 48.3344C44.3166 47.5556 44.7571 46.5013 44.7653 45.3996V32.2831C44.7637 28.746 43.6228 25.3039 41.5122 22.4688C39.4016 19.6336 36.4341 17.557 33.0512 16.5477L32.9364 16.519C34.8067 15.4015 36.1926 13.6239 36.822 11.535L36.8387 11.4727H46.5299C47.1971 11.4708 47.8364 11.2044 48.3082 10.7316C48.78 10.2588 49.0458 9.61815 49.0477 8.94956C49.0212 8.25625 48.7346 7.5985 48.2452 7.10767C47.7559 6.61685 47.0998 6.32908 46.4079 6.30183H46.4032L46.396 6.30423ZM28.147 13.9934C27.151 13.9934 26.1774 13.6975 25.3493 13.143C24.5212 12.5885 23.8758 11.8004 23.4946 10.8783C23.1135 9.9562 23.0138 8.94157 23.2081 7.96269C23.4024 6.98381 23.882 6.08465 24.5862 5.37892C25.2905 4.67319 26.1878 4.19258 27.1646 3.99787C28.1414 3.80316 29.1539 3.90309 30.0741 4.28503C30.9942 4.66697 31.7807 5.31376 32.334 6.14361C32.8873 6.97347 33.1827 7.94911 33.1827 8.94717L33.1851 9.09093C33.1851 11.7986 30.9948 13.9934 28.2929 13.9934L28.1422 13.991H28.1494L28.147 13.9934Z" fill="white"/>
</g>
</g>
<defs>
<filter id="filter0_d_2354_442" x="19.2017" y="36.7119" width="18.1538" height="28.1914" filterUnits="userSpaceOnUse" color-interpolation-filters="sRGB">
<feFlood flood-opacity="0" result="BackgroundImageFix"/>
<feColorMatrix in="SourceAlpha" type="matrix" values="0 0 0 0 0 0 0 0 0 0 0 0 0 0 0 0 0 0 127 0" result="hardAlpha"/>
<feOffset dy="4"/>
<feGaussianBlur stdDeviation="2"/>
<feComposite in2="hardAlpha" operator="out"/>
<feColorMatrix type="matrix" values="0 0 0 0 0 0 0 0 0 0 0 0 0 0 0 0 0 0 0.25 0"/>
<feBlend mode="normal" in2="BackgroundImageFix" result="effect1_dropShadow_2354_442"/>
<feBlend mode="normal" in="SourceGraphic" in2="effect1_dropShadow_2354_442" result="shape"/>
</filter>
<filter id="filter1_d_2354_442" x="3.50928" y="0" width="49.5386" height="57.5615" filterUnits="userSpaceOnUse" color-interpolation-filters="sRGB">
<feFlood flood-opacity="0" result="BackgroundImageFix"/>
<feColorMatrix in="SourceAlpha" type="matrix" values="0 0 0 0 0 0 0 0 0 0 0 0 0 0 0 0 0 0 127 0" result="hardAlpha"/>
<feOffset dy="4"/>
<feGaussianBlur stdDeviation="2"/>
<feComposite in2="hardAlpha" operator="out"/>
<feColorMatrix type="matrix" values="0 0 0 0 0 0 0 0 0 0 0 0 0 0 0 0 0 0 0.25 0"/>
<feBlend mode="normal" in2="BackgroundImageFix" result="effect1_dropShadow_2354_442"/>
<feBlend mode="normal" in="SourceGraphic" in2="effect1_dropShadow_2354_442" result="shape"/>
</filter>
<clipPath id="clip0_2354_442">
<rect width="48" height="67" fill="white"/>
</clipPath>
</defs>
</svg>
