<svg width="69" height="69" viewBox="0 0 69 69" fill="none" xmlns="http://www.w3.org/2000/svg">
<g filter="url(#filter0_d_2354_433)">
<path fill-rule="evenodd" clip-rule="evenodd" d="M42.2855 15.2346C42.1732 14.9789 41.9889 14.7615 41.7551 14.6088C41.5213 14.4561 41.248 14.3749 40.9688 14.375H33.0625V17.25H40.0301L46.736 32.5263C46.5772 32.615 46.4368 32.7331 46.322 32.8742L37.4095 43.8438H34.6265L32.6313 40.25H35.9375C37.0813 40.25 38.1782 39.7956 38.9869 38.9869C39.7957 38.1781 40.25 37.0812 40.25 35.9375H25.1563C24.5844 35.9375 24.0359 36.1647 23.6316 36.5691C23.2272 36.9734 23 37.5219 23 38.0938C23 38.6656 23.2272 39.2141 23.6316 39.6184C24.0359 40.0228 24.5844 40.25 25.1563 40.25H29.3423L31.3389 43.8438H24.3283C23.9608 41.5227 22.7326 39.4253 20.8881 37.9692C19.0437 36.5131 16.7185 35.8052 14.3756 35.9865C12.0326 36.1677 9.84398 37.2249 8.2455 38.9474C6.64702 40.6699 5.75604 42.9313 5.75001 45.2812C5.74676 47.6368 6.63332 49.9067 8.23223 51.6365C9.83113 53.3663 12.0244 54.4283 14.3729 54.61C16.7215 54.7918 19.052 54.0797 20.898 52.6165C22.7439 51.1532 23.9691 49.0468 24.3283 46.7188H38.0938C38.3075 46.7186 38.5186 46.6708 38.7116 46.5788C38.9046 46.4868 39.0746 46.3529 39.2093 46.1869L47.9895 35.3812L48.8779 37.4038C46.895 38.6711 45.4633 40.64 44.8689 42.917C44.2745 45.194 44.5613 47.6114 45.6718 49.6862C46.7823 51.761 48.6349 53.3404 50.8593 54.1087C53.0836 54.877 55.516 54.7776 57.6703 53.8305C59.8246 52.8833 61.5422 51.1582 62.4798 48.9997C63.4174 46.8412 63.5061 44.4085 62.728 42.1875C61.9499 39.9665 60.3624 38.121 58.2827 37.0196C56.203 35.9182 53.7843 35.6422 51.5099 36.2466L42.2855 15.2346ZM15.0938 40.25C16.1775 40.2497 17.2323 40.5994 18.1013 41.2469C18.9703 41.8944 19.6069 42.8052 19.9166 43.8438H15.0938C14.7125 43.8438 14.3469 43.9952 14.0773 44.2648C13.8077 44.5344 13.6563 44.9 13.6563 45.2812C13.6563 45.6625 13.8077 46.0281 14.0773 46.2977C14.3469 46.5673 14.7125 46.7188 15.0938 46.7188H19.9166C19.5684 47.874 18.8168 48.8658 17.7988 49.5135C16.7807 50.1611 15.5639 50.4216 14.3699 50.2474C13.176 50.0733 12.0843 49.476 11.2937 48.5645C10.5031 47.653 10.0662 46.4879 10.0625 45.2812C10.0625 43.9469 10.5926 42.6672 11.5361 41.7236C12.4797 40.7801 13.7594 40.25 15.0938 40.25ZM48.875 45.2812C48.875 43.7431 49.565 42.3674 50.6518 41.4431L52.5895 45.8591C52.6654 46.032 52.7746 46.1883 52.9109 46.319C53.0472 46.4498 53.2079 46.5523 53.3838 46.6209C53.5597 46.6896 53.7475 46.7228 53.9363 46.7189C54.125 46.715 54.3112 46.6739 54.4841 46.598C54.6571 46.5221 54.8133 46.4129 54.944 46.2766C55.0748 46.1403 55.1773 45.9796 55.246 45.8037C55.3146 45.6278 55.3479 45.4401 55.3439 45.2513C55.34 45.0625 55.2989 44.8763 55.223 44.7034L53.2838 40.2874C53.4879 40.2625 53.6954 40.25 53.9063 40.25C54.9013 40.25 55.8741 40.5451 56.7015 41.0979C57.5289 41.6508 58.1737 42.4365 58.5545 43.3559C58.9353 44.2752 59.035 45.2868 58.8408 46.2628C58.6467 47.2388 58.1675 48.1352 57.4639 48.8389C56.7603 49.5425 55.8638 50.0217 54.8878 50.2158C53.9118 50.41 52.9002 50.3103 51.9809 49.9295C51.0615 49.5487 50.2758 48.9038 49.7229 48.0765C49.1701 47.2491 48.875 46.2763 48.875 45.2812Z" fill="white"/>
<path d="M40.2874 24.5122C40.2754 24.4904 40.258 24.472 40.2369 24.4589C40.2157 24.4458 40.1915 24.4384 40.1666 24.4375H34.0472C29.5306 24.4375 26.2171 28.681 27.3125 33.0625H42.2366C42.4816 33.0624 42.7224 32.9997 42.9363 32.8803C43.1502 32.761 43.33 32.5889 43.4588 32.3806C43.5875 32.1722 43.6609 31.9344 43.6719 31.6897C43.6829 31.445 43.6312 31.2015 43.5217 30.9824L40.2874 24.5122ZM10.0625 25.875C9.68125 25.875 9.31562 26.0264 9.04603 26.296C8.77645 26.5656 8.625 26.9313 8.625 27.3125V31.625C8.625 32.0062 8.77645 32.3719 9.04603 32.6415C9.31562 32.9111 9.68125 33.0625 10.0625 33.0625H23.6037C23.8745 33.0623 24.1397 32.9857 24.3688 32.8414C24.5979 32.6972 24.7816 32.4911 24.8988 32.2471C25.016 32.003 25.0618 31.7308 25.0311 31.4618C25.0003 31.1928 24.8942 30.9379 24.725 30.7266L23.0014 28.5732C22.3282 27.7314 21.4742 27.0519 20.5028 26.5848C19.5314 26.1177 18.4673 25.8752 17.3894 25.875H10.0625ZM48.875 23.7188L57.5963 20.125L58.9375 28.75L50.2162 27.3125L48.875 23.7188Z" fill="white"/>
</g>
<defs>
<filter id="filter0_d_2354_433" x="1.75" y="14.375" width="65.5034" height="48.2627" filterUnits="userSpaceOnUse" color-interpolation-filters="sRGB">
<feFlood flood-opacity="0" result="BackgroundImageFix"/>
<feColorMatrix in="SourceAlpha" type="matrix" values="0 0 0 0 0 0 0 0 0 0 0 0 0 0 0 0 0 0 127 0" result="hardAlpha"/>
<feOffset dy="4"/>
<feGaussianBlur stdDeviation="2"/>
<feComposite in2="hardAlpha" operator="out"/>
<feColorMatrix type="matrix" values="0 0 0 0 0 0 0 0 0 0 0 0 0 0 0 0 0 0 0.25 0"/>
<feBlend mode="normal" in2="BackgroundImageFix" result="effect1_dropShadow_2354_433"/>
<feBlend mode="normal" in="SourceGraphic" in2="effect1_dropShadow_2354_433" result="shape"/>
</filter>
</defs>
</svg>
