<svg width="71" height="70" viewBox="0 0 71 70" fill="none" xmlns="http://www.w3.org/2000/svg">
<g filter="url(#filter0_d_2354_375)">
<path d="M53.2499 29.1663H38.4582V22.1372L65.4382 17.7038L64.7282 13.3872L48.5461 16.0413C48.694 15.6038 48.8124 15.108 48.8124 14.583C48.8124 13.4227 48.3448 12.3099 47.5126 11.4894C46.6804 10.6689 45.5518 10.208 44.3749 10.208C43.198 10.208 42.0693 10.6689 41.2371 11.4894C40.4049 12.3099 39.9374 13.4227 39.9374 14.583C39.9374 15.6038 40.3219 16.5663 40.9432 17.2955L38.4582 17.7038V14.583H32.5415V18.6955L30.7961 18.958C30.944 18.5205 31.0624 18.0247 31.0624 17.4997C31.0624 16.3394 30.5948 15.2266 29.7626 14.4061C28.9305 13.5856 27.8018 13.1247 26.6249 13.1247C25.448 13.1247 24.3193 13.5856 23.4871 14.4061C22.6549 15.2266 22.1874 16.3394 22.1874 17.4997C22.1874 18.5497 22.5719 19.483 23.1636 20.2122L5.56152 23.1288L6.27152 27.4455L32.5415 23.1288V29.1663H17.7499C16.1807 29.1663 14.6757 29.7809 13.5661 30.8749C12.4566 31.9688 11.8332 33.4526 11.8332 34.9997V52.4997C11.8332 54.0468 12.4566 55.5305 13.5661 56.6245C14.6757 57.7184 16.1807 58.333 17.7499 58.333H53.2499C54.8191 58.333 56.324 57.7184 57.4336 56.6245C58.5432 55.5305 59.1665 54.0468 59.1665 52.4997V34.9997C59.1665 33.4526 58.5432 31.9688 57.4336 30.8749C56.324 29.7809 54.8191 29.1663 53.2499 29.1663ZM17.7499 34.9997H24.4061V46.6663H17.7499V34.9997ZM28.8436 46.6663V34.9997H42.1561V46.6663H28.8436ZM53.2499 46.6663H46.5936V34.9997H53.2499V46.6663Z" fill="white"/>
</g>
<defs>
<filter id="filter0_d_2354_375" x="1.56152" y="10.208" width="67.8765" height="56.125" filterUnits="userSpaceOnUse" color-interpolation-filters="sRGB">
<feFlood flood-opacity="0" result="BackgroundImageFix"/>
<feColorMatrix in="SourceAlpha" type="matrix" values="0 0 0 0 0 0 0 0 0 0 0 0 0 0 0 0 0 0 127 0" result="hardAlpha"/>
<feOffset dy="4"/>
<feGaussianBlur stdDeviation="2"/>
<feComposite in2="hardAlpha" operator="out"/>
<feColorMatrix type="matrix" values="0 0 0 0 0 0 0 0 0 0 0 0 0 0 0 0 0 0 0.25 0"/>
<feBlend mode="normal" in2="BackgroundImageFix" result="effect1_dropShadow_2354_375"/>
<feBlend mode="normal" in="SourceGraphic" in2="effect1_dropShadow_2354_375" result="shape"/>
</filter>
</defs>
</svg>
