<svg width="53" height="53" viewBox="0 0 53 53" fill="none" xmlns="http://www.w3.org/2000/svg">
<g clip-path="url(#clip0_2354_412)">
<g filter="url(#filter0_d_2354_412)">
<path d="M41.7999 28.5998V15.3998H43.9999V8.7998H8.7999V15.3998H10.9999V28.5998H4.3999C4.3999 30.6458 5.4999 32.3618 7.6999 32.8458V43.9998C7.6999 44.5833 7.93169 45.1429 8.34427 45.5554C8.75685 45.968 9.31643 46.1998 9.8999 46.1998H12.0999C12.6834 46.1998 13.243 45.968 13.6555 45.5554C14.0681 45.1429 14.2999 44.5833 14.2999 43.9998V41.7998H38.4999V43.9998C38.4999 44.5833 38.7317 45.1429 39.1443 45.5554C39.5568 45.968 40.1164 46.1998 40.6999 46.1998H42.8999C43.4834 46.1998 44.043 45.968 44.4555 45.5554C44.8681 45.1429 45.0999 44.5833 45.0999 43.9998V32.8458C47.2999 32.3398 48.3999 30.6458 48.3999 28.5998H41.7999ZM17.5999 32.9998C16.7247 32.9998 15.8853 32.6521 15.2664 32.0333C14.6476 31.4144 14.2999 30.575 14.2999 29.6998C14.2999 28.8246 14.6476 27.9852 15.2664 27.3664C15.8853 26.7475 16.7247 26.3998 17.5999 26.3998C18.4751 26.3998 19.3145 26.7475 19.9334 27.3664C20.5522 27.9852 20.8999 28.8246 20.8999 29.6998C20.8999 30.575 20.5522 31.4144 19.9334 32.0333C19.3145 32.6521 18.4751 32.9998 17.5999 32.9998ZM35.1999 32.9998C34.3247 32.9998 33.4853 32.6521 32.8664 32.0333C32.2476 31.4144 31.8999 30.575 31.8999 29.6998C31.8999 28.8246 32.2476 27.9852 32.8664 27.3664C33.4853 26.7475 34.3247 26.3998 35.1999 26.3998C36.0751 26.3998 36.9145 26.7475 37.5334 27.3664C38.1522 27.9852 38.4999 28.8246 38.4999 29.6998C38.4999 30.575 38.1522 31.4144 37.5334 32.0333C36.9145 32.6521 36.0751 32.9998 35.1999 32.9998ZM38.4999 23.0998C35.0239 22.3958 30.8659 21.9998 26.3999 21.9998C21.9339 21.9998 17.5999 22.3958 14.2999 23.0998V15.3998H38.4999V23.0998Z" fill="white"/>
</g>
</g>
<defs>
<filter id="filter0_d_2354_412" x="0.399902" y="8.7998" width="52" height="45.4004" filterUnits="userSpaceOnUse" color-interpolation-filters="sRGB">
<feFlood flood-opacity="0" result="BackgroundImageFix"/>
<feColorMatrix in="SourceAlpha" type="matrix" values="0 0 0 0 0 0 0 0 0 0 0 0 0 0 0 0 0 0 127 0" result="hardAlpha"/>
<feOffset dy="4"/>
<feGaussianBlur stdDeviation="2"/>
<feComposite in2="hardAlpha" operator="out"/>
<feColorMatrix type="matrix" values="0 0 0 0 0 0 0 0 0 0 0 0 0 0 0 0 0 0 0.25 0"/>
<feBlend mode="normal" in2="BackgroundImageFix" result="effect1_dropShadow_2354_412"/>
<feBlend mode="normal" in="SourceGraphic" in2="effect1_dropShadow_2354_412" result="shape"/>
</filter>
<clipPath id="clip0_2354_412">
<rect width="52.8" height="52.8" fill="white"/>
</clipPath>
</defs>
</svg>
