<svg width="61" height="62" viewBox="0 0 61 62" fill="none" xmlns="http://www.w3.org/2000/svg">
<g clip-path="url(#clip0_2354_416)">
<g filter="url(#filter0_d_2354_416)">
<path fill-rule="evenodd" clip-rule="evenodd" d="M50.0964 7.32893C51.9594 7.70868 53.4158 9.18893 53.7894 11.0825C54.0556 12.4393 54.0172 13.8397 53.677 15.1793C53.3368 16.5189 52.7037 17.7632 51.8247 18.8196L44.8326 27.2206L49.7736 45.6423C49.9211 46.1916 49.9231 46.7708 49.7793 47.3211C49.6356 47.8714 49.3513 48.3733 48.9552 48.7759L45.6459 52.1394C45.3649 52.4249 45.0225 52.6402 44.6457 52.7684C44.269 52.8965 43.868 52.934 43.4746 52.8779C43.0811 52.8218 42.7058 52.6737 42.3782 52.4451C42.0507 52.2165 41.7798 51.9138 41.5869 51.5608L34.1093 37.8794L26.8452 44.0303L27.379 46.7506C27.4822 47.2721 27.4572 47.8114 27.306 48.3207C27.1548 48.83 26.8821 49.2934 26.5123 49.6698L22.2829 53.9658C21.9952 54.2578 21.6434 54.4762 21.2564 54.6029C20.8694 54.7297 20.4583 54.7612 20.057 54.6948C19.6557 54.6285 19.2756 54.4662 18.9481 54.2213C18.6205 53.9765 18.3549 53.6561 18.1731 53.2864L14.9706 46.7842L8.57572 43.5292C8.21206 43.3444 7.89679 43.0744 7.65588 42.7415C7.41497 42.4086 7.25531 42.0223 7.19003 41.6144C7.12476 41.2065 7.15575 40.7887 7.28044 40.3953C7.40514 40.002 7.61997 39.6444 7.90726 39.3519L12.1366 35.0533C12.5066 34.6778 12.9622 34.4009 13.4627 34.2472C13.9633 34.0935 14.4934 34.0678 15.0061 34.1723L17.6825 34.7148L23.7342 27.3343L10.2736 19.7315C9.92619 19.5355 9.62835 19.2601 9.40348 18.9272C9.1786 18.5943 9.03283 18.2128 8.97764 17.8129C8.92245 17.413 8.95935 17.0055 9.08543 16.6225C9.21151 16.2395 9.42333 15.8916 9.70422 15.6059L13.0135 12.2424C13.4096 11.8398 13.9034 11.5508 14.4448 11.4047C14.9863 11.2587 15.5561 11.2607 16.0965 11.4106L34.2186 16.4326L42.4866 9.32584C43.526 8.43246 44.7503 7.78893 46.0683 7.44318C47.3862 7.09743 48.764 7.05838 50.0989 7.32893H50.0964ZM48.8459 12.3535C48.2985 12.2797 47.7419 12.3229 47.2119 12.4804C46.6819 12.6379 46.19 12.9061 45.7679 13.268L36.4908 21.2479C36.1729 21.5211 35.7944 21.7115 35.3879 21.8029C34.9814 21.8943 34.5592 21.8838 34.1576 21.7723L15.8246 16.6883L15.6543 16.8588L28.8582 24.3143C29.1885 24.5008 29.4742 24.7591 29.695 25.0708C29.9157 25.3825 30.0661 25.7399 30.1353 26.1174C30.2044 26.4949 30.1908 26.8833 30.0953 27.2549C29.9997 27.6264 29.8247 27.972 29.5826 28.2668L20.6258 39.1892C20.33 39.5501 19.9439 39.8231 19.5082 39.9795C19.0725 40.1359 18.6033 40.1699 18.1502 40.0778L15.0061 39.4398L13.9691 40.4938L17.9265 42.5062C18.4677 42.7812 18.9065 43.2271 19.177 43.7772L21.1595 47.7994L22.194 46.7454L21.5662 43.5498C21.4756 43.0893 21.509 42.6124 21.6629 42.1696C21.8168 41.7267 22.0855 41.3343 22.4405 41.0337L33.1892 31.93C33.4793 31.684 33.8193 31.506 34.1849 31.4089C34.5504 31.3118 34.9326 31.298 35.304 31.3683C35.6755 31.4386 36.0271 31.5914 36.3337 31.8158C36.6403 32.0402 36.8945 32.3306 37.078 32.6663L44.4107 46.0867L44.5784 45.9136L39.579 27.28C39.4697 26.8716 39.4598 26.4423 39.5501 26.0292C39.6404 25.616 39.8283 25.2314 40.0975 24.9085L47.9461 15.4793C48.6705 14.6088 48.9933 13.4747 48.8459 12.3535Z" fill="white"/>
</g>
</g>
<defs>
<filter id="filter0_d_2354_416" x="3.15674" y="7.15137" width="54.8076" height="55.5771" filterUnits="userSpaceOnUse" color-interpolation-filters="sRGB">
<feFlood flood-opacity="0" result="BackgroundImageFix"/>
<feColorMatrix in="SourceAlpha" type="matrix" values="0 0 0 0 0 0 0 0 0 0 0 0 0 0 0 0 0 0 127 0" result="hardAlpha"/>
<feOffset dy="4"/>
<feGaussianBlur stdDeviation="2"/>
<feComposite in2="hardAlpha" operator="out"/>
<feColorMatrix type="matrix" values="0 0 0 0 0 0 0 0 0 0 0 0 0 0 0 0 0 0 0.25 0"/>
<feBlend mode="normal" in2="BackgroundImageFix" result="effect1_dropShadow_2354_416"/>
<feBlend mode="normal" in="SourceGraphic" in2="effect1_dropShadow_2354_416" result="shape"/>
</filter>
<clipPath id="clip0_2354_416">
<rect width="61" height="62" fill="white"/>
</clipPath>
</defs>
</svg>
