<svg width="55" height="55" viewBox="0 0 55 55" fill="none" xmlns="http://www.w3.org/2000/svg">
<g clip-path="url(#clip0_2354_406)">
<g filter="url(#filter0_d_2354_406)">
<path d="M9.54479 16.4287V28.3454C9.54479 29.8968 8.52729 30.8181 6.87958 30.8181C5.23417 30.8181 4.36104 29.6058 4.36104 28.2973V26.166H0V28.3477C0 30.5752 0.678333 34.5512 6.93 34.5512C13.1794 34.5512 14.0525 30.2841 14.0525 28.2491V16.431L9.54479 16.4287ZM20.8152 21.3695C16.6948 21.3695 14.8569 25.1462 14.8569 28.3958C14.8569 31.6408 16.94 34.7895 21.2025 34.7895C24.9333 34.84 27.406 32.4177 27.406 30.6233H23.2856C23.2856 30.6233 22.8021 31.7875 21.3469 31.7875C19.894 31.7875 19.0712 30.9625 19.0712 28.9756H27.4542C27.4542 22.7262 24.3535 21.3695 20.8152 21.3695ZM34.2146 21.3673C30.0965 21.3673 28.2563 25.1439 28.2563 28.3935C28.2563 31.6385 30.3394 34.7873 34.6042 34.7873C38.335 34.8377 40.8054 32.4154 40.8054 30.621H36.6896C36.6896 30.621 36.2038 31.7852 34.7508 31.7852C33.2956 31.7852 32.4729 30.9602 32.4729 28.9733H40.8535C40.8535 22.7239 37.7552 21.365 34.2169 21.365M49.6696 21.5093C47.5773 21.5093 46.6492 22.6483 46.5988 22.7056C46.3054 23.0585 45.941 23.432 45.941 22.5268V21.8485H41.7702V38.5662H45.9869V33.9623C45.9869 33.6231 46.326 33.6735 46.5713 33.9623C46.8142 34.2556 47.8775 34.9798 49.7223 34.9798C53.0658 34.9798 55.0023 32.0739 55.0023 28.1002C55.0023 22.9645 51.7573 21.5093 49.6696 21.5093ZM21.2529 24.076C22.8021 24.076 23.4781 25.2402 23.4781 26.4525H19.2156C19.2156 25.1416 19.7496 24.0783 21.2506 24.0783M34.6477 24.0783C36.1992 24.0783 36.8775 25.2425 36.8775 26.4548H32.6104C32.6104 25.1439 33.1444 24.0806 34.6454 24.0806M48.2121 24.7612C50.3479 24.7612 50.7329 26.4089 50.7329 28.1048C50.7329 29.8006 50.4419 32.0281 48.4115 32.0281C46.3742 32.0281 45.8402 30.7218 45.886 28.2514C45.9365 25.7787 46.9013 24.7612 48.2121 24.7612ZM53.4417 35.225C53.0855 35.225 52.7439 35.3664 52.4921 35.6183C52.2402 35.8701 52.0988 36.2117 52.0988 36.5679C52.0992 36.8328 52.1782 37.0917 52.3256 37.3118C52.4731 37.5319 52.6825 37.7034 52.9274 37.8046C53.1723 37.9058 53.4416 37.9321 53.7015 37.8803C53.9613 37.8285 54.2 37.7009 54.3873 37.5135C54.5747 37.3262 54.7023 37.0875 54.7541 36.8277C54.8059 36.5678 54.7796 36.2985 54.6784 36.0536C54.5772 35.8087 54.4057 35.5993 54.1856 35.4519C53.9655 35.3044 53.7066 35.2254 53.4417 35.225ZM53.4417 35.367C53.7601 35.367 54.0656 35.4936 54.2908 35.7188C54.516 35.944 54.6425 36.2494 54.6425 36.5679C54.6419 36.8862 54.5152 37.1913 54.2901 37.4163C54.065 37.6414 53.76 37.7681 53.4417 37.7687C53.1232 37.7681 52.8178 37.6415 52.5924 37.4165C52.367 37.1915 52.2398 36.8864 52.2385 36.5679C52.2385 35.9033 52.7771 35.367 53.4417 35.367ZM52.9604 35.83V37.2531H53.1254V36.6366H53.5288L53.7946 37.2554H53.9779L53.7006 36.5954C53.765 36.5789 53.8226 36.5429 53.8656 36.4923C53.9283 36.4187 53.9632 36.3254 53.9642 36.2287C53.9642 35.9927 53.7808 35.83 53.5173 35.83H52.9604ZM53.1208 35.9858H53.515C53.68 35.9858 53.7854 36.0798 53.7854 36.2264C53.7854 36.3914 53.6731 36.4923 53.4921 36.4923H53.1208V35.9858Z" fill="white"/>
</g>
</g>
<defs>
<filter id="filter0_d_2354_406" x="-4" y="16.4287" width="63.0024" height="30.1377" filterUnits="userSpaceOnUse" color-interpolation-filters="sRGB">
<feFlood flood-opacity="0" result="BackgroundImageFix"/>
<feColorMatrix in="SourceAlpha" type="matrix" values="0 0 0 0 0 0 0 0 0 0 0 0 0 0 0 0 0 0 127 0" result="hardAlpha"/>
<feOffset dy="4"/>
<feGaussianBlur stdDeviation="2"/>
<feComposite in2="hardAlpha" operator="out"/>
<feColorMatrix type="matrix" values="0 0 0 0 0 0 0 0 0 0 0 0 0 0 0 0 0 0 0.25 0"/>
<feBlend mode="normal" in2="BackgroundImageFix" result="effect1_dropShadow_2354_406"/>
<feBlend mode="normal" in="SourceGraphic" in2="effect1_dropShadow_2354_406" result="shape"/>
</filter>
<clipPath id="clip0_2354_406">
<rect width="55" height="55" fill="white"/>
</clipPath>
</defs>
</svg>
