<svg width="56" height="56" viewBox="0 0 56 56" fill="none" xmlns="http://www.w3.org/2000/svg">
<g clip-path="url(#clip0_2354_400)">
<g filter="url(#filter0_d_2354_400)">
<path d="M40.2498 47.0168C40.4045 47.0168 40.5529 47.0782 40.6623 47.1876C40.7717 47.297 40.8332 47.4454 40.8332 47.6001V53.4334C40.8332 54.0523 41.079 54.6458 41.5166 55.0833C41.9542 55.5209 42.5477 55.7668 43.1665 55.7668H47.8332C48.452 55.7668 49.0455 55.5209 49.4831 55.0833C49.9207 54.6458 50.1665 54.0523 50.1665 53.4334V47.5534C50.1693 47.4148 50.2194 47.2814 50.3085 47.1753C50.3977 47.0691 50.5205 46.9967 50.6565 46.9701C51.3173 46.8352 51.9109 46.4755 52.3363 45.9523C52.7617 45.429 52.9927 44.7745 52.9898 44.1001V31.2668C52.9847 30.0164 52.6157 28.7947 51.9279 27.7505C51.2401 26.7064 50.2632 25.8851 49.1165 25.3868C49.0194 25.351 48.9347 25.2879 48.8726 25.2051C48.8105 25.1223 48.7736 25.0233 48.7665 24.9201L48.0198 17.2901C48.0198 13.0668 43.9132 10.5001 38.6865 9.17009C38.589 9.1441 38.4996 9.09422 38.4263 9.02496C38.3529 8.9557 38.298 8.86925 38.2665 8.77342L36.3765 2.56676C36.1345 1.88219 35.6855 1.28984 35.0919 0.871779C34.4982 0.453712 33.7893 0.230625 33.0632 0.233424H22.9365C22.2136 0.23203 21.5082 0.45602 20.9186 0.874226C20.3289 1.29243 19.8842 1.88405 19.6465 2.56676L17.7098 8.77342C17.6812 8.86839 17.6267 8.95355 17.5526 9.01946C17.4785 9.08536 17.3875 9.12942 17.2898 9.14676C11.9932 10.4768 7.9565 12.9734 7.9565 17.0801L7.20984 24.9201C7.20001 25.0225 7.16214 25.1203 7.1004 25.2026C7.03866 25.2849 6.95542 25.3486 6.85984 25.3868C5.69823 25.872 4.705 26.6882 4.00383 27.7337C3.30266 28.7792 2.92453 30.0079 2.9165 31.2668V44.1001C2.9165 44.4831 2.99195 44.8624 3.13852 45.2163C3.2851 45.5701 3.49994 45.8916 3.77078 46.1625C4.04161 46.4333 4.36314 46.6482 4.71701 46.7947C5.07088 46.9413 5.45015 47.0168 5.83317 47.0168V53.4334C5.83317 54.0523 6.079 54.6458 6.51659 55.0833C6.95417 55.5209 7.54767 55.7668 8.1665 55.7668H12.8332C13.452 55.7668 14.0455 55.5209 14.4831 55.0833C14.9207 54.6458 15.1665 54.0523 15.1665 53.4334V47.6001C15.1665 47.4454 15.228 47.297 15.3374 47.1876C15.4468 47.0782 15.5951 47.0168 15.7498 47.0168H40.2498ZM23.6832 5.32009C23.7185 5.19892 23.7922 5.09249 23.8932 5.01676C23.9941 4.94103 24.117 4.90009 24.2432 4.90009H31.7798C31.9051 4.90367 32.0262 4.94597 32.1265 5.02118C32.2268 5.09639 32.3013 5.20081 32.3398 5.32009L32.9698 7.39676C33.0148 7.47906 33.0383 7.57132 33.0383 7.66509C33.0383 7.75886 33.0148 7.85112 32.9698 7.93342C32.9115 8.01186 32.8329 8.07287 32.7424 8.10988C32.6519 8.14689 32.5531 8.15849 32.4565 8.14342C31.0098 8.02676 29.5398 7.95676 28.0932 7.95676C26.6465 7.95676 25.1998 7.95676 23.7298 8.14342C23.6339 8.14991 23.5378 8.13435 23.4488 8.09795C23.3598 8.06155 23.2804 8.00527 23.2165 7.93342C23.1716 7.85112 23.148 7.75886 23.148 7.66509C23.148 7.57132 23.1716 7.47906 23.2165 7.39676L23.6832 5.32009ZM11.6665 38.2668C10.9743 38.2668 10.2976 38.0615 9.72201 37.6769C9.14644 37.2923 8.69783 36.7457 8.43293 36.1061C8.16802 35.4666 8.09871 34.7629 8.23376 34.0839C8.3688 33.405 8.70215 32.7814 9.19163 32.2919C9.68111 31.8024 10.3048 31.4691 10.9837 31.334C11.6626 31.199 12.3664 31.2683 13.0059 31.5332C13.6454 31.7981 14.1921 32.2467 14.5766 32.8223C14.9612 33.3978 15.1665 34.0745 15.1665 34.7668C15.1665 35.695 14.7978 36.5853 14.1414 37.2416C13.485 37.898 12.5948 38.2668 11.6665 38.2668ZM34.9998 41.7668C34.9998 41.9215 34.9384 42.0698 34.829 42.1792C34.7196 42.2886 34.5712 42.3501 34.4165 42.3501H21.5832C21.4285 42.3501 21.2801 42.2886 21.1707 42.1792C21.0613 42.0698 20.9998 41.9215 20.9998 41.7668V39.9934C20.9998 39.0368 23.7298 37.6601 27.9998 37.6601C29.8649 37.6181 31.7201 37.9431 33.4598 38.6168C33.8332 38.7801 34.9998 39.3634 34.9998 39.9934V41.7668ZM27.9998 21.9334C22.7585 21.8895 17.5616 22.8971 12.7165 24.8968C12.6265 24.9438 12.5264 24.9683 12.4248 24.9683C12.3233 24.9683 12.2232 24.9438 12.1332 24.8968C12.0524 24.8395 11.9882 24.7618 11.9472 24.6716C11.9062 24.5814 11.8899 24.482 11.8998 24.3834L12.5532 17.3834C12.5532 15.1901 18.8998 12.7168 27.9998 12.7168C31.8809 12.6547 35.7474 13.2059 39.4565 14.3501C41.9532 15.2134 43.4465 16.3568 43.4465 17.6168L44.0998 24.4068C44.1124 24.5055 44.0972 24.6059 44.056 24.6965C44.0148 24.7872 43.9492 24.8646 43.8665 24.9201C43.7843 24.9773 43.6866 25.008 43.5865 25.008C43.4864 25.008 43.3887 24.9773 43.3065 24.9201C38.454 22.9155 33.25 21.9001 27.9998 21.9334ZM44.3332 38.2668C43.6409 38.2668 42.9642 38.0615 42.3887 37.6769C41.8131 37.2923 41.3645 36.7457 41.0996 36.1061C40.8347 35.4666 40.7654 34.7629 40.9004 34.0839C41.0355 33.405 41.3688 32.7814 41.8583 32.2919C42.3478 31.8024 42.9714 31.4691 43.6504 31.334C44.3293 31.199 45.033 31.2683 45.6726 31.5332C46.3121 31.7981 46.8587 32.2467 47.2433 32.8223C47.6279 33.3978 47.8332 34.0745 47.8332 34.7668C47.8332 35.695 47.4644 36.5853 46.808 37.2416C46.1517 37.898 45.2614 38.2668 44.3332 38.2668Z" fill="white"/>
</g>
</g>
<defs>
<filter id="filter0_d_2354_400" x="-1.0835" y="0.233398" width="58.0732" height="63.5332" filterUnits="userSpaceOnUse" color-interpolation-filters="sRGB">
<feFlood flood-opacity="0" result="BackgroundImageFix"/>
<feColorMatrix in="SourceAlpha" type="matrix" values="0 0 0 0 0 0 0 0 0 0 0 0 0 0 0 0 0 0 127 0" result="hardAlpha"/>
<feOffset dy="4"/>
<feGaussianBlur stdDeviation="2"/>
<feComposite in2="hardAlpha" operator="out"/>
<feColorMatrix type="matrix" values="0 0 0 0 0 0 0 0 0 0 0 0 0 0 0 0 0 0 0.25 0"/>
<feBlend mode="normal" in2="BackgroundImageFix" result="effect1_dropShadow_2354_400"/>
<feBlend mode="normal" in="SourceGraphic" in2="effect1_dropShadow_2354_400" result="shape"/>
</filter>
<clipPath id="clip0_2354_400">
<rect width="56" height="56" fill="white"/>
</clipPath>
</defs>
</svg>
