<svg width="59" height="59" viewBox="0 0 59 59" fill="none" xmlns="http://www.w3.org/2000/svg">
<g clip-path="url(#clip0_2354_421)">
<g filter="url(#filter0_d_2354_421)">
<path d="M42.4584 35.4385C42.4582 38.3314 41.7099 41.1778 40.2824 43.7157C38.8549 46.2536 36.7941 48.4014 34.2897 49.9615C31.7852 51.5215 28.9176 52.4436 25.9507 52.6429C22.9839 52.8423 20.0132 52.3124 17.312 51.1021C14.6109 49.8918 12.2661 48.04 10.4935 45.7171C8.72093 43.3941 7.57751 40.6748 7.16849 37.8093C6.75947 34.9439 7.098 32.0244 8.15292 29.3195C9.20784 26.6147 10.9452 24.2115 13.2052 22.3311" stroke="white" stroke-width="4.42857" stroke-linecap="round" stroke-linejoin="round"/>
<path d="M23.9489 29.0575C23.6071 29.7461 23.4161 30.4962 23.388 31.2604C23.3599 32.0246 23.4954 32.7862 23.7858 33.4967C24.1939 34.4642 24.89 35.2908 25.7847 35.8704C26.6794 36.45 27.7318 36.7562 28.8067 36.7494C29.5309 36.7494 30.2253 37.0293 30.7374 37.5274C31.2494 38.0255 31.537 38.701 31.537 39.4054V51.3746M7.24805 38.0947H13.8078C14.5368 38.0763 15.2621 38.2 15.9411 38.4587C16.6201 38.7174 17.2389 39.1058 17.7611 39.6009C18.2833 40.096 18.6982 40.6878 18.9815 41.3415C19.2647 41.9951 19.4105 42.6973 19.4103 43.4066V51.8575M52.2447 12.9147L48.6989 11.7419C48.4497 11.6595 48.1796 11.6588 47.9299 11.7398C47.6802 11.8207 47.4646 11.979 47.316 12.1903L44.7276 16.088L30.5442 9.1894C29.4232 8.54675 28.1701 8.15306 26.8745 8.0365C25.5789 7.91994 24.2728 8.08338 23.0496 8.51515C21.8265 8.94691 20.7166 9.63631 19.7994 10.534C18.8821 11.4318 18.1802 12.5156 17.7437 13.708C17.6234 14.0173 17.5718 14.3479 17.5921 14.6781C17.6124 15.0082 17.7043 15.3304 17.8617 15.6236C18.0191 15.9168 18.2384 16.1742 18.5053 16.3791C18.7722 16.584 19.0806 16.7316 19.4103 16.8124L28.6649 19.7098L29.5868 20.0203L31.3243 25.8151C31.3801 26.0169 31.4873 26.2017 31.6361 26.3524C31.7849 26.5032 31.9703 26.615 32.1753 26.6774L36.3594 27.9882C36.573 28.0559 36.8009 28.0691 37.0212 28.0265C37.2416 27.984 37.447 27.8871 37.6179 27.7451C37.7887 27.6032 37.9192 27.421 37.9968 27.2159C38.0745 27.0108 38.0967 26.7898 38.0614 26.574L37.1395 22.2623H37.7423L46.7841 25.1253C47.3767 25.324 48.026 25.2868 48.5905 25.0219C49.1551 24.757 49.5891 24.2858 49.7981 23.711L52.9894 14.1564C53.0245 13.8984 52.9704 13.6364 52.8356 13.4115C52.7008 13.1867 52.4929 13.0119 52.2447 12.9147Z" stroke="white" stroke-width="4.42857" stroke-linecap="round" stroke-linejoin="round"/>
</g>
</g>
<defs>
<filter id="filter0_d_2354_421" x="0.785645" y="5.78613" width="58.4282" height="57.1123" filterUnits="userSpaceOnUse" color-interpolation-filters="sRGB">
<feFlood flood-opacity="0" result="BackgroundImageFix"/>
<feColorMatrix in="SourceAlpha" type="matrix" values="0 0 0 0 0 0 0 0 0 0 0 0 0 0 0 0 0 0 127 0" result="hardAlpha"/>
<feOffset dy="4"/>
<feGaussianBlur stdDeviation="2"/>
<feComposite in2="hardAlpha" operator="out"/>
<feColorMatrix type="matrix" values="0 0 0 0 0 0 0 0 0 0 0 0 0 0 0 0 0 0 0.25 0"/>
<feBlend mode="normal" in2="BackgroundImageFix" result="effect1_dropShadow_2354_421"/>
<feBlend mode="normal" in="SourceGraphic" in2="effect1_dropShadow_2354_421" result="shape"/>
</filter>
<clipPath id="clip0_2354_421">
<rect width="59" height="59" fill="white"/>
</clipPath>
</defs>
</svg>
