<svg width="54" height="54" viewBox="0 0 54 54" fill="none" xmlns="http://www.w3.org/2000/svg">
<g clip-path="url(#clip0_2354_427)">
<g filter="url(#filter0_d_2354_427)">
<path d="M38.25 9C45.9 9 51.75 17.19 51.75 27V38.25C51.75 38.8467 51.5129 39.419 51.091 39.841C50.669 40.2629 50.0967 40.5 49.5 40.5H46.8652C46.3995 41.8159 45.5373 42.9551 44.3974 43.7608C43.2575 44.5665 41.8959 44.9991 40.5 44.9991C39.1041 44.9991 37.7425 44.5665 36.6026 43.7608C35.4627 42.9551 34.6005 41.8159 34.1347 40.5H19.8653C19.3995 41.8159 18.5373 42.9551 17.3974 43.7608C16.2575 44.5665 14.8959 44.9991 13.5 44.9991C12.1041 44.9991 10.7425 44.5665 9.60261 43.7608C8.46271 42.9551 7.60054 41.8159 7.13475 40.5H4.5C3.90326 40.5 3.33097 40.2629 2.90901 39.841C2.48705 39.419 2.25 38.8467 2.25 38.25V13.5C2.25 12.3065 2.72411 11.1619 3.56802 10.318C4.41193 9.47411 5.55653 9 6.75 9H38.25ZM13.5 36C12.9033 36 12.331 36.2371 11.909 36.659C11.4871 37.081 11.25 37.6533 11.25 38.25C11.25 38.8467 11.4871 39.419 11.909 39.841C12.331 40.2629 12.9033 40.5 13.5 40.5C14.0967 40.5 14.669 40.2629 15.091 39.841C15.5129 39.419 15.75 38.8467 15.75 38.25C15.75 37.6533 15.5129 37.081 15.091 36.659C14.669 36.2371 14.0967 36 13.5 36ZM40.5 36C39.9033 36 39.331 36.2371 38.909 36.659C38.4871 37.081 38.25 37.6533 38.25 38.25C38.25 38.8467 38.4871 39.419 38.909 39.841C39.331 40.2629 39.9033 40.5 40.5 40.5C41.0967 40.5 41.669 40.2629 42.091 39.841C42.5129 39.419 42.75 38.8467 42.75 38.25C42.75 37.6533 42.5129 37.081 42.091 36.659C41.669 36.2371 41.0967 36 40.5 36ZM38.79 13.5248L41.193 24.75H47.124C46.4198 18.549 42.8602 13.905 38.79 13.5248ZM13.5 13.5H6.75V20.25H13.5V13.5ZM24.75 13.5H18V20.25H24.75V13.5ZM34.1798 13.5H29.25V20.25H35.6265L34.1798 13.5Z" fill="white"/>
</g>
</g>
<defs>
<filter id="filter0_d_2354_427" x="-1.75" y="9" width="57.5" height="43.999" filterUnits="userSpaceOnUse" color-interpolation-filters="sRGB">
<feFlood flood-opacity="0" result="BackgroundImageFix"/>
<feColorMatrix in="SourceAlpha" type="matrix" values="0 0 0 0 0 0 0 0 0 0 0 0 0 0 0 0 0 0 127 0" result="hardAlpha"/>
<feOffset dy="4"/>
<feGaussianBlur stdDeviation="2"/>
<feComposite in2="hardAlpha" operator="out"/>
<feColorMatrix type="matrix" values="0 0 0 0 0 0 0 0 0 0 0 0 0 0 0 0 0 0 0.25 0"/>
<feBlend mode="normal" in2="BackgroundImageFix" result="effect1_dropShadow_2354_427"/>
<feBlend mode="normal" in="SourceGraphic" in2="effect1_dropShadow_2354_427" result="shape"/>
</filter>
<clipPath id="clip0_2354_427">
<rect width="54" height="54" fill="white"/>
</clipPath>
</defs>
</svg>
