<svg width="56" height="56" viewBox="0 0 56 56" fill="none" xmlns="http://www.w3.org/2000/svg">
<g filter="url(#filter0_d_2354_387)">
<path d="M25.6665 11.667C41.1458 11.667 50.9902 18.9237 51.3238 29.7597L51.3332 30.3337C51.3332 32.1902 50.5957 33.9707 49.2829 35.2834C47.9702 36.5962 46.1897 37.3337 44.3332 37.3337H6.99984C6.381 37.3337 5.78751 37.0878 5.34992 36.6502C4.91234 36.2127 4.6665 35.6192 4.6665 35.0003V14.0003C4.6665 13.3815 4.91234 12.788 5.34992 12.3504C5.78751 11.9128 6.381 11.667 6.99984 11.667H25.6665ZM16.3332 16.3337H9.33317V23.3337H16.3332V16.3337ZM25.6665 16.3337H20.9998V23.3337H27.9998V16.3943C27.2227 16.3536 26.4447 16.3334 25.6665 16.3337ZM32.6688 16.9333L32.6665 23.3337H44.4265C42.1422 20.214 38.1522 17.953 32.6688 16.9333ZM48.9998 42.0003C49.6187 42.0003 50.2122 42.2462 50.6498 42.6837C51.0873 43.1213 51.3332 43.7148 51.3332 44.3337C51.3332 44.9525 51.0873 45.546 50.6498 45.9836C50.2122 46.4212 49.6187 46.667 48.9998 46.667H6.99984C6.381 46.667 5.78751 46.4212 5.34992 45.9836C4.91234 45.546 4.6665 44.9525 4.6665 44.3337C4.6665 43.7148 4.91234 43.1213 5.34992 42.6837C5.78751 42.2462 6.381 42.0003 6.99984 42.0003H48.9998Z" fill="white"/>
</g>
<defs>
<filter id="filter0_d_2354_387" x="0.666504" y="11.667" width="54.6665" height="43" filterUnits="userSpaceOnUse" color-interpolation-filters="sRGB">
<feFlood flood-opacity="0" result="BackgroundImageFix"/>
<feColorMatrix in="SourceAlpha" type="matrix" values="0 0 0 0 0 0 0 0 0 0 0 0 0 0 0 0 0 0 127 0" result="hardAlpha"/>
<feOffset dy="4"/>
<feGaussianBlur stdDeviation="2"/>
<feComposite in2="hardAlpha" operator="out"/>
<feColorMatrix type="matrix" values="0 0 0 0 0 0 0 0 0 0 0 0 0 0 0 0 0 0 0.25 0"/>
<feBlend mode="normal" in2="BackgroundImageFix" result="effect1_dropShadow_2354_387"/>
<feBlend mode="normal" in="SourceGraphic" in2="effect1_dropShadow_2354_387" result="shape"/>
</filter>
</defs>
</svg>
