<svg width="53" height="53" viewBox="0 0 53 53" fill="none" xmlns="http://www.w3.org/2000/svg">
<g clip-path="url(#clip0_2354_379)">
<g filter="url(#filter0_d_2354_379)">
<path d="M7.02295 13.1407L7.10295 12.9376L7.26295 12.6391L7.33838 12.5244L7.48238 12.3453L7.62867 12.19L7.85267 12.0013L8.09495 11.846L8.2481 11.7672L8.35781 11.7194L8.67553 11.6215L49.9395 4.43176C50.2668 4.37489 50.6021 4.39317 50.9219 4.48533C51.2418 4.57749 51.5386 4.74132 51.7918 4.96543C52.0449 5.18954 52.2484 5.46856 52.388 5.78311C52.5276 6.09767 52.5999 6.44021 52.6001 6.78694V11.5642C52.6001 12.1977 52.3593 12.8052 51.9306 13.2532C51.502 13.7012 50.9206 13.9528 50.3144 13.9528C49.7082 13.9528 49.1268 13.7012 48.6981 13.2532C48.2695 12.8052 48.0287 12.1977 48.0287 11.5642V9.60552L16.4812 15.0994L19.3384 16.5946C19.7176 16.7932 20.0364 17.0981 20.2592 17.4752C20.4821 17.8524 20.6001 18.2868 20.6001 18.7301L20.5978 25.8959H25.1715V16.3414C25.1715 15.7079 25.4123 15.1004 25.841 14.6524C26.2697 14.2045 26.851 13.9528 27.4572 13.9528H36.6001C40.2374 13.9528 43.7256 15.4628 46.2976 18.1505C48.8695 20.8382 50.3144 24.4835 50.3144 28.2846V40.2277C50.3144 40.8612 50.0736 41.4687 49.6449 41.9167C49.2163 42.3647 48.6349 42.6163 48.0287 42.6163H45.3544C44.8822 44.0149 44.0064 45.226 42.8479 46.0827C41.6893 46.9394 40.305 47.3994 38.8858 47.3994C37.4666 47.3994 36.0823 46.9394 34.9238 46.0827C33.7652 45.226 32.8895 44.0149 32.4172 42.6163H17.9258C17.386 44.2099 16.3247 45.5528 14.9293 46.4079C13.5339 47.263 11.8942 47.5753 10.2999 47.2895C8.70555 47.0037 7.25916 46.1383 6.2162 44.8461C5.17325 43.5539 4.60084 41.9181 4.6001 40.2277V28.2846C4.6001 27.6511 4.84091 27.0435 5.26957 26.5955C5.69822 26.1476 6.2796 25.8959 6.88581 25.8959V13.9767C6.88343 13.6917 6.92988 13.4086 7.02295 13.1407ZM11.4572 37.8391C10.851 37.8391 10.2697 38.0907 9.841 38.5387C9.41234 38.9866 9.17153 39.5942 9.17153 40.2277C9.17153 40.8612 9.41234 41.4687 9.841 41.9167C10.2697 42.3647 10.851 42.6163 11.4572 42.6163C12.0634 42.6163 12.6448 42.3647 13.0735 41.9167C13.5021 41.4687 13.743 40.8612 13.743 40.2277C13.743 39.5942 13.5021 38.9866 13.0735 38.5387C12.6448 38.0907 12.0634 37.8391 11.4572 37.8391ZM38.8858 37.8391C38.4458 37.8389 38.0151 37.9715 37.6455 38.2209C37.2758 38.4703 36.9829 38.8259 36.8018 39.245C36.6208 39.6641 36.5594 40.1289 36.625 40.5836C36.6905 41.0383 36.8803 41.4635 37.1714 41.8083C37.4626 42.153 37.8428 42.4026 38.2663 42.5271C38.6899 42.6516 39.1389 42.6457 39.5593 42.5101C39.9797 42.3744 40.3538 42.1149 40.6365 41.7626C40.9193 41.4103 41.0987 40.9801 41.1532 40.5239L41.1715 40.2086L41.1555 39.9482C41.09 39.3672 40.8227 38.8315 40.4044 38.4427C39.986 38.0539 39.4457 37.8391 38.8858 37.8391ZM37.3955 18.7659L39.4412 25.8959H45.4527L45.3567 25.5257C44.8586 23.7976 43.9023 22.2523 42.5985 21.0686C41.2948 19.885 39.6969 19.1114 37.9898 18.8376L37.3955 18.7659Z" fill="white"/>
</g>
</g>
<defs>
<filter id="filter0_d_2354_379" x="0.600098" y="4.39941" width="56" height="51" filterUnits="userSpaceOnUse" color-interpolation-filters="sRGB">
<feFlood flood-opacity="0" result="BackgroundImageFix"/>
<feColorMatrix in="SourceAlpha" type="matrix" values="0 0 0 0 0 0 0 0 0 0 0 0 0 0 0 0 0 0 127 0" result="hardAlpha"/>
<feOffset dy="4"/>
<feGaussianBlur stdDeviation="2"/>
<feComposite in2="hardAlpha" operator="out"/>
<feColorMatrix type="matrix" values="0 0 0 0 0 0 0 0 0 0 0 0 0 0 0 0 0 0 0.25 0"/>
<feBlend mode="normal" in2="BackgroundImageFix" result="effect1_dropShadow_2354_379"/>
<feBlend mode="normal" in="SourceGraphic" in2="effect1_dropShadow_2354_379" result="shape"/>
</filter>
<clipPath id="clip0_2354_379">
<rect width="52.8" height="52.8" fill="white"/>
</clipPath>
</defs>
</svg>
