<svg width="54" height="54" viewBox="0 0 54 54" fill="none" xmlns="http://www.w3.org/2000/svg">
<g clip-path="url(#clip0_2354_391)">
<g filter="url(#filter0_d_2354_391)">
<path d="M43.875 37.8V12.825C43.875 9.45 41.175 6.75 37.8 6.75H30.375V3.375H37.125V0H16.875V3.375H23.625V6.75H16.2C12.825 6.75 10.125 9.45 10.125 12.825V37.8C10.125 41.175 12.825 43.875 16.2 43.875H16.875L14.5125 47.25H10.125V50.625H12.4875L10.125 54H16.875L18.9 50.625H35.4375L37.4625 54H44.2125L41.85 50.625H43.875V47.25H39.4875L37.125 43.875H37.8C41.175 43.875 43.875 41.175 43.875 37.8ZM13.5 13.1625C13.5 11.475 14.85 10.125 16.5375 10.125H37.125C39.15 10.125 40.5 11.475 40.5 13.1625V20.25C40.5 22.275 39.15 23.625 37.4625 23.625H16.5375C14.85 23.625 13.5 22.275 13.5 20.5875V13.1625ZM13.5 37.125C13.5 35.1 14.85 33.75 16.875 33.75C18.9 33.75 20.25 35.1 20.25 37.125C20.25 39.15 18.9 40.5 16.875 40.5C14.85 40.5 13.5 39.15 13.5 37.125ZM33.4125 47.25H20.5875L22.6125 43.875H31.3875L33.4125 47.25ZM33.75 37.125C33.75 35.1 35.1 33.75 37.125 33.75C39.15 33.75 40.5 35.1 40.5 37.125C40.5 39.15 39.15 40.5 37.125 40.5C35.1 40.5 33.75 39.15 33.75 37.125Z" fill="white"/>
</g>
</g>
<defs>
<filter id="filter0_d_2354_391" x="6.125" y="0" width="42.0874" height="62" filterUnits="userSpaceOnUse" color-interpolation-filters="sRGB">
<feFlood flood-opacity="0" result="BackgroundImageFix"/>
<feColorMatrix in="SourceAlpha" type="matrix" values="0 0 0 0 0 0 0 0 0 0 0 0 0 0 0 0 0 0 127 0" result="hardAlpha"/>
<feOffset dy="4"/>
<feGaussianBlur stdDeviation="2"/>
<feComposite in2="hardAlpha" operator="out"/>
<feColorMatrix type="matrix" values="0 0 0 0 0 0 0 0 0 0 0 0 0 0 0 0 0 0 0.25 0"/>
<feBlend mode="normal" in2="BackgroundImageFix" result="effect1_dropShadow_2354_391"/>
<feBlend mode="normal" in="SourceGraphic" in2="effect1_dropShadow_2354_391" result="shape"/>
</filter>
<clipPath id="clip0_2354_391">
<rect width="54" height="54" fill="white"/>
</clipPath>
</defs>
</svg>
