<svg width="59" height="59" viewBox="0 0 59 59" fill="none" xmlns="http://www.w3.org/2000/svg">
<g clip-path="url(#clip0_2354_450)">
<g filter="url(#filter0_d_2354_450)">
<path d="M33.6143 17.0897C33.1167 17.1964 32.6729 17.4757 32.3614 17.8781C32.0499 18.2805 31.8909 18.7802 31.9123 19.2886V19.4316L11.3463 18.297C11.0663 18.2946 10.7886 18.3479 10.5294 18.4539C10.2702 18.5598 10.0347 18.7163 9.83661 18.9142C9.6385 19.1121 9.48176 19.3475 9.37551 19.6065C9.26927 19.8656 9.21564 20.1432 9.21776 20.4232C9.21534 20.7034 9.26874 20.9813 9.37485 21.2407C9.48096 21.5 9.63766 21.7356 9.8358 21.9337C10.0339 22.1319 10.2695 22.2886 10.5289 22.3947C10.7882 22.5008 11.0661 22.5542 11.3463 22.5518L31.9123 21.4172V26.1667C30.2908 26.8976 28.894 28.0485 27.8663 29.5002H5.67322C4.5386 29.5002 4.26857 31.4154 5.53026 31.6287C5.87745 31.6854 18.1495 34.6808 25.386 36.4485C25.2567 37.4629 25.175 38.4909 25.175 39.5687C25.175 47.5678 32.162 47.5837 40.776 47.5837C49.39 47.5837 56.3043 47.57 56.3043 39.5687C56.3043 31.5765 45.8454 25.1024 37.2291 25.1024C36.8615 25.1024 36.5143 25.1523 36.1671 25.175V21.4172L56.7309 22.5518C57.0111 22.5542 57.289 22.5008 57.5483 22.3947C57.8077 22.2886 58.0433 22.1319 58.2414 21.9337C58.4396 21.7356 58.5962 21.5 58.7024 21.2407C58.8085 20.9813 58.8619 20.7034 58.8595 20.4232C58.8619 20.143 58.8085 19.8652 58.7024 19.6058C58.5962 19.3465 58.4396 19.1109 58.2414 18.9127C58.0433 18.7146 57.8077 18.5579 57.5483 18.4518C57.289 18.3457 57.0111 18.2923 56.7309 18.2947L36.1649 19.4293V19.2886C36.172 18.986 36.1153 18.6852 35.9985 18.4059C35.8817 18.1266 35.7074 17.8751 35.4869 17.6677C35.2664 17.4602 35.0047 17.3015 34.7188 17.202C34.4329 17.1024 34.1292 17.0642 33.8276 17.0897C33.7557 17.0863 33.6861 17.0863 33.6143 17.0897ZM5.67322 25.3883C4.28177 25.3883 2.94731 25.9411 1.96341 26.925C0.979508 27.9089 0.426758 29.2433 0.426758 30.6348C0.426758 32.0262 0.979508 33.3607 1.96341 34.3446C2.94731 35.3285 4.28177 35.8812 5.67322 35.8812C6.47107 35.879 7.25758 35.6922 7.97128 35.3356C8.68498 34.9789 9.30653 34.462 9.78734 33.8253L7.01887 33.0447C6.61722 33.2716 6.16564 33.4713 5.67322 33.4713C4.11653 33.4713 2.83668 32.1892 2.83668 30.6348C2.83668 29.0804 4.1188 27.7982 5.67322 27.7982C6.4266 27.7982 7.08468 28.0932 7.58845 28.5789H10.4953C10.098 27.6292 9.42751 26.819 8.569 26.251C7.71049 25.683 6.70262 25.3827 5.67322 25.3883ZM41.13 29.6409C45.1692 29.6409 52.1221 33.4146 52.1221 38.1505C52.1221 39.925 50.284 40.776 44.0368 40.776C39.9386 40.776 38.7904 38.8698 38.7904 36.4485C38.7904 32.7883 39.2397 29.6409 41.13 29.6409ZM56.3066 47.7266C55.9547 47.8027 55.6274 47.9657 55.3547 48.2008C55.082 48.4358 54.8725 48.7355 54.7453 49.0723C54.768 49.0496 54.8248 49.0337 54.6024 49.1426C53.9738 49.458 51.9928 50.0662 47.654 50.0662H22.6925C22.384 50.0157 22.0682 50.0328 21.767 50.1165C21.4658 50.2001 21.1864 50.3483 20.9482 50.5506C20.71 50.753 20.5186 51.0048 20.3873 51.2885C20.2561 51.5722 20.1881 51.881 20.1881 52.1936C20.1881 52.5062 20.2561 52.815 20.3873 53.0987C20.5186 53.3824 20.71 53.6342 20.9482 53.8366C21.1864 54.039 21.4658 54.1871 21.767 54.2708C22.0682 54.3544 22.384 54.3716 22.6925 54.321H47.654C52.3536 54.321 54.8701 53.7923 56.5176 52.9731C57.3413 52.5624 57.9722 52.0563 58.3625 51.4822C58.5576 51.1963 58.7074 50.899 58.7868 50.6312C58.8663 50.3635 58.8595 49.9959 58.8595 49.9959C58.8769 49.687 58.8277 49.378 58.7152 49.0899C58.6027 48.8017 58.4295 48.5411 58.2073 48.3259C57.9851 48.1106 57.7193 47.9457 57.4277 47.8423C57.1361 47.7389 56.8258 47.6994 56.5176 47.7266C56.4473 47.7234 56.3769 47.7234 56.3066 47.7266ZM2046.85 3333.5V3338.04H2105.85V3333.5H2046.85ZM2055.92 3344.85V3349.39H2096.77V3344.85H2055.92ZM2046.85 3356.19V3360.73H2105.85V3356.19H2046.85ZM2055.92 3367.54V3372.08H2096.77V3367.54H2055.92ZM2046.85 3378.89V3383.42H2105.85V3378.89H2046.85Z" fill="white"/>
</g>
</g>
<defs>
<filter id="filter0_d_2354_450" x="-3.57324" y="17.082" width="2113.42" height="3374.34" filterUnits="userSpaceOnUse" color-interpolation-filters="sRGB">
<feFlood flood-opacity="0" result="BackgroundImageFix"/>
<feColorMatrix in="SourceAlpha" type="matrix" values="0 0 0 0 0 0 0 0 0 0 0 0 0 0 0 0 0 0 127 0" result="hardAlpha"/>
<feOffset dy="4"/>
<feGaussianBlur stdDeviation="2"/>
<feComposite in2="hardAlpha" operator="out"/>
<feColorMatrix type="matrix" values="0 0 0 0 0 0 0 0 0 0 0 0 0 0 0 0 0 0 0.25 0"/>
<feBlend mode="normal" in2="BackgroundImageFix" result="effect1_dropShadow_2354_450"/>
<feBlend mode="normal" in="SourceGraphic" in2="effect1_dropShadow_2354_450" result="shape"/>
</filter>
<clipPath id="clip0_2354_450">
<rect width="59" height="59" fill="white"/>
</clipPath>
</defs>
</svg>
