<svg width="57" height="57" viewBox="0 0 57 57" fill="none" xmlns="http://www.w3.org/2000/svg">
<g clip-path="url(#clip0_2354_1441)">
<g filter="url(#filter0_d_2354_1441)">
<path d="M16.0313 8.90625C16.0313 7.49706 15.6134 6.11952 14.8305 4.94782C14.0476 3.77611 12.9348 2.86289 11.6329 2.32361C10.3309 1.78434 8.89835 1.64324 7.51623 1.91816C6.13412 2.19308 4.86457 2.87167 3.86812 3.86812C2.87167 4.86457 2.19308 6.13412 1.91816 7.51623C1.64324 8.89835 1.78434 10.3309 2.32361 11.6329C2.86289 12.9348 3.77611 14.0476 4.94782 14.8305C6.11952 15.6134 7.49706 16.0313 8.90625 16.0313C10.7953 16.0292 12.6064 15.2779 13.9421 13.9421C15.2779 12.6064 16.0292 10.7953 16.0313 8.90625ZM5.34375 8.90625C5.34375 8.20166 5.55269 7.51288 5.94414 6.92703C6.3356 6.34118 6.89198 5.88457 7.54294 5.61493C8.19391 5.3453 8.91021 5.27475 9.60126 5.41221C10.2923 5.54967 10.9271 5.88896 11.4253 6.38719C11.9235 6.88541 12.2628 7.52019 12.4003 8.21124C12.5378 8.9023 12.4672 9.6186 12.1976 10.2696C11.9279 10.9205 11.4713 11.4769 10.8855 11.8684C10.2996 12.2598 9.61085 12.4688 8.90625 12.4688C7.96175 12.4677 7.05623 12.092 6.38836 11.4241C5.72049 10.7563 5.34481 9.85076 5.34375 8.90625ZM49.0567 7.95284C47.6816 6.56934 46.0473 5.47037 44.2472 4.71874C42.4472 3.96711 40.5166 3.57754 38.566 3.5723H38.4967C34.323 3.5723 30.2473 5.3501 27.0149 8.58285C23.7219 11.8759 21.0312 16.88 19.8173 21.9689C19.5107 23.2377 19.3075 24.5293 19.2096 25.8309C19.0834 27.8446 18.5023 29.8034 17.5101 31.5602C16.8155 32.7612 15.9662 33.8658 14.984 34.8457L6.15734 43.8868C4.7781 45.2707 4.63125 46.6938 4.75171 47.6448C4.89132 48.749 5.47813 49.8458 6.44869 50.8165C7.41924 51.7872 8.5166 52.374 9.62053 52.5135C9.79608 52.5357 9.97285 52.5468 10.1498 52.5469C11.0613 52.5469 12.2377 52.2486 13.3865 51.0996L22.2124 42.0598C23.2665 41.004 24.4648 40.1028 25.7715 39.383C27.4426 38.483 29.2879 37.9536 31.182 37.8307C32.4913 37.7305 33.7902 37.5234 35.0658 37.2115C40.1361 35.9879 45.1309 33.2898 48.4264 29.9941C51.6772 26.7434 53.4564 22.6411 53.4367 18.4431C53.4315 16.4925 53.042 14.5621 52.2904 12.7622C51.5389 10.9622 50.4401 9.32799 49.0567 7.95284ZM10.8607 48.5876C10.4217 49.0237 10.1643 48.9912 10.0672 48.9791C9.76337 48.9406 9.3627 48.6923 8.96782 48.2974C8.57294 47.9025 8.32445 47.5018 8.28604 47.1979C8.27369 47.1003 8.24096 46.8416 8.68426 46.3979L15.7396 39.1714L17.9227 41.3545L10.8607 48.5876ZM20.4405 38.8341L18.2171 36.6108C19.1133 35.6159 19.9038 34.5305 20.5757 33.3722C21.305 34.6725 22.379 35.7463 23.6795 36.4754C22.521 37.1474 21.4355 37.9379 20.4405 38.8343V38.8341ZM45.9079 27.4758C43.0987 30.2849 38.6242 32.6888 34.2306 33.7491C29.8582 34.8042 26.1955 34.3819 24.4324 32.6191C20.6736 28.8601 23.439 17.1966 29.534 11.1016C32.3243 8.31132 35.4901 7.1486 38.4616 7.1486C41.4862 7.15016 44.3881 8.34427 46.5377 10.4719C50.5066 14.4407 51.6347 21.7488 45.9079 27.4758Z" fill="white"/>
</g>
</g>
<defs>
<filter id="filter0_d_2354_1441" x="-2.21875" y="1.78125" width="59.6558" height="58.7656" filterUnits="userSpaceOnUse" color-interpolation-filters="sRGB">
<feFlood flood-opacity="0" result="BackgroundImageFix"/>
<feColorMatrix in="SourceAlpha" type="matrix" values="0 0 0 0 0 0 0 0 0 0 0 0 0 0 0 0 0 0 127 0" result="hardAlpha"/>
<feOffset dy="4"/>
<feGaussianBlur stdDeviation="2"/>
<feComposite in2="hardAlpha" operator="out"/>
<feColorMatrix type="matrix" values="0 0 0 0 0 0 0 0 0 0 0 0 0 0 0 0 0 0 0.25 0"/>
<feBlend mode="normal" in2="BackgroundImageFix" result="effect1_dropShadow_2354_1441"/>
<feBlend mode="normal" in="SourceGraphic" in2="effect1_dropShadow_2354_1441" result="shape"/>
</filter>
<clipPath id="clip0_2354_1441">
<rect width="57" height="57" fill="white"/>
</clipPath>
</defs>
</svg>
