<svg width="55" height="44" viewBox="0 0 55 44" fill="none" xmlns="http://www.w3.org/2000/svg">
<g clip-path="url(#clip0_2354_1369)">
<g filter="url(#filter0_d_2354_1369)">
<path d="M16.2946 26.6906C16.5988 26.9708 17.6069 27.5002 19.25 27.5002C20.8931 27.5002 21.902 26.9708 22.2054 26.6906C23.5821 25.4213 25.1702 24.7502 26.7996 24.7502H28.2004C29.8298 24.7502 31.4187 25.4213 32.7946 26.6906C33.0988 26.9708 34.1069 27.5002 35.75 27.5002C37.3931 27.5002 38.402 26.9708 38.7054 26.6906C39.9824 25.5124 41.4451 24.8756 42.9498 24.7863L33.2527 17.8597L34.7995 16.7545C35.1123 16.5328 35.5111 16.452 35.8841 16.5303L44.5079 18.3805C46.7345 18.8557 48.9285 17.4378 49.4063 15.2111C49.8833 12.9836 48.4653 10.7905 46.237 10.3127L37.6131 8.46244C34.9723 7.89697 32.1973 8.47275 30.0025 10.042L23.1258 14.955C22.2338 15.5901 21.462 16.3678 20.8295 17.2702L14.9316 25.6955C15.4017 25.9731 15.8615 26.291 16.2946 26.6906ZM53.625 30.2502H52.25C50.0122 30.2502 48.3141 29.5266 47.4298 28.7119C46.6649 28.0063 45.7402 27.5002 44.6995 27.5002H43.2987C42.258 27.5002 41.3334 28.0063 40.5685 28.7119C39.6859 29.5266 37.9878 30.2502 35.75 30.2502C33.5122 30.2502 31.8141 29.5266 30.9298 28.7119C30.1649 28.0063 29.2402 27.5002 28.1995 27.5002H26.7987C25.758 27.5002 24.8334 28.0063 24.0685 28.7119C23.1859 29.5266 21.4878 30.2502 19.25 30.2502C17.0122 30.2502 15.3141 29.5266 14.4298 28.7119C13.6649 28.0063 12.7402 27.5002 11.6995 27.5002H10.2987C9.25805 27.5002 8.33336 28.0063 7.56852 28.7119C6.68594 29.5266 4.98781 30.2502 2.75 30.2502H1.375C0.615312 30.2502 0 30.8655 0 31.6252V34.3752C0 35.1349 0.615312 35.7502 1.375 35.7502H2.75C6.06891 35.7502 8.99938 34.7026 11 33.0139C13.0006 34.7035 15.9311 35.7502 19.25 35.7502C22.5689 35.7502 25.4994 34.7026 27.5 33.0139C29.5006 34.7035 32.4311 35.7502 35.75 35.7502C39.0689 35.7502 41.9994 34.7026 44 33.0139C46.0006 34.7035 48.9311 35.7502 52.25 35.7502H53.625C54.3847 35.7502 55 35.1349 55 34.3752V31.6252C55 30.8655 54.3847 30.2502 53.625 30.2502ZM9.625 22.0002C13.4217 22.0002 16.5 18.9219 16.5 15.1252C16.5 11.3285 13.4217 8.25017 9.625 8.25017C5.82828 8.25017 2.75 11.3285 2.75 15.1252C2.75 18.9219 5.82828 22.0002 9.625 22.0002Z" fill="white"/>
</g>
</g>
<defs>
<filter id="filter0_d_2354_1369" x="-4" y="8.25" width="63" height="35.5" filterUnits="userSpaceOnUse" color-interpolation-filters="sRGB">
<feFlood flood-opacity="0" result="BackgroundImageFix"/>
<feColorMatrix in="SourceAlpha" type="matrix" values="0 0 0 0 0 0 0 0 0 0 0 0 0 0 0 0 0 0 127 0" result="hardAlpha"/>
<feOffset dy="4"/>
<feGaussianBlur stdDeviation="2"/>
<feComposite in2="hardAlpha" operator="out"/>
<feColorMatrix type="matrix" values="0 0 0 0 0 0 0 0 0 0 0 0 0 0 0 0 0 0 0.25 0"/>
<feBlend mode="normal" in2="BackgroundImageFix" result="effect1_dropShadow_2354_1369"/>
<feBlend mode="normal" in="SourceGraphic" in2="effect1_dropShadow_2354_1369" result="shape"/>
</filter>
<clipPath id="clip0_2354_1369">
<rect width="55" height="44" fill="white"/>
</clipPath>
</defs>
</svg>
