<svg width="56" height="56" viewBox="0 0 56 56" fill="none" xmlns="http://www.w3.org/2000/svg">
<g clip-path="url(#clip0_2354_1362)">
<g filter="url(#filter0_d_2354_1362)">
<path d="M3.5 28C3.5 14.469 14.469 3.5 28 3.5C41.531 3.5 52.5 14.469 52.5 28C52.5 41.531 41.531 52.5 28 52.5C14.469 52.5 3.5 41.531 3.5 28ZM26.7943 7.035C26.8143 7.32915 26.7504 7.62295 26.6101 7.88224C26.4698 8.14153 26.2587 8.35567 26.0015 8.49975L19.4513 12.138C19.3175 12.2124 19.1745 12.2688 19.026 12.306L18.3487 12.4757L18.7268 15.12L24.843 16.345C25.1842 16.413 25.4973 16.5812 25.7425 16.828L33.25 13.0725V9.82975C33.25 9.41261 33.3989 9.00917 33.6701 8.69216C33.9412 8.37514 34.3166 8.16541 34.7287 8.10075C32.1768 7.23939 29.4831 6.87872 26.7943 7.035ZM13.6168 12.698C10.2081 15.8964 7.96598 20.1422 7.24675 24.7607L12.789 21.9905C12.8287 21.896 12.8777 21.805 12.936 21.7175L16.8525 15.8498C17.0865 15.4986 17.4395 15.2437 17.8465 15.1323L17.4965 12.6892L15.344 13.2265C15.0358 13.3057 14.7117 13.2984 14.4073 13.2054C14.1029 13.1125 13.83 12.9376 13.6185 12.6997M7.1155 25.8072C7.0385 26.5259 7 27.2539 7 27.9912V28.0087C7 30.3957 7.40075 32.6917 8.13575 34.8302L12.8783 40.1012C13.034 39.9141 13.2271 39.7615 13.4453 39.6533L16.5918 38.0783C16.7549 37.9974 16.9297 37.9425 17.1098 37.9155L17.8238 29.3562C17.3734 29.2856 16.9685 29.042 16.695 28.6772L12.9938 23.7405C12.8351 23.5296 12.7262 23.2855 12.6753 23.0265L7.1155 25.8072ZM12.5125 41.0025L9.149 37.2645C10.151 39.3015 11.4766 41.1626 13.0743 42.7753C12.8806 42.3773 12.7151 41.9662 12.579 41.545C12.5214 41.3703 12.4988 41.1859 12.5125 41.0025ZM28 49C32.4905 49 36.652 47.5895 40.0662 45.1885L40.4967 41.7533C40.2955 41.7796 40.0912 41.7707 39.893 41.727L34.6203 40.5545C34.2552 40.4731 33.9259 40.2768 33.6805 39.9945L25.228 43.897L25.2192 43.967L24.7625 47.1695C24.7257 47.4215 24.6365 47.6595 24.507 47.8695C25.2752 48.3 26.0802 48.664 26.887 48.972C27.2545 48.9895 27.6255 48.9988 28 49ZM41.4312 41.3315L41.0392 44.464C44.7848 41.4993 47.4077 37.3461 48.475 32.69L45.9147 33.9692C45.8791 34.0608 45.8358 34.1492 45.7853 34.2335L41.7743 40.9185C41.6818 41.073 41.5661 41.2123 41.4312 41.3315ZM45.9917 32.9525L48.692 31.6033C48.8973 30.4307 49 29.2297 49 28C49 23.4028 47.523 19.1502 45.017 15.6923C44.9728 16.0868 44.7956 16.4546 44.5148 16.7352L42.966 18.284C42.7954 18.4546 42.5913 18.588 42.3667 18.6759C42.142 18.7639 41.9016 18.8044 41.6605 18.795L42.3378 27.7987C42.5172 27.9174 42.6732 28.0681 42.798 28.2432L45.7082 32.3172C45.8482 32.5097 45.9427 32.7285 45.9917 32.9525ZM18.7092 29.267L17.9812 38.003C18.1094 38.0504 18.2316 38.1127 18.3452 38.1885L24.458 42.2625C24.7306 42.4449 24.9465 42.7001 25.081 42.9992L33.2885 39.2122C33.2627 39.0914 33.2498 38.9683 33.25 38.8447V31.8097C33.2497 31.5573 33.304 31.3077 33.4092 31.0783L25.5273 26.481C25.4104 26.5664 25.2834 26.6369 25.1493 26.691L18.7443 29.2513L18.7092 29.267ZM26.0908 25.7968L33.971 30.394C34.0884 30.3085 34.2159 30.238 34.3507 30.184L40.7243 27.636C40.9515 27.545 41.1954 27.5026 41.44 27.5117L40.7627 18.508L34.0988 14.5093C33.8573 14.3643 33.6544 14.1632 33.5072 13.923L26.1853 17.584C26.2284 17.7357 26.25 17.8943 26.25 18.06V25.0653C26.2503 25.3177 26.196 25.5673 26.0908 25.7968Z" fill="white"/>
</g>
</g>
<defs>
<filter id="filter0_d_2354_1362" x="-0.5" y="3.5" width="57" height="57" filterUnits="userSpaceOnUse" color-interpolation-filters="sRGB">
<feFlood flood-opacity="0" result="BackgroundImageFix"/>
<feColorMatrix in="SourceAlpha" type="matrix" values="0 0 0 0 0 0 0 0 0 0 0 0 0 0 0 0 0 0 127 0" result="hardAlpha"/>
<feOffset dy="4"/>
<feGaussianBlur stdDeviation="2"/>
<feComposite in2="hardAlpha" operator="out"/>
<feColorMatrix type="matrix" values="0 0 0 0 0 0 0 0 0 0 0 0 0 0 0 0 0 0 0.25 0"/>
<feBlend mode="normal" in2="BackgroundImageFix" result="effect1_dropShadow_2354_1362"/>
<feBlend mode="normal" in="SourceGraphic" in2="effect1_dropShadow_2354_1362" result="shape"/>
</filter>
<clipPath id="clip0_2354_1362">
<rect width="56" height="56" fill="white"/>
</clipPath>
</defs>
</svg>
