<svg width="57" height="57" viewBox="0 0 57 57" fill="none" xmlns="http://www.w3.org/2000/svg">
<g clip-path="url(#clip0_2354_1379)">
<g filter="url(#filter0_d_2354_1379)">
<path d="M28.4998 31.8586L31.9625 35.3213C30.1251 37.6873 28.8732 40.4543 28.3089 43.3964C27.7447 46.3385 27.8841 49.3724 28.7159 52.2503C23.4549 52.3043 18.3258 50.6046 14.1381 47.4196L13.4684 46.8899L28.4998 31.8586ZM35.3564 38.7152L43.5311 46.8899C40.629 49.2697 37.2014 50.9233 33.5324 51.7136C32.7743 49.5591 32.5443 47.2541 32.8617 44.9923C33.1791 42.7304 34.0346 40.5778 35.3564 38.7152ZM21.6764 25.0376L25.1439 28.5003L10.1101 43.5317C6.5904 39.2352 4.69301 33.8381 4.74977 28.2842C7.62771 29.1159 10.6615 29.2554 13.6036 28.6911C16.5457 28.1269 19.3127 26.875 21.6788 25.0376H21.6764ZM51.713 33.5306C50.989 36.9087 49.5294 40.0858 47.438 42.8358L46.8918 43.5317L38.7146 35.3569C40.5771 34.0347 42.7296 33.1788 44.9914 32.861C47.2533 32.5432 49.5583 32.7728 51.713 33.5306ZM46.8918 13.4689C50.4101 17.7652 52.3066 23.1613 52.2498 28.7141C49.4921 27.9169 46.5897 27.7549 43.7605 28.2403C40.9312 28.7256 38.2488 29.8458 35.9145 31.5166L35.3208 31.9607L31.858 28.5003L46.8918 13.4689ZM28.2813 4.7503C33.542 4.69561 38.6711 6.39445 42.859 9.57868L43.5288 10.1083L28.4998 25.1421L25.037 21.6793C26.8745 19.3133 28.1264 16.5463 28.6906 13.6042C29.2548 10.6621 29.1154 7.62824 28.2836 4.7503H28.2813ZM10.1101 13.4666L18.2849 21.6413C16.4225 22.9635 14.2699 23.8195 12.0081 24.1373C9.74627 24.4551 7.44121 24.2254 5.28652 23.4677C6.07569 19.7981 7.73085 16.3696 10.1101 13.4666ZM23.4695 5.28468C24.1901 7.33281 24.4339 9.51833 24.1824 11.6749C23.931 13.8315 23.1909 15.9023 22.0184 17.7297L21.6431 18.2831L13.466 10.1107C16.3681 7.73087 19.7958 6.07727 23.4648 5.28705L23.4695 5.28468Z" fill="white"/>
</g>
</g>
<defs>
<filter id="filter0_d_2354_1379" x="0.748535" y="4.74902" width="55.5024" height="55.5029" filterUnits="userSpaceOnUse" color-interpolation-filters="sRGB">
<feFlood flood-opacity="0" result="BackgroundImageFix"/>
<feColorMatrix in="SourceAlpha" type="matrix" values="0 0 0 0 0 0 0 0 0 0 0 0 0 0 0 0 0 0 127 0" result="hardAlpha"/>
<feOffset dy="4"/>
<feGaussianBlur stdDeviation="2"/>
<feComposite in2="hardAlpha" operator="out"/>
<feColorMatrix type="matrix" values="0 0 0 0 0 0 0 0 0 0 0 0 0 0 0 0 0 0 0.25 0"/>
<feBlend mode="normal" in2="BackgroundImageFix" result="effect1_dropShadow_2354_1379"/>
<feBlend mode="normal" in="SourceGraphic" in2="effect1_dropShadow_2354_1379" result="shape"/>
</filter>
<clipPath id="clip0_2354_1379">
<rect width="57" height="57" fill="white"/>
</clipPath>
</defs>
</svg>
