<svg width="54" height="54" viewBox="0 0 54 54" fill="none" xmlns="http://www.w3.org/2000/svg">
<g clip-path="url(#clip0_2354_1349)">
<g filter="url(#filter0_d_2354_1349)">
<path d="M35.3948 23.7755L37.1588 22.8935C37.5998 22.673 38.2613 22.8935 38.7023 23.3345L41.1278 28.1855C41.7893 29.288 42.8918 29.9473 43.9943 29.9473C44.4353 29.9473 45.0968 29.7268 45.5356 29.5063C47.0791 28.6243 47.7406 26.642 47.0791 25.0963L44.6536 20.2498C43.7738 18.4858 42.2303 16.9423 40.2436 16.2808C38.2613 15.6193 36.2768 15.8398 34.2923 16.7218L29.4436 19.1473L23.4901 22.232C23.0491 22.4525 22.6081 22.4525 22.1671 22.0115L18.8596 18.704C17.5388 17.381 15.5521 17.381 14.2313 18.704C12.9083 20.027 12.9083 22.0115 14.2313 23.3345L17.5388 26.642C19.9621 29.0653 23.4901 29.5063 26.3566 28.1833L29.4436 26.642L31.8668 31.052L25.4746 35.237C24.1516 36.1213 23.2696 37.2238 22.6081 38.5445L19.7416 46.4848C19.0801 48.2488 19.7416 50.0128 21.5056 50.8948C21.9466 51.1153 22.3876 51.1153 22.8286 51.1153C24.1516 51.1153 25.2541 50.4538 25.9156 49.1308L28.7821 41.1928C28.7895 41.0782 28.8384 40.9703 28.9195 40.8892C29.0007 40.808 29.1086 40.7592 29.2231 40.7518L34.5128 37.226L34.9538 38.549C36.0563 41.6338 38.9228 43.6183 42.2303 43.6183C42.8918 43.6183 43.5533 43.6183 44.2126 43.3978L49.2841 42.0748C51.0481 41.6338 52.1506 39.8698 51.7096 38.108C51.6087 37.6879 51.426 37.2918 51.1718 36.9424C50.9176 36.593 50.597 36.2971 50.2283 36.0718C49.8596 35.8465 49.4501 35.6961 49.0232 35.6293C48.5964 35.5625 48.1605 35.5806 47.7406 35.6825L42.6713 37.0055C42.2303 37.226 41.5688 36.785 41.3483 36.344L40.9073 35.021M16.0876 2.66827C14.6973 2.66982 13.3428 3.10939 12.2165 3.92454C11.0903 4.7397 10.2495 5.88899 9.81354 7.2092C9.37762 8.52941 9.36875 9.9534 9.7882 11.2789C10.2076 12.6045 11.0341 13.7641 12.1501 14.5933M15.8693 34.5778L14.5463 35.4598C13.2233 36.3418 12.3413 37.442 11.6798 38.7673L8.81335 46.703C8.15185 48.467 8.81335 50.2288 10.5773 51.113C11.0183 51.3313 11.4593 51.3313 11.9003 51.3313C12.5618 51.3313 13.2233 51.1108 13.6643 50.6698M7.81435 18.704C6.4936 17.381 4.50685 17.381 3.1861 18.704C1.8631 20.027 1.8631 22.0115 3.1861 23.3345L6.4936 26.642C7.81435 27.9628 9.8011 28.847 11.5628 28.847M26.2306 15.896C27.985 15.896 29.6676 15.1991 30.9081 13.9585C32.1487 12.718 32.8456 11.0354 32.8456 9.28102C32.8456 7.52661 32.1487 5.84406 30.9081 4.6035C29.6676 3.36295 27.985 2.66602 26.2306 2.66602C24.4762 2.66602 22.7936 3.36295 21.5531 4.6035C20.3125 5.84406 19.6156 7.52661 19.6156 9.28102C19.6156 11.0354 20.3125 12.718 21.5531 13.9585C22.7936 15.1991 24.4762 15.896 26.2306 15.896Z" stroke="white" stroke-width="3.375" stroke-miterlimit="10" stroke-linecap="round" stroke-linejoin="round" shape-rendering="crispEdges"/>
</g>
</g>
<defs>
<filter id="filter0_d_2354_1349" x="-3.49365" y="0.978516" width="60.9893" height="60.04" filterUnits="userSpaceOnUse" color-interpolation-filters="sRGB">
<feFlood flood-opacity="0" result="BackgroundImageFix"/>
<feColorMatrix in="SourceAlpha" type="matrix" values="0 0 0 0 0 0 0 0 0 0 0 0 0 0 0 0 0 0 127 0" result="hardAlpha"/>
<feOffset dy="4"/>
<feGaussianBlur stdDeviation="2"/>
<feComposite in2="hardAlpha" operator="out"/>
<feColorMatrix type="matrix" values="0 0 0 0 0 0 0 0 0 0 0 0 0 0 0 0 0 0 0.25 0"/>
<feBlend mode="normal" in2="BackgroundImageFix" result="effect1_dropShadow_2354_1349"/>
<feBlend mode="normal" in="SourceGraphic" in2="effect1_dropShadow_2354_1349" result="shape"/>
</filter>
<clipPath id="clip0_2354_1349">
<rect width="54" height="54" fill="white"/>
</clipPath>
</defs>
</svg>
