<svg width="50" height="52" viewBox="0 0 50 52" fill="none" xmlns="http://www.w3.org/2000/svg">
<g filter="url(#filter0_d_2226_2172)">
<path d="M35.9841 17.6093C37.294 16.3755 37.294 14.3922 37.294 10.4215C37.294 6.45077 37.294 4.4675 35.9841 3.23375C34.6742 2 32.5686 2 28.3529 2H19.4118C15.1961 2 13.0904 2 11.7806 3.23375C10.4707 4.4675 10.4707 6.45077 10.4707 10.4215C10.4707 14.3922 10.4707 16.3755 11.7806 17.6093C13.0904 18.843 15.1961 18.843 19.4118 18.843H28.3529C32.5686 18.843 34.6742 18.843 35.9841 17.6093ZM26.1176 10.4215C26.1176 10.9799 25.8821 11.5154 25.4629 11.9102C25.0437 12.3051 24.4752 12.5269 23.8823 12.5269C23.2895 12.5269 22.721 12.3051 22.3018 11.9102C21.8826 11.5154 21.6471 10.9799 21.6471 10.4215C21.6471 9.86313 21.8826 9.32762 22.3018 8.93278C22.721 8.53795 23.2895 8.31613 23.8823 8.31613C24.4752 8.31613 25.0437 8.53795 25.4629 8.93278C25.8821 9.32762 26.1176 9.86313 26.1176 10.4215Z" stroke="white" stroke-width="4" shape-rendering="crispEdges"/>
</g>
<g filter="url(#filter1_d_2226_2172)">
<path d="M37.2938 8.31613C35.5153 8.31613 33.8097 7.65068 32.5521 6.46618C31.2945 5.28167 30.588 3.67514 30.588 2M37.2938 12.5269C35.5153 12.5269 33.8097 13.1923 32.5521 14.3768C31.2945 15.5613 30.588 17.1679 30.588 18.843M10.4705 8.31613C12.249 8.31613 13.9547 7.65068 15.2123 6.46618C16.4699 5.28167 17.1764 3.67514 17.1764 2M10.4705 12.5269C12.249 12.5269 13.9547 13.1923 15.2123 14.3768C16.4699 15.5613 17.1764 17.1679 17.1764 18.843M6 40.7137H11.0517C13.3093 40.7137 15.596 40.9368 17.7933 41.3621C21.7165 42.1189 25.7524 42.2031 29.7073 41.6106M27.6285 34.6691C27.8967 34.6397 28.1538 34.6067 28.3997 34.5702C30.436 34.2649 32.146 33.2375 33.7107 32.1237L37.752 29.2499C38.4734 28.7568 39.3419 28.4913 40.2332 28.4913C41.1245 28.4913 41.9929 28.7568 42.7143 29.2499C43.9951 30.1615 44.3886 31.6627 43.5772 32.888C42.6316 34.3154 41.2994 36.1408 40.0208 37.2566M27.6285 34.6691L27.3826 34.6944M27.6285 34.6691C27.9862 34.5778 28.3142 34.4042 28.5829 34.1638C28.9203 33.8897 29.1959 33.5546 29.3932 33.1784C29.5906 32.8021 29.7059 32.3924 29.7321 31.9735C29.7584 31.5545 29.6952 31.1349 29.5461 30.7394C29.3971 30.3439 29.1654 29.9806 28.8646 29.671C28.5733 29.3664 28.2341 29.1058 27.8587 28.8983C21.6067 25.3844 11.8765 28.0604 6 31.9869M27.6285 34.6691C27.5478 34.6861 27.4653 34.6946 27.3826 34.6944M27.3826 34.6944C26.0345 34.8216 24.6765 34.8245 23.3278 34.7028" stroke="white" stroke-width="4" stroke-linecap="round" shape-rendering="crispEdges"/>
</g>
<defs>
<filter id="filter0_d_2226_2172" x="4.4707" y="0" width="38.8232" height="28.8433" filterUnits="userSpaceOnUse" color-interpolation-filters="sRGB">
<feFlood flood-opacity="0" result="BackgroundImageFix"/>
<feColorMatrix in="SourceAlpha" type="matrix" values="0 0 0 0 0 0 0 0 0 0 0 0 0 0 0 0 0 0 127 0" result="hardAlpha"/>
<feOffset dy="4"/>
<feGaussianBlur stdDeviation="2"/>
<feComposite in2="hardAlpha" operator="out"/>
<feColorMatrix type="matrix" values="0 0 0 0 0 0 0 0 0 0 0 0 0 0 0 0 0 0 0.25 0"/>
<feBlend mode="normal" in2="BackgroundImageFix" result="effect1_dropShadow_2226_2172"/>
<feBlend mode="normal" in="SourceGraphic" in2="effect1_dropShadow_2226_2172" result="shape"/>
</filter>
<filter id="filter1_d_2226_2172" x="0" y="0" width="50.0063" height="52" filterUnits="userSpaceOnUse" color-interpolation-filters="sRGB">
<feFlood flood-opacity="0" result="BackgroundImageFix"/>
<feColorMatrix in="SourceAlpha" type="matrix" values="0 0 0 0 0 0 0 0 0 0 0 0 0 0 0 0 0 0 127 0" result="hardAlpha"/>
<feOffset dy="4"/>
<feGaussianBlur stdDeviation="2"/>
<feComposite in2="hardAlpha" operator="out"/>
<feColorMatrix type="matrix" values="0 0 0 0 0 0 0 0 0 0 0 0 0 0 0 0 0 0 0.25 0"/>
<feBlend mode="normal" in2="BackgroundImageFix" result="effect1_dropShadow_2226_2172"/>
<feBlend mode="normal" in="SourceGraphic" in2="effect1_dropShadow_2226_2172" result="shape"/>
</filter>
</defs>
</svg>
