<svg width="62" height="62" viewBox="0 0 62 62" fill="none" xmlns="http://www.w3.org/2000/svg">
<g clip-path="url(#clip0_2226_2208)">
<g filter="url(#filter0_d_2226_2208)">
<path fill-rule="evenodd" clip-rule="evenodd" d="M38.9458 39.5024C38.9458 38.4747 39.3541 37.4891 40.0808 36.7624C40.8075 36.0357 41.7931 35.6274 42.8208 35.6274C43.8485 35.6274 44.8341 36.0357 45.5608 36.7624C46.2875 37.4891 46.6958 38.4747 46.6958 39.5024V56.2244C46.6958 56.5669 46.5597 56.8955 46.3175 57.1377C46.0752 57.3799 45.7467 57.516 45.4041 57.516C45.0616 57.516 44.733 57.3799 44.4908 57.1377C44.2486 56.8955 44.1125 56.5669 44.1125 56.2244V39.5024C44.1125 39.1599 43.9764 38.8313 43.7341 38.5891C43.4919 38.3469 43.1634 38.2108 42.8208 38.2108C42.4782 38.2108 42.1497 38.3469 41.9075 38.5891C41.6652 38.8313 41.5291 39.1599 41.5291 39.5024V39.9455C41.5291 40.2881 41.393 40.6166 41.1508 40.8588C40.9086 41.1011 40.58 41.2371 40.2375 41.2371C39.8949 41.2371 39.5664 41.1011 39.3241 40.8588C39.0819 40.6166 38.9458 40.2881 38.9458 39.9455V39.5024Z" fill="white"/>
<path fill-rule="evenodd" clip-rule="evenodd" d="M21.1918 22.6408C18.6394 22.6408 16.6012 23.4933 15.201 24.8586C14.5484 25.4931 14.0279 26.2505 13.6695 27.0872C13.311 27.9238 13.1217 28.8232 13.1124 29.7333C13.0998 30.6436 13.2723 31.547 13.6196 32.3885C13.9669 33.2301 14.4816 33.9923 15.1325 34.6287C16.4798 35.9501 18.4353 36.7832 20.8947 36.8452L22.154 36.8775V53.9857C22.154 54.3305 22.5235 54.8976 23.3798 54.9312C24.2401 54.9647 24.6948 54.4184 24.7335 54.0528L25.9968 42.0158H31.228L32.4913 54.0541C32.53 54.4184 32.9847 54.9647 33.8449 54.9312C34.7013 54.8976 35.0707 54.3305 35.0707 53.9857V25.5445L36.8971 26.375C38.3218 27.0221 39.248 27.8475 39.8602 28.5902C40.5319 29.4078 41.17 30.5264 41.3366 31.7561L41.3392 31.7819L41.3418 31.8026C41.4089 32.4639 42.0393 33.0348 42.8478 32.969C43.6228 32.907 44.1744 32.2379 44.1175 31.5752C44.0604 31.0696 43.946 30.5722 43.7765 30.0924C43.4032 28.9736 42.826 27.9335 42.0741 27.0247C40.1909 24.7359 36.7434 22.6408 30.648 22.6408H21.1918ZM13.3978 23.0089C15.3353 21.1205 18.0478 20.0575 21.1918 20.0575H30.6468C37.3957 20.0575 41.6233 22.4109 44.0698 25.383C45.0237 26.5373 45.7559 27.858 46.2294 29.2787C46.4361 29.9038 46.6221 30.6013 46.6893 31.3427V31.3479C46.8869 33.5786 45.1173 35.3779 43.0545 35.5445C40.9413 35.7137 39.0038 34.2206 38.7739 32.088C38.6887 31.4887 38.3425 30.8132 37.8646 30.2319C37.7969 30.1501 37.7267 30.0704 37.654 29.993V53.9857C37.654 56.033 35.8509 57.437 33.947 57.5119C32.0482 57.5868 30.134 56.3417 29.9221 54.3215L28.9017 44.5991H28.323L27.3026 54.3228C27.0908 56.3417 25.1765 57.5868 23.2778 57.5132C21.3739 57.4383 19.5707 56.033 19.5707 53.9857V39.3382C17.0843 39.0411 14.9336 38.053 13.3229 36.4707C12.4243 35.591 11.7133 34.5382 11.2331 33.376C10.7529 32.2138 10.5134 30.9662 10.529 29.7088C10.5416 28.4583 10.8014 27.2227 11.2936 26.073C11.7857 24.9234 12.5004 23.8825 13.3965 23.0102M22.154 25.1686V34.3175L20.8055 34.258C19.0928 34.1805 17.9161 33.5993 17.1566 32.854C16.749 32.4491 16.4274 31.9661 16.2112 31.4338C15.995 30.9015 15.8886 30.331 15.8985 29.7566C15.9012 29.1754 16.0194 28.6004 16.246 28.0652C16.4726 27.53 16.8032 27.045 17.2186 26.6385C17.9897 25.888 19.1548 25.312 20.8004 25.2332L22.154 25.1686ZM19.5707 28.1149C19.2469 28.2571 18.9715 28.4905 18.7782 28.7866C18.5848 29.0827 18.4818 29.4288 18.4818 29.7824C18.4767 30.2784 18.6588 30.7098 18.9662 31.0095C19.0876 31.1296 19.2788 31.2769 19.5707 31.4022V28.1149ZM28.6124 8.43245C27.5847 8.43245 26.599 8.84071 25.8723 9.56742C25.1456 10.2941 24.7374 11.2797 24.7374 12.3075C24.7374 13.3352 25.1456 14.3208 25.8723 15.0475C26.599 15.7742 27.5847 16.1825 28.6124 16.1825C29.6401 16.1825 30.6257 15.7742 31.3524 15.0475C32.0791 14.3208 32.4874 13.3352 32.4874 12.3075C32.4874 11.2797 32.0791 10.2941 31.3524 9.56742C30.6257 8.84071 29.6401 8.43245 28.6124 8.43245ZM22.154 12.3075C22.154 10.5946 22.8345 8.9519 24.0456 7.74072C25.2568 6.52955 26.8995 5.84912 28.6124 5.84912C30.3252 5.84912 31.9679 6.52955 33.1791 7.74072C34.3903 8.9519 35.0707 10.5946 35.0707 12.3075C35.0707 14.0203 34.3903 15.663 33.1791 16.8742C31.9679 18.0854 30.3252 18.7658 28.6124 18.7658C26.8995 18.7658 25.2568 18.0854 24.0456 16.8742C22.8345 15.663 22.154 14.0203 22.154 12.3075Z" fill="white"/>
</g>
</g>
<defs>
<filter id="filter0_d_2226_2208" x="6.52832" y="5.84912" width="44.1763" height="59.667" filterUnits="userSpaceOnUse" color-interpolation-filters="sRGB">
<feFlood flood-opacity="0" result="BackgroundImageFix"/>
<feColorMatrix in="SourceAlpha" type="matrix" values="0 0 0 0 0 0 0 0 0 0 0 0 0 0 0 0 0 0 127 0" result="hardAlpha"/>
<feOffset dy="4"/>
<feGaussianBlur stdDeviation="2"/>
<feComposite in2="hardAlpha" operator="out"/>
<feColorMatrix type="matrix" values="0 0 0 0 0 0 0 0 0 0 0 0 0 0 0 0 0 0 0.25 0"/>
<feBlend mode="normal" in2="BackgroundImageFix" result="effect1_dropShadow_2226_2208"/>
<feBlend mode="normal" in="SourceGraphic" in2="effect1_dropShadow_2226_2208" result="shape"/>
</filter>
<clipPath id="clip0_2226_2208">
<rect width="62" height="62" fill="white"/>
</clipPath>
</defs>
</svg>
