<svg width="51" height="57" viewBox="0 0 51 57" fill="none" xmlns="http://www.w3.org/2000/svg">
<g clip-path="url(#clip0_2226_2181)">
<g filter="url(#filter0_d_2226_2181)">
<path fill-rule="evenodd" clip-rule="evenodd" d="M20.9747 14.5827C19.2758 12.7697 16.9264 11.7058 14.4431 11.6249C11.9599 11.5441 9.54618 12.4529 7.73292 14.1515L4.68212 10.8953C7.3589 8.38742 10.9223 7.0456 14.5884 7.16498C18.2545 7.28437 21.723 8.85519 24.2309 11.5319L20.9747 14.5827ZM31.2607 16.189C30.1964 16.1538 29.1616 16.5429 28.3842 17.2707C27.9992 17.6311 27.689 18.0637 27.4713 18.544C27.2535 19.0242 27.1325 19.5426 27.1151 20.0696C27.0977 20.5967 27.1843 21.1219 27.3699 21.6155C27.5555 22.1091 27.8365 22.5612 28.1968 22.9462C28.9246 23.7236 29.9314 24.1801 30.9958 24.2153C32.0601 24.2499 33.0947 23.8604 33.8718 23.1322C34.649 22.4041 35.105 21.3971 35.1397 20.3327C35.1743 19.2684 34.7848 18.2338 34.0566 17.4567C33.3285 16.6796 32.3215 16.2235 31.2572 16.1888M22.6541 19.9262C22.6744 18.8028 22.9178 17.6947 23.3701 16.6662C23.8225 15.6378 24.4748 14.7095 25.2891 13.9354C26.1034 13.1613 27.0635 12.5567 28.1135 12.157C29.1635 11.7572 30.2825 11.5702 31.4055 11.6068C32.5284 11.6433 33.6329 11.9028 34.6547 12.37C35.6765 12.8372 36.5952 13.5029 37.3574 14.3284C38.1196 15.1538 38.7101 16.1226 39.0946 17.1783C39.4791 18.234 39.6499 19.3556 39.597 20.4779C39.5238 22.7249 38.5611 24.8508 36.9204 26.3879C35.2798 27.9251 33.0958 28.7475 30.8488 28.6743C28.6018 28.6012 26.4759 27.6384 24.9387 25.9978C23.4016 24.3571 22.5792 22.1731 22.6523 19.9261M46.0271 36.8054L44.8237 38.1214L46.0272 36.8036L46.0236 36.8035L46.0202 36.798L46.0133 36.7924L45.9925 36.7739C45.9046 36.6948 45.8142 36.6186 45.7214 36.5454C45.4763 36.3492 45.2239 36.1623 44.9647 35.9851C44.05 35.3596 43.0841 34.8127 42.0771 34.3502C39.5322 33.1603 35.7628 31.9591 30.7436 31.7956C28.8172 31.7329 27.0676 31.8348 25.4915 32.0406L25.3847 31.5354L25.0226 29.8238L4.38401 29.1517L4.97188 31.9348L7.63317 44.5203L7.99524 46.2319L28.6392 46.9042L28.6393 46.9006L46.3082 47.476L46.6376 37.3591L46.0271 36.8054ZM9.92507 33.796L11.6364 41.8866L23.0981 42.2599L21.3868 34.1692L9.92507 33.796ZM12.6128 19.3599C12.8266 19.1595 13.0778 19.0033 13.352 18.9C13.6262 18.7967 13.918 18.7485 14.2108 18.758C14.5037 18.7676 14.7918 18.8347 15.0587 18.9556C15.3256 19.0765 15.566 19.2488 15.7663 19.4626L19.0225 16.4118C18.4216 15.7703 17.7002 15.2534 16.8996 14.8907C16.0989 14.5281 15.2346 14.3267 14.3561 14.2981C13.4776 14.2695 12.602 14.4142 11.7794 14.724C10.9569 15.0338 10.2034 15.5027 9.56202 16.1037L12.6128 19.3599Z" fill="white"/>
</g>
</g>
<defs>
<filter id="filter0_d_2226_2181" x="0.383789" y="7.15771" width="50.2539" height="48.3184" filterUnits="userSpaceOnUse" color-interpolation-filters="sRGB">
<feFlood flood-opacity="0" result="BackgroundImageFix"/>
<feColorMatrix in="SourceAlpha" type="matrix" values="0 0 0 0 0 0 0 0 0 0 0 0 0 0 0 0 0 0 127 0" result="hardAlpha"/>
<feOffset dy="4"/>
<feGaussianBlur stdDeviation="2"/>
<feComposite in2="hardAlpha" operator="out"/>
<feColorMatrix type="matrix" values="0 0 0 0 0 0 0 0 0 0 0 0 0 0 0 0 0 0 0.25 0"/>
<feBlend mode="normal" in2="BackgroundImageFix" result="effect1_dropShadow_2226_2181"/>
<feBlend mode="normal" in="SourceGraphic" in2="effect1_dropShadow_2226_2181" result="shape"/>
</filter>
<clipPath id="clip0_2226_2181">
<rect width="42.8303" height="42.8303" fill="white" transform="translate(4.79297 6.39941) rotate(1.86517)"/>
</clipPath>
</defs>
</svg>
