<svg width="51" height="51" viewBox="0 0 51 51" fill="none" xmlns="http://www.w3.org/2000/svg">
<g filter="url(#filter0_d_2226_1929)">
<path d="M8.5 8.5C7.37283 8.5 6.29183 8.94777 5.4948 9.7448C4.69777 10.5418 4.25 11.6228 4.25 12.75V21.25C5.37717 21.25 6.45817 21.6978 7.2552 22.4948C8.05223 23.2918 8.5 24.3728 8.5 25.5C8.5 26.6272 8.05223 27.7082 7.2552 28.5052C6.45817 29.3022 5.37717 29.75 4.25 29.75V38.25C4.25 39.3772 4.69777 40.4582 5.4948 41.2552C6.29183 42.0522 7.37283 42.5 8.5 42.5H42.5C43.6272 42.5 44.7082 42.0522 45.5052 41.2552C46.3022 40.4582 46.75 39.3772 46.75 38.25V29.75C45.6228 29.75 44.5418 29.3022 43.7448 28.5052C42.9478 27.7082 42.5 26.6272 42.5 25.5C42.5 24.3728 42.9478 23.2918 43.7448 22.4948C44.5418 21.6978 45.6228 21.25 46.75 21.25V12.75C46.75 11.6228 46.3022 10.5418 45.5052 9.7448C44.7082 8.94777 43.6272 8.5 42.5 8.5H8.5ZM32.9375 14.875L36.125 18.0625L18.0625 36.125L14.875 32.9375L32.9375 14.875ZM18.7212 14.96C20.8037 14.96 22.4825 16.6388 22.4825 18.7213C22.4825 19.7188 22.0862 20.6755 21.3809 21.3809C20.6755 22.0862 19.7188 22.4825 18.7212 22.4825C16.6387 22.4825 14.96 20.8038 14.96 18.7213C14.96 17.7237 15.3563 16.767 16.0616 16.0616C16.767 15.3563 17.7237 14.96 18.7212 14.96ZM32.2787 28.5175C34.3612 28.5175 36.04 30.1962 36.04 32.2787C36.04 33.2763 35.6437 34.233 34.9384 34.9384C34.233 35.6437 33.2763 36.04 32.2787 36.04C30.1962 36.04 28.5175 34.3612 28.5175 32.2787C28.5175 31.2812 28.9138 30.3245 29.6191 29.6191C30.3245 28.9138 31.2812 28.5175 32.2787 28.5175Z" fill="white"/>
</g>
<defs>
<filter id="filter0_d_2226_1929" x="0.25" y="8.5" width="50.5" height="42" filterUnits="userSpaceOnUse" color-interpolation-filters="sRGB">
<feFlood flood-opacity="0" result="BackgroundImageFix"/>
<feColorMatrix in="SourceAlpha" type="matrix" values="0 0 0 0 0 0 0 0 0 0 0 0 0 0 0 0 0 0 127 0" result="hardAlpha"/>
<feOffset dy="4"/>
<feGaussianBlur stdDeviation="2"/>
<feComposite in2="hardAlpha" operator="out"/>
<feColorMatrix type="matrix" values="0 0 0 0 0 0 0 0 0 0 0 0 0 0 0 0 0 0 0.25 0"/>
<feBlend mode="normal" in2="BackgroundImageFix" result="effect1_dropShadow_2226_1929"/>
<feBlend mode="normal" in="SourceGraphic" in2="effect1_dropShadow_2226_1929" result="shape"/>
</filter>
</defs>
</svg>
