<svg width="69" height="69" viewBox="0 0 69 69" fill="none" xmlns="http://www.w3.org/2000/svg">
<g clip-path="url(#clip0_2226_1924)">
<g filter="url(#filter0_d_2226_1924)">
<path d="M56.1913 50.5347C56.2183 50.1006 56.2993 49.6664 56.2993 49.2323V50.6795L56.1913 50.5347ZM29.2998 49.2323C29.2998 51.2873 29.7048 53.2554 30.4338 55.021H15.8V57.9153C15.8 59.5072 14.5851 60.8097 13.1001 60.8097H10.4001C8.91517 60.8097 7.7002 59.5072 7.7002 57.9153V34.7605L13.3161 17.3944C13.8561 15.7156 15.3681 14.5 17.15 14.5H46.8495C48.6314 14.5 50.1434 15.7156 50.6834 17.3944L56.2993 34.7605V49.2323C56.2993 41.2438 50.2514 34.7605 42.7995 34.7605C35.3477 34.7605 29.2998 41.2438 29.2998 49.2323ZM21.1999 41.9964C21.1999 39.5941 19.391 37.6548 17.15 37.6548C14.9091 37.6548 13.1001 39.5941 13.1001 41.9964C13.1001 44.3987 14.9091 46.3379 17.15 46.3379C19.391 46.3379 21.1999 44.3987 21.1999 41.9964ZM50.8994 31.8661L46.8495 18.8415H17.15L13.1001 31.8661H50.8994ZM61.3482 64.254L50.2514 52.3582C51.3584 49.348 50.7374 45.8169 48.4154 43.3567C45.9855 40.7229 42.3405 40.2019 39.3976 41.6491L44.6355 47.2641L40.9906 51.2004L35.6177 45.5564C34.1597 48.7113 34.8347 52.6187 37.2106 55.2525C38.2829 56.4252 39.6516 57.2362 41.1482 57.5859C42.6449 57.9356 44.2042 57.8086 45.6345 57.2207L56.7313 69.0876C57.2173 69.6375 57.9463 69.6375 58.4322 69.0876L61.2402 66.1064C61.8342 65.5854 61.8342 64.6592 61.3482 64.254Z" fill="white"/>
</g>
</g>
<defs>
<filter id="filter0_d_2226_1924" x="3.7002" y="14.5" width="62" height="63" filterUnits="userSpaceOnUse" color-interpolation-filters="sRGB">
<feFlood flood-opacity="0" result="BackgroundImageFix"/>
<feColorMatrix in="SourceAlpha" type="matrix" values="0 0 0 0 0 0 0 0 0 0 0 0 0 0 0 0 0 0 127 0" result="hardAlpha"/>
<feOffset dy="4"/>
<feGaussianBlur stdDeviation="2"/>
<feComposite in2="hardAlpha" operator="out"/>
<feColorMatrix type="matrix" values="0 0 0 0 0 0 0 0 0 0 0 0 0 0 0 0 0 0 0.25 0"/>
<feBlend mode="normal" in2="BackgroundImageFix" result="effect1_dropShadow_2226_1924"/>
<feBlend mode="normal" in="SourceGraphic" in2="effect1_dropShadow_2226_1924" result="shape"/>
</filter>
<clipPath id="clip0_2226_1924">
<rect width="69" height="69" fill="white"/>
</clipPath>
</defs>
</svg>
