<svg width="52" height="52" viewBox="0 0 52 52" fill="none" xmlns="http://www.w3.org/2000/svg">
<g clip-path="url(#clip0_2226_1908)">
<g filter="url(#filter0_d_2226_1908)">
<path d="M37.1898 3.26625C40.3091 3.42749 43.2474 4.78015 45.3982 7.04502C47.549 9.30989 48.7482 12.3141 48.7482 15.4375C48.7482 18.5609 47.549 21.5651 45.3982 23.83C43.2474 26.0948 40.3091 27.4475 37.1898 27.6087L36.5626 27.625C35.8563 27.6228 35.1684 27.5611 34.4988 27.4397L32.6951 29.25L35.7534 32.305L39.0034 29.055L46.8196 36.8745L47.3039 37.4075C48.3981 38.7588 48.9533 40.4674 48.8623 42.2038C48.7713 43.9402 48.0406 45.5814 46.811 46.8109C45.5815 48.0405 43.9403 48.7712 42.2039 48.8622C40.4675 48.9532 38.7589 48.398 37.4076 47.3037L36.8746 46.8195L29.0518 39L32.3019 35.75L29.2468 32.695L15.1288 46.8162C13.8982 48.0475 12.2545 48.7786 10.516 48.8681C8.77738 48.9575 7.06741 48.399 5.71685 47.3005L5.18385 46.8162C3.86526 45.4973 3.12451 43.7087 3.12451 41.8437C3.12451 39.9788 3.86526 38.1901 5.18385 36.8713L19.2986 22.7467L11.3751 14.8232L9.3731 16.8252L7.7221 14.352L4.4721 9.477L3.3671 7.813L7.8131 3.36375L9.4771 4.472L14.3521 7.722L16.8221 9.373L14.8233 11.375L22.7468 19.2985L24.5571 17.4915C24.2582 15.7432 24.3445 13.9507 24.8099 12.2392C25.2754 10.5277 26.1088 8.93836 27.252 7.58225C28.3952 6.22613 29.8206 5.13588 31.4287 4.38762C33.0369 3.63936 34.7889 3.25112 36.5626 3.25L37.1898 3.26625ZM36.5626 8.125C35.4208 8.12508 34.2949 8.39253 33.2751 8.90592C32.2553 9.41931 31.3698 10.1644 30.6896 11.0815C30.0095 11.9985 29.5535 13.0622 29.3583 14.1871C29.1631 15.3121 29.234 16.4671 29.5653 17.5597L29.9879 18.9572L28.9544 19.9875L8.62885 40.3162C8.22478 40.7219 7.99791 41.2712 7.99791 41.8437C7.99791 42.4163 8.22478 42.9656 8.62885 43.3712L8.9701 43.6475C9.80535 44.2 10.9461 44.109 11.6838 43.3712L32.0093 23.0425L33.0396 22.009L34.4371 22.4315C35.1174 22.6395 35.8259 22.7457 36.5626 22.75L37.3101 22.711C38.4748 22.5899 39.5934 22.1909 40.5719 21.5475C41.5503 20.9041 42.3599 20.0352 42.9325 19.0137C43.5052 17.9923 43.8242 16.8483 43.8626 15.6779C43.9011 14.5076 43.6579 13.3451 43.1536 12.2882L38.2851 17.1632C37.8252 17.607 37.2093 17.8524 36.5702 17.8466C35.9311 17.8407 35.3199 17.5841 34.8682 17.132C34.4164 16.6798 34.1604 16.0683 34.1551 15.4292C34.1499 14.7901 34.3959 14.1745 34.8401 13.715L39.7086 8.84C38.9548 8.47601 38.143 8.2472 37.3101 8.164L36.5626 8.125ZM35.9451 39L40.3163 43.3712L40.6576 43.6475C41.0725 43.9216 41.5694 44.0439 42.0642 43.9938C42.5589 43.9438 43.0212 43.7244 43.3728 43.3727C43.7245 43.0211 43.9439 42.5588 43.9939 42.0641C44.044 41.5693 43.9217 41.0724 43.6476 40.6575L43.3714 40.3162L39.0001 35.945L35.9451 39Z" fill="white"/>
</g>
</g>
<defs>
<filter id="filter0_d_2226_1908" x="-0.875488" y="3.25" width="53.7476" height="53.6274" filterUnits="userSpaceOnUse" color-interpolation-filters="sRGB">
<feFlood flood-opacity="0" result="BackgroundImageFix"/>
<feColorMatrix in="SourceAlpha" type="matrix" values="0 0 0 0 0 0 0 0 0 0 0 0 0 0 0 0 0 0 127 0" result="hardAlpha"/>
<feOffset dy="4"/>
<feGaussianBlur stdDeviation="2"/>
<feComposite in2="hardAlpha" operator="out"/>
<feColorMatrix type="matrix" values="0 0 0 0 0 0 0 0 0 0 0 0 0 0 0 0 0 0 0.25 0"/>
<feBlend mode="normal" in2="BackgroundImageFix" result="effect1_dropShadow_2226_1908"/>
<feBlend mode="normal" in="SourceGraphic" in2="effect1_dropShadow_2226_1908" result="shape"/>
</filter>
<clipPath id="clip0_2226_1908">
<rect width="52" height="52" fill="white"/>
</clipPath>
</defs>
</svg>
