<svg width="57" height="57" viewBox="0 0 57 57" fill="none" xmlns="http://www.w3.org/2000/svg">
<g clip-path="url(#clip0_2226_1954)">
<g filter="url(#filter0_d_2226_1954)">
<path fill-rule="evenodd" clip-rule="evenodd" d="M21.375 3.5625C19.7215 3.5625 18.1358 4.21933 16.9666 5.38851C15.7975 6.55768 15.1406 8.14342 15.1406 9.79688V14.25H10.6875C8.79783 14.25 6.98556 15.0007 5.64936 16.3369C4.31317 17.6731 3.5625 19.4853 3.5625 21.375V46.3125C3.5625 48.2022 4.31317 50.0144 5.64936 51.3506C6.98556 52.6868 8.79783 53.4375 10.6875 53.4375H46.3125C48.2022 53.4375 50.0144 52.6868 51.3506 51.3506C52.6868 50.0144 53.4375 48.2022 53.4375 46.3125V21.375C53.4375 19.4853 52.6868 17.6731 51.3506 16.3369C50.0144 15.0007 48.2022 14.25 46.3125 14.25H41.8594V9.79688C41.8594 8.14342 41.2025 6.55768 40.0334 5.38851C38.8642 4.21933 37.2785 3.5625 35.625 3.5625H21.375ZM36.5156 14.25V9.79688C36.5156 9.56067 36.4218 9.33413 36.2548 9.16711C36.0877 9.00008 35.8612 8.90625 35.625 8.90625H21.375C21.1388 8.90625 20.9123 9.00008 20.7452 9.16711C20.5782 9.33413 20.4844 9.56067 20.4844 9.79688V14.25H36.5156ZM10.6875 19.5938H46.3125C46.7849 19.5938 47.238 19.7814 47.572 20.1155C47.9061 20.4495 48.0938 20.9026 48.0938 21.375V24.9375H8.90625V21.375C8.90625 20.9026 9.09392 20.4495 9.42797 20.1155C9.76202 19.7814 10.2151 19.5938 10.6875 19.5938ZM8.90625 30.2812V46.3125C8.90625 46.7849 9.09392 47.238 9.42797 47.572C9.76202 47.9061 10.2151 48.0938 10.6875 48.0938H46.3125C46.7849 48.0938 47.238 47.9061 47.572 47.572C47.9061 47.238 48.0938 46.7849 48.0938 46.3125V30.2812H32.0625V35.625H24.9375V30.2812H8.90625Z" fill="white"/>
</g>
</g>
<defs>
<filter id="filter0_d_2226_1954" x="-0.4375" y="3.5625" width="57.875" height="57.875" filterUnits="userSpaceOnUse" color-interpolation-filters="sRGB">
<feFlood flood-opacity="0" result="BackgroundImageFix"/>
<feColorMatrix in="SourceAlpha" type="matrix" values="0 0 0 0 0 0 0 0 0 0 0 0 0 0 0 0 0 0 127 0" result="hardAlpha"/>
<feOffset dy="4"/>
<feGaussianBlur stdDeviation="2"/>
<feComposite in2="hardAlpha" operator="out"/>
<feColorMatrix type="matrix" values="0 0 0 0 0 0 0 0 0 0 0 0 0 0 0 0 0 0 0.25 0"/>
<feBlend mode="normal" in2="BackgroundImageFix" result="effect1_dropShadow_2226_1954"/>
<feBlend mode="normal" in="SourceGraphic" in2="effect1_dropShadow_2226_1954" result="shape"/>
</filter>
<clipPath id="clip0_2226_1954">
<rect width="57" height="57" fill="white"/>
</clipPath>
</defs>
</svg>
